<?xml version="1.0" encoding="UTF-8"?>
<svg version="1.1" xmlns="http://www.w3.org/2000/svg" width="128" height="128">
<path d="M0 0 C7.16514755 3.80205127 13.81721521 7.20941282 22.15869141 4.92480469 C24.33997717 2.94700456 24.33997717 2.94700456 26.15869141 0.92480469 C28.28369141 0.86230469 28.28369141 0.86230469 30.15869141 1.92480469 C32.6981841 6.11496763 32.45998448 10.1794388 32.15869141 14.92480469 C31.83255859 15.56417969 31.50642578 16.20355469 31.17041016 16.86230469 C29.29952403 20.67631193 29.47696927 24.79437055 30.15869141 28.92480469 C32.40926708 32.01279143 32.40926708 32.01279143 35.15869141 33.92480469 C37.08739585 35.85350913 36.3459408 39.44327153 36.36181641 42.07324219 C36.36751648 42.80040436 36.37321655 43.52756653 36.37908936 44.27676392 C36.38856244 45.82528218 36.39508245 47.37382081 36.39892578 48.92236328 C36.40850978 51.25558819 36.43945648 53.58788522 36.47119141 55.92089844 C36.55664038 67.61243438 34.89561234 77.46478652 29.53369141 87.98730469 C29.18669189 88.66921875 28.83969238 89.35113281 28.48217773 90.05371094 C20.75441546 104.63582747 7.48872461 114.2882351 -7.84130859 119.92480469 C-22.01163011 124.11588079 -39.2739373 123.87643654 -52.84130859 117.92480469 C-53.70369141 117.57417969 -54.56607422 117.22355469 -55.45458984 116.86230469 C-71.45213717 109.69699578 -82.84594884 95.89334884 -89.16552734 79.83178711 C-92.36159555 70.81282441 -92.07677822 61.80328907 -91.96630859 52.36230469 C-91.95625782 50.86165962 -91.94713568 49.36100804 -91.93896484 47.86035156 C-91.9171195 44.21503187 -91.88270549 40.56996092 -91.84130859 36.92480469 C-90.86581055 36.50835693 -90.86581055 36.50835693 -89.87060547 36.08349609 C-88.86610352 35.50994385 -88.86610352 35.50994385 -87.84130859 34.92480469 C-87.28353731 32.3102464 -87.28353731 32.3102464 -87.34130859 29.29980469 C-86.90072495 21.45366614 -84.9381446 16.66018569 -79.27880859 11.17480469 C-75.45232902 8.05043145 -71.70586374 6.58198871 -67.03662109 5.09277344 C-62.39727647 3.39697388 -58.10169731 1.0923872 -53.76318359 -1.25854492 C-37.61746776 -9.72564919 -15.74011322 -8.38027401 0 0 Z " fill="#F2C7AC" transform="translate(91.84130859375,6.0751953125)"/>
<path d="M0 0 C2.125 -0.0625 2.125 -0.0625 4 1 C6.53949269 5.19016294 6.30129307 9.25463411 6 14 C5.67386719 14.639375 5.34773438 15.27875 5.01171875 15.9375 C3.14083262 19.75150724 3.31827786 23.86956586 4 28 C6.25057567 31.08798674 6.25057567 31.08798674 9 33 C10.92870444 34.92870444 10.1872494 38.51846685 10.203125 41.1484375 C10.20882507 41.87559967 10.21452515 42.60276184 10.22039795 43.35195923 C10.22987103 44.90047749 10.23639104 46.44901612 10.24023438 47.99755859 C10.24981838 50.3307835 10.28076507 52.66308053 10.3125 54.99609375 C10.38753559 65.51715548 9.0002402 74.1905076 5 84 C4.67 84 4.34 84 4 84 C3.97421875 83.07058594 3.9484375 82.14117187 3.921875 81.18359375 C3.56660273 71.35785773 3.56660273 71.35785773 -1 63 C-4.72693165 60.08327089 -8.7347457 58.03107348 -13 56 C-13.103125 56.9075 -13.20625 57.815 -13.3125 58.75 C-14 62 -14 62 -15.5 63.875 C-17.71507333 67.01302055 -17.98474671 70.24768986 -18 74 C-17.25534391 77.96407256 -15.92177966 81.73225764 -14.65039062 85.55273438 C-12.84560647 91.35066494 -12.84560647 91.35066494 -13.68359375 94.875 C-15.42071673 97.67913917 -17.58229615 99.77316751 -20 102 C-25.75523397 96.81194851 -25.75523397 96.81194851 -26.28125 92.91796875 C-25.85626435 88.70605735 -24.64786895 84.79239727 -23.4375 80.75 C-21.60907183 74.49251524 -21.72233697 68.46852017 -22 62 C-23.32 61.67 -24.64 61.34 -26 61 C-26.33 59.35 -26.66 57.7 -27 56 C-29.31 55.67 -31.62 55.34 -34 55 C-34 52.36 -34 49.72 -34 47 C-34.96703857 46.93522461 -34.96703857 46.93522461 -35.95361328 46.86914062 C-43.39871911 46.29103446 -50.57166969 45.02880718 -57.875 43.5 C-59.52628906 43.16162109 -59.52628906 43.16162109 -61.2109375 42.81640625 C-63.24518528 42.39918796 -65.2789455 41.97957901 -67.31201172 41.55664062 C-69.87235492 41.02643331 -72.43610927 40.51277815 -75 40 C-75 44.95 -75 49.9 -75 55 C-76.32 55 -77.64 55 -79 55 C-79.79851899 37.96492822 -79.79851899 37.96492822 -75 32 C-71.24705373 28.0105667 -67.03613229 25.27625507 -61.50463867 24.77294922 C-60.6510376 24.78342285 -59.79743652 24.79389648 -58.91796875 24.8046875 C-57.98662109 24.81113281 -57.05527344 24.81757813 -56.09570312 24.82421875 C-55.13599609 24.84097656 -54.17628906 24.85773437 -53.1875 24.875 C-52.20845703 24.88402344 -51.22941406 24.89304687 -50.22070312 24.90234375 C-47.81354939 24.92582818 -45.40690257 24.9586716 -43 25 C-42.90203125 24.19175781 -42.8040625 23.38351563 -42.703125 22.55078125 C-41.16946053 11.59036879 -41.16946053 11.59036879 -37 8 C-32.70708925 5.49981306 -29.6005601 4.63224877 -24.6484375 4.62890625 C-23.46765625 4.61150391 -22.286875 4.59410156 -21.0703125 4.57617188 C-18.59896976 4.56702843 -16.12760931 4.56184486 -13.65625 4.56054688 C-12.47804688 4.54185547 -11.29984375 4.52316406 -10.0859375 4.50390625 C-9.0139209 4.50205322 -7.9419043 4.5002002 -6.83740234 4.49829102 C-3.35256025 3.88629973 -2.30292679 2.59199576 0 0 Z " fill="#CDA087" transform="translate(118,7)"/>
<path d="M0 0 C0.76782227 2.19311523 0.76782227 2.19311523 1.31640625 5.05859375 C1.52330078 6.08404297 1.73019531 7.10949219 1.94335938 8.16601562 C2.14767578 9.24560547 2.35199219 10.32519531 2.5625 11.4375 C2.973751 13.56250902 3.39141269 15.68629048 3.81640625 17.80859375 C4.08626343 19.22869751 4.08626343 19.22869751 4.36157227 20.67749023 C4.84108494 23.17068064 4.84108494 23.17068064 7 25 C9.5 25.33333333 9.5 25.33333333 12 25 C14.42130331 22.57869669 14.52840504 21.19888623 15.125 17.875 C15.29257812 16.96492188 15.46015625 16.05484375 15.6328125 15.1171875 C15.75398438 14.41851562 15.87515625 13.71984375 16 13 C17.98 12.67 19.96 12.34 22 12 C22.37511719 12.61488281 22.75023437 13.22976562 23.13671875 13.86328125 C26.16380668 18.94683145 26.16380668 18.94683145 30.75 22.4375 C33 24 33 24 33.54736328 25.94897461 C33.74434814 27.16339233 33.74434814 27.16339233 33.9453125 28.40234375 C34.97380276 34.09832277 36.49593673 39.57527251 38.125 45.125 C38.40214844 46.08148438 38.67929687 47.03796875 38.96484375 48.0234375 C39.63956221 50.35005287 40.3179883 52.67551422 41 55 C42.79488913 49.0052122 43.87614145 44.09745971 42 38 C43.98 37.505 43.98 37.505 46 37 C46.66 38.32 47.32 39.64 48 41 C47.67 41.33 47.34 41.66 47 42 C47.06399526 43.64933228 47.20073916 45.29615131 47.375 46.9375 C47.46523437 47.83339844 47.55546875 48.72929688 47.6484375 49.65234375 C47.87825815 52.01469808 47.87825815 52.01469808 49 54 C49.17128418 53.42032471 49.34256836 52.84064941 49.51904297 52.2434082 C50.30191336 49.59904012 51.08842212 46.95576753 51.875 44.3125 C52.14441406 43.40048828 52.41382812 42.48847656 52.69140625 41.54882812 C52.95566406 40.66259766 53.21992187 39.77636719 53.4921875 38.86328125 C53.85352783 37.64572144 53.85352783 37.64572144 54.22216797 36.40356445 C55.03771903 33.88344513 55.99028772 31.448076 57 29 C58.98 29.66 60.96 30.32 63 31 C63 31.66 63 32.32 63 33 C63.5775 33.20625 64.155 33.4125 64.75 33.625 C68.66850794 36.01964374 70.57583774 39.72751322 72 44 C72.0685495 45.89470816 72.08480372 47.7916834 72.0625 49.6875 C72.05347656 50.68136719 72.04445313 51.67523438 72.03515625 52.69921875 C72.02355469 53.45847656 72.01195313 54.21773437 72 55 C70.27255984 55.65043719 68.5429631 56.29514844 66.8125 56.9375 C65.84957031 57.29714844 64.88664062 57.65679687 63.89453125 58.02734375 C50.42547786 62.55338193 32.94235178 61.67745302 20 56 C19.13761719 55.649375 18.27523437 55.29875 17.38671875 54.9375 C4.6996761 49.25496768 -7.70655082 38.01641454 -13 25 C-13.36257713 22.26240211 -13.57154617 19.85500392 -13.5625 17.125 C-13.5615332 16.41972168 -13.56056641 15.71444336 -13.55957031 14.98779297 C-13.37865425 9.62598609 -12.23124035 6.35639696 -8.703125 2.3828125 C-5.50054444 -0.21744786 -4.05261009 -1.35087003 0 0 Z " fill="#67B9EA" transform="translate(19,68)"/>
<path d="M0 0 C0 0.33 0 0.66 0 1 C-1.00160156 1.02578125 -2.00320312 1.0515625 -3.03515625 1.078125 C-13.2354316 1.30232837 -13.2354316 1.30232837 -22 6 C-24.61639419 9.66295187 -25.17707925 12.82817423 -25.5703125 17.2109375 C-25.65297363 18.1086084 -25.73563477 19.0062793 -25.82080078 19.93115234 C-25.87993652 20.61387207 -25.93907227 21.2965918 -26 22 C-26.62455078 21.97905273 -27.24910156 21.95810547 -27.89257812 21.93652344 C-30.7615506 21.85264156 -33.63026408 21.80111489 -36.5 21.75 C-37.48226562 21.71648438 -38.46453125 21.68296875 -39.4765625 21.6484375 C-45.89782354 21.56282069 -50.64565737 22.31167906 -56 26 C-56.66 26.66 -57.32 27.32 -58 28 C-62.57200528 27.92379991 -65.72869577 27.59699124 -69.375 24.75 C-71.86005982 22.146604 -73.02297802 20.41957694 -74 17 C-74.886875 17.78375 -75.77375 18.5675 -76.6875 19.375 C-81.2406191 23.13905396 -85.0237899 24.50861363 -91 24 C-93.375 23 -93.375 23 -95 22 C-95 24.64 -95 27.28 -95 30 C-95.66 30 -96.32 30 -97 30 C-97.53092456 21.15125734 -97.28812241 14.9136838 -91.33984375 8.09765625 C-87.03753912 3.91903184 -82.85298142 1.97243419 -77.1953125 0.16796875 C-72.55596788 -1.52783081 -68.26038872 -3.83241749 -63.921875 -6.18334961 C-42.76197616 -17.27998178 -19.64205649 -10.3755405 0 0 Z " fill="#FEE051" transform="translate(102,11)"/>
<path d="M0 0 C2 1 2 1 3.375 3.875 C5.80153833 8.54141986 7.76292404 9.60825928 12.75 11.1875 C13.8225 11.455625 14.895 11.72375 16 12 C15.27683594 13.64742187 15.27683594 13.64742187 14.5390625 15.328125 C12.62261599 20.44015036 12.48156943 25.33779548 12.375 30.75 C12.32385036 32.59905959 12.26929419 34.44802884 12.2109375 36.296875 C12.18459229 37.50875488 12.18459229 37.50875488 12.15771484 38.74511719 C12.00186801 40.97329268 11.73052593 42.88829616 11 45 C10.01 45.495 10.01 45.495 9 46 C8.67 46.99 8.34 47.98 8 49 C8.99 49.33 9.98 49.66 11 50 C11 51.32 11 52.64 11 54 C10.01 54 9.02 54 8 54 C7.94392578 55.03060547 7.94392578 55.03060547 7.88671875 56.08203125 C7.82097656 56.98308594 7.75523438 57.88414063 7.6875 58.8125 C7.60048828 60.15248047 7.60048828 60.15248047 7.51171875 61.51953125 C6.9296563 64.34097902 6.2887344 65.29868896 4 67 C1.5 67.375 1.5 67.375 -1 67 C-4.07055379 64.67069671 -4.63100985 62.3726275 -5.38671875 58.67578125 C-5.60263672 57.64775391 -5.81855469 56.61972656 -6.04101562 55.56054688 C-6.36102539 53.95276367 -6.36102539 53.95276367 -6.6875 52.3125 C-6.91244141 51.22904297 -7.13738281 50.14558594 -7.36914062 49.02929688 C-7.92289644 46.35477409 -8.46606687 43.67853815 -9 41 C-13.56725814 42.33922369 -16.30221171 43.4797269 -19.03125 47.58203125 C-21.10471759 52.75733948 -20.91591647 58.48870678 -21 64 C-23.16893235 61.83106765 -23.64016802 60.56073312 -24.5625 57.6875 C-24.81128906 56.92824219 -25.06007813 56.16898438 -25.31640625 55.38671875 C-26.76186334 50.34000858 -27.11861735 45.77295496 -27.09765625 40.51171875 C-27.0962413 39.80852005 -27.09482635 39.10532135 -27.09336853 38.3808136 C-27.08780109 36.14966456 -27.07525475 33.91861836 -27.0625 31.6875 C-27.05748079 30.16862125 -27.05291862 28.64974091 -27.04882812 27.13085938 C-27.03784236 23.42053988 -27.02060034 19.71027999 -27 16 C-26.360625 15.71125 -25.72125 15.4225 -25.0625 15.125 C-22.84793921 14.17176549 -22.84793921 14.17176549 -22 12 C-22 12.66 -22 13.32 -22 14 C-21.34 14 -20.68 14 -20 14 C-20 11.36 -20 8.72 -20 6 C-19.3709375 6.11859375 -18.741875 6.2371875 -18.09375 6.359375 C-12.34826166 7.22465939 -8.70839906 7.01198965 -3.59375 4.203125 C-1.70500274 2.91486008 -1.70500274 2.91486008 0 0 Z " fill="#F3C7AA" transform="translate(27,27)"/>
<path d="M0 0 C2.125 -0.0625 2.125 -0.0625 4 1 C6.53949269 5.19016294 6.30129307 9.25463411 6 14 C5.68804687 14.59167969 5.37609375 15.18335938 5.0546875 15.79296875 C3.58119972 18.87637835 3.31302095 21.87098125 2.875 25.25 C2.70742187 26.51328125 2.53984375 27.7765625 2.3671875 29.078125 C2.18542969 30.52445313 2.18542969 30.52445313 2 32 C0.35 32.33 -1.3 32.66 -3 33 C-3.33 29.7 -3.66 26.4 -4 23 C-6.47395833 23.09765625 -8.94791667 23.1953125 -11.421875 23.29296875 C-14 23 -14 23 -15.78125 21.5 C-19.24154048 19.16064869 -22.67968129 19.68087278 -26.75 19.8125 C-27.54277344 19.82603516 -28.33554688 19.83957031 -29.15234375 19.85351562 C-31.10185564 19.88874777 -33.05101626 19.94255179 -35 20 C-35.5973428 26.77607186 -35.5973428 26.77607186 -33.125 32.875 C-32.42375 33.57625 -31.7225 34.2775 -31 35 C-28.37081619 38.77945172 -28.77359006 42.83476723 -28.875 47.25 C-28.88402344 47.99507812 -28.89304688 48.74015625 -28.90234375 49.5078125 C-28.92581642 51.33868059 -28.96168475 53.16938238 -29 55 C-30.65 55 -32.3 55 -34 55 C-34 52.36 -34 49.72 -34 47 C-34.96703857 46.93522461 -34.96703857 46.93522461 -35.95361328 46.86914062 C-43.39871911 46.29103446 -50.57166969 45.02880718 -57.875 43.5 C-59.52628906 43.16162109 -59.52628906 43.16162109 -61.2109375 42.81640625 C-63.24518528 42.39918796 -65.2789455 41.97957901 -67.31201172 41.55664062 C-69.87235492 41.02643331 -72.43610927 40.51277815 -75 40 C-75 44.95 -75 49.9 -75 55 C-76.32 55 -77.64 55 -79 55 C-79.79851899 37.96492822 -79.79851899 37.96492822 -75 32 C-71.24705373 28.0105667 -67.03613229 25.27625507 -61.50463867 24.77294922 C-60.6510376 24.78342285 -59.79743652 24.79389648 -58.91796875 24.8046875 C-57.98662109 24.81113281 -57.05527344 24.81757813 -56.09570312 24.82421875 C-55.13599609 24.84097656 -54.17628906 24.85773437 -53.1875 24.875 C-52.20845703 24.88402344 -51.22941406 24.89304687 -50.22070312 24.90234375 C-47.81354939 24.92582818 -45.40690257 24.9586716 -43 25 C-42.90203125 24.19175781 -42.8040625 23.38351563 -42.703125 22.55078125 C-41.16946053 11.59036879 -41.16946053 11.59036879 -37 8 C-32.70708925 5.49981306 -29.6005601 4.63224877 -24.6484375 4.62890625 C-23.46765625 4.61150391 -22.286875 4.59410156 -21.0703125 4.57617188 C-18.59896976 4.56702843 -16.12760931 4.56184486 -13.65625 4.56054688 C-12.47804688 4.54185547 -11.29984375 4.52316406 -10.0859375 4.50390625 C-9.0139209 4.50205322 -7.9419043 4.5002002 -6.83740234 4.49829102 C-3.35256025 3.88629973 -2.30292679 2.59199576 0 0 Z " fill="#3E4259" transform="translate(118,7)"/>
<path d="M0 0 C6.51189012 1.62797253 12.11359129 4.98866867 15.703125 10.71875 C18.37876906 17.48845185 18.41900318 26.07565055 15.93359375 32.94921875 C14.462404 35.50275518 12.86502754 37.71963443 11 40 C10.40832031 40.76699219 9.81664062 41.53398438 9.20703125 42.32421875 C3.00793649 49.85260393 -4.5446759 56.24104179 -14 59 C-14.08636719 58.14277344 -14.17273438 57.28554687 -14.26171875 56.40234375 C-15.14863545 49.18495742 -16.06426169 44.42931214 -21 39 C-21.66 38.67 -22.32 38.34 -23 38 C-23 37.34 -23 36.68 -23 36 C-24.98 35.67 -26.96 35.34 -29 35 C-29.24234375 35.87140625 -29.4846875 36.7428125 -29.734375 37.640625 C-31.94811231 45.50790681 -34.33877905 53.27113491 -37 61 C-38.73361505 57.95560284 -39.33843625 55.48121884 -39.625 52 C-39.69976562 51.154375 -39.77453125 50.30875 -39.8515625 49.4375 C-39.98203128 47.29506522 -40 45.14640371 -40 43 C-39.195625 42.21625 -38.39125 41.4325 -37.5625 40.625 C-34.5901621 37.58016606 -34.63207129 36.06331542 -34 32 C-32.22265625 30.99609375 -32.22265625 30.99609375 -30 30 C-25.92128706 27.35520957 -22.61560423 25.04652719 -20.125 20.8125 C-16.9694332 16.63601453 -12.96648158 16.08049408 -8 15 C-8.53840818 20.70712669 -9.71908588 25.89898728 -11.37890625 31.38671875 C-12.20327051 34.85527025 -12.81983007 37.65020835 -10.90625 40.80078125 C-10.4421875 41.29964844 -9.978125 41.79851562 -9.5 42.3125 C-8.675 43.199375 -7.85 44.08625 -7 45 C-4.3218111 42.97106902 -2.45746944 41.04924494 -1 38 C-1.37378206 32.1587391 -3.41073884 26.76778348 -5.25 21.25 C-6.23912439 16.9637943 -6.13765447 13.25418677 -5 9 C-3 6.1875 -3 6.1875 -1 4 C-0.22166466 1.81785432 -0.22166466 1.81785432 0 0 Z " fill="#DCE6E9" transform="translate(105,63)"/>
<path d="M0 0 C2.4272189 2.4272189 2.79183038 4.15644023 3.7265625 7.4453125 C4.190625 9.05986328 4.190625 9.05986328 4.6640625 10.70703125 C4.98117188 11.83496094 5.29828125 12.96289062 5.625 14.125 C6.11226562 15.82849609 6.11226562 15.82849609 6.609375 17.56640625 C7.41211353 20.3759911 8.20871428 23.18717219 9 26 C10.79488913 20.0052122 11.87614145 15.09745971 10 9 C11.32 8.67 12.64 8.34 14 8 C14.66 9.32 15.32 10.64 16 12 C15.67 12.33 15.34 12.66 15 13 C15.06399526 14.64933228 15.20073916 16.29615131 15.375 17.9375 C15.46523437 18.83339844 15.55546875 19.72929688 15.6484375 20.65234375 C15.87825815 23.01469808 15.87825815 23.01469808 17 25 C17.17128418 24.42032471 17.34256836 23.84064941 17.51904297 23.2434082 C18.30191336 20.59904012 19.08842212 17.95576753 19.875 15.3125 C20.14441406 14.40048828 20.41382813 13.48847656 20.69140625 12.54882812 C20.95566406 11.66259766 21.21992187 10.77636719 21.4921875 9.86328125 C21.73308105 9.05157471 21.97397461 8.23986816 22.22216797 7.40356445 C23.03771903 4.88344513 23.99028772 2.448076 25 0 C26.98 0.66 28.96 1.32 31 2 C31 2.66 31 3.32 31 4 C31.5775 4.20625 32.155 4.4125 32.75 4.625 C36.66850794 7.01964374 38.57583774 10.72751322 40 15 C40.0685495 16.89470816 40.08480372 18.7916834 40.0625 20.6875 C40.05347656 21.68136719 40.04445312 22.67523438 40.03515625 23.69921875 C40.02355469 24.45847656 40.01195312 25.21773437 40 26 C38.27255984 26.65043719 36.5429631 27.29514844 34.8125 27.9375 C33.84957031 28.29714844 32.88664062 28.65679687 31.89453125 29.02734375 C18.42450852 33.55370766 0.95692922 32.65021957 -12 27 C-12.66 26.67 -13.32 26.34 -14 26 C-14.48019688 18.74369165 -14.28626358 13.07817979 -10 7 C-8.48828125 5.28125 -8.48828125 5.28125 -7 4 C-6.34 4 -5.68 4 -5 4 C-5 3.34 -5 2.68 -5 2 C-3.35 1.34 -1.7 0.68 0 0 Z " fill="#2D3453" transform="translate(51,97)"/>
<path d="M0 0 C4.81486183 3.11016499 8.83599201 7.009741 11.07421875 12.33984375 C11.57421875 15.83984375 11.57421875 15.83984375 11.07421875 19.33984375 C8.13671875 21.71484375 8.13671875 21.71484375 5.07421875 23.33984375 C4.57921875 23.83484375 4.57921875 23.83484375 4.07421875 24.33984375 C-2.40193863 24.12031299 -5.43482684 23.04465314 -9.92578125 18.33984375 C-11.30078125 15.52734375 -11.30078125 15.52734375 -11.92578125 13.33984375 C-12.81265625 14.12359375 -13.69953125 14.90734375 -14.61328125 15.71484375 C-19.16640035 19.47889771 -22.94957115 20.84845738 -28.92578125 20.33984375 C-31.30078125 19.33984375 -31.30078125 19.33984375 -32.92578125 18.33984375 C-32.92578125 20.97984375 -32.92578125 23.61984375 -32.92578125 26.33984375 C-33.58578125 26.33984375 -34.24578125 26.33984375 -34.92578125 26.33984375 C-35.37471453 18.85762247 -35.66346673 12.47640016 -30.92578125 6.33984375 C-22.23567189 -2.82196257 -11.7342988 -5.91981681 0 0 Z " fill="#CC7B3B" transform="translate(39.92578125,14.66015625)"/>
<path d="M0 0 C2.31 0.33 4.62 0.66 7 1 C6.67644531 1.76570313 6.35289063 2.53140625 6.01953125 3.3203125 C4.66053515 8.22519498 4.67054844 12.80987371 4.6875 17.875 C4.67138672 18.83019531 4.65527344 19.78539063 4.63867188 20.76953125 C4.63345303 28.37860361 5.84037252 33.88053809 10.25 40.25 C15.70244031 45.70244031 20.35963048 47.46383372 28 48 C28.31944345 51.51387796 28.43883512 53.37550387 26.375 56.3125 C23.56041967 58.31233339 21.40680413 58.69029053 18 59 C18.33515625 59.556875 18.6703125 60.11375 19.015625 60.6875 C20.18312868 63.43020707 20.09088508 65.05762354 19.75 68 C19.66234375 68.845625 19.5746875 69.69125 19.484375 70.5625 C18.99747499 73.01270651 18.22317883 74.8343719 17 77 C14.89708089 71.52994356 12.99399254 66.05094187 11.3125 60.4375 C11.08755859 59.72142578 10.86261719 59.00535156 10.63085938 58.26757812 C9.25664073 53.67710307 8.76709005 49.79039109 9 45 C8.29875 44.835 7.5975 44.67 6.875 44.5 C2.73294405 42.33892733 0.4002216 38.95912841 -2 35 C-2 34.34 -2 33.68 -2 33 C-3.485 33.495 -3.485 33.495 -5 34 C-5.12375 33.360625 -5.2475 32.72125 -5.375 32.0625 C-5.58125 31.381875 -5.7875 30.70125 -6 30 C-6.66 29.67 -7.32 29.34 -8 29 C-7.67 27.68 -7.34 26.36 -7 25 C-6.34 25 -5.68 25 -5 25 C-4.67 21.7 -4.34 18.4 -4 15 C-2.68 15 -1.36 15 0 15 C0 10.05 0 5.1 0 0 Z " fill="#E6B497" transform="translate(43,47)"/>
<path d="M0 0 C3.18225041 11.09482994 2.26400468 26.3791076 -2 37 C-2.36351563 37.91652344 -2.72703125 38.83304688 -3.1015625 39.77734375 C-3.39804688 40.51082031 -3.69453125 41.24429688 -4 42 C-4.33 42 -4.66 42 -5 42 C-5.02578125 41.07058594 -5.0515625 40.14117187 -5.078125 39.18359375 C-5.43339727 29.35785773 -5.43339727 29.35785773 -10 21 C-12.86875539 18.6984961 -12.86875539 18.6984961 -16 17 C-17.423125 16.13375 -17.423125 16.13375 -18.875 15.25 C-19.57625 14.8375 -20.2775 14.425 -21 14 C-20.278125 13.443125 -19.55625 12.88625 -18.8125 12.3125 C-15.31873857 9.43985172 -12.01079054 6.58210693 -9.5625 2.75 C-6.9874136 -0.13409676 -3.69771507 0 0 0 Z " fill="#FDE054" transform="translate(127,49)"/>
<path d="M0 0 C2.98639358 0.05061684 5.19795989 0.09747023 8 1 C9.52838449 2.62230756 10.55694346 4.30325178 11.703125 6.2109375 C13.87841635 9.21179123 16.71419174 10.38930968 20 12 C20 12.66 20 13.32 20 14 C19.40832031 14.27972656 18.81664063 14.55945313 18.20703125 14.84765625 C12.80774596 17.58693476 8.19436858 20.12187239 6 26 C5.3191939 30.66838471 5.07192463 35.28566713 5 40 C2.83106765 37.83106765 2.35983198 36.56073312 1.4375 33.6875 C1.18871094 32.92824219 0.93992188 32.16898438 0.68359375 31.38671875 C-0.53360687 27.13694974 -1.12716124 23.19245332 -1.1328125 18.76953125 C-1.13410156 17.80208984 -1.13539062 16.83464844 -1.13671875 15.83789062 C-1.13091797 14.34032227 -1.13091797 14.34032227 -1.125 12.8125 C-1.12886719 11.80251953 -1.13273438 10.79253906 -1.13671875 9.75195312 C-1.13542969 8.78837891 -1.13414063 7.82480469 -1.1328125 6.83203125 C-1.13168457 5.95264893 -1.13055664 5.0732666 -1.12939453 4.16723633 C-1 2 -1 2 0 0 Z " fill="#FADF55" transform="translate(1,51)"/>
<path d="M0 0 C2.38564077 0.57584432 4.66682784 1.22227595 7 2 C7.33 5.96 7.66 9.92 8 14 C9.32 14.33 10.64 14.66 12 15 C12 15.99 12 16.98 12 18 C11.34 18.33 10.68 18.66 10 19 C11.13937798 23.84235642 13.94300282 26.00620859 17.82421875 28.7734375 C20.95544381 30.53861644 23.43254813 30.85135617 27 31 C26.67 31.99 26.34 32.98 26 34 C23.69 34 21.38 34 19 34 C19.66 35.65 20.32 37.3 21 39 C18.13275314 38.42655063 17.1385485 38.1385485 15 36 C14.896875 35.01 14.79375 34.02 14.6875 33 C14.3471875 31.515 14.3471875 31.515 14 30 C11.70465742 28.86454438 11.70465742 28.86454438 9 28 C6.21018548 25.46970311 4.09046011 23.13569017 2 20 C0.07834506 19.24589136 0.07834506 19.24589136 -2.0625 18.875 C-5.92027335 18.07972665 -5.92027335 18.07972665 -7 17 C-7.04092937 14.66702567 -7.04241723 12.33294775 -7 10 C-6.360625 9.71125 -5.72125 9.4225 -5.0625 9.125 C-2.84793921 8.17176549 -2.84793921 8.17176549 -2 6 C-2 6.66 -2 7.32 -2 8 C-1.34 8 -0.68 8 0 8 C0 5.36 0 2.72 0 0 Z " fill="#E9B598" transform="translate(7,33)"/>
<path d="M0 0 C3 1 3 1 4.16796875 3.1796875 C4.50441406 4.06914063 4.84085938 4.95859375 5.1875 5.875 C5.53167969 6.75929688 5.87585937 7.64359375 6.23046875 8.5546875 C7 11 7 11 7 14 C6.34 14 5.68 14 5 14 C5.28875 14.61488281 5.5775 15.22976562 5.875 15.86328125 C6.24625 16.67152344 6.6175 17.47976562 7 18.3125 C7.37125 19.11300781 7.7425 19.91351563 8.125 20.73828125 C9 23 9 23 9 26 C11.31 26 13.62 26 16 26 C16 26.33 16 26.66 16 27 C8.02742744 27.62529981 0.15668232 25.57834116 -7 22 C-7.48019688 14.74369165 -7.28626358 9.07817979 -3 3 C-2.02473842 1.97585897 -1.03052354 0.96851496 0 0 Z " fill="#3F465C" transform="translate(44,101)"/>
<path d="M0 0 C4.14985236 1.81827913 5.68951593 4.09607865 8 8 C9.04976964 11.14930893 9.10131595 13.38814456 9.0625 16.6875 C9.05347656 17.68136719 9.04445313 18.67523438 9.03515625 19.69921875 C9.02355469 20.45847656 9.01195313 21.21773437 9 22 C7.274773 22.67679658 5.54461061 23.34102 3.8125 24 C2.84957031 24.37125 1.88664062 24.7425 0.89453125 25.125 C-1.92182358 25.97636772 -4.08164439 26.17072647 -7 26 C-6.33501617 21.61110675 -4.81242323 18.0188515 -3 14 C-3.66 14 -4.32 14 -5 14 C-4.46515599 8.65155992 -2.53309233 4.64203897 0 0 Z " fill="#42465C" transform="translate(82,101)"/>
<path d="M0 0 C1.46373047 0.02707031 1.46373047 0.02707031 2.95703125 0.0546875 C3.69308594 0.07789062 4.42914063 0.10109375 5.1875 0.125 C4.60097656 0.56328125 4.01445313 1.0015625 3.41015625 1.453125 C2.67667969 2.00484375 1.94320312 2.5565625 1.1875 3.125 C0.58808594 3.57359375 -0.01132812 4.0221875 -0.62890625 4.484375 C-5.00822903 7.9721578 -7.00892858 10.82037816 -8.8125 16.125 C-11.4525 15.795 -14.0925 15.465 -16.8125 15.125 C-16.8125 20.075 -16.8125 25.025 -16.8125 30.125 C-18.1325 30.125 -19.4525 30.125 -20.8125 30.125 C-21.61101899 13.08992822 -21.61101899 13.08992822 -16.8125 7.125 C-11.95424312 1.96060639 -7.0444188 -0.16974503 0 0 Z " fill="#2E324F" transform="translate(59.8125,31.875)"/>
<path d="M0 0 C1.32 0.33 2.64 0.66 4 1 C3.78214844 2.13050781 3.56429687 3.26101562 3.33984375 4.42578125 C2.61006956 10.24986663 4.53143427 15.08918586 6.34960938 20.55273438 C8.15439353 26.35066494 8.15439353 26.35066494 7.31640625 29.875 C5.57928327 32.67913917 3.41770385 34.77316751 1 37 C-4.75523397 31.81194851 -4.75523397 31.81194851 -5.28125 27.91796875 C-4.75899777 22.74207611 -3.14145 17.77784925 -1.69921875 12.796875 C-0.64291719 8.57166875 -0.27287792 4.33781793 0 0 Z " fill="#F55556" transform="translate(97,72)"/>
<path d="M0 0 C-0.44198331 2.8728915 -1.08804662 4.10455537 -3 6.375 C-6.23830962 11.13063079 -5.67810459 16.82598118 -5.75 22.375 C-5.77964844 23.49261719 -5.80929688 24.61023438 -5.83984375 25.76171875 C-5.91025824 28.5078839 -5.96309623 31.25321404 -6 34 C-6.66 34 -7.32 34 -8 34 C-13.07772511 27.47149629 -13.98216336 20.81162989 -13.55859375 12.76953125 C-12.79433934 7.61215009 -11.04799885 4.28667796 -7 1 C-3.51821862 -1.17273954 -3.51821862 -1.17273954 0 0 Z " fill="#33A3CA" transform="translate(19,68)"/>
<path d="M0 0 C0.45375 0.969375 0.9075 1.93875 1.375 2.9375 C2.65786221 6.07079582 2.65786221 6.07079582 5 7 C4.91276622 8.77174819 4.80458345 10.54247377 4.6875 12.3125 C4.62949219 13.29863281 4.57148437 14.28476563 4.51171875 15.30078125 C3.94848249 18.27174503 3.42034186 19.24774282 1 21 C-1.5 21.375 -1.5 21.375 -4 21 C-7.98549674 17.85096554 -8.21819253 13.76650358 -9 9 C-9.165 8.071875 -9.33 7.14375 -9.5 6.1875 C-9 4 -9 4 -6.1875 1.6875 C-3 0 -3 0 0 0 Z " fill="#EEEEEB" transform="translate(30,73)"/>
<path d="M0 0 C2.18889876 2.18889876 2.57417499 3.33987949 3.4375 6.25390625 C3.69273438 7.10919922 3.94796875 7.96449219 4.2109375 8.84570312 C4.47132812 9.74224609 4.73171875 10.63878906 5 11.5625 C5.26039062 12.43197266 5.52078125 13.30144531 5.7890625 14.19726562 C7.43142593 19.75890542 8.8018875 25.32624608 10 31 C7.36 30.67 4.72 30.34 2 30 C1.3291288 28.3767313 0.66342971 26.75132422 0 25.125 C-0.37125 24.22007813 -0.7425 23.31515625 -1.125 22.3828125 C-2 20 -2 20 -2 18 C-1.34 18 -0.68 18 0 18 C-0.3609375 17.09636719 -0.721875 16.19273438 -1.09375 15.26171875 C-1.5578125 14.08222656 -2.021875 12.90273437 -2.5 11.6875 C-2.9640625 10.51574219 -3.428125 9.34398438 -3.90625 8.13671875 C-5 5 -5 5 -5 2 C-3.35 1.34 -1.7 0.68 0 0 Z " fill="#2B3353" transform="translate(51,97)"/>
<path d="M0 0 C0.98484375 0.02707031 1.9696875 0.05414063 2.984375 0.08203125 C3.73203125 0.11683594 4.4796875 0.15164063 5.25 0.1875 C4.84007813 0.61160156 4.43015625 1.03570312 4.0078125 1.47265625 C0.21922332 5.59659902 -1.62908934 8.69503777 -2.75 14.1875 C-4.07 14.1875 -5.39 14.1875 -6.75 14.1875 C-7.08 16.8275 -7.41 19.4675 -7.75 22.1875 C-12.625 21.3125 -12.625 21.3125 -13.75 20.1875 C-14.5508701 13.33415261 -13.83823846 8.75204679 -9.75 3.1875 C-6.53188018 0.15286946 -4.36762085 -0.15598646 0 0 Z " fill="#2E334F" transform="translate(89.75,12.8125)"/>
<path d="M0 0 C-0.7425 0.495 -1.485 0.99 -2.25 1.5 C-8.01170548 6.73791408 -9.68550409 13.52812852 -11 21 C-13.64 20.67 -16.28 20.34 -19 20 C-19 22.64 -19 25.28 -19 28 C-19.66 28 -20.32 28 -21 28 C-21.44893328 20.51777872 -21.73768548 14.13655641 -17 8 C-6.96504749 -2.57964722 -6.96504749 -2.57964722 0 0 Z " fill="#A6571B" transform="translate(26,13)"/>
<path d="M0 0 C0.268125 0.804375 0.53625 1.60875 0.8125 2.4375 C1.204375 3.283125 1.59625 4.12875 2 5 C2.99 5.33 3.98 5.66 5 6 C4.67 4.68 4.34 3.36 4 2 C5.79005941 1.63779734 7.58212057 1.28547531 9.375 0.9375 C10.87160156 0.64166016 10.87160156 0.64166016 12.3984375 0.33984375 C15 0 15 0 17 1 C16.625 3.9375 16.625 3.9375 16 7 C15.01 7.495 15.01 7.495 14 8 C13.67 8.99 13.34 9.98 13 11 C13.99 11.33 14.98 11.66 16 12 C16 13.32 16 14.64 16 16 C13.6875 15.8125 13.6875 15.8125 11 15 C8 10.96551724 8 10.96551724 8 8 C7.44570313 8.28875 6.89140625 8.5775 6.3203125 8.875 C5.59585937 9.24625 4.87140625 9.6175 4.125 10 C3.40570313 10.37125 2.68640625 10.7425 1.9453125 11.125 C0 12 0 12 -2 12 C-2.13277344 11.37351562 -2.26554687 10.74703125 -2.40234375 10.1015625 C-2.57894531 9.28429687 -2.75554688 8.46703125 -2.9375 7.625 C-3.19853516 6.40683594 -3.19853516 6.40683594 -3.46484375 5.1640625 C-3.92330693 2.970537 -3.92330693 2.970537 -5 1 C-3 0 -3 0 0 0 Z " fill="#F1C9B0" transform="translate(22,65)"/>
<path d="M0 0 C0.2475 1.0725 0.495 2.145 0.75 3.25 C1.99883146 6.99649437 3.02488658 8.52073882 6 11 C5.34 11 4.68 11 4 11 C4.33515625 11.556875 4.6703125 12.11375 5.015625 12.6875 C6.18312868 15.43020707 6.09088508 17.05762354 5.75 20 C5.61851563 21.2684375 5.61851563 21.2684375 5.484375 22.5625 C4.99747499 25.01270651 4.22317883 26.8343719 3 29 C0.86286105 23.44972444 -1.0499344 17.88624061 -2.75 12.1875 C-2.98332031 11.43791016 -3.21664062 10.68832031 -3.45703125 9.91601562 C-5.11757057 4.35271172 -5.11757057 4.35271172 -4 1 C-2 0 -2 0 0 0 Z " fill="#33A0CA" transform="translate(57,95)"/>
<path d="M0 0 C2.475 0.99 2.475 0.99 5 2 C2.65653703 11.1245473 0.11550786 20.10091639 -3 29 C-4.73361505 25.95560284 -5.33843625 23.48121884 -5.625 20 C-5.69976562 19.154375 -5.77453125 18.30875 -5.8515625 17.4375 C-5.98203128 15.29506522 -6 13.14640371 -6 11 C-5.195625 10.21625 -4.39125 9.4325 -3.5625 8.625 C-0.65865078 5.65032519 -0.28360997 4.0650762 0 0 Z " fill="#339EC9" transform="translate(71,95)"/>
<path d="M0 0 C2.125 0.9375 2.125 0.9375 4 2 C3.79375 3.27875 3.5875 4.5575 3.375 5.875 C2.82922566 10.52883251 3.49353114 14.41478998 4.625 18.93359375 C5 21 5 21 4 23 C2.02 23 0.04 23 -2 23 C-3.125 20.6875 -3.125 20.6875 -4 18 C-3.01 16.515 -3.01 16.515 -2 15 C-1.50508314 12.62862915 -1.50508314 12.62862915 -1.3125 10.0625 C-1.22613281 9.20785156 -1.13976563 8.35320312 -1.05078125 7.47265625 C-1.00185817 5.09047864 -1.30108427 3.26490737 -2 1 C-1.34 0.67 -0.68 0.34 0 0 Z " fill="#3F4963" transform="translate(63,105)"/>
<path d="M0 0 C0.33 0 0.66 0 1 0 C1.020625 1.2375 1.04125 2.475 1.0625 3.75 C1.37744228 6.29203411 1.56699517 7.57536819 3.4140625 9.38671875 C7.1200151 11.58253648 10.69225472 12.57973217 15 13 C14.67 13.99 14.34 14.98 14 16 C11.69 16 9.38 16 7 16 C7.66 17.65 8.32 19.3 9 21 C8.34 21 7.68 21 7 21 C7 20.34 7 19.68 7 19 C5.68 18.67 4.36 18.34 3 18 C2.87625 17.195625 2.7525 16.39125 2.625 15.5625 C2.315625 14.2940625 2.315625 14.2940625 2 13 C1.34 12.67 0.68 12.34 0 12 C0 8.04 0 4.08 0 0 Z " fill="#B98C76" transform="translate(89,50)"/>
<path d="M0 0 C2.25 0.125 2.25 0.125 5 1 C7.125 3.875 7.125 3.875 9 7 C9.99 7.99 10.98 8.98 12 10 C8.04 10 4.08 10 0 10 C0 6.7 0 3.4 0 0 Z " fill="#AB5E20" transform="translate(5,52)"/>
<path d="M0 0 C0.33 0.33 0.66 0.66 1 1 C0.94921875 3.14453125 0.94921875 3.14453125 0.6875 5.8125 C0.60886719 6.68519531 0.53023437 7.55789062 0.44921875 8.45703125 C0.00244976 10.98613225 -0.73338739 12.78213548 -2 15 C-4.05362055 9.91059256 -5.43179252 5.45479185 -6 0 C-3.49749232 -1.25125384 -2.59701335 -0.83774624 0 0 Z " fill="#63B4E6" transform="translate(62,109)"/>
<path d="M0 0 C2.625 0.375 2.625 0.375 5 1 C3.07289294 11.55808656 3.07289294 11.55808656 1 16 C-0.73602074 12.94061919 -1.39557633 10.36711562 -1.75 6.875 C-1.84796875 6.00617188 -1.9459375 5.13734375 -2.046875 4.2421875 C-2 2 -2 2 0 0 Z " fill="#64B5E7" transform="translate(67,108)"/>
<path d="M0 0 C2.58370626 1.79936686 4.92080453 3.62599323 7 6 C7.625 9.75 7.625 9.75 7 13 C4 15 4 15 0 15 C0.33 13.68 0.66 12.36 1 11 C1.66 11 2.32 11 3 11 C2.505 10.113125 2.01 9.22625 1.5 8.3125 C0.05621326 5.12413762 -0.30159922 3.41812454 0 0 Z " fill="#D6A884" transform="translate(121,35)"/>
<path d="M0 0 C0 4.29 0 8.58 0 13 C-0.33 12.34 -0.66 11.68 -1 11 C-3.3140622 10.26924352 -5.64828869 9.59861742 -8 9 C-8 7.68 -8 6.36 -8 5 C-6.50390625 3.515625 -6.50390625 3.515625 -4.5625 2.25 C-3.92441406 1.82203125 -3.28632812 1.3940625 -2.62890625 0.953125 C-1 0 -1 0 0 0 Z " fill="#BCD1D9" transform="translate(83,88)"/>
<path d="M0 0 C0.33 0.66 0.66 1.32 1 2 C1.66 2 2.32 2 3 2 C2.67 3.32 2.34 4.64 2 6 C1.34 6 0.68 6 0 6 C0 6.99 0 7.98 0 9 C0.99 9.33 1.98 9.66 3 10 C3 10.99 3 11.98 3 13 C-2.875 12.125 -2.875 12.125 -4 11 C-4.04092937 8.66702567 -4.04241723 6.33294775 -4 4 C-2.68 3.34 -1.36 2.68 0 2 C0 1.34 0 0.68 0 0 Z " fill="#F5C9A8" transform="translate(4,39)"/>
<path d="M0 0 C-0.33 4.29 -0.66 8.58 -1 13 C-2.65 13.33 -4.3 13.66 -6 14 C-6.78558639 5.9870188 -6.78558639 5.9870188 -3.5625 1.9375 C-1 0 -1 0 0 0 Z " fill="#2B2F4E" transform="translate(121,26)"/>
<path d="M0 0 C1.32 0.66 2.64 1.32 4 2 C3.34 5.63 2.68 9.26 2 13 C0.02 12.34 -1.96 11.68 -4 11 C-4 7.40239524 -3.10487704 6.7784377 -1 4 C-0.29485154 1.85266073 -0.29485154 1.85266073 0 0 Z " fill="#C1D4DB" transform="translate(105,63)"/>
<path d="M0 0 C0.268125 0.7425 0.53625 1.485 0.8125 2.25 C1.94229421 4.86636554 3.20893202 6.80187111 5 9 C0.25 12 0.25 12 -2 12 C-2.13277344 11.37351562 -2.26554687 10.74703125 -2.40234375 10.1015625 C-2.57894531 9.28429687 -2.75554688 8.46703125 -2.9375 7.625 C-3.19853516 6.40683594 -3.19853516 6.40683594 -3.46484375 5.1640625 C-3.92330693 2.970537 -3.92330693 2.970537 -5 1 C-3 0 -3 0 0 0 Z " fill="#D6D5CE" transform="translate(22,65)"/>
<path d="M0 0 C-0.875 4.875 -0.875 4.875 -2 6 C-4.375 6.375 -4.375 6.375 -7 6 C-8.8125 3.5 -8.8125 3.5 -10 1 C-6.52674819 -0.1577506 -3.63932552 -0.06866652 0 0 Z " fill="#F2C7AD" transform="translate(71,98)"/>
<path d="M0 0 C1.75570312 0.01353516 1.75570312 0.01353516 3.546875 0.02734375 C4.43890625 0.03894531 5.3309375 0.05054687 6.25 0.0625 C6.25 0.3925 6.25 0.7225 6.25 1.0625 C5.03763672 1.01416016 5.03763672 1.01416016 3.80078125 0.96484375 C0.41004752 1.00165509 -2.47277638 1.16754947 -5.75 2.0625 C-8.2462459 4.76804259 -9.54858555 7.60494096 -10.75 11.0625 C-11.08 11.0625 -11.41 11.0625 -11.75 11.0625 C-11.875 4.4375 -11.875 4.4375 -10.75 1.0625 C-7.32735681 -0.36360133 -3.65120467 -0.03651205 0 0 Z " fill="#A88272" transform="translate(93.75,25.9375)"/>
<path d="M0 0 C1.32 0.33 2.64 0.66 4 1 C4.93423645 4.01031744 5.04449911 4.86650268 4 8 C2.35 8 0.7 8 -1 8 C-1.625 5.6875 -1.625 5.6875 -2 3 C-1.34 2.01 -0.68 1.02 0 0 Z " fill="#B4968D" transform="translate(35,37)"/>
<path d="M0 0 C1.65322266 0.01740234 1.65322266 0.01740234 3.33984375 0.03515625 C4.99693359 0.04869141 4.99693359 0.04869141 6.6875 0.0625 C7.54214844 0.07410156 8.39679688 0.08570312 9.27734375 0.09765625 C9.27734375 1.08765625 9.27734375 2.07765625 9.27734375 3.09765625 C6.1070961 4.68278008 2.73067347 4.52137769 -0.72265625 4.09765625 C-2.72265625 2.59765625 -2.72265625 2.59765625 -3.72265625 1.09765625 C-2.72265625 0.09765625 -2.72265625 0.09765625 0 0 Z " fill="#ECB99D" transform="translate(60.72265625,78.90234375)"/>
<path d="M0 0 C0.33 0 0.66 0 1 0 C1.13277344 0.60328125 1.26554687 1.2065625 1.40234375 1.828125 C1.57894531 2.62734375 1.75554687 3.4265625 1.9375 4.25 C2.19853516 5.43335938 2.19853516 5.43335938 2.46484375 6.640625 C2.947556 8.76878703 3.46163178 10.88532842 4 13 C3.01 13.495 3.01 13.495 2 14 C1.67 14.99 1.34 15.98 1 17 C0.34 17 -0.32 17 -1 17 C-0.67 13.7 -0.34 10.4 0 7 C-0.66 6.67 -1.32 6.34 -2 6 C-1.34 6 -0.68 6 0 6 C0 4.02 0 2.04 0 0 Z " fill="#B68D73" transform="translate(120,33)"/>
<path d="M0 0 C2.0625 0.1875 2.0625 0.1875 4 1 C5 4 5 4 4 7 C2.35 6.67 0.7 6.34 -1 6 C-1.625 4.125 -1.625 4.125 -2 2 C-1.34 1.34 -0.68 0.68 0 0 Z " fill="#B1958E" transform="translate(19,38)"/>
<path d="M0 0 C0.103125 0.639375 0.20625 1.27875 0.3125 1.9375 C0.539375 2.618125 0.76625 3.29875 1 4 C1.99 4.33 2.98 4.66 4 5 C4 5.99 4 6.98 4 8 C3.01 8.495 3.01 8.495 2 9 C0.86649466 11.01669827 0.86649466 11.01669827 0 13 C-1.29676812 8.38926889 -0.71109139 4.66159911 0 0 Z " fill="#EBB79B" transform="translate(89,68)"/>
<path d="M0 0 C2.97 0 5.94 0 9 0 C9 0.99 9 1.98 9 3 C6.03 3 3.06 3 0 3 C0 2.01 0 1.02 0 0 Z " fill="#C0D5DE" transform="translate(106,82)"/>
<path d="M0 0 C3.96 0 7.92 0 12 0 C12 0.66 12 1.32 12 2 C9.75487738 3.12256131 8.48543351 3.13413762 6 3.125 C4.948125 3.12886719 4.948125 3.12886719 3.875 3.1328125 C2 3 2 3 0 2 C0 1.34 0 0.68 0 0 Z " fill="#C19177" transform="translate(92,49)"/>
<path d="M0 0 C3.63 0 7.26 0 11 0 C11 0.66 11 1.32 11 2 C8.01405576 3.49297212 5.29146376 3.11755228 2 3 C1.34 2.67 0.68 2.34 0 2 C0 1.34 0 0.68 0 0 Z " fill="#EBB89C" transform="translate(23,53)"/>
<path d="M0 0 C1.32 0.33 2.64 0.66 4 1 C3.39816251 3.02045442 2.72693904 5.02111039 2 7 C1.01 7.495 1.01 7.495 0 8 C0 5.36 0 2.72 0 0 Z " fill="#F36C6A" transform="translate(97,72)"/>
<path d="M0 0 C0.99 0.33 1.98 0.66 3 1 C2.01 1.495 2.01 1.495 1 2 C1 2.66 1 3.32 1 4 C1.66 4.33 2.32 4.66 3 5 C1.68 5.33 0.36 5.66 -1 6 C-1.33 4.35 -1.66 2.7 -2 1 C-1.34 0.67 -0.68 0.34 0 0 Z " fill="#656270" transform="translate(55,66)"/>
</svg>
