<?xml version="1.0" encoding="UTF-8"?>
<svg version="1.1" xmlns="http://www.w3.org/2000/svg" width="128" height="128">
<path d="M0 0 C2.75267965 2.02490284 5.25559383 4.11887508 7.671875 6.53515625 C11.02290791 8.0744776 13.97948061 8.81632996 17.671875 8.53515625 C20.32331929 6.5686684 22.28318202 4.35448709 24.45703125 1.875 C28.73034652 -2.63949003 33.88911047 -4.60326683 40.046875 -4.96484375 C48.09233426 -4.5318416 54.84943947 -1.15348857 61.421875 3.28515625 C65.85484873 6.2680324 68.38933112 7.3568853 73.671875 6.53515625 C76.15634127 11.60294022 77.19252354 15.7837967 77.109375 21.47265625 C77.10236572 22.5248938 77.10236572 22.5248938 77.09521484 23.59838867 C76.88939661 30.79784349 74.58831414 34.66049754 70.671875 40.53515625 C71.001875 40.86515625 71.331875 41.19515625 71.671875 41.53515625 C72.2604194 48.71539797 72.2604194 48.71539797 69.921875 51.97265625 C67.671875 53.53515625 67.671875 53.53515625 65.65234375 53.89453125 C63.53739847 54.34663765 63.53739847 54.34663765 62.58203125 56.2421875 C62.16244141 57.28439453 62.16244141 57.28439453 61.734375 58.34765625 C59.63223044 62.95588688 56.95006731 65.06535476 52.734375 67.78515625 C49.99225005 68.7822926 47.56358693 68.6665977 44.671875 68.53515625 C44.671875 69.85515625 44.671875 71.17515625 44.671875 72.53515625 C45.8784375 72.62796875 45.8784375 72.62796875 47.109375 72.72265625 C52.5530071 73.96418638 57.69980974 76.56309099 61.671875 80.53515625 C62.14387316 82.97089985 62.50914858 85.32768962 62.796875 87.78515625 C62.96445313 89.0896875 63.13203125 90.39421875 63.3046875 91.73828125 C63.62391917 95.03927255 63.74388033 98.22291114 63.671875 101.53515625 C64.80625 101.67953125 65.940625 101.82390625 67.109375 101.97265625 C70.671875 102.53515625 70.671875 102.53515625 71.671875 103.53515625 C71.81302661 106.20574476 71.71434607 108.85947863 71.671875 111.53515625 C69.691875 111.86515625 67.711875 112.19515625 65.671875 112.53515625 C65.671875 116.16515625 65.671875 119.79515625 65.671875 123.53515625 C29.701875 123.53515625 -6.268125 123.53515625 -43.328125 123.53515625 C-43.328125 119.90515625 -43.328125 116.27515625 -43.328125 112.53515625 C-45.308125 112.20515625 -47.288125 111.87515625 -49.328125 111.53515625 C-49.328125 108.56515625 -49.328125 105.59515625 -49.328125 102.53515625 C-46.853125 102.04015625 -46.853125 102.04015625 -44.328125 101.53515625 C-43.84594417 97.97722585 -43.4253862 94.41459393 -43.015625 90.84765625 C-42.87833984 89.84025391 -42.74105469 88.83285156 -42.59960938 87.79492188 C-41.81599284 81.69305763 -41.81599284 81.69305763 -44.67578125 76.4609375 C-45.55105469 75.82542969 -46.42632812 75.18992187 -47.328125 74.53515625 C-50.40273717 70.80169861 -51.44030518 67.88799365 -51.53686523 63.07055664 C-51.55615585 62.16854019 -51.57544647 61.26652374 -51.59532166 60.33717346 C-51.65347037 56.18730961 -51.70241234 52.03761537 -51.7331543 47.88745117 C-51.75464399 45.7102056 -51.788638 43.53304427 -51.83569336 41.35620117 C-52.14910043 26.71083356 -52.05511712 16.10798457 -42.078125 4.59765625 C-30.81489671 -5.6621664 -13.15320096 -8.27592342 0 0 Z M15.671875 62.53515625 C15.45273438 63.27121094 15.23359375 64.00726563 15.0078125 64.765625 C12.10382032 73.70189363 12.10382032 73.70189363 8.359375 75.91015625 C5.37649055 78.2411046 5.37649055 78.2411046 5.4765625 81.3671875 C5.73935106 84.78742044 6.17036638 88.142137 6.671875 91.53515625 C6.86897897 93.4717028 7.05764456 95.40914423 7.234375 97.34765625 C7.3786354 98.74365302 7.52380927 100.13955796 7.671875 101.53515625 C8.991875 101.53515625 10.311875 101.53515625 11.671875 101.53515625 C13.156875 90.15015625 13.156875 90.15015625 14.671875 78.53515625 C18.26414599 77.09824786 21.84803333 75.72449661 25.484375 74.41015625 C26.94810547 73.88035156 26.94810547 73.88035156 28.44140625 73.33984375 C29.17746094 73.07429688 29.91351563 72.80875 30.671875 72.53515625 C30.671875 71.21515625 30.671875 69.89515625 30.671875 68.53515625 C29.49625 68.28765625 28.320625 68.04015625 27.109375 67.78515625 C22.76381497 66.71619496 19.45463434 64.89938084 15.671875 62.53515625 Z " fill="#E3936B" transform="translate(51.328125,4.46484375)"/>
<path d="M0 0 C0.53109375 0.268125 1.0621875 0.53625 1.609375 0.8125 C14.94604155 7.4372494 25.26035727 10.27069476 40 11 C40.495 14.465 40.495 14.465 41 18 C41.495 17.505 41.495 17.505 42 17 C44.5 16.875 44.5 16.875 47 17 C48 18 48 18 48.3125 21.8125 C48.2731566 24.94873125 48.14607028 25.79654496 46.25 28.4375 C44 30 44 30 41.98046875 30.359375 C39.86552347 30.8114814 39.86552347 30.8114814 38.91015625 32.70703125 C38.63042969 33.40183594 38.35070312 34.09664062 38.0625 34.8125 C35.96035544 39.42073063 33.27819231 41.53019851 29.0625 44.25 C26.32037505 45.24713635 23.89171193 45.13144145 21 45 C21 46.32 21 47.64 21 49 C22.2065625 49.0928125 22.2065625 49.0928125 23.4375 49.1875 C28.8811321 50.42903013 34.02793474 53.02793474 38 57 C38.46617107 59.37977455 38.82567727 61.7810403 39.125 64.1875 C39.29257813 65.48042969 39.46015625 66.77335937 39.6328125 68.10546875 C40 72 40 72 40 79 C22.84 79 5.68 79 -12 79 C-11 62 -11 62 -9 55 C-6.828125 53.2578125 -6.828125 53.2578125 -4.25 52.125 C-2.91582031 51.53525391 -2.91582031 51.53525391 -1.5546875 50.93359375 C1.28758028 49.89490568 3.97965494 49.23844829 7 49 C7 47.68 7 46.36 7 45 C5.7625 45.1546875 5.7625 45.1546875 4.5 45.3125 C-0.3378641 44.88054785 -4.53820029 42.46179971 -8 39 C-8.33831995 34.40355942 -8.32509341 29.79478596 -8.375 25.1875 C-8.41238281 23.89005859 -8.44976562 22.59261719 -8.48828125 21.25585938 C-8.49988281 20.00998047 -8.51148437 18.76410156 -8.5234375 17.48046875 C-8.54325684 16.33473389 -8.56307617 15.18899902 -8.58349609 14.00854492 C-7.82142153 10.07923743 -6.24022735 9.18892174 -3 7 C-1.81743503 5.14958295 -1.81743503 5.14958295 -1.1875 3.25 C-0.795625 2.1775 -0.40375 1.105 0 0 Z " fill="#FDDBCD" transform="translate(75,28)"/>
<path d="M0 0 C3.08011735 1.54005868 3.20623152 3.99841986 4.3125 7.1875 C6.2573835 12.39292348 7.84836555 16.27417421 12 20 C13.32 20 14.64 20 16 20 C16 19.34 16 18.68 16 18 C16.66 18 17.32 18 18 18 C18.2784375 17.30390625 18.556875 16.6078125 18.84375 15.890625 C19.41609375 14.45976563 19.41609375 14.45976563 20 13 C20.4021875 11.98421875 20.804375 10.9684375 21.21875 9.921875 C21.6415625 8.87515625 22.064375 7.8284375 22.5 6.75 C22.9228125 5.69296875 23.345625 4.6359375 23.78125 3.546875 C25 1 25 1 27 0 C29.03144641 0.93446535 31.03533587 1.93224776 33 3 C31.93943721 5.20270733 30.89060532 7.14877676 29.4375 9.125 C27.56045429 12.87909143 27.6699231 16.22163965 27.8125 20.3125 C27.82603516 21.05306641 27.83957031 21.79363281 27.85351562 22.55664062 C27.88864021 24.37141075 27.94244028 26.18580288 28 28 C28.7434668 27.92998779 29.48693359 27.85997559 30.25292969 27.7878418 C42.92780816 26.76418516 55.61041353 26.81389884 68.31982422 26.81469727 C72.28233136 26.81248192 76.24457212 26.79418972 80.20703125 26.77539062 C82.72656155 26.77246131 85.24609317 26.77047343 87.765625 26.76953125 C88.94989075 26.76234573 90.13415649 26.75516022 91.35430908 26.74775696 C92.99312042 26.7523719 92.99312042 26.7523719 94.66503906 26.75708008 C95.62573303 26.75565506 96.586427 26.75423004 97.57623291 26.75276184 C100 27 100 27 103 29 C103.40843923 31.71203652 103.13336867 34.2437142 103 37 C101.02 37.33 99.04 37.66 97 38 C97 41.63 97 45.26 97 49 C61.03 49 25.06 49 -12 49 C-12 45.37 -12 41.74 -12 38 C-13.98 37.67 -15.96 37.34 -18 37 C-18 34.03 -18 31.06 -18 28 C-14.05352382 27.01155049 -10.72607036 27.03808095 -6.6875 27.4375 C-5.61886719 27.53933594 -4.55023438 27.64117187 -3.44921875 27.74609375 C-2.64097656 27.82988281 -1.83273438 27.91367188 -1 28 C-0.20266358 16.31243571 -0.20266358 16.31243571 -5 6 C-5.66 5.01 -6.32 4.02 -7 3 C-4.69631264 1.93347808 -2.35981813 0.93578995 0 0 Z " fill="#9C6B6B" transform="translate(20,79)"/>
<path d="M0 0 C0.70125 0.721875 1.4025 1.44375 2.125 2.1875 C5.79299966 5.85549966 9.67713148 9.11808765 14 12 C14.30555608 14.98066963 14.41764401 17.70952685 14.375 20.6875 C14.38660156 21.47833984 14.39820313 22.26917969 14.41015625 23.08398438 C14.37976015 29.21892964 13.48828917 34.15376669 9.31640625 38.92578125 C8.44822266 39.61220703 8.44822266 39.61220703 7.5625 40.3125 C6.98628906 40.78300781 6.41007812 41.25351563 5.81640625 41.73828125 C2.09637377 44.32230381 -0.4363822 45.25353432 -5 45 C-4.80528889 46.94999129 -4.80528889 46.94999129 -4 49 C-1.99786055 50.1470525 -1.99786055 50.1470525 0 51 C-1.20337119 57.89203498 -3.32135086 63.06080693 -7 69 C-7.66 69 -8.32 69 -9 69 C-9 69.66 -9 70.32 -9 71 C-10.98 71.495 -10.98 71.495 -13 72 C-18.78540375 66.21459625 -21.78500955 59.87919487 -24 52 C-23.67 51.34 -23.34 50.68 -23 50 C-20.9375 49.375 -20.9375 49.375 -19 49 C-18.67 47.68 -18.34 46.36 -18 45 C-19.19625 44.9175 -20.3925 44.835 -21.625 44.75 C-26.67454002 44.09097714 -30.07531483 42.23679628 -33.4453125 38.3203125 C-36.74754533 33.92362536 -38.13970231 30.44070497 -38.09765625 24.890625 C-38.09443359 24.13652344 -38.09121094 23.38242187 -38.08789062 22.60546875 C-38.07951172 21.82816406 -38.07113281 21.05085938 -38.0625 20.25 C-38.05798828 19.45722656 -38.05347656 18.66445313 -38.04882812 17.84765625 C-38.03708565 15.89840492 -38.01915146 13.94919262 -38 12 C-36.70707031 11.76925781 -35.41414063 11.53851563 -34.08203125 11.30078125 C-21.96485137 9.05893375 -10.5904831 6.63106474 0 0 Z " fill="#FDDBCC" transform="translate(45,28)"/>
<path d="M0 0 C1.93661445 1.21886651 3.85368405 2.46933731 5.75 3.75 C10.18297373 6.73287615 12.71745612 7.82172905 18 7 C20.4843422 12.06753091 21.52132796 16.24878458 21.4375 21.9375 C21.43210205 22.6389917 21.4267041 23.3404834 21.42114258 24.06323242 C21.23209708 30.49302093 19.86171332 34.76501972 15.5625 39.625 C13.31444054 41.60329233 10.84177263 42.17904346 8 43 C8 40.36 8 37.72 8 35 C7.06800781 35.04640625 6.13601562 35.0928125 5.17578125 35.140625 C-9.01498583 35.54238585 -20.1766054 31.88226307 -32 24 C-32.2475 25.093125 -32.495 26.18625 -32.75 27.3125 C-34.01988535 31.05866178 -34.59208186 32.18954349 -38 34 C-38.66 34 -39.32 34 -40 34 C-40.15855469 32.96101563 -40.31710938 31.92203125 -40.48046875 30.8515625 C-41.84779215 22.48912096 -43.53126541 15.34780075 -48 8 C-44.33333333 8 -40.66666667 8 -37 8 C-35.08728496 6.38352432 -35.08728496 6.38352432 -33.3125 4.25 C-23.43568358 -6.06578604 -12.38059538 -5.9174471 0 0 Z " fill="#9D6B6B" transform="translate(107,4)"/>
<path d="M0 0 C0 2.64 0 5.28 0 8 C35.64 8.33 71.28 8.66 108 9 C108 12.96 108 16.92 108 21 C72.03 21 36.06 21 -1 21 C-1 17.37 -1 13.74 -1 10 C-3.97 9.505 -3.97 9.505 -7 9 C-7 6.03 -7 3.06 -7 0 C-4.3333581 -1.33332095 -2.83319697 -0.67102033 0 0 Z " fill="#8B5E5E" transform="translate(9,107)"/>
<path d="M0 0 C0 0.66 0 1.32 0 2 C-0.66 2 -1.32 2 -2 2 C-2.433125 3.09441406 -2.433125 3.09441406 -2.875 4.2109375 C-3.55422459 5.89484845 -4.25609399 7.57020928 -5 9.2265625 C-8.73102159 18.17518459 -9.24671883 27.43531148 -10 37 C-11.43657245 37.33730842 -12.87430093 37.66969591 -14.3125 38 C-15.11300781 38.185625 -15.91351563 38.37125 -16.73828125 38.5625 C-19 39 -19 39 -22 39 C-21.91228454 41.68893267 -21.80532075 44.37485308 -21.6875 47.0625 C-21.66494141 47.81466797 -21.64238281 48.56683594 -21.61914062 49.34179688 C-21.27206919 56.63029702 -19.29817925 62.70182075 -14 68 C-10.06787628 70.00180844 -6.36204144 71.33908463 -2 72 C-2.15234375 74.35546875 -2.15234375 74.35546875 -3 77 C-5.50390625 78.36328125 -5.50390625 78.36328125 -8.5625 79.3125 C-9.57441406 79.63863281 -10.58632813 79.96476562 -11.62890625 80.30078125 C-12.41136719 80.53152344 -13.19382812 80.76226562 -14 81 C-14 84.10503734 -11.90045011 85.63883472 -10 88 C-8.06296939 93.81109182 -8.78284364 100.06636277 -10 106 C-13.96 106 -17.92 106 -22 106 C-21.69642578 103.59654297 -21.69642578 103.59654297 -21.38671875 101.14453125 C-21.15221666 99.03401247 -20.91922233 96.92332579 -20.6875 94.8125 C-20.55021484 93.75740234 -20.41292969 92.70230469 -20.27148438 91.61523438 C-19.47491985 85.31471592 -19.47491985 85.31471592 -22.34765625 79.89453125 C-23.66056641 78.95673828 -23.66056641 78.95673828 -25 78 C-28.07461217 74.26654236 -29.11218018 71.3528374 -29.20874023 66.53540039 C-29.22803085 65.63338394 -29.24732147 64.73136749 -29.26719666 63.80201721 C-29.32534537 59.65215336 -29.37428734 55.50245912 -29.4050293 51.35229492 C-29.42651899 49.17504935 -29.460513 46.99788802 -29.50756836 44.82104492 C-29.82092427 30.17806815 -29.72888535 19.5697688 -19.75 8.0625 C-14.33791714 3.16642504 -7.49715853 -0.98646823 0 0 Z " fill="#E27D48" transform="translate(29,1)"/>
<path d="M0 0 C0.37511719 1.02480469 0.75023438 2.04960938 1.13671875 3.10546875 C1.65293937 4.46641401 2.16990626 5.82707637 2.6875 7.1875 C3.05391602 8.19780273 3.05391602 8.19780273 3.42773438 9.22851562 C5.22406991 13.88989265 7.24000723 16.70119885 11 20 C15.9965925 18.03705295 18.34444047 14.47155863 20.484375 9.66796875 C20.90203125 8.51941406 21.3196875 7.37085937 21.75 6.1875 C22.17796875 5.02605469 22.6059375 3.86460938 23.046875 2.66796875 C23.51867187 1.34732422 23.51867187 1.34732422 24 0 C28.5535364 0.78855809 31.41255834 1.97060482 35 5 C37 12 37 12 38 28 C20.84 28 3.68 28 -14 28 C-13 11 -13 11 -11 4 C-9.16015625 2.44140625 -9.16015625 2.44140625 -7.0625 1.5625 C-6.02802734 1.10037109 -6.02802734 1.10037109 -4.97265625 0.62890625 C-3 0 -3 0 0 0 Z " fill="#5A69CB" transform="translate(77,79)"/>
<path d="M0 0 C-0.33 1.32 -0.66 2.64 -1 4 C0.32 4.66 1.64 5.32 3 6 C2.74438677 8.3431213 2.40729228 10.67843403 2 13 C1.01 13.495 1.01 13.495 0 14 C0.144375 14.515625 0.28875 15.03125 0.4375 15.5625 C1 18 1 18 1.125 21.375 C2.31306807 26.2969963 4.88993448 28.25144686 9 31 C12.30899752 32.84258244 15.24044256 33.48733308 19 34 C19.0825 34.61875 19.165 35.2375 19.25 35.875 C19.80115872 38.18581338 19.80115872 38.18581338 22.046875 39.1328125 C23.01367188 39.56207031 23.01367188 39.56207031 24 40 C22.79662881 46.89203498 20.67864914 52.06080693 17 58 C16.34 58 15.68 58 15 58 C15 58.66 15 59.32 15 60 C13.02 60.495 13.02 60.495 11 61 C5.21459625 55.21459625 2.21499045 48.87919487 0 41 C0.33 40.34 0.66 39.68 1 39 C3.0625 38.375 3.0625 38.375 5 38 C5.33 36.68 5.66 35.36 6 34 C4.80375 33.9175 3.6075 33.835 2.375 33.75 C-2.67454002 33.09097714 -6.07531483 31.23679628 -9.4453125 27.3203125 C-12.74754533 22.92362536 -14.13970231 19.44070497 -14.09765625 13.890625 C-14.09443359 13.13652344 -14.09121094 12.38242187 -14.08789062 11.60546875 C-14.07951172 10.82816406 -14.07113281 10.05085938 -14.0625 9.25 C-14.05798828 8.45722656 -14.05347656 7.66445313 -14.04882812 6.84765625 C-14.03708565 4.89840492 -14.01915146 2.94919262 -14 1 C-12.41913952 0.63495397 -10.83516093 0.28339494 -9.25 -0.0625 C-8.36828125 -0.25972656 -7.4865625 -0.45695312 -6.578125 -0.66015625 C-4.01320972 -0.99825872 -2.42908361 -0.81158635 0 0 Z " fill="#FDC9BB" transform="translate(21,39)"/>
<path d="M0 0 C0.66 0.33 1.32 0.66 2 1 C1.67 4.96 1.34 8.92 1 13 C1.99 13.33 2.98 13.66 4 14 C4.125 19.75 4.125 19.75 3 22 C2.34 22 1.68 22 1 22 C1.16183644 29.17965303 2.28270881 34.4384209 7 40 C11.05452659 43.37877216 15.9233668 44.05988274 21 45 C21 46.32 21 47.64 21 49 C22.98 49.33 24.96 49.66 27 50 C24.35712939 58.67153858 21.79171971 65.69759727 15 72 C8.65610676 69.04935198 6.22675574 65.01929933 3.86889648 58.57519531 C2.87440285 55.72889822 1.92387911 52.86992234 1 50 C3.97 49.505 3.97 49.505 7 49 C7 47.68 7 46.36 7 45 C5.7625 45.1546875 5.7625 45.1546875 4.5 45.3125 C-0.3378641 44.88054785 -4.53820029 42.46179971 -8 39 C-8.33831995 34.40355942 -8.32509341 29.79478596 -8.375 25.1875 C-8.41238281 23.89005859 -8.44976562 22.59261719 -8.48828125 21.25585938 C-8.49988281 20.00998047 -8.51148437 18.76410156 -8.5234375 17.48046875 C-8.54325684 16.33473389 -8.56307617 15.18899902 -8.58349609 14.00854492 C-7.82142153 10.07923743 -6.24022735 9.18892174 -3 7 C-1.81743503 5.14958295 -1.81743503 5.14958295 -1.1875 3.25 C-0.795625 2.1775 -0.40375 1.105 0 0 Z " fill="#FECBBE" transform="translate(75,28)"/>
<path d="M0 0 C3.08011735 1.54005868 3.20623152 3.99841986 4.3125 7.1875 C6.2573835 12.39292348 7.84836555 16.27417421 12 20 C13.32 20 14.64 20 16 20 C16 19.34 16 18.68 16 18 C16.66 18 17.32 18 18 18 C18.2784375 17.30390625 18.556875 16.6078125 18.84375 15.890625 C19.2253125 14.93671875 19.606875 13.9828125 20 13 C20.4021875 11.98421875 20.804375 10.9684375 21.21875 9.921875 C21.6415625 8.87515625 22.064375 7.8284375 22.5 6.75 C22.9228125 5.69296875 23.345625 4.6359375 23.78125 3.546875 C25 1 25 1 27 0 C29.03144641 0.93446535 31.03533587 1.93224776 33 3 C31.93943721 5.20270733 30.89060532 7.14877676 29.4375 9.125 C27.55849827 12.88300347 27.67104742 16.22205869 27.8125 20.3125 C27.874375 22.849375 27.93625 25.38625 28 28 C18.43 28 8.86 28 -1 28 C-0.9175 25.669375 -0.835 23.33875 -0.75 20.9375 C-0.65406379 14.81006742 -1.21060707 10.90392027 -5 6 C-5.66 5.01 -6.32 4.02 -7 3 C-4.69631264 1.93347808 -2.35981813 0.93578995 0 0 Z " fill="#5A68CA" transform="translate(20,79)"/>
<path d="M0 0 C1.921875 0.55078125 1.921875 0.55078125 4 2 C4.828125 5.23046875 4.828125 5.23046875 5.25 9.1875 C5.39953125 10.48042969 5.5490625 11.77335937 5.703125 13.10546875 C5.98144389 16.75657314 6.0569615 20.34022382 6 24 C2.37 24 -1.26 24 -5 24 C-7.17479306 18.56301735 -8.20543146 13.37283287 -6.20703125 7.78125 C-4.46648438 4.10009341 -3.47294979 2.31529986 0 0 Z " fill="#E7EFFD" transform="translate(109,83)"/>
<path d="M0 0 C3.75301519 1.20632631 5.42716478 3.51363369 7.24609375 6.9375 C9.23386146 12.37553808 8.13547105 18.46457862 7 24 C3.04 24 -0.92 24 -5 24 C-4.74555908 20.56055744 -4.4722312 17.12445221 -4.1875 13.6875 C-4.08211914 12.22280273 -4.08211914 12.22280273 -3.97460938 10.72851562 C-3.89404297 9.79072266 -3.81347656 8.85292969 -3.73046875 7.88671875 C-3.66239014 7.02264404 -3.59431152 6.15856934 -3.52416992 5.26831055 C-2.91875658 2.6484245 -2.04955767 1.68347922 0 0 Z " fill="#DCE8F9" transform="translate(12,83)"/>
<path d="M0 0 C2.125 0.375 2.125 0.375 4 1 C5.52223949 8.78788598 6.20885494 16.06351225 6 24 C2.37 24 -1.26 24 -5 24 C-6.4153135 18.338746 -7.41685632 11.51863846 -5.17578125 5.953125 C-3.68993402 3.72159236 -1.89153131 1.89153131 0 0 Z " fill="#EAF1FD" transform="translate(53,83)"/>
<path d="M0 0 C3.42550358 0.19030575 4.79547037 0.80652603 7.3125 3.1875 C10.44444414 8.34005326 9.43750031 15.22643038 9 21 C8.67 21.99 8.34 22.98 8 24 C4.37 24 0.74 24 -3 24 C-2.88509088 21.31173136 -2.75836801 18.62486531 -2.625 15.9375 C-2.5940625 15.18533203 -2.563125 14.43316406 -2.53125 13.65820312 C-2.27941541 8.81038719 -1.50831635 4.61691957 0 0 Z " fill="#DDE9FA" transform="translate(66,83)"/>
<path d="M0 0 C0.66 0.33 1.32 0.66 2 1 C1.67 4.96 1.34 8.92 1 13 C1.99 13.33 2.98 13.66 4 14 C4.125 19.75 4.125 19.75 3 22 C2.34 22 1.68 22 1 22 C1.020625 22.804375 1.04125 23.60875 1.0625 24.4375 C1 27 1 27 0 28 C-5.52941176 28.23529412 -5.52941176 28.23529412 -8 27 C-8.13526616 24.4149133 -8.23417653 21.83691248 -8.3125 19.25 C-8.35439453 18.52039063 -8.39628906 17.79078125 -8.43945312 17.0390625 C-8.48828125 14.890625 -8.48828125 14.890625 -8 11 C-5.59375 8.71875 -5.59375 8.71875 -3 7 C-1.81743503 5.14958295 -1.81743503 5.14958295 -1.1875 3.25 C-0.795625 2.1775 -0.40375 1.105 0 0 Z " fill="#FBC9BD" transform="translate(75,28)"/>
<path d="M0 0 C6.625 -0.125 6.625 -0.125 10 1 C9.93039063 2.08667969 9.93039063 2.08667969 9.859375 3.1953125 C9.61879683 9.63937062 9.88577344 13.01305872 14 18 C14.33 18.99 14.66 19.98 15 21 C13.37660195 22.70884005 11.70680947 24.37446717 10 26 C9.34 26 8.68 26 8 26 C7.84144531 24.96101563 7.68289062 23.92203125 7.51953125 22.8515625 C6.15220785 14.48912096 4.46873459 7.34780075 0 0 Z " fill="#8E605F" transform="translate(59,12)"/>
<path d="M0 0 C2.31 0.33 4.62 0.66 7 1 C6.26422712 3.25556604 5.51224486 5.50338357 4.75 7.75 C4.54503906 8.38421875 4.34007813 9.0184375 4.12890625 9.671875 C2.74851232 13.68756642 1.24565981 16.25367247 -2 19 C-3.625 17.375 -3.625 17.375 -5 15 C-4.1875 11.75 -4.1875 11.75 -3 9 C-3.66 8.67 -4.32 8.34 -5 8 C-3.98379995 4.95139986 -3.22608429 4.13333078 -1 2 C-0.67 1.34 -0.34 0.68 0 0 Z " fill="#D7E3F7" transform="translate(95,77)"/>
<path d="M0 0 C1.625 2.375 1.625 2.375 3 5 C3.66 5.66 4.32 6.32 5 7 C4.62875 7.5775 4.2575 8.155 3.875 8.75 C2.70833333 11 2.70833333 11 3.875 13.25 C4.24625 13.8275 4.6175 14.405 5 15 C3.68 16.32 2.36 17.64 1 19 C-3.23759274 13.55166648 -5.00674157 7.55230698 -7 1 C-4 0 -4 0 0 0 Z " fill="#D8E4F7" transform="translate(83,77)"/>
<path d="M0 0 C1.65 0 3.3 0 5 0 C5.33 2.31 5.66 4.62 6 7 C6.33 6.67 6.66 6.34 7 6 C9.5 5.875 9.5 5.875 12 6 C13 7 13 7 13.3125 10.8125 C13.26788765 13.91863511 13.1120435 14.83400963 11.3125 17.5 C9 19 9 19 4 19 C4 13.06 4 7.12 4 1 C2.68 0.67 1.36 0.34 0 0 Z " fill="#F8C7BA" transform="translate(110,39)"/>
<path d="M0 0 C1.98 0.66 3.96 1.32 6 2 C4.94853607 8.1012578 3.44920856 12.82618716 0 18 C-0.66 18.33 -1.32 18.66 -2 19 C-2.99 17.35 -3.98 15.7 -5 14 C-4.01 12.68 -3.02 11.36 -2 10 C-2.99 8.68 -3.98 7.36 -5 6 C-4.360625 5.566875 -3.72125 5.13375 -3.0625 4.6875 C-0.73253997 3.08760823 -0.73253997 3.08760823 0 0 Z " fill="#DBE6F8" transform="translate(39,77)"/>
<path d="M0 0 C0.598125 0.78375 1.19625 1.5675 1.8125 2.375 C3.91085249 5.14574323 3.91085249 5.14574323 7 7 C6.01 8.32 5.02 9.64 4 11 C4.66 11.66 5.32 12.32 6 13 C5.8125 15 5.8125 15 5 17 C4.01 17.66 3.02 18.32 2 19 C-0.94033413 13.42234327 -3.53012914 8.14673271 -5 2 C-3.35 1.34 -1.7 0.68 0 0 Z " fill="#DAE5F7" transform="translate(26,77)"/>
<path d="M0 0 C3.01241138 2.37071428 3.93316286 3.47450069 4.42578125 7.34765625 C4.38839844 8.57355469 4.35101563 9.79945312 4.3125 11.0625 C4.28800781 12.29097656 4.26351562 13.51945312 4.23828125 14.78515625 C4 18 4 18 3 21 C1.35 21 -0.3 21 -2 21 C-2.11368403 14.24211575 -1.97196778 7.69577806 -1 1 C-0.67 0.67 -0.34 0.34 0 0 Z " fill="#E8F0FD" transform="translate(71,86)"/>
<path d="M0 0 C0.66 0 1.32 0 2 0 C5.12208622 5.07339011 5.65002968 9.20301404 5 15 C4 18.0625 4 18.0625 3 20 C1.35 20 -0.3 20 -2 20 C-1.85879984 17.41633755 -1.71221667 14.83317115 -1.5625 12.25 C-1.52318359 11.52039063 -1.48386719 10.79078125 -1.44335938 10.0390625 C-1.23852902 6.5727027 -0.9147998 3.34666974 0 0 Z " fill="#E6EFFD" transform="translate(15,86)"/>
<path d="M0 0 C1.65 1.65 3.3 3.3 5 5 C4.01 6.32 3.02 7.64 2 9 C2.99 10.65 3.98 12.3 5 14 C4.34 14 3.68 14 3 14 C3 14.66 3 15.32 3 16 C1.1875 16.6875 1.1875 16.6875 -1 17 C-2.75 15.5625 -2.75 15.5625 -4 14 C-3.649375 13.4225 -3.29875 12.845 -2.9375 12.25 C-1.82746177 9.58590824 -2.1354901 8.67998068 -3 6 C-3 3 -3 3 -1.5 1.3125 C-0.7575 0.6628125 -0.7575 0.6628125 0 0 Z " fill="#D37788" transform="translate(33,83)"/>
<path d="M0 0 C2.625 0.375 2.625 0.375 5 1 C5 5 5 5 4 8 C4.87914688 10.6569191 4.87914688 10.6569191 6 13 C5.01 13.99 4.02 14.98 3 16 C1.0625 15.1875 1.0625 15.1875 -1 14 C-2 11 -2 11 -0.9375 8.5625 C0.30252343 6.0383409 0.30252343 6.0383409 -0.875 3.6875 C-1.24625 3.130625 -1.6175 2.57375 -2 2 C-1.34 1.34 -0.68 0.68 0 0 Z " fill="#D67989" transform="translate(87,84)"/>
<path d="M0 0 C0.9075 0.185625 1.815 0.37125 2.75 0.5625 C5.68314324 0.95734621 7.2644657 0.94691572 10 0 C9.67 1.65 9.34 3.3 9 5 C6.1875 5.625 6.1875 5.625 3 6 C2.01 5.34 1.02 4.68 0 4 C0 2.68 0 1.36 0 0 Z " fill="#DA7F8A" transform="translate(84,57)"/>
<path d="M0 0 C2.97 0 5.94 0 9 0 C8.67 1.65 8.34 3.3 8 5 C5.1875 5.625 5.1875 5.625 2 6 C1.01 5.34 0.02 4.68 -1 4 C-0.67 2.68 -0.34 1.36 0 0 Z " fill="#DB808B" transform="translate(29,57)"/>
<path d="M0 0 C2.97 0 5.94 0 9 0 C7.6875 2.9375 7.6875 2.9375 6 6 C5.01 6.33 4.02 6.66 3 7 C1.5 5.75 1.5 5.75 0 4 C0 2.68 0 1.36 0 0 Z " fill="#FEDCCE" transform="translate(87,76)"/>
<path d="M0 0 C2.64 0 5.28 0 8 0 C7.6875 2.375 7.6875 2.375 7 5 C6.01 5.66 5.02 6.32 4 7 C2 5.1875 2 5.1875 0 3 C0 2.01 0 1.02 0 0 Z " fill="#FEDCCD" transform="translate(31,76)"/>
<path d="M0 0 C4.875 0.875 4.875 0.875 6 2 C6.04063832 3.66617115 6.042721 5.33388095 6 7 C4.68 7.33 3.36 7.66 2 8 C1.67 6.35 1.34 4.7 1 3 C0.34 3 -0.32 3 -1 3 C-0.67 2.01 -0.34 1.02 0 0 Z " fill="#405A6F" transform="translate(18,43)"/>
<path d="M0 0 C0.66 1.65 1.32 3.3 2 5 C1.01 5.99 0.02 6.98 -1 8 C-2.32 7.34 -3.64 6.68 -5 6 C-5 3 -5 3 -3.625 1.3125 C-2 0 -2 0 0 0 Z " fill="#D37183" transform="translate(91,92)"/>
<path d="M0 0 C1.2065625 0.0309375 1.2065625 0.0309375 2.4375 0.0625 C2.4375 1.0525 2.4375 2.0425 2.4375 3.0625 C1.7775 3.0625 1.1175 3.0625 0.4375 3.0625 C0.1075 4.7125 -0.2225 6.3625 -0.5625 8.0625 C-1.5525 8.0625 -2.5425 8.0625 -3.5625 8.0625 C-3.60491723 5.72955225 -3.60342937 3.39547433 -3.5625 1.0625 C-2.5625 0.0625 -2.5625 0.0625 0 0 Z " fill="#3B586D" transform="translate(46.5625,42.9375)"/>
<path d="M0 0 C1.32 0.33 2.64 0.66 4 1 C4 5 4 5 2.5 6.75 C2.005 7.1625 1.51 7.575 1 8 C0.01 6.68 -0.98 5.36 -2 4 C-1.34 2.68 -0.68 1.36 0 0 Z " fill="#E6E9F7" transform="translate(92,88)"/>
<path d="M0 0 C1.32 0.33 2.64 0.66 4 1 C4 5 4 5 2.5 6.75 C2.005 7.1625 1.51 7.575 1 8 C0.01 6.68 -0.98 5.36 -2 4 C-1.34 2.68 -0.68 1.36 0 0 Z " fill="#E5E9F7" transform="translate(83,88)"/>
<path d="M0 0 C-0.66 1.32 -1.32 2.64 -2 4 C-3.65 4 -5.3 4 -7 4 C-7.66 2.68 -8.32 1.36 -9 0 C-5.93109813 -1.53445094 -3.29905734 -0.54984289 0 0 Z " fill="#ECB3A9" transform="translate(53,54)"/>
<path d="M0 0 C2.33944736 0.28730055 4.6739143 0.61936779 7 1 C6.67 2.32 6.34 3.64 6 5 C4.02 5 2.04 5 0 5 C-0.5625 3.0625 -0.5625 3.0625 -1 1 C-0.67 0.67 -0.34 0.34 0 0 Z " fill="#EBB1A7" transform="translate(69,51)"/>
<path d="M0 0 C2.31 0.33 4.62 0.66 7 1 C6.67 2.65 6.34 4.3 6 6 C4.35 6.33 2.7 6.66 1 7 C0.67 4.69 0.34 2.38 0 0 Z " fill="#E19571" transform="translate(20,72)"/>
<path d="M0 0 C1.98 0 3.96 0 6 0 C6.33 1.32 6.66 2.64 7 4 C1.25 5.125 1.25 5.125 -1 4 C-0.67 2.68 -0.34 1.36 0 0 Z " fill="#EBB1A7" transform="translate(15,53)"/>
<path d="M0 0 C2.33944736 0.28730055 4.6739143 0.61936779 7 1 C7 1.99 7 2.98 7 4 C4.69 4.33 2.38 4.66 0 5 C-0.5625 3.0625 -0.5625 3.0625 -1 1 C-0.67 0.67 -0.34 0.34 0 0 Z " fill="#EBB2A7" transform="translate(103,51)"/>
<path d="M0 0 C0.99 0.33 1.98 0.66 3 1 C3 2.98 3 4.96 3 7 C1.68 7.33 0.36 7.66 -1 8 C-1.625 5.125 -1.625 5.125 -2 2 C-1.34 1.34 -0.68 0.68 0 0 Z " fill="#475F72" transform="translate(76,41)"/>
<path d="M0 0 C1.32 0.66 2.64 1.32 4 2 C3.6875 3.875 3.6875 3.875 3 6 C2.01 6.66 1.02 7.32 0 8 C-2 5 -2 5 -1.6875 2.875 C-1 1 -1 1 0 0 Z " fill="#E7EDFA" transform="translate(28,88)"/>
<path d="M0 0 C1.32 0.66 2.64 1.32 4 2 C2.25 6.875 2.25 6.875 0 8 C-0.99 6.35 -1.98 4.7 -3 3 C-2.01 2.01 -1.02 1.02 0 0 Z " fill="#E9EEFB" transform="translate(37,88)"/>
<path d="M0 0 C0.99 0.33 1.98 0.66 3 1 C3 3.31 3 5.62 3 8 C1.68 7.67 0.36 7.34 -1 7 C-1.04254356 5.00045254 -1.04080783 2.99958364 -1 1 C-0.67 0.67 -0.34 0.34 0 0 Z " fill="#3B586E" transform="translate(100,41)"/>
<path d="M0 0 C1.65 0 3.3 0 5 0 C5 1.32 5 2.64 5 4 C3.35 4.33 1.7 4.66 0 5 C0 3.35 0 1.7 0 0 Z " fill="#ECAFA0" transform="translate(115,49)"/>
</svg>
