<?xml version="1.0" encoding="UTF-8"?>
<svg version="1.1" xmlns="http://www.w3.org/2000/svg" width="128" height="128">
<path d="M0 0 C4.41527404 2.42181076 6.98500467 5.40790548 8.984375 10.01171875 C9.97709014 13.4925853 9.85082689 16.54936098 9.59375 20.1484375 C10.356875 20.3959375 11.12 20.6434375 11.90625 20.8984375 C14.87982889 22.28149745 15.91498929 23.37848233 17.59375 26.1484375 C18.87692892 29.99797426 18.66018637 33.09581885 18.59375 37.1484375 C13.09574203 35.36158491 13.09574203 35.36158491 10.625 34.3125 C6.19353989 32.45469557 3.40292489 31.8259144 -1.40625 33.1484375 C-1.40625 34.1384375 -1.40625 35.1284375 -1.40625 36.1484375 C-0.65859375 36.10203125 0.0890625 36.055625 0.859375 36.0078125 C2.33664063 35.95367187 2.33664063 35.95367187 3.84375 35.8984375 C4.81828125 35.85203125 5.7928125 35.805625 6.796875 35.7578125 C9.59375 36.1484375 9.59375 36.1484375 11.84375 37.7734375 C13.93924306 40.61732093 14.59550762 42.95652257 15.34375 46.3984375 C15.58609375 47.47609375 15.8284375 48.55375 16.078125 49.6640625 C16.24828125 50.48390625 16.4184375 51.30375 16.59375 52.1484375 C15.93375 52.1484375 15.27375 52.1484375 14.59375 52.1484375 C14.73504287 54.56544737 14.88161487 56.98194179 15.03125 59.3984375 C15.07056641 60.08035156 15.10988281 60.76226562 15.15039062 61.46484375 C15.36160681 64.81180789 15.72735486 67.91389566 16.59375 71.1484375 C16.63263349 73.48144683 16.6386135 75.81553551 16.59375 78.1484375 C14.61375 79.1384375 14.61375 79.1384375 12.59375 80.1484375 C13.91375 84.1084375 15.23375 88.0684375 16.59375 92.1484375 C12.96375 92.1484375 9.33375 92.1484375 5.59375 92.1484375 C5.73333564 96.66948628 5.88152757 101.19021396 6.03125 105.7109375 C6.07056641 106.98775391 6.10988281 108.26457031 6.15039062 109.58007812 C6.19228516 110.82080078 6.23417969 112.06152344 6.27734375 113.33984375 C6.33233032 115.04442749 6.33233032 115.04442749 6.38842773 116.78344727 C6.60179301 120.28025295 7.05329277 123.68835725 7.59375 127.1484375 C2.97375 127.1484375 -1.64625 127.1484375 -6.40625 127.1484375 C-6.40625 121.1484375 -6.40625 121.1484375 -5.40625 120.1484375 C-5.2478235 118.0775903 -5.15500578 116.00165721 -5.08984375 113.92578125 C-5.04794922 112.66572266 -5.00605469 111.40566406 -4.96289062 110.10742188 C-4.92307404 108.76693014 -4.88336186 107.4264353 -4.84375 106.0859375 C-4.80056958 104.74152227 -4.75695544 103.3971209 -4.71289062 102.05273438 C-4.60639642 98.7514141 -4.5043854 95.45001514 -4.40625 92.1484375 C-7.04625 92.1484375 -9.68625 92.1484375 -12.40625 92.1484375 C-12.28826056 96.11796649 -12.16403201 100.08724531 -12.03393555 104.05639648 C-11.99053777 105.40757897 -11.9488663 106.75881803 -11.90893555 108.11010742 C-11.85135048 110.04880451 -11.78710702 111.98730026 -11.72265625 113.92578125 C-11.68599854 115.09359131 -11.64934082 116.26140137 -11.61157227 117.46459961 C-11.70548812 120.06623545 -11.70548812 120.06623545 -10.40625 121.1484375 C-10.40625 123.1284375 -10.40625 125.1084375 -10.40625 127.1484375 C-15.02625 127.1484375 -19.64625 127.1484375 -24.40625 127.1484375 C-24.24777588 126.13386475 -24.08930176 125.11929199 -23.92602539 124.07397461 C-23.44853545 120.46779295 -23.20704311 116.97302388 -23.08984375 113.33984375 C-23.04794922 112.09912109 -23.00605469 110.85839844 -22.96289062 109.58007812 C-22.92357422 108.30326172 -22.88425781 107.02644531 -22.84375 105.7109375 C-22.80056641 104.40705078 -22.75738281 103.10316406 -22.71289062 101.75976562 C-22.60727476 98.55608434 -22.50516899 95.35233139 -22.40625 92.1484375 C-26.03625 92.1484375 -29.66625 92.1484375 -33.40625 92.1484375 C-32.08625 88.1884375 -30.76625 84.2284375 -29.40625 80.1484375 C-30.72625 79.4884375 -32.04625 78.8284375 -33.40625 78.1484375 C-33.53184809 71.61733702 -33.53184809 71.61733702 -32.9375 69.3984375 C-32.15901278 66.10131516 -32.03812476 62.76972439 -31.84375 59.3984375 C-31.80056641 58.70105469 -31.75738281 58.00367188 -31.71289062 57.28515625 C-31.60735404 55.57311828 -31.5063509 53.86080189 -31.40625 52.1484375 C-32.06625 51.8184375 -32.72625 51.4884375 -33.40625 51.1484375 C-32.81558505 49.01964505 -32.20826433 46.89546825 -31.59375 44.7734375 C-31.25730469 43.59007812 -30.92085937 42.40671875 -30.57421875 41.1875 C-29.40625 38.1484375 -29.40625 38.1484375 -26.40625 36.1484375 C-23.70703125 35.953125 -23.70703125 35.953125 -20.71875 36.0234375 C-19.72488281 36.04148438 -18.73101563 36.05953125 -17.70703125 36.078125 C-16.56814453 36.11292969 -16.56814453 36.11292969 -15.40625 36.1484375 C-15.40625 35.1584375 -15.40625 34.1684375 -15.40625 33.1484375 C-20.78050487 31.45130438 -24.13050491 32.9539467 -29.0390625 35.140625 C-31.1625803 36.04469693 -33.15628161 36.66111716 -35.40625 37.1484375 C-35.69596178 31.54734302 -35.56601306 28.00093077 -32.40625 23.1484375 C-29.10625 20.1484375 -29.10625 20.1484375 -26.40625 20.1484375 C-26.48875 18.9934375 -26.57125 17.8384375 -26.65625 16.6484375 C-26.61580738 10.935918 -24.85478049 6.57931031 -20.78125 2.53515625 C-14.66214814 -1.9904295 -7.11726304 -2.51877166 0 0 Z " fill="#4F81BD" transform="translate(40.40625,0.8515625)"/>
<path d="M0 0 C4.85326022 2.43736741 7.95865199 6.39314863 9.828125 11.38671875 C10.74864987 17.56738571 10.54989626 23.17623898 6.828125 28.38671875 C4.91475764 30.30518843 3.04342489 31.78416139 0.828125 33.38671875 C0.168125 33.38671875 -0.491875 33.38671875 -1.171875 33.38671875 C-1.171875 34.37671875 -1.171875 35.36671875 -1.171875 36.38671875 C-0.34042969 36.35191406 0.49101563 36.31710938 1.34765625 36.28125 C2.97767578 36.24064453 2.97767578 36.24064453 4.640625 36.19921875 C5.71957031 36.16441406 6.79851562 36.12960938 7.91015625 36.09375 C10.828125 36.38671875 10.828125 36.38671875 12.609375 37.48046875 C14.35948453 40.21781955 14.85655971 42.90442854 15.515625 46.07421875 C15.89267578 47.84345703 15.89267578 47.84345703 16.27734375 49.6484375 C16.45910156 50.55207031 16.64085937 51.45570312 16.828125 52.38671875 C16.168125 52.38671875 15.508125 52.38671875 14.828125 52.38671875 C14.8688916 53.00192383 14.9096582 53.61712891 14.95166016 54.25097656 C15.13034477 57.045625 15.29190462 59.84101073 15.453125 62.63671875 C15.51757812 63.60480469 15.58203125 64.57289062 15.6484375 65.5703125 C15.7 66.50488281 15.7515625 67.43945312 15.8046875 68.40234375 C15.85705566 69.26118164 15.90942383 70.12001953 15.96337891 71.00488281 C15.80956933 73.71348606 15.36738743 75.15619957 13.828125 77.38671875 C11.848125 78.37671875 11.848125 78.37671875 9.828125 79.38671875 C9.828125 83.67671875 9.828125 87.96671875 9.828125 92.38671875 C8.508125 92.38671875 7.188125 92.38671875 5.828125 92.38671875 C5.96771064 96.90776753 6.11590257 101.42849521 6.265625 105.94921875 C6.30494141 107.22603516 6.34425781 108.50285156 6.38476562 109.81835938 C6.42666016 111.05908203 6.46855469 112.29980469 6.51171875 113.578125 C6.56670532 115.28270874 6.56670532 115.28270874 6.62280273 117.02172852 C6.83616801 120.5185342 7.28766777 123.9266385 7.828125 127.38671875 C3.208125 127.38671875 -1.411875 127.38671875 -6.171875 127.38671875 C-6.01340088 126.372146 -5.85492676 125.35757324 -5.69165039 124.31225586 C-5.21416045 120.7060742 -4.97266811 117.21130513 -4.85546875 113.578125 C-4.81357422 112.33740234 -4.77167969 111.09667969 -4.72851562 109.81835938 C-4.68919922 108.54154297 -4.64988281 107.26472656 -4.609375 105.94921875 C-4.56619141 104.64533203 -4.52300781 103.34144531 -4.47851562 101.99804688 C-4.37289976 98.79436559 -4.27079399 95.59061264 -4.171875 92.38671875 C-6.811875 92.38671875 -9.451875 92.38671875 -12.171875 92.38671875 C-12.05388556 96.35624774 -11.92965701 100.32552656 -11.79956055 104.29467773 C-11.75616277 105.64586022 -11.7144913 106.99709928 -11.67456055 108.34838867 C-11.61697548 110.28708576 -11.55273202 112.22558151 -11.48828125 114.1640625 C-11.45162354 115.33187256 -11.41496582 116.49968262 -11.37719727 117.70288086 C-11.47111312 120.3045167 -11.47111312 120.3045167 -10.171875 121.38671875 C-10.171875 123.36671875 -10.171875 125.34671875 -10.171875 127.38671875 C-14.791875 127.38671875 -19.411875 127.38671875 -24.171875 127.38671875 C-23.841875 125.40671875 -23.511875 123.42671875 -23.171875 121.38671875 C-23.03013487 119.07876464 -22.92705441 116.76822529 -22.85546875 114.45703125 C-22.81357422 113.16796875 -22.77167969 111.87890625 -22.72851562 110.55078125 C-22.68871472 109.20442966 -22.64900227 107.85807546 -22.609375 106.51171875 C-22.56612317 105.14191542 -22.52250688 103.77212354 -22.47851562 102.40234375 C-22.37271978 99.06389718 -22.27063128 95.72537975 -22.171875 92.38671875 C-23.491875 92.38671875 -24.811875 92.38671875 -26.171875 92.38671875 C-25.511875 88.09671875 -24.851875 83.80671875 -24.171875 79.38671875 C-25.821875 78.72671875 -27.471875 78.06671875 -29.171875 77.38671875 C-33.64722074 70.67370014 -30.91279116 60.08695452 -30.171875 52.38671875 C-31.161875 52.05671875 -32.151875 51.72671875 -33.171875 51.38671875 C-32.57904301 49.4457206 -31.97217248 47.5090063 -31.359375 45.57421875 C-31.02292969 44.49527344 -30.68648438 43.41632812 -30.33984375 42.3046875 C-28.60978932 37.98244448 -28.60978932 37.98244448 -26.171875 36.38671875 C-23.47265625 36.09375 -23.47265625 36.09375 -20.484375 36.19921875 C-19.49050781 36.22628906 -18.49664062 36.25335938 -17.47265625 36.28125 C-16.33376953 36.33345703 -16.33376953 36.33345703 -15.171875 36.38671875 C-15.9113179 33.13191982 -15.9113179 33.13191982 -19.046875 31.51171875 C-22.75819269 28.98802272 -24.28917174 26.71384553 -25.859375 22.57421875 C-26.75274748 16.32061139 -26.77059546 11.72675556 -23.171875 6.38671875 C-16.32855691 -0.37739427 -9.71185877 -2.74237739 0 0 Z " fill="#D1E0E7" transform="translate(106.171875,0.61328125)"/>
<path d="M0 0 C1.12591553 0.00523682 2.25183105 0.01047363 3.41186523 0.01586914 C4.62680664 0.0190918 5.84174805 0.02231445 7.09350586 0.02563477 C8.37290039 0.03401367 9.65229492 0.04239258 10.97045898 0.05102539 C12.2537207 0.05553711 13.53698242 0.06004883 14.85913086 0.06469727 C18.04211921 0.07652994 21.22501661 0.09301471 24.40795898 0.11352539 C25.08307368 3.82037189 25.74653939 7.52921283 26.40795898 11.23852539 C26.59874023 12.28524414 26.78952148 13.33196289 26.98608398 14.41040039 C27.16655273 15.42875977 27.34702148 16.44711914 27.53295898 17.49633789 C27.70053711 18.42849121 27.86811523 19.36064453 28.04077148 20.32104492 C28.43010618 23.28195599 28.46954314 26.13054301 28.40795898 29.11352539 C27.08795898 29.11352539 25.76795898 29.11352539 24.40795898 29.11352539 C24.54754463 33.63457417 24.69573655 38.15530185 24.84545898 42.67602539 C24.88477539 43.9528418 24.9240918 45.2296582 24.96459961 46.54516602 C25.00649414 47.78588867 25.04838867 49.02661133 25.09155273 50.30493164 C25.14653931 52.00951538 25.14653931 52.00951538 25.20263672 53.74853516 C25.41600199 57.24534084 25.86750176 60.65344514 26.40795898 64.11352539 C21.78795898 64.11352539 17.16795898 64.11352539 12.40795898 64.11352539 C12.56643311 63.09895264 12.72490723 62.08437988 12.88818359 61.0390625 C13.36567353 57.43288084 13.60716588 53.93811177 13.72436523 50.30493164 C13.76625977 49.06420898 13.8081543 47.82348633 13.85131836 46.54516602 C13.89063477 45.26834961 13.92995117 43.9915332 13.97045898 42.67602539 C14.01364258 41.37213867 14.05682617 40.06825195 14.10131836 38.72485352 C14.20693423 35.52117223 14.30903999 32.31741928 14.40795898 29.11352539 C11.76795898 29.11352539 9.12795898 29.11352539 6.40795898 29.11352539 C6.52594843 33.08305439 6.65017698 37.0523332 6.78027344 41.02148438 C6.82367122 42.37266686 6.86534268 43.72390592 6.90527344 45.07519531 C6.9628585 47.0138924 7.02710196 48.95238815 7.09155273 50.89086914 C7.12821045 52.0586792 7.16486816 53.22648926 7.20263672 54.4296875 C7.10872086 57.03132334 7.10872086 57.03132334 8.40795898 58.11352539 C8.40795898 60.09352539 8.40795898 62.07352539 8.40795898 64.11352539 C3.78795898 64.11352539 -0.83204102 64.11352539 -5.59204102 64.11352539 C-5.09704102 61.14352539 -5.09704102 61.14352539 -4.59204102 58.11352539 C-4.45030088 55.80557129 -4.34722042 53.49503194 -4.27563477 51.18383789 C-4.23374023 49.89477539 -4.1918457 48.60571289 -4.14868164 47.27758789 C-4.10888074 45.9312363 -4.06916829 44.5848821 -4.02954102 43.23852539 C-3.98628918 41.86872206 -3.9426729 40.49893018 -3.89868164 39.12915039 C-3.7928858 35.79070383 -3.6907973 32.45218639 -3.59204102 29.11352539 C-4.91204102 29.11352539 -6.23204102 29.11352539 -7.59204102 29.11352539 C-5.34594727 13.39086914 -5.34594727 13.39086914 -4.9519043 10.65600586 C-4.72783539 9.07293012 -4.51130411 7.48874591 -4.30639648 5.90307617 C-3.55584964 0.15573798 -3.55584964 0.15573798 0 0 Z " fill="#5081BD" transform="translate(87.592041015625,63.886474609375)"/>
<path d="M0 0 C4.41527404 2.42181076 6.98500467 5.40790548 8.984375 10.01171875 C9.97709014 13.4925853 9.85082689 16.54936098 9.59375 20.1484375 C10.356875 20.3959375 11.12 20.6434375 11.90625 20.8984375 C14.87982889 22.28149745 15.91498929 23.37848233 17.59375 26.1484375 C18.87692892 29.99797426 18.66018637 33.09581885 18.59375 37.1484375 C13.09574203 35.36158491 13.09574203 35.36158491 10.625 34.3125 C9.9546875 34.03148437 9.284375 33.75046875 8.59375 33.4609375 C7.975 33.18894531 7.35625 32.91695312 6.71875 32.63671875 C3.96415621 31.86166301 3.96415621 31.86166301 -1.40625 33.1484375 C-1.40625 38.7584375 -1.40625 44.3684375 -1.40625 50.1484375 C-6.02625 50.1484375 -10.64625 50.1484375 -15.40625 50.1484375 C-15.40625 44.5384375 -15.40625 38.9284375 -15.40625 33.1484375 C-21.44653877 32.0617649 -21.44653877 32.0617649 -26.53125 34.0234375 C-29.4844731 35.33904779 -32.24147806 36.46297998 -35.40625 37.1484375 C-35.69596178 31.54734302 -35.56601306 28.00093077 -32.40625 23.1484375 C-29.10625 20.1484375 -29.10625 20.1484375 -26.40625 20.1484375 C-26.48875 18.9934375 -26.57125 17.8384375 -26.65625 16.6484375 C-26.61580738 10.935918 -24.85478049 6.57931031 -20.78125 2.53515625 C-14.66214814 -1.9904295 -7.11726304 -2.51877166 0 0 Z " fill="#FDE9D9" transform="translate(40.40625,0.8515625)"/>
<path d="M0 0 C4.85326022 2.43736741 7.95865199 6.39314863 9.828125 11.38671875 C10.74864987 17.56738571 10.54989626 23.17623898 6.828125 28.38671875 C4.91475764 30.30518843 3.04342489 31.78416139 0.828125 33.38671875 C0.168125 33.38671875 -0.491875 33.38671875 -1.171875 33.38671875 C-1.171875 34.70671875 -1.171875 36.02671875 -1.171875 37.38671875 C-2.75316529 37.61003074 -4.33708589 37.81476519 -5.921875 38.01171875 C-6.80359375 38.12773438 -7.6853125 38.24375 -8.59375 38.36328125 C-11.45257632 38.38927058 -12.83840028 38.0159466 -15.171875 36.38671875 C-15.666875 34.90171875 -15.666875 34.90171875 -16.171875 33.38671875 C-17.120625 32.76796875 -18.069375 32.14921875 -19.046875 31.51171875 C-22.75819269 28.98802272 -24.28917174 26.71384553 -25.859375 22.57421875 C-26.75274748 16.32061139 -26.77059546 11.72675556 -23.171875 6.38671875 C-16.32855691 -0.37739427 -9.71185877 -2.74237739 0 0 Z " fill="#FDE9DA" transform="translate(106.171875,0.61328125)"/>
<path d="M0 0 C1.051875 0.01546875 2.10375 0.0309375 3.1875 0.046875 C6 0.25 6 0.25 9 1.25 C8.1875 3.1875 8.1875 3.1875 7 5.25 C4 6.25 4 6.25 1.8125 5.3125 C1.214375 4.961875 0.61625 4.61125 0 4.25 C-0.33 5.24 -0.66 6.23 -1 7.25 C1.28226769 9.27868239 2.54087269 10.20627359 5.625 10.5 C8.01463014 10.38898636 8.01463014 10.38898636 10 9.25 C10 15.19 10 21.13 10 27.25 C6.37 27.58 2.74 27.91 -1 28.25 C-1.66 32.87 -2.32 37.49 -3 42.25 C-4.485 42.745 -4.485 42.745 -6 43.25 C-10.75341028 39.68494229 -10.75341028 39.68494229 -11.3671875 36.11328125 C-11.37570651 33.46812772 -11.22418403 30.88597028 -11 28.25 C-10.92007813 27.15558594 -10.84015625 26.06117187 -10.7578125 24.93359375 C-10.53201219 22.03582313 -10.27837631 19.14312517 -10 16.25 C-10.99 15.92 -11.98 15.59 -13 15.25 C-12.40716801 13.30900185 -11.80029748 11.37228755 -11.1875 9.4375 C-10.85105469 8.35855469 -10.51460938 7.27960937 -10.16796875 6.16796875 C-7.91810862 0.54708074 -5.98759644 -0.14675481 0 0 Z " fill="#D1E1E7" transform="translate(86,36.75)"/>
<path d="M0 0 C4.84363493 2.41114867 7.76726431 6.51863499 9.8359375 11.3828125 C10.1484375 14.8828125 10.1484375 14.8828125 9.8359375 17.3828125 C3.68763039 16.17726209 1.48345531 14.46723126 -2.1640625 9.3828125 C-2.69515625 9.87652344 -3.22625 10.37023438 -3.7734375 10.87890625 C-4.47984375 11.51957031 -5.18625 12.16023437 -5.9140625 12.8203125 C-6.61015625 13.45839844 -7.30625 14.09648437 -8.0234375 14.75390625 C-11.9628289 17.75158182 -15.57109114 17.49795349 -20.4140625 17.4453125 C-21.49171875 17.43628906 -22.569375 17.42726563 -23.6796875 17.41796875 C-24.49953125 17.40636719 -25.319375 17.39476563 -26.1640625 17.3828125 C-26.04749007 10.85475627 -24.44535033 7.83228428 -20.05078125 3.046875 C-14.50291986 -1.84626983 -6.96097701 -1.98526059 0 0 Z " fill="#393939" transform="translate(106.1640625,0.6171875)"/>
<path d="M0 0 C5.11154033 2.81851289 7.84808676 6.61444972 9.58984375 12.15234375 C9.83984375 15.15234375 9.83984375 15.15234375 9.58984375 17.15234375 C5.17739839 16.64806428 2.84010058 15.13906624 -0.41015625 12.15234375 C-1.07015625 11.16234375 -1.73015625 10.17234375 -2.41015625 9.15234375 C-2.94125 9.64605469 -3.47234375 10.13976563 -4.01953125 10.6484375 C-4.7259375 11.28910156 -5.43234375 11.92976562 -6.16015625 12.58984375 C-6.85625 13.22792969 -7.55234375 13.86601562 -8.26953125 14.5234375 C-12.20892265 17.52111307 -15.81718489 17.26748474 -20.66015625 17.21484375 C-21.7378125 17.20582031 -22.81546875 17.19679688 -23.92578125 17.1875 C-24.745625 17.17589844 -25.56546875 17.16429688 -26.41015625 17.15234375 C-26.00895582 11.33493754 -25.34874974 7.71282042 -21.41015625 3.15234375 C-15.15252662 -1.80161304 -7.58970001 -2.66931103 0 0 Z " fill="#3A3939" transform="translate(40.41015625,0.84765625)"/>
<path d="M0 0 C3.38671875 0.30859375 3.38671875 0.30859375 7 1 C8.5038286 3.54095176 9.25245944 5.23094129 10 8 C10.20367187 8.73992188 10.40734375 9.47984375 10.6171875 10.2421875 C11.11349161 12.15261838 11.56109517 14.07557113 12 16 C11.34 16 10.68 16 10 16 C10.14129287 18.41700987 10.28786487 20.83350429 10.4375 23.25 C10.47681641 23.93191406 10.51613281 24.61382812 10.55664062 25.31640625 C10.76773454 28.66143288 11.11648823 31.7701127 12 35 C12.1875 38.625 12.1875 38.625 12 42 C11.34 42.66 10.68 43.32 10 44 C8.078125 43.98828125 8.078125 43.98828125 6 43 C-2.78516597 30.64837903 -0.58394052 14.30354808 0 0 Z " fill="#FEEADB" transform="translate(45,37)"/>
<path d="M0 0 C1.33448285 32.68798627 1.33448285 32.68798627 -6 43 C-8.078125 43.98828125 -8.078125 43.98828125 -10 44 C-12 42 -12 42 -12.1875 38.625 C-12 35 -12 35 -11.5234375 33.2578125 C-10.75808436 29.95651311 -10.63196294 26.62281632 -10.4375 23.25 C-10.37272461 22.20392578 -10.37272461 22.20392578 -10.30664062 21.13671875 C-10.20110404 19.42468078 -10.1001009 17.71236439 -10 16 C-10.66 15.67 -11.32 15.34 -12 15 C-11.40933505 12.87120755 -10.80201433 10.74703075 -10.1875 8.625 C-9.85105469 7.44164062 -9.51460937 6.25828125 -9.16796875 5.0390625 C-7.29012519 0.152901 -4.85247875 -0.26229615 0 0 Z " fill="#FEEADB" transform="translate(19,37)"/>
<path d="M0 0 C3.3 0 6.6 0 10 0 C10.02505615 0.81154541 10.0501123 1.62309082 10.07592773 2.45922852 C10.19245817 6.16045716 10.314925 9.86146681 10.4375 13.5625 C10.47681641 14.83931641 10.51613281 16.11613281 10.55664062 17.43164062 C10.61948242 19.29272461 10.61948242 19.29272461 10.68359375 21.19140625 C10.72025146 22.32779541 10.75690918 23.46418457 10.79467773 24.63500977 C11.00804301 28.13181545 11.45954277 31.53991975 12 35 C7.38 35 2.76 35 -2 35 C-2 29 -2 29 -1 28 C-0.8415735 25.9291528 -0.74875578 23.85321971 -0.68359375 21.77734375 C-0.64169922 20.51728516 -0.59980469 19.25722656 -0.55664062 17.95898438 C-0.51682404 16.61849264 -0.47711186 15.2779978 -0.4375 13.9375 C-0.39431958 12.59308477 -0.35070544 11.2486834 -0.30664062 9.90429688 C-0.20014642 6.6029766 -0.0981354 3.30157764 0 0 Z " fill="#FEEADA" transform="translate(36,93)"/>
<path d="M0 0 C3.3 0 6.6 0 10 0 C10.02505615 0.84296631 10.0501123 1.68593262 10.07592773 2.55444336 C10.17088155 5.67241674 10.27012448 8.79021503 10.37231445 11.90795898 C10.41571223 13.25914147 10.4573837 14.61038053 10.49731445 15.96166992 C10.55489952 17.90036701 10.61914298 19.83886276 10.68359375 21.77734375 C10.72025146 22.94515381 10.75690918 24.11296387 10.79467773 25.31616211 C10.70076188 27.91779795 10.70076188 27.91779795 12 29 C12 30.98 12 32.96 12 35 C7.38 35 2.76 35 -2 35 C-1.84152588 33.98542725 -1.68305176 32.97085449 -1.51977539 31.92553711 C-1.04228545 28.31935545 -0.80079311 24.82458638 -0.68359375 21.19140625 C-0.64169922 19.95068359 -0.59980469 18.70996094 -0.55664062 17.43164062 C-0.51732422 16.15482422 -0.47800781 14.87800781 -0.4375 13.5625 C-0.39431641 12.25861328 -0.35113281 10.95472656 -0.30664062 9.61132812 C-0.20102476 6.40764684 -0.09891899 3.20389389 0 0 Z " fill="#FEEADA" transform="translate(18,93)"/>
<path d="M0 0 C3.3 0 6.6 0 10 0 C10.02505615 0.81154541 10.0501123 1.62309082 10.07592773 2.45922852 C10.19245817 6.16045716 10.314925 9.86146681 10.4375 13.5625 C10.47681641 14.83931641 10.51613281 16.11613281 10.55664062 17.43164062 C10.61948242 19.29272461 10.61948242 19.29272461 10.68359375 21.19140625 C10.72025146 22.32779541 10.75690918 23.46418457 10.79467773 24.63500977 C11.00804301 28.13181545 11.45954277 31.53991975 12 35 C7.38 35 2.76 35 -2 35 C-1.84152588 33.98542725 -1.68305176 32.97085449 -1.51977539 31.92553711 C-1.04228545 28.31935545 -0.80079311 24.82458638 -0.68359375 21.19140625 C-0.64169922 19.95068359 -0.59980469 18.70996094 -0.55664062 17.43164062 C-0.51732422 16.15482422 -0.47800781 14.87800781 -0.4375 13.5625 C-0.39431641 12.25861328 -0.35113281 10.95472656 -0.30664062 9.61132812 C-0.20102476 6.40764684 -0.09891899 3.20389389 0 0 Z " fill="#FEEADA" transform="translate(102,93)"/>
<path d="M0 0 C3.3 0 6.6 0 10 0 C10.02505615 0.84296631 10.0501123 1.68593262 10.07592773 2.55444336 C10.17088155 5.67241674 10.27012448 8.79021503 10.37231445 11.90795898 C10.41571223 13.25914147 10.4573837 14.61038053 10.49731445 15.96166992 C10.55489952 17.90036701 10.61914298 19.83886276 10.68359375 21.77734375 C10.72025146 22.94515381 10.75690918 24.11296387 10.79467773 25.31616211 C10.70076188 27.91779795 10.70076188 27.91779795 12 29 C12 30.98 12 32.96 12 35 C7.38 35 2.76 35 -2 35 C-1.505 32.03 -1.505 32.03 -1 29 C-0.85825987 26.69204589 -0.75517941 24.38150654 -0.68359375 22.0703125 C-0.64169922 20.78125 -0.59980469 19.4921875 -0.55664062 18.1640625 C-0.51683972 16.81771091 -0.47712727 15.47135671 -0.4375 14.125 C-0.39424817 12.75519667 -0.35063188 11.38540479 -0.30664062 10.015625 C-0.20084478 6.67717843 -0.09875628 3.338661 0 0 Z " fill="#FEE9DA" transform="translate(84,93)"/>
<path d="M0 0 C3 0.375 3 0.375 4.4375 1.9375 C5.2109375 2.6490625 5.2109375 2.6490625 6 3.375 C9.64541845 3.14022801 9.64541845 3.14022801 13 2.375 C13.33 3.695 13.66 5.015 14 6.375 C9.70967742 9.43951613 9.70967742 9.43951613 6.25 9.125 C4 8.375 4 8.375 3 7.375 C2.67 13.315 2.34 19.255 2 25.375 C0.68 25.375 -0.64 25.375 -2 25.375 C-2.33 19.765 -2.66 14.155 -3 8.375 C-3.33 8.705 -3.66 9.035 -4 9.375 C-6.25 9.75 -6.25 9.75 -9 9.375 C-11.8125 6.875 -11.8125 6.875 -14 4.375 C-13.01 3.385 -12.02 2.395 -11 1.375 C-8.525 2.365 -8.525 2.365 -6 3.375 C-5.62875 2.88 -5.2575 2.385 -4.875 1.875 C-3 0.375 -3 0.375 0 0 Z " fill="#BFCDD4" transform="translate(98,38.625)"/>
<path d="M0 0 C2.97 0 5.94 0 9 0 C9.22175851 3.41627972 9.42791024 6.83228445 9.625 10.25 C9.68945312 11.21808594 9.75390625 12.18617187 9.8203125 13.18359375 C9.871875 14.11816406 9.9234375 15.05273438 9.9765625 16.015625 C10.02893066 16.87446289 10.08129883 17.73330078 10.13525391 18.61816406 C9.98319885 21.29587011 9.50101107 22.78430924 8 25 C4.875 26.25 4.875 26.25 2 27 C-0.14982548 17.9400212 -0.20871753 9.24154826 0 0 Z " fill="#FEEADB" transform="translate(112,53)"/>
<path d="M0 0 C2.97 0 5.94 0 9 0 C9.29211698 8.86088167 8.44796872 17.26047454 7 26 C6.01 26.33 5.02 26.66 4 27 C-0.75341028 23.43494229 -0.75341028 23.43494229 -1.3671875 19.86328125 C-1.37570651 17.21812772 -1.22418403 14.63597028 -1 12 C-0.92007813 10.90558594 -0.84015625 9.81117187 -0.7578125 8.68359375 C-0.53201219 5.78582313 -0.27837631 2.89312517 0 0 Z " fill="#FEEADA" transform="translate(76,53)"/>
<path d="M0 0 C0.99 0.33 1.98 0.66 3 1 C7.00202313 1.14552811 10.09296379 0.97675905 14 0 C14 4.29 14 8.58 14 13 C9.38 13 4.76 13 0 13 C0 8.71 0 4.42 0 0 Z " fill="#CCDDE6" transform="translate(25,38)"/>
<path d="M0 0 C2.31 0.33 4.62 0.66 7 1 C8.5038286 3.54095176 9.25245944 5.23094129 10 8 C10.20367187 8.73992188 10.40734375 9.47984375 10.6171875 10.2421875 C11.11349161 12.15261838 11.56109517 14.07557113 12 16 C8.37 16 4.74 16 1 16 C1 19.96 1 23.92 1 28 C0.67 28 0.34 28 0 28 C0 18.76 0 9.52 0 0 Z " fill="#CCDCE4" transform="translate(45,37)"/>
<path d="M0 0 C0 9.24 0 18.48 0 28 C-0.33 28 -0.66 28 -1 28 C-1 24.04 -1 20.08 -1 16 C-4.63 16 -8.26 16 -12 16 C-11.40951275 13.70399376 -10.80347088 11.41417176 -10.1875 9.125 C-9.85105469 7.84882812 -9.51460937 6.57265625 -9.16796875 5.2578125 C-7.26488002 -0.05046844 -5.55763915 0 0 0 Z " fill="#CCDCE4" transform="translate(19,37)"/>
<path d="M0 0 C3.53508103 0.29459009 4.76203444 0.74881413 7.25 3.375 C10.35833958 8.03750937 10.08861318 11.5945958 10 17 C4.55123997 15.27933894 -0.71169451 13.15294651 -6 11 C-5.65066406 10.37351562 -5.30132812 9.74703125 -4.94140625 9.1015625 C-4.48636719 8.28429688 -4.03132813 7.46703125 -3.5625 6.625 C-3.11003906 5.81289063 -2.65757813 5.00078125 -2.19140625 4.1640625 C-1.4349464 2.79003378 -0.70145369 1.40290739 0 0 Z " fill="#383838" transform="translate(49,21)"/>
<path d="M0 0 C0.26554688 0.54269531 0.53109375 1.08539062 0.8046875 1.64453125 C1.15789063 2.35996094 1.51109375 3.07539063 1.875 3.8125 C2.39707031 4.87404297 2.39707031 4.87404297 2.9296875 5.95703125 C4.0656486 8.21246418 4.0656486 8.21246418 6 11 C4.0848421 11.81604999 2.16781166 12.62770632 0.25 13.4375 C-0.81734375 13.88996094 -1.8846875 14.34242187 -2.984375 14.80859375 C-5.3413841 15.73979553 -7.52992835 16.4784072 -10 17 C-10.28971178 11.39890552 -10.15976306 7.85249327 -7 3 C-4.39070749 0.55378827 -3.62968776 0 0 0 Z " fill="#383838" transform="translate(15,21)"/>
<path d="M0 0 C1.9375 1.25 1.9375 1.25 3 3 C3 4.65 3 6.3 3 8 C-1.62 8 -6.24 8 -11 8 C-11 2 -11 2 -9.4375 0.0625 C-5.94083514 -1.46168725 -3.64685284 -0.92828981 0 0 Z " fill="#3D3C3C" transform="translate(45,120)"/>
<path d="M0 0 C1.6875 1.875 1.6875 1.875 1.6875 7.875 C-2.9325 7.875 -7.5525 7.875 -12.3125 7.875 C-12.0625 4.5 -12.0625 4.5 -11.3125 0.875 C-7.86235564 -1.95904716 -3.91556391 -1.90486893 0 0 Z " fill="#3D3C3C" transform="translate(28.3125,120.125)"/>
<path d="M0 0 C3.5 0.8125 3.5 0.8125 5.4375 2.0625 C6.5 3.8125 6.5 3.8125 6.5 8.8125 C1.88 8.8125 -2.74 8.8125 -7.5 8.8125 C-7.1875 5.4375 -7.1875 5.4375 -6.5 1.8125 C-3.5 -0.1875 -3.5 -0.1875 0 0 Z " fill="#3D3C3C" transform="translate(107.5,119.1875)"/>
<path d="M0 0 C2.3125 1.125 2.3125 1.125 4 3 C4 4.98 4 6.96 4 9 C-0.62 9 -5.24 9 -10 9 C-9 3 -9 3 -7.25 1.125 C-4.52653469 -0.23673266 -3.00962365 -0.45144355 0 0 Z " fill="#3C3C3B" transform="translate(92,119)"/>
<path d="M0 0 C1.32 0 2.64 0 4 0 C4 5.28 4 10.56 4 16 C2.68 16 1.36 16 0 16 C0 10.72 0 5.44 0 0 Z " fill="#4571A6" transform="translate(96,77)"/>
</svg>
