<?xml version="1.0" encoding="UTF-8"?>
<svg version="1.1" xmlns="http://www.w3.org/2000/svg" width="128" height="128">
<path d="M0 0 C3.22144888 0.09322521 4.68535079 0.37390253 7.625 1.875 C10.43311548 5.27877634 10.8953724 8.05430401 11.6875 12.375 C12.43773437 12.03726562 13.18796875 11.69953125 13.9609375 11.3515625 C26.81574335 5.7498461 40.75597083 3.00664188 54.6875 6.375 C54.97625 5.75625 55.265 5.1375 55.5625 4.5 C56.6875 2.375 56.6875 2.375 58.6875 0.375 C62.99543063 -0.35286254 66.66908228 -0.10170617 70.625 1.75 C73.24617931 5.08604639 73.57862423 7.87633718 74.03515625 12.03515625 C74.87092329 15.03290749 76.03790911 15.83733572 78.6875 17.375 C80.77811231 17.68759581 80.77811231 17.68759581 82.6875 16.375 C85.97252871 11.72120933 86.94852774 9.11761028 86.6875 3.375 C87.3475 2.385 88.0075 1.395 88.6875 0.375 C91.25 0.125 91.25 0.125 93.6875 0.375 C95.21959716 1.90709716 94.89364547 3.30690053 94.9375 5.4375 C94.82404485 13.37936033 91.99659396 18.63543896 86.6875 24.375 C87.12320313 24.81328125 87.55890625 25.2515625 88.0078125 25.703125 C99.10748368 37.52355404 104.15351282 53.1802169 103.890625 69.23828125 C102.84036004 85.45679586 96.9754598 100.22155483 85.51953125 111.90625 C69.20782515 126.12555794 51.85280232 129.7509176 30.6875 128.375 C21.00485459 127.12465617 12.67191476 122.79919481 4.6875 117.375 C3.73875 116.75109375 2.79 116.1271875 1.8125 115.484375 C-11.13623973 106.06056998 -16.9083916 90.99485725 -20.0625 75.75 C-20.60176087 68.46997827 -20.58414985 62.02008011 -18.875 54.875 C-17.28259204 48.16307487 -16.85380438 41.6592975 -16.69165039 34.77148438 C-16.45606897 26.95246359 -16.45606897 26.95246359 -14.3125 24.375 C-11.9296875 23.328125 -11.9296875 23.328125 -9.1875 22.625 C-7.82238281 22.26148438 -7.82238281 22.26148438 -6.4296875 21.890625 C-5.73101562 21.72046875 -5.03234375 21.5503125 -4.3125 21.375 C-4.951875 20.75625 -5.59125 20.1375 -6.25 19.5 C-9.43698568 16.216439 -9.58875199 13.97330787 -9.5390625 9.41015625 C-8.91499225 3.80428387 -5.52678592 0.09288716 0 0 Z " fill="#92CFFB" transform="translate(22.3125,-0.375)"/>
<path d="M0 0 C10.63303791 7.84819465 15.7138758 19.90446198 18.3125 32.625 C21.06839671 51.01531077 16.51915025 68.14405953 5.74609375 83.13671875 C-3.90160132 94.53276053 -17.25940845 102.41666726 -32 105 C-33.61961498 105.07649781 -35.24189445 105.10811681 -36.86328125 105.09765625 C-37.66290283 105.09515869 -38.46252441 105.09266113 -39.28637695 105.09008789 C-40.28499756 105.08098389 -41.28361816 105.07187988 -42.3125 105.0625 C-47.1078125 105.0315625 -47.1078125 105.0315625 -52 105 C-52.33 97.74 -52.66 90.48 -53 83 C-53.33 83.33 -53.66 83.66 -54 84 C-55.34015221 84.15582303 -56.68758903 84.25044142 -58.03515625 84.31640625 C-58.84404297 84.35830078 -59.65292969 84.40019531 -60.48632812 84.44335938 C-61.33646484 84.48267578 -62.18660156 84.52199219 -63.0625 84.5625 C-63.91650391 84.60568359 -64.77050781 84.64886719 -65.65039062 84.69335938 C-67.76672037 84.79976702 -69.88333813 84.90041731 -72 85 C-70.02 86.98 -68.04 88.96 -66 91 C-66.33 91.99 -66.66 92.98 -67 94 C-71.1088041 93.47470631 -73.25519841 92.33192009 -76.3125 89.5625 C-77.00988281 88.94503906 -77.70726562 88.32757813 -78.42578125 87.69140625 C-80 86 -80 86 -80 84 C-78.35 84 -76.7 84 -75 84 C-75 81.03 -75 78.06 -75 75 C-70.71 75 -66.42 75 -62 75 C-62.05800781 73.40929687 -62.11601563 71.81859375 -62.17578125 70.1796875 C-62.22269047 68.0781544 -62.26818938 65.97658949 -62.3125 63.875 C-62.35439453 62.82828125 -62.39628906 61.7815625 -62.43945312 60.703125 C-62.57767193 51.96769651 -62.57767193 51.96769651 -59.81640625 48.375 C-51.78932119 41.60597404 -39.94749961 42.40087749 -30 43 C-17.29308758 44.21791493 -17.29308758 44.21791493 -12 48 C-9.70986347 51.4352048 -9.82157027 52.985331 -10 57 C-7.69 57 -5.38 57 -3 57 C-3 58.65 -3 60.3 -3 62 C-5.31 62 -7.62 62 -10 62 C-10 63.32 -10 64.64 -10 66 C-7.69 66 -5.38 66 -3 66 C-3 71.28 -3 76.56 -3 82 C-2.01 82 -1.02 82 0 82 C0 73.75 0 65.5 0 57 C0.66 56.67 1.32 56.34 2 56 C2.33 47.09 2.66 38.18 3 29 C3.66 29 4.32 29 5 29 C5 26.69 5 24.38 5 22 C-0.28 22 -5.56 22 -11 22 C-11 16.39 -11 10.78 -11 5 C-8.42838542 3.99088542 -5.85677083 2.98177083 -3.28515625 1.97265625 C-1.07581467 1.2003782 -1.07581467 1.2003782 0 0 Z " fill="#0076EF" transform="translate(107,23)"/>
<path d="M0 0 C0.33 1.32 0.66 2.64 1 4 C2.32 4.33 3.64 4.66 5 5 C5.33 3.35 5.66 1.7 6 0 C15.10420842 0.61723447 15.10420842 0.61723447 19 5 C19.61007933 8.10572153 19.4724383 11.10044577 19.3125 14.25 C19.28994141 15.09046875 19.26738281 15.9309375 19.24414062 16.796875 C19.18537714 18.86534964 19.09569885 20.93290488 19 23 C22.63 23 26.26 23 30 23 C30 25.31 30 27.62 30 30 C29.34 30 28.68 30 28 30 C28 35.28 28 40.56 28 46 C26.30729167 44.40494792 24.61458333 42.80989583 22.921875 41.21484375 C21.08410463 39.78115284 21.08410463 39.78115284 18.92578125 40.18359375 C13.18061981 42.61916929 11.21555989 47.56180755 9 53 C7.17214944 55.52417459 6.15843723 55.95177997 3.125 56.875 C-0.66158154 58.23816935 -2.52369738 59.84834212 -5 63 C-5.05081138 64.97581668 -5.05081138 64.97581668 -4 67 C-3.649375 68.2375 -3.29875 69.475 -2.9375 70.75 C-2.628125 71.8225 -2.31875 72.895 -2 74 C-3.32 74 -4.64 74 -6 74 C-5.67 76.64 -5.34 79.28 -5 82 C-8.78417102 78.73261005 -10.691816 75.01965088 -12.625 70.5 C-12.93058838 69.78948486 -13.23617676 69.07896973 -13.55102539 68.34692383 C-16.04452019 62.31956604 -17.50584712 56.52464816 -18 50 C-18.10441406 48.66775391 -18.10441406 48.66775391 -18.2109375 47.30859375 C-18.45410667 40.883316 -17.20378783 35.20299822 -15.7265625 28.9765625 C-14.59412703 23.51670615 -14.51003237 17.95595648 -14.37915039 12.39648438 C-14.1495479 4.77590623 -14.1495479 4.77590623 -12 2 C-7.92893763 0.46375005 -4.34409038 -0.2632782 0 0 Z " fill="#945B51" transform="translate(20,22)"/>
<path d="M0 0 C3.55048403 0.5959741 4.95628313 1.52745694 7.1875 4.3671875 C7.83195597 6.92408749 8.2474351 9.40632228 8.53515625 12.02734375 C9.37092329 15.02509499 10.53790911 15.82952322 13.1875 17.3671875 C15.27811231 17.67978331 15.27811231 17.67978331 17.1875 16.3671875 C20.47252871 11.71339683 21.44852774 9.10979778 21.1875 3.3671875 C21.8475 2.3771875 22.5075 1.3871875 23.1875 0.3671875 C25.75 0.1171875 25.75 0.1171875 28.1875 0.3671875 C29.71959716 1.89928466 29.39364547 3.29908803 29.4375 5.4296875 C29.32671058 11.25536429 28.40306749 15.87716909 24.453125 20.31640625 C19.75822662 24.65645766 14.8084992 28.3671875 8.1875 28.3671875 C8.1875 33.9771875 8.1875 39.5871875 8.1875 45.3671875 C13.4675 45.3671875 18.7475 45.3671875 24.1875 45.3671875 C24.1875 47.6771875 24.1875 49.9871875 24.1875 52.3671875 C23.5275 52.3671875 22.8675 52.3671875 22.1875 52.3671875 C22.1875 61.2771875 22.1875 70.1871875 22.1875 79.3671875 C21.1975 79.6971875 20.2075 80.0271875 19.1875 80.3671875 C19.1875 88.6171875 19.1875 96.8671875 19.1875 105.3671875 C18.1975 105.3671875 17.2075 105.3671875 16.1875 105.3671875 C16.1875 100.0871875 16.1875 94.8071875 16.1875 89.3671875 C13.8775 89.3671875 11.5675 89.3671875 9.1875 89.3671875 C9.1875 88.0471875 9.1875 86.7271875 9.1875 85.3671875 C11.4975 85.3671875 13.8075 85.3671875 16.1875 85.3671875 C16.1875 83.7171875 16.1875 82.0671875 16.1875 80.3671875 C13.8775 80.3671875 11.5675 80.3671875 9.1875 80.3671875 C9.10113281 79.74070312 9.01476562 79.11421875 8.92578125 78.46875 C8.78527344 77.65148437 8.64476563 76.83421875 8.5 75.9921875 C8.37238281 75.18007812 8.24476562 74.36796875 8.11328125 73.53125 C7.36665276 71.18068285 7.36665276 71.18068285 5.03125 70.1484375 C1.82088795 69.2664699 -1.32839801 68.70837364 -4.625 68.2421875 C-5.78644531 68.07460937 -6.94789062 67.90703125 -8.14453125 67.734375 C-9.02496094 67.61320312 -9.90539062 67.49203125 -10.8125 67.3671875 C-10.8125 63.3671875 -10.8125 63.3671875 -9.3515625 61.8046875 C-8.71992187 61.3303125 -8.08828125 60.8559375 -7.4375 60.3671875 C-4.65851482 58.26293535 -3.03892076 56.66770219 -1.8125 53.3671875 C-1.13833116 48.24820782 -1.01383358 43.09524536 -3.4375 38.4296875 C-6.81288548 34.07721675 -9.78332253 31.81811583 -15.1875 30.6171875 C-16.05375 30.5346875 -16.92 30.4521875 -17.8125 30.3671875 C-17.5 27.9921875 -17.5 27.9921875 -16.8125 25.3671875 C-13.12515242 22.90895578 -10.11550029 22.35476134 -5.8125 21.3671875 C-6.6375 20.7896875 -7.4625 20.2121875 -8.3125 19.6171875 C-11.17233459 16.78994362 -11.26455774 14.23739239 -11.375 10.3046875 C-11.37959722 6.65909336 -11.26056883 4.9636169 -9.0546875 2.02734375 C-5.89544269 -0.31181835 -3.81541389 -0.21336196 0 0 Z " fill="#C86F59" transform="translate(87.8125,-0.3671875)"/>
<path d="M0 0 C10.63303791 7.84819465 15.7138758 19.90446198 18.3125 32.625 C20.92444128 50.05468506 17.11804291 67.34437571 6.78173828 81.69091797 C1.75718576 88.08526624 -2.97345474 91.60840921 -10 96 C-10 86.1 -10 76.2 -10 66 C-7.69 66 -5.38 66 -3 66 C-3 71.28 -3 76.56 -3 82 C-2.01 82 -1.02 82 0 82 C0 73.75 0 65.5 0 57 C0.99 56.505 0.99 56.505 2 56 C2.33 47.09 2.66 38.18 3 29 C3.66 29 4.32 29 5 29 C5 26.69 5 24.38 5 22 C-0.28 22 -5.56 22 -11 22 C-11 16.39 -11 10.78 -11 5 C-8.42838542 3.99088542 -5.85677083 2.98177083 -3.28515625 1.97265625 C-1.07581467 1.2003782 -1.07581467 1.2003782 0 0 Z " fill="#93CFFA" transform="translate(107,23)"/>
<path d="M0 0 C2.50618728 1.08985539 3.9158035 2.46788711 5.7890625 4.44921875 C6.40265625 5.08988281 7.01625 5.73054688 7.6484375 6.390625 C8.10734375 6.88433594 8.56625 7.37804687 9.0390625 7.88671875 C7.5390625 10.88671875 7.5390625 10.88671875 6.0390625 13.88671875 C5.88639638 15.62540619 5.78973654 17.36919376 5.72265625 19.11328125 C5.68076172 20.14453125 5.63886719 21.17578125 5.59570312 22.23828125 C5.55638672 23.31851563 5.51707031 24.39875 5.4765625 25.51171875 C5.43337891 26.5996875 5.39019531 27.68765625 5.34570312 28.80859375 C5.23941823 31.50114445 5.13871746 34.19391451 5.0390625 36.88671875 C0.7490625 36.88671875 -3.5409375 36.88671875 -7.9609375 36.88671875 C-7.9609375 39.85671875 -7.9609375 42.82671875 -7.9609375 45.88671875 C-9.6109375 45.88671875 -11.2609375 45.88671875 -12.9609375 45.88671875 C-12.9609375 46.54671875 -12.9609375 47.20671875 -12.9609375 47.88671875 C-12.4040625 48.11359375 -11.8471875 48.34046875 -11.2734375 48.57421875 C-8.9609375 49.88671875 -8.9609375 49.88671875 -6.4609375 52.51171875 C-4.05231764 55.34588506 -4.05231764 55.34588506 0.0390625 54.88671875 C-1.4902118 51.44585157 -3.58856679 48.79431944 -5.9609375 45.88671875 C-5.39584473 45.8616626 -4.83075195 45.83660645 -4.24853516 45.81079102 C-1.69410008 45.69491919 0.859958 45.57215338 3.4140625 45.44921875 C4.30351563 45.40990234 5.19296875 45.37058594 6.109375 45.33007812 C6.96015625 45.28818359 7.8109375 45.24628906 8.6875 45.203125 C9.47302246 45.16646729 10.25854492 45.12980957 11.06787109 45.09204102 C13.11429746 44.99582775 13.11429746 44.99582775 15.0390625 43.88671875 C15.0390625 51.47671875 15.0390625 59.06671875 15.0390625 66.88671875 C1.05681378 64.09026901 -7.94111667 59.8273281 -18.9609375 50.88671875 C-19.87359375 50.22929688 -20.78625 49.571875 -21.7265625 48.89453125 C-24.21513442 46.65829704 -24.73009747 45.56779406 -25.2734375 42.32421875 C-25.48419922 41.17759766 -25.48419922 41.17759766 -25.69921875 40.0078125 C-25.9609375 37.88671875 -25.9609375 37.88671875 -25.9609375 34.88671875 C-24.6409375 34.88671875 -23.3209375 34.88671875 -21.9609375 34.88671875 C-22.4353125 33.81421875 -22.9096875 32.74171875 -23.3984375 31.63671875 C-23.94620606 30.39828548 -24.46641751 29.14736039 -24.9609375 27.88671875 C-25.22132812 27.22414063 -25.48171875 26.5615625 -25.75 25.87890625 C-25.9609375 23.88671875 -25.9609375 23.88671875 -24.73828125 22.03515625 C-20.91364464 18.34856385 -18.12884396 16.4136002 -12.9609375 14.88671875 C-10.97632126 12.83122336 -10.07181491 11.21082195 -9.1484375 8.51171875 C-7.49188461 4.84986499 -4.47356025 -0.25843276 0 0 Z " fill="#FAEAE3" transform="translate(39.9609375,61.11328125)"/>
<path d="M0 0 C2.475 0.99 2.475 0.99 5 2 C5 3.32 5 4.64 5 6 C12.26 6.33 19.52 6.66 27 7 C27 9.31 27 11.62 27 14 C26.34 14 25.68 14 25 14 C25 22.91 25 31.82 25 41 C24.01 41.33 23.02 41.66 22 42 C22 50.25 22 58.5 22 67 C21.01 67 20.02 67 19 67 C19 61.72 19 56.44 19 51 C16.69 51 14.38 51 12 51 C12 49.68 12 48.36 12 47 C14.31 47 16.62 47 19 47 C19 45.35 19 43.7 19 42 C16.69 42 14.38 42 12 42 C11.91363281 41.37351563 11.82726562 40.74703125 11.73828125 40.1015625 C11.59777344 39.28429687 11.45726563 38.46703125 11.3125 37.625 C11.18488281 36.81289062 11.05726562 36.00078125 10.92578125 35.1640625 C10.17915276 32.81349535 10.17915276 32.81349535 7.84375 31.78125 C4.63338795 30.8992824 1.48410199 30.34118614 -1.8125 29.875 C-2.97394531 29.70742187 -4.13539062 29.53984375 -5.33203125 29.3671875 C-6.21246094 29.24601562 -7.09289062 29.12484375 -8 29 C-8 25 -8 25 -6.5390625 23.4375 C-5.90742187 22.963125 -5.27578125 22.48875 -4.625 22 C-1.84868672 19.89777102 -0.20469491 18.30841588 1 15 C1.278156 12.31583263 1.278156 12.31583263 1.1875 9.5 C1.18105469 8.5615625 1.17460938 7.623125 1.16796875 6.65625 C1.01857816 4.29379415 0.66710889 2.26283335 0 0 Z " fill="#945D53" transform="translate(85,38)"/>
<path d="M0 0 C4.42484878 2.21242439 7.19476657 4.94799616 10 9 C11.9225412 14.7676236 12.02086212 20.87974791 9.375 26.375 C6.75960373 29.26570114 4.04141265 31.56686988 1 34 C0.67 34.66 0.34 35.32 0 36 C-4.62 36 -9.24 36 -14 36 C-14.66 34.02 -15.32 32.04 -16 30 C-16.70125 29.175 -17.4025 28.35 -18.125 27.5 C-21.12690338 21.89644702 -20.72377625 16.21856736 -20 10 C-16.10486384 1.31085011 -9.03902283 -1.45743202 0 0 Z " fill="#A1A0A5" transform="translate(76,30)"/>
<path d="M0 0 C4.95 0 9.9 0 15 0 C15 15.66759465 8.05946414 28.10257265 -2.2421875 39.4921875 C-5 42 -5 42 -13 47 C-13 37.1 -13 27.2 -13 17 C-10.69 17 -8.38 17 -6 17 C-6 22.28 -6 27.56 -6 33 C-5.01 33 -4.02 33 -3 33 C-3 24.75 -3 16.5 -3 8 C-2.34 7.67 -1.68 7.34 -1 7 C-0.67 4.69 -0.34 2.38 0 0 Z " fill="#64BAF6" transform="translate(110,72)"/>
<path d="M0 0 C0.33 1.32 0.66 2.64 1 4 C2.32 4.33 3.64 4.66 5 5 C5.33 3.35 5.66 1.7 6 0 C10.31847103 0.2927777 13.17919657 0.55539814 17 2.625 C19 5 19 5 19.3125 8.75 C19.209375 9.8225 19.10625 10.895 19 12 C17.35 12 15.7 12 14 12 C13.67 13.65 13.34 15.3 13 17 C8.38 17 3.76 17 -1 17 C-1.69882131 19.98031281 -1.69882131 19.98031281 -2 23 C-5.96 23 -9.92 23 -14 23 C-14.05404449 20.24973583 -14.09369306 17.50053797 -14.125 14.75 C-14.14175781 13.97269531 -14.15851562 13.19539063 -14.17578125 12.39453125 C-14.24017537 4.86041936 -14.24017537 4.86041936 -12 2 C-7.92893763 0.46375005 -4.34409038 -0.2632782 0 0 Z " fill="#4CCC5E" transform="translate(20,22)"/>
<path d="M0 0 C2.475 0.495 2.475 0.495 5 1 C5 4.63 5 8.26 5 12 C8.63 12 12.26 12 16 12 C16 14.31 16 16.62 16 19 C15.34 19 14.68 19 14 19 C14 24.28 14 29.56 14 35 C13.67 35 13.34 35 13 35 C13 29.72 13 24.44 13 19 C-1.19 19 -15.38 19 -30 19 C-29.01 15.535 -29.01 15.535 -28 12 C-22.555 11.505 -22.555 11.505 -17 11 C-16.67 9.35 -16.34 7.7 -16 6 C-12.58860997 4.90348177 -9.79344419 5.05784527 -6.25 5.4375 C-5.26515625 5.53933594 -4.2803125 5.64117187 -3.265625 5.74609375 C-2.51796875 5.82988281 -1.7703125 5.91367187 -1 6 C-1.020625 5.195625 -1.04125 4.39125 -1.0625 3.5625 C-1 1 -1 1 0 0 Z " fill="#AA6A5E" transform="translate(34,33)"/>
<path d="M0 0 C0.33 0 0.66 0 1 0 C1 7.59 1 15.18 1 23 C-12.45388659 20.30922268 -22.84719864 16.24334847 -33 7 C-34.3359375 4.72265625 -34.3359375 4.72265625 -35 3 C-32.36 2.67 -29.72 2.34 -27 2 C-27 2.66 -27 3.32 -27 4 C-26.443125 4.226875 -25.88625 4.45375 -25.3125 4.6875 C-23 6 -23 6 -20.5 8.625 C-18.09138014 11.45916631 -18.09138014 11.45916631 -14 11 C-15.5292743 7.55913282 -17.62762929 4.90760069 -20 2 C-19.42967041 1.97494385 -18.85934082 1.9498877 -18.27172852 1.92407227 C-15.70173843 1.80843451 -13.13214473 1.68556376 -10.5625 1.5625 C-9.66466797 1.52318359 -8.76683594 1.48386719 -7.84179688 1.44335938 C-6.98779297 1.40146484 -6.13378906 1.35957031 -5.25390625 1.31640625 C-4.46314697 1.27974854 -3.6723877 1.24309082 -2.85766602 1.20532227 C-0.98598559 1.19436743 -0.98598559 1.19436743 0 0 Z " fill="#64BBFA" transform="translate(54,105)"/>
<path d="M0 0 C3.45762282 0.0723818 4.62104844 0.33485218 7.6875 2.1875 C10.27239064 5.01472414 10.64222792 6.89511594 11 10.6875 C10.63196535 15.03030882 9.40235449 17.02135622 6.6875 20.375 C6.0275 20.705 5.3675 21.035 4.6875 21.375 C3.96056096 23.35388961 3.28933749 25.35454558 2.6875 27.375 C0.3125 27.1875 0.3125 27.1875 -2.3125 26.375 C-3.375 24.0625 -3.375 24.0625 -4.3125 21.375 C-5.60605827 20.00304426 -6.93548702 18.66317344 -8.3125 17.375 C-9.90685019 14.18629961 -9.69882834 10.8452942 -9.3125 7.375 C-7.08099413 2.70912408 -5.3149615 0.08932708 0 0 Z " fill="#FECDBE" transform="translate(22.3125,-0.375)"/>
<path d="M0 0 C0.495 1.98 0.495 1.98 1 4 C-1.64738916 5.4606285 -2.89448334 6 -6 6 C-6 11.61 -6 17.22 -6 23 C-8.31 23 -10.62 23 -13 23 C-13 21.35 -13 19.7 -13 18 C-13.7425 17.773125 -14.485 17.54625 -15.25 17.3125 C-18.53199867 15.74609154 -19.7952774 13.84480335 -22 11 C-25.12950749 8.91366167 -28.30762419 8.50350579 -32 8 C-31.6875 5.625 -31.6875 5.625 -31 3 C-27.96474514 0.97649676 -26.80573798 0.67875982 -23.3125 0.375 C-22.50425781 0.30023437 -21.69601563 0.22546875 -20.86328125 0.1484375 C-19.94095703 0.07496094 -19.94095703 0.07496094 -19 0 C-18.67 1.32 -18.34 2.64 -18 4 C-16.68 4.33 -15.36 4.66 -14 5 C-13.67 3.68 -13.34 2.36 -13 1 C-11.58622218 0.63447197 -10.16879424 0.28304505 -8.75 -0.0625 C-7.96109375 -0.25972656 -7.1721875 -0.45695312 -6.359375 -0.66015625 C-3.89605178 -1.01497267 -2.34395868 -0.76877544 0 0 Z " fill="#FCB30D" transform="translate(102,22)"/>
<path d="M0 0 C0.78375 0.2475 1.5675 0.495 2.375 0.75 C4.67583753 5.35167507 3.72837585 12.09748075 3.7800293 17.20751953 C3.80163127 18.81581058 3.83576113 20.42398337 3.88256836 22.03173828 C3.94950654 24.35242071 3.97701039 26.67067659 3.99609375 28.9921875 C4.02392441 29.70897675 4.05175507 30.42576599 4.08042908 31.16427612 C4.07202148 33.20654297 4.07202148 33.20654297 3.375 36.75 C0.23813368 39.48371225 -1.43313792 40.75 -5.625 40.75 C-5.69902793 35.23245195 -5.75354366 29.71519144 -5.78979492 24.19726562 C-5.80490325 22.31928474 -5.82539094 20.44133924 -5.85131836 18.56347656 C-5.88761246 15.86774981 -5.90470545 13.17248854 -5.91796875 10.4765625 C-5.93345261 9.63380768 -5.94893646 8.79105286 -5.96488953 7.92276001 C-5.96557617 5.55712891 -5.96557617 5.55712891 -5.625 1.75 C-2.625 -0.25 -2.625 -0.25 0 0 Z " fill="#0065EC" transform="translate(93.625,82.25)"/>
<path d="M0 0 C2.125 0.375 2.125 0.375 4 1 C4 1.99 4 2.98 4 4 C3.566875 4.4125 3.13375 4.825 2.6875 5.25 C0.71907672 7.08442819 0.71907672 7.08442819 -0.5 10.5 C-2.54545455 15.27272727 -2.54545455 15.27272727 -5 17 C-5.94875 17.28875 -6.8975 17.5775 -7.875 17.875 C-11.66158154 19.23816935 -13.52369738 20.84834212 -16 24 C-16.05081138 25.97581668 -16.05081138 25.97581668 -15 28 C-14.649375 29.2375 -14.29875 30.475 -13.9375 31.75 C-13.628125 32.8225 -13.31875 33.895 -13 35 C-14.32 35 -15.64 35 -17 35 C-16.67 37.64 -16.34 40.28 -16 43 C-19.08028948 40.22773947 -20.83016411 37.99693928 -22 34 C-22 32.33333333 -22 30.66666667 -22 29 C-22.66 28.34 -23.32 27.68 -24 27 C-23.6073176 24.05488203 -22.60615921 21.48954677 -21 19 C-19.35178756 17.96986723 -17.68496298 16.96885372 -16 16 C-13.92305662 13.32914667 -13.92305662 13.32914667 -13.6875 11.125 C-12.6162304 7.81380304 -10.62683499 6.21821621 -8 4 C-4.8125 2.8125 -4.8125 2.8125 -2 2 C-1.34 1.34 -0.68 0.68 0 0 Z " fill="#0558CA" transform="translate(31,61)"/>
<path d="M0 0 C2.64 0 5.28 0 8 0 C8 8.58 8 17.16 8 26 C7.34 26 6.68 26 6 26 C5.7834375 27.11375 5.7834375 27.11375 5.5625 28.25 C5 31 5 31 4.3125 33.1875 C4.209375 33.785625 4.10625 34.38375 4 35 C4.66 35.66 5.32 36.32 6 37 C6.125 39.625 6.125 39.625 6 42 C0.57678438 37.59944789 -0.40086597 28.89581449 -1.75 22.375 C-2.28142455 15.20076859 -2.3851948 8.07988454 -1 1 C-0.67 0.67 -0.34 0.34 0 0 Z " fill="#7D4C42" transform="translate(4,53)"/>
<path d="M0 0 C3.29714793 0.32971479 4.6226839 0.6226839 7 3 C7.34490322 7.05261287 7.30163882 8.54754176 5 12 C3.12060547 12.43237305 3.12060547 12.43237305 0.8671875 12.51171875 C0.06152344 12.54716797 -0.74414062 12.58261719 -1.57421875 12.61914062 C-2.83685547 12.65297852 -2.83685547 12.65297852 -4.125 12.6875 C-5.39923828 12.73874023 -5.39923828 12.73874023 -6.69921875 12.79101562 C-8.79901105 12.87359173 -10.89948564 12.93846978 -13 13 C-11.02 14.98 -9.04 16.96 -7 19 C-7.33 19.99 -7.66 20.98 -8 22 C-12.1088041 21.47470631 -14.25519841 20.33192009 -17.3125 17.5625 C-18.00988281 16.94503906 -18.70726562 16.32757813 -19.42578125 15.69140625 C-21 14 -21 14 -21 12 C-19.35 12 -17.7 12 -16 12 C-16 9.03 -16 6.06 -16 3 C-15.01257812 2.95101562 -14.02515625 2.90203125 -13.0078125 2.8515625 C-11.72648437 2.77679688 -10.44515625 2.70203125 -9.125 2.625 C-7.21074219 2.52058594 -7.21074219 2.52058594 -5.2578125 2.4140625 C-1.91938301 2.32758894 -1.91938301 2.32758894 0 0 Z " fill="#0065EC" transform="translate(48,95)"/>
<path d="M0 0 C0 0.66 0 1.32 0 2 C-0.78375 2.61875 -1.5675 3.2375 -2.375 3.875 C-5.05237884 6.04240192 -5.84348038 6.85636939 -7 10 C-7.39276544 13.59859696 -7.39276544 13.59859696 -7.375 17.5 C-7.40335938 18.8096875 -7.43171875 20.119375 -7.4609375 21.46875 C-6.9409717 25.45221678 -6.11774224 26.58467399 -3 29 C-4.60407328 29.02708567 -6.2082785 29.04643483 -7.8125 29.0625 C-9.15248047 29.07990234 -9.15248047 29.07990234 -10.51953125 29.09765625 C-13 29 -13 29 -16 28 C-19.58676678 22.9688976 -18.54315986 15.83896854 -18 10 C-14.31763721 1.78549839 -8.48026461 -0.58484584 0 0 Z " fill="#929399" transform="translate(74,30)"/>
<path d="M0 0 C-0.33 0.66 -0.66 1.32 -1 2 C-1.15411106 4.0307477 -1.24982453 6.06606421 -1.31640625 8.1015625 C-1.35830078 9.31328125 -1.40019531 10.525 -1.44335938 11.7734375 C-1.48267578 13.04445313 -1.52199219 14.31546875 -1.5625 15.625 C-1.60568359 16.90375 -1.64886719 18.1825 -1.69335938 19.5 C-1.79969886 22.66655348 -1.90172833 25.83318753 -2 29 C-2.99 28.34 -3.98 27.68 -5 27 C-7.63434254 27.32126128 -9.62710097 27.81355048 -12 29 C-12.14592789 25.29208456 -12.23427895 21.58491274 -12.3125 17.875 C-12.3753418 16.30492187 -12.3753418 16.30492187 -12.43945312 14.703125 C-12.57760152 5.97214658 -12.57760152 5.97214658 -9.61328125 2.31640625 C-5.97881531 -0.90517567 -4.59484885 -1.53161628 0 0 Z " fill="#076AEC" transform="translate(57,69)"/>
<path d="M0 0 C3.21435753 0.35715084 4.08003864 1.0842512 6.375 3.5 C9.34876295 6.33215519 10.97913254 6.71947436 15 7 C15 9.97 15 12.94 15 16 C10.05 16.66 5.1 17.32 0 18 C-2.10827055 14.83759418 -2.33817465 13.49342531 -2.625 9.8125 C-2.69976562 8.91144531 -2.77453125 8.01039062 -2.8515625 7.08203125 C-2.90054687 6.39496094 -2.94953125 5.70789063 -3 5 C-1.68 5 -0.36 5 1 5 C0.67 3.35 0.34 1.7 0 0 Z " fill="#F3A86D" transform="translate(17,91)"/>
<path d="M0 0 C2.475 0.99 2.475 0.99 5 2 C5 3.32 5 4.64 5 6 C12.26 6.33 19.52 6.66 27 7 C27 9.31 27 11.62 27 14 C18.75 14 10.5 14 2 14 C1.34 9.38 0.68 4.76 0 0 Z " fill="#AB695D" transform="translate(85,38)"/>
<path d="M0 0 C2.5625 -0.25 2.5625 -0.25 5 0 C6.53209716 1.53209716 6.20614547 2.93190053 6.25 5.0625 C6.13793839 10.95507311 5.22068571 15.60813643 1.125 20.01953125 C-1.85270828 22.70713192 -4.16538639 24.72179546 -8 26 C-8.99 24.02 -9.98 22.04 -11 20 C-10.071875 19.29875 -9.14375 18.5975 -8.1875 17.875 C-5.08292954 15.26950942 -3.4170019 12.85739406 -2 9 C-1.96079185 7.00038436 -1.95556653 4.99950636 -2 3 C-1.34 2.01 -0.68 1.02 0 0 Z " fill="#BB5F4D" transform="translate(111,0)"/>
<path d="M0 0 C1.670625 0.061875 1.670625 0.061875 3.375 0.125 C2.385 1.300625 2.385 1.300625 1.375 2.5 C-1.05117544 6.16100309 -1.24362859 9.48068063 -1.1015625 13.80078125 C-0.3936968 17.25307708 1.84890001 18.7932154 4.375 21.125 C4.1875 24.4375 4.1875 24.4375 3.375 27.125 C1 26.9375 1 26.9375 -1.625 26.125 C-2.6875 23.8125 -2.6875 23.8125 -3.625 21.125 C-4.91855827 19.75304426 -6.24798702 18.41317344 -7.625 17.125 C-9.21935019 13.93629961 -9.01132834 10.5952942 -8.625 7.125 C-6.48945743 2.65977462 -5.15234307 0.177667 0 0 Z " fill="#FCBEA9" transform="translate(21.625,-0.125)"/>
<path d="M0 0 C-0.33 0.66 -0.66 1.32 -1 2 C-1.23029956 4.37123246 -1.41119942 6.74741943 -1.5625 9.125 C-1.64628906 10.40632813 -1.73007813 11.68765625 -1.81640625 13.0078125 C-1.87699219 13.99523438 -1.93757812 14.98265625 -2 16 C-0.35 16 1.3 16 3 16 C3 17.98 3 19.96 3 22 C-0.96 22 -4.92 22 -9 22 C-9.05404449 19.24973583 -9.09369306 16.50053797 -9.125 13.75 C-9.14175781 12.97269531 -9.15851562 12.19539063 -9.17578125 11.39453125 C-9.23866553 4.03707072 -9.23866553 4.03707072 -7 1 C-4.53721199 -0.231394 -2.7204945 -0.07159196 0 0 Z " fill="#05C43C" transform="translate(15,23)"/>
<path d="M0 0 C2.475 0.495 2.475 0.495 5 1 C5 4.63 5 8.26 5 12 C1.70827931 12.02688338 -1.58322354 12.0467821 -4.875 12.0625 C-5.81214844 12.07087891 -6.74929687 12.07925781 -7.71484375 12.08789062 C-9.05869141 12.09272461 -9.05869141 12.09272461 -10.4296875 12.09765625 C-11.25710449 12.10289307 -12.08452148 12.10812988 -12.93701172 12.11352539 C-15 12 -15 12 -17 11 C-16.67 9.35 -16.34 7.7 -16 6 C-12.58860997 4.90348177 -9.79344419 5.05784527 -6.25 5.4375 C-5.26515625 5.53933594 -4.2803125 5.64117187 -3.265625 5.74609375 C-2.14414062 5.87177734 -2.14414062 5.87177734 -1 6 C-1.020625 5.195625 -1.04125 4.39125 -1.0625 3.5625 C-1 1 -1 1 0 0 Z " fill="#76D278" transform="translate(34,33)"/>
<path d="M0 0 C-0.825 0.78375 -1.65 1.5675 -2.5 2.375 C-5.55924731 5.99597352 -5.45682583 9.13870706 -5.2734375 13.73046875 C-5.0574362 16.16182266 -5.0574362 16.16182266 -4 19 C-3.01 19.33 -2.02 19.66 -1 20 C-1 22.31 -1 24.62 -1 27 C-2.65 26.67 -4.3 26.34 -6 26 C-6.061875 25.278125 -6.12375 24.55625 -6.1875 23.8125 C-6.77206358 20.77922991 -6.77206358 20.77922991 -9.5625 18.9375 C-12.89396599 14.92265637 -12.56000785 11.91377595 -12.56640625 6.83984375 C-11.09072475 -0.558918 -6.32857979 -0.42190532 0 0 Z " fill="#BB5F4D" transform="translate(89,0)"/>
<path d="M0 0 C2.125 0.375 2.125 0.375 4 1 C4 1.99 4 2.98 4 4 C3.566875 4.4125 3.13375 4.825 2.6875 5.25 C0.71907672 7.08442819 0.71907672 7.08442819 -0.5 10.5 C-2.61832061 15.44274809 -2.61832061 15.44274809 -5 17 C-7.4375 17.4375 -7.4375 17.4375 -10 17 C-12.375 15.25 -12.375 15.25 -14 13 C-14.10011768 9.89635205 -12.8041767 8.76501204 -10.8125 6.375 C-7.8717114 3.89166741 -5.65262509 3.0552028 -2 2 C-1.34 1.34 -0.68 0.68 0 0 Z " fill="#0A77E9" transform="translate(31,61)"/>
<path d="M0 0 C-0.78739728 6.23553649 -4.49756372 9.12424038 -8.8125 13.375 C-9.53759766 14.12394531 -10.26269531 14.87289062 -11.00976562 15.64453125 C-11.71423828 16.34707031 -12.41871094 17.04960938 -13.14453125 17.7734375 C-14.10903198 18.73902588 -14.10903198 18.73902588 -15.09301758 19.72412109 C-17 21 -17 21 -19.2409668 20.70166016 C-19.82144775 20.4701123 -20.40192871 20.23856445 -21 20 C-20.11442014 14.52052221 -15.97827658 11.50429491 -12.1875 7.75 C-11.46240234 7.00492187 -10.73730469 6.25984375 -9.99023438 5.4921875 C-9.28576172 4.78835937 -8.58128906 4.08453125 -7.85546875 3.359375 C-7.21246826 2.71452148 -6.56946777 2.06966797 -5.90698242 1.40527344 C-4 0 -4 0 0 0 Z " fill="#D4D4DA" transform="translate(44,71)"/>
<path d="M0 0 C0.7265625 1.73046875 0.7265625 1.73046875 1 4 C-0.4765625 6.17578125 -0.4765625 6.17578125 -2.625 8.3125 C-3.66527344 9.38951172 -3.66527344 9.38951172 -4.7265625 10.48828125 C-7 12 -7 12 -9.50390625 11.98046875 C-12.5100166 10.79966484 -14.09630932 9.33722558 -16.3125 7 C-17.00988281 6.278125 -17.70726562 5.55625 -18.42578125 4.8125 C-20 3 -20 3 -20 2 C-19.42967041 1.97494385 -18.85934082 1.9498877 -18.27172852 1.92407227 C-15.70173843 1.80843451 -13.13214473 1.68556376 -10.5625 1.5625 C-9.66466797 1.52318359 -8.76683594 1.48386719 -7.84179688 1.44335938 C-6.98779297 1.40146484 -6.13378906 1.35957031 -5.25390625 1.31640625 C-4.46314697 1.27974854 -3.6723877 1.24309082 -2.85766602 1.20532227 C-0.98598559 1.19436743 -0.98598559 1.19436743 0 0 Z " fill="#E1E6F0" transform="translate(54,105)"/>
<path d="M0 0 C0 4.29 0 8.58 0 13 C-6.27 13 -12.54 13 -19 13 C-19 12.67 -19 12.34 -19 12 C-17.35 12 -15.7 12 -14 12 C-13.74992187 11.42765625 -13.49984375 10.8553125 -13.2421875 10.265625 C-11.82460828 7.68010316 -10.18877994 5.85271918 -8.125 3.75 C-7.44695313 3.04359375 -6.76890625 2.3371875 -6.0703125 1.609375 C-4 0 -4 0 0 0 Z " fill="#CCCED8" transform="translate(45,85)"/>
<path d="M0 0 C0.58136719 0.23074219 1.16273437 0.46148437 1.76171875 0.69921875 C0.77171875 1.02921875 -0.21828125 1.35921875 -1.23828125 1.69921875 C-0.62550513 4.66096998 0.01544397 6.07980658 1.76171875 8.69921875 C1.38671875 10.88671875 1.38671875 10.88671875 0.76171875 12.69921875 C1.50421875 12.45171875 2.24671875 12.20421875 3.01171875 11.94921875 C3.91921875 11.86671875 4.82671875 11.78421875 5.76171875 11.69921875 C8.07421875 13.63671875 8.07421875 13.63671875 9.76171875 15.69921875 C9.10171875 16.68921875 8.44171875 17.67921875 7.76171875 18.69921875 C4.94921875 19.19921875 4.94921875 19.19921875 1.76171875 18.69921875 C-0.80078125 16.38671875 -0.80078125 16.38671875 -3.23828125 13.69921875 C-4.14578125 13.18359375 -5.05328125 12.66796875 -5.98828125 12.13671875 C-8.23828125 10.69921875 -8.23828125 10.69921875 -9.078125 8.84765625 C-9.23828125 6.69921875 -9.23828125 6.69921875 -7.9453125 4.7421875 C-7.00751953 3.82373047 -7.00751953 3.82373047 -6.05078125 2.88671875 C-5.43847656 2.26152344 -4.82617188 1.63632813 -4.1953125 0.9921875 C-2.23828125 -0.30078125 -2.23828125 -0.30078125 0 0 Z " fill="#E8E8EE" transform="translate(23.23828125,78.30078125)"/>
<path d="M0 0 C7.92 0 15.84 0 24 0 C22.68 1.65 21.36 3.3 20 5 C19.57074219 5.59425781 19.14148438 6.18851562 18.69921875 6.80078125 C15.90233607 8.77467316 13.15570478 8.27951481 9.8125 8.1875 C8.54019531 8.16042969 7.26789063 8.13335937 5.95703125 8.10546875 C4.49330078 8.05326172 4.49330078 8.05326172 3 8 C2.690625 7.05125 2.38125 6.1025 2.0625 5.125 C1.12605258 2.13919592 1.12605258 2.13919592 0 0 Z " fill="#E49D69" transform="translate(59,58)"/>
<path d="M0 0 C0.78375 0.2475 1.5675 0.495 2.375 0.75 C3.81707941 3.63415883 3.46894887 6.16721528 3.4375 9.375 C3.42847656 10.56351563 3.41945313 11.75203125 3.41015625 12.9765625 C3.39855469 13.89179687 3.38695313 14.80703125 3.375 15.75 C3.045 15.09 2.715 14.43 2.375 13.75 C-1.76593698 13.54029441 -1.76593698 13.54029441 -5.625 14.75 C-5.70578641 12.62561661 -5.76409141 10.5003677 -5.8125 8.375 C-5.84730469 7.19164063 -5.88210937 6.00828125 -5.91796875 4.7890625 C-5.82128906 3.78617187 -5.72460938 2.78328125 -5.625 1.75 C-2.625 -0.25 -2.625 -0.25 0 0 Z " fill="#0066EC" transform="translate(93.625,82.25)"/>
<path d="M0 0 C0.99 0 1.98 0 3 0 C3 8.25 3 16.5 3 25 C2.01 25 1.02 25 0 25 C0 19.72 0 14.44 0 9 C-2.31 9 -4.62 9 -7 9 C-7 7.68 -7 6.36 -7 5 C-4.69 5 -2.38 5 0 5 C0 3.35 0 1.7 0 0 Z " fill="#704741" transform="translate(104,80)"/>
<path d="M0 0 C2.4375 0.8125 2.4375 0.8125 4.4375 2.8125 C4.78240322 6.86511287 4.73913882 8.36004176 2.4375 11.8125 C0.0943787 11.55688677 -2.24093403 11.21979228 -4.5625 10.8125 C-5.96185013 8.01379973 -5.81515405 5.90751208 -5.5625 2.8125 C-3.8855372 0.07640281 -3.22049925 -0.23564629 0 0 Z " fill="#0056CB" transform="translate(50.5625,95.1875)"/>
<path d="M0 0 C3.0625 0.25 3.0625 0.25 6 1 C7.50662097 4.01324195 7.17770373 6.68286377 7 10 C5 12 5 12 2.5 12.25 C0 12 0 12 -2 10 C-2.265625 8.125 -2.265625 8.125 -2.25 6 C-2.25515625 5.29875 -2.2603125 4.5975 -2.265625 3.875 C-2 2 -2 2 0 0 Z " fill="#0055CB" transform="translate(90,95)"/>
<path d="M0 0 C0.33 0 0.66 0 1 0 C0.99097656 0.56847656 0.98195313 1.13695313 0.97265625 1.72265625 C1.16622778 6.76393227 1.90531602 9.46430286 5.5625 13.0625 C6.68988324 14.06285414 7.82994793 15.0499055 9 16 C8.67 16.99 8.34 17.98 8 19 C3.8911959 18.47470631 1.74480159 17.33192009 -1.3125 14.5625 C-2.00988281 13.94503906 -2.70726562 13.32757813 -3.42578125 12.69140625 C-5 11 -5 11 -5 9 C-3.35 9 -1.7 9 0 9 C0 6.03 0 3.06 0 0 Z " fill="#1862C8" transform="translate(32,98)"/>
<path d="M0 0 C1.91015625 0.23046875 1.91015625 0.23046875 3.91015625 2.23046875 C3.53515625 4.85546875 3.53515625 4.85546875 2.91015625 7.23046875 C1.45192413 7.25747305 -0.0064505 7.27686662 -1.46484375 7.29296875 C-2.27695312 7.30457031 -3.0890625 7.31617188 -3.92578125 7.328125 C-6.08984375 7.23046875 -6.08984375 7.23046875 -8.08984375 6.23046875 C-6.97909637 0.04201908 -6.40293139 0.12782622 0 0 Z " fill="#FBBCA7" transform="translate(25.08984375,37.76953125)"/>
<path d="M0 0 C3.37503669 1.1858237 5.64722731 2.27573689 8 5 C3.43672206 8.53286034 -0.49633208 8.32374517 -6 8 C-6 6 -6 6 -3.5625 3.4375 C-2.716875 2.633125 -1.87125 1.82875 -1 1 C-0.67 0.67 -0.34 0.34 0 0 Z " fill="#95CCF6" transform="translate(95,14)"/>
<path d="M0 0 C2.5 0.125 2.5 0.125 3.5 1.125 C3.54080783 3.12458364 3.54254356 5.12545254 3.5 7.125 C1.75 8.25 1.75 8.25 -0.5 9.125 C-2.75 8.25 -2.75 8.25 -4.5 7.125 C-3.46463023 0.17323151 -3.46463023 0.17323151 0 0 Z " fill="#C86D58" transform="translate(113.5,-0.125)"/>
<path d="M0 0 C1.65 0 3.3 0 5 0 C5 2.97 5 5.94 5 9 C3.02 9 1.04 9 -1 9 C-0.67 6.03 -0.34 3.06 0 0 Z " fill="#EA9B58" transform="translate(27,98)"/>
<path d="M0 0 C0.5775 0.45375 1.155 0.9075 1.75 1.375 C3.7800333 2.84113516 5.73539843 3.94857784 8 5 C6.68 5 5.36 5 4 5 C4.33 7.64 4.66 10.28 5 13 C1.93918797 10.24526918 0.10117137 8.00425951 -1 4 C-0.625 1.6875 -0.625 1.6875 0 0 Z " fill="#65B4E8" transform="translate(10,91)"/>
<path d="M0 0 C0.8353125 0.37125 0.8353125 0.37125 1.6875 0.75 C1.6875 1.74 1.6875 2.73 1.6875 3.75 C-0.8125 5.9375 -0.8125 5.9375 -3.3125 7.75 C-4.6325 6.43 -5.9525 5.11 -7.3125 3.75 C-2.88173077 -0.31153846 -2.88173077 -0.31153846 0 0 Z " fill="#0E59C3" transform="translate(33.3125,61.25)"/>
<path d="M0 0 C0.99 0 1.98 0 3 0 C3.1953125 2.01822917 3.390625 4.03645833 3.5859375 6.0546875 C3.86374749 8.22668245 3.86374749 8.22668245 6 10 C6.125 12.625 6.125 12.625 6 15 C3.62317631 12.86285601 2.40068998 11.06221946 1.3125 8.0625 C1.06113281 7.39347656 0.80976562 6.72445312 0.55078125 6.03515625 C0 4 0 4 0 0 Z " fill="#686F89" transform="translate(4,80)"/>
<path d="M0 0 C2.31 0 4.62 0 7 0 C7 1.65 7 3.3 7 5 C4.69 5 2.38 5 0 5 C0 3.35 0 1.7 0 0 Z " fill="#63B7F3" transform="translate(97,80)"/>
<path d="M0 0 C0.33 0 0.66 0 1 0 C1 2.31 1 4.62 1 7 C-1.31 7 -3.62 7 -6 7 C-5.02433888 5.83040013 -4.044375 4.66438823 -3.0625 3.5 C-2.51722656 2.8503125 -1.97195312 2.200625 -1.41015625 1.53125 C-0.71212891 0.77328125 -0.71212891 0.77328125 0 0 Z " fill="#FEEDE5" transform="translate(44,90)"/>
<path d="M0 0 C0 1.98 0 3.96 0 6 C-1.65 6 -3.3 6 -5 6 C-5 4.68 -5 3.36 -5 2 C-2 0 -2 0 0 0 Z " fill="#78514E" transform="translate(82,61)"/>
<path d="M0 0 C0.66 0.33 1.32 0.66 2 1 C-1.63 4.63 -5.26 8.26 -9 12 C-9 8.78465943 -8.73523928 7.64417414 -7 5 C-4.5 3.375 -4.5 3.375 -2 2 C-1.34 1.34 -0.68 0.68 0 0 Z " fill="#1060CB" transform="translate(17,75)"/>
<path d="M0 0 C0.99 0 1.98 0 3 0 C3 2.31 3 4.62 3 7 C1.35 6.67 -0.3 6.34 -2 6 C-1.125 1.125 -1.125 1.125 0 0 Z " fill="#F1A78A" transform="translate(19,38)"/>
<path d="M0 0 C0.625 1.875 0.625 1.875 1 4 C0.34 4.66 -0.32 5.32 -1 6 C-3.5625 5.75 -3.5625 5.75 -6 5 C-6.33 4.34 -6.66 3.68 -7 3 C-4.69 2.01 -2.38 1.02 0 0 Z " fill="#F0E8E7" transform="translate(54,105)"/>
<path d="M0 0 C2.475 0.99 2.475 0.99 5 2 C4.67 3.65 4.34 5.3 4 7 C3.34 7 2.68 7 2 7 C1.34 4.69 0.68 2.38 0 0 Z " fill="#C97057" transform="translate(85,38)"/>
</svg>
