<?xml version="1.0" encoding="UTF-8"?>
<svg version="1.1" xmlns="http://www.w3.org/2000/svg" width="128" height="128">
<path d="M0 0 C6.29671422 3.64546613 10.25669741 9.1292571 12.5 16 C13.54359357 24.99687509 12.89796875 32.56066743 7.5 40 C2.62111705 45.83237023 -1.84736388 46.70420916 -9.5 49 C-9.5 57.58 -9.5 66.16 -9.5 75 C-6.2 75.99 -2.9 76.98 0.5 78 C5.81862597 81.10119279 9.68056879 85.59529511 11.87109375 91.3515625 C13.89221971 99.86288796 13.54867696 108.23410342 9.125 115.875 C5.33487341 120.83131939 0.41120991 124.08425022 -5.5 126 C-13.63234845 126.8355818 -20.67810895 126.75868498 -27.5 122 C-28.386875 121.46375 -29.27375 120.9275 -30.1875 120.375 C-33.70925801 116.75805934 -35.92282539 112.7975144 -37.5 108 C-37.43406096 106.01919122 -37.32888764 104.03935632 -37.1875 102.0625 C-37.08128366 98.96695448 -37.08128366 98.96695448 -38.5 96 C-43.73773091 91.31173133 -50.25063897 88.12887597 -56.5 85 C-57.01111328 85.4964502 -57.52222656 85.99290039 -58.04882812 86.50439453 C-65.54654259 93.67132748 -74.08192585 97.14604777 -84.5 97 C-94.30812466 96.03111231 -101.94081992 92.54930932 -108.66796875 85.3046875 C-116.04538152 76.02393369 -116.71075107 66.39002856 -115.5 55 C-114.62346398 51.60575412 -113.38215328 48.94164354 -111.5 46 C-111.17257813 45.3915625 -110.84515625 44.783125 -110.5078125 44.15625 C-106.68032142 37.78641082 -99.94805469 33.61358003 -93.06640625 31.1171875 C-83.57797842 28.78208048 -74.47984398 29.58684705 -65.93359375 34.46484375 C-62.88286439 36.46765002 -60.08370896 38.41629104 -57.5 41 C-50.89105808 40.07386285 -43.40186037 35.3937094 -38.5 31 C-37.20590552 27.75643273 -37.87644247 25.3567209 -38.5 22 C-37.95155302 14.97987862 -35.14688603 9.24681223 -30.5 4 C-21.79571851 -2.91077169 -10.31670383 -4.67941818 0 0 Z M-35.5 35 C-38.32118645 36.75727767 -41.13027466 38.53301983 -43.9375 40.3125 C-44.73994141 40.81201172 -45.54238281 41.31152344 -46.36914062 41.82617188 C-47.13291016 42.31279297 -47.89667969 42.79941406 -48.68359375 43.30078125 C-49.39056396 43.74591064 -50.09753418 44.19104004 -50.82592773 44.6496582 C-52.79686863 45.99082534 -52.79686863 45.99082534 -53.5 49 C-52.95783893 51.234972 -52.95783893 51.234972 -52.0625 53.625 C-49.51700284 61.71897715 -50.10786664 67.8562777 -52.84375 75.8359375 C-53.64509958 78.1015868 -53.64509958 78.1015868 -53.5 81 C-52.04132133 82.34879199 -52.04132133 82.34879199 -50.0703125 83.48046875 C-49.35746094 83.92197266 -48.64460938 84.36347656 -47.91015625 84.81835938 C-47.15605469 85.27017578 -46.40195313 85.72199219 -45.625 86.1875 C-44.50544922 86.88262695 -44.50544922 86.88262695 -43.36328125 87.59179688 C-39.68515169 90.0993853 -39.68515169 90.0993853 -35.5 91 C-35.005 89.96875 -34.51 88.9375 -34 87.875 C-29.43665254 79.96519774 -23.01029127 77.83676376 -14.5 75 C-14.5 66.42 -14.5 57.84 -14.5 49 C-17.47 48.01 -20.44 47.02 -23.5 46 C-25.98828125 44.5703125 -25.98828125 44.5703125 -27.8125 43.125 C-28.42738281 42.65320312 -29.04226562 42.18140625 -29.67578125 41.6953125 C-31.88088279 39.64603184 -33.6691103 37.38460248 -35.5 35 Z " fill="#89B4E2" transform="translate(115.5,2)"/>
<path d="M0 0 C6.29671422 3.64546613 10.25669741 9.1292571 12.5 16 C13.54359357 24.99687509 12.89796875 32.56066743 7.5 40 C2.96434729 45.422062 -2.56203716 47.94818056 -9.5 49 C-17.33904606 49.26202939 -24.33432943 47.81537554 -30.21875 42.42578125 C-35.52790069 36.63516347 -38.47043039 29.93944067 -38.5 22 C-37.92260523 14.9582942 -35.17149275 9.27459575 -30.5 4 C-21.79571851 -2.91077169 -10.31670383 -4.67941818 0 0 Z " fill="#7CACDF" transform="translate(115.5,2)"/>
<path d="M0 0 C-3.63 1.98 -7.26 3.96 -11 6 C-9.205625 6.04125 -7.41125 6.0825 -5.5625 6.125 C2.00264529 6.77547775 6.81194011 9.43529168 11.8515625 15.0703125 C17.49716193 22.32129565 17.87051604 28.91761598 17 38 C15.57106263 42.49829484 14.03686858 46.81304781 9.828125 49.265625 C9.22484375 49.50796875 8.6215625 49.7503125 8 50 C7.54109375 49.52949219 7.0821875 49.05898437 6.609375 48.57421875 C2.08450705 43.96631602 2.08450705 43.96631602 -3 40 C-2.64741894 36.82677043 -2.43358218 35.38615912 0 33.21875 C2.58511015 30.35089343 2.58439702 28.55886856 2.75 24.75 C2.8325 22.8525 2.915 20.955 3 19 C-3.93 19 -10.86 19 -18 19 C-18.04658805 26.85484561 -18.04658805 26.85484561 -14.375 33.375 C-12 36 -12 36 -12.0703125 38.40234375 C-13.24695345 41.69001699 -14.81244908 42.98898129 -17.5 45.1875 C-21.68801589 48.65321568 -23.02204846 50.22048464 -23.5625 55.625 C-23.68818359 56.85089844 -23.68818359 56.85089844 -23.81640625 58.1015625 C-23.87699219 58.72804687 -23.93757813 59.35453125 -24 60 C-30.95156215 56.62954563 -36.47726624 49.94186974 -39.33984375 42.81640625 C-41.36095792 34.19378308 -41.57273127 23.72093194 -37.1796875 15.84375 C-36.79039063 15.2353125 -36.40109375 14.626875 -36 14 C-35.67257813 13.3915625 -35.34515625 12.783125 -35.0078125 12.15625 C-31.18032142 5.78641082 -24.44805469 1.61358003 -17.56640625 -0.8828125 C-11.70717207 -2.32477308 -5.17415283 -3.44943522 0 0 Z " fill="#7CACDE" transform="translate(40,34)"/>
<path d="M0 0 C6.93 0 13.86 0 21 0 C21.62027231 11.28895613 21.62027231 11.28895613 18.4375 14.9375 C17.2309375 15.9584375 17.2309375 15.9584375 16 17 C16.13274239 20.13986808 16.62814725 21.59954319 18.77734375 23.9140625 C19.84662109 24.76097656 19.84662109 24.76097656 20.9375 25.625 C23.55149144 27.72188606 25.11077516 29.16616274 27 32 C27.1953125 34.48046875 27.1953125 34.48046875 27.125 37.1875 C27.10695312 38.08855469 27.08890625 38.98960938 27.0703125 39.91796875 C27.04710937 40.60503906 27.02390625 41.29210937 27 42 C16.27919615 46.56626831 6.87222445 46.8340008 -4.125 42.875 C-5.053125 42.441875 -5.053125 42.441875 -6 42 C-6.57755426 37.52624635 -6.98520979 33.62573186 -4.58203125 29.66015625 C-1.66964387 26.32550375 1.41444517 23.5939744 5 21 C4.62651372 17.73199505 4.27023513 16.27842407 1.9375 13.875 C-1.09672954 9.37259488 -0.25776407 5.34860454 0 0 Z " fill="#ACE094" transform="translate(22,53)"/>
<path d="M0 0 C3.71168084 0.96768822 5.55692692 2.80821076 8.1875 5.5703125 C9.62054064 8.43639379 9.49394155 10.38332033 9.1875 13.5703125 C7.14756092 17.2281343 5.68330738 19.23977424 2.1875 21.5703125 C3.26 22.0859375 4.3325 22.6015625 5.4375 23.1328125 C9.72130038 25.59187032 11.23754138 28.0464085 13.1875 32.5703125 C13.4375 36.0078125 13.4375 36.0078125 13.1875 38.5703125 C6.07611431 43.12159934 -0.47780737 43.57589026 -8.8125 42.5703125 C-11.87827093 41.53349201 -14.06561327 40.32832001 -16.8125 38.5703125 C-17.4649214 33.3509413 -15.93326053 30.54122071 -13.19921875 26.3046875 C-11.8125 24.5703125 -11.8125 24.5703125 -8.8125 22.5703125 C-7.8225 22.5703125 -6.8325 22.5703125 -5.8125 22.5703125 C-5.8125 21.9103125 -5.8125 21.2503125 -5.8125 20.5703125 C-6.410625 20.3228125 -7.00875 20.0753125 -7.625 19.8203125 C-10.25746795 18.3160451 -11.3665968 17.24523342 -12.8125 14.5703125 C-13.40391308 11.08754657 -13.41541583 8.74417135 -11.78125 5.5625 C-8.47827849 1.03008909 -5.61036801 -0.43594076 0 0 Z " fill="#FCE87D" transform="translate(104.8125,85.4296875)"/>
<path d="M0 0 C3.08798053 1.63138594 5.2664262 3.07505912 7.4375 5.8125 C8.30204969 9.17463767 7.82327073 11.64811202 7 15 C5.17660948 17.70567626 3.92542564 19.53728718 1 21 C1.9075 21.556875 2.815 22.11375 3.75 22.6875 C7.4469999 25.31805762 10.44400389 27.49100916 11.46484375 32.09765625 C11.71710523 34.05700227 11.8663733 36.0290062 12 38 C7.71708769 42.09669873 2.1547437 42.99525602 -3.59765625 43.00390625 C-8.81574759 42.61825546 -14.11178662 41.88821338 -18 38 C-18.43669519 34.24442133 -18.16255127 32.30634662 -16.375 28.9375 C-13.79896357 25.75134968 -11.23206969 23.4975084 -8 21 C-8.804375 20.21625 -9.60875 19.4325 -10.4375 18.625 C-13.39090674 15.59955895 -13.89618218 14.89975442 -14.375 10.75 C-13.88072704 5.80727042 -12.46171699 4.46171699 -9 1 C-5.89046621 -0.5547669 -3.43733239 -0.28644437 0 0 Z " fill="#F27B7B" transform="translate(106,8)"/>
<path d="M0 0 C2 2 2 2 2.12890625 4.29296875 C0.34814022 8.56311012 -3.16167469 10.0639457 -7.0625 12.3125 C-7.82111328 12.76689453 -8.57972656 13.22128906 -9.36132812 13.68945312 C-11.23282995 14.80764604 -13.11189393 15.91015891 -15 17 C-14.7834375 17.76183594 -14.566875 18.52367188 -14.34375 19.30859375 C-11.05397721 31.50816784 -11.8547695 39.02694584 -16 51 C-15.29359375 51.26167969 -14.5871875 51.52335937 -13.859375 51.79296875 C-10.80745476 53.08127934 -8.07835688 54.58873114 -5.25 56.3125 C-3.80367187 57.17294922 -3.80367187 57.17294922 -2.328125 58.05078125 C0 60 0 60 0.828125 62.73046875 C0.88484375 63.47941406 0.9415625 64.22835937 1 65 C0.01 65.495 0.01 65.495 -1 66 C-2.87939453 65.10375977 -2.87939453 65.10375977 -5.1328125 63.69140625 C-5.93847656 63.19189453 -6.74414062 62.69238281 -7.57421875 62.17773438 C-8.41597656 61.64470703 -9.25773437 61.11167969 -10.125 60.5625 C-10.97449219 60.03333984 -11.82398438 59.50417969 -12.69921875 58.95898438 C-14.80406066 57.64641442 -16.90394173 56.32653522 -19 55 C-19.59441895 55.53689453 -20.18883789 56.07378906 -20.80126953 56.62695312 C-26.75 62 -26.75 62 -29 62 C-29.65833642 58.6431361 -30.13217769 55.42604579 -30 52 C-27.75 49.3125 -27.75 49.3125 -25 47 C-20.99105072 40.50273738 -21.24189715 33.45180645 -22 26 C-23.86020769 18.99100316 -28.81153688 14.62234213 -34.796875 10.875 C-37.78489841 9.6882673 -40.54836019 9.56709839 -43.75 9.375 C-44.92046875 9.30023438 -46.0909375 9.22546875 -47.296875 9.1484375 C-48.18890625 9.09945312 -49.0809375 9.05046875 -50 9 C-46.40631636 5.24765483 -43.1096589 2.32941568 -38 1 C-31.9434973 1.56020008 -27.35851534 4.87395562 -22.82421875 8.6953125 C-20.76869755 10.1654283 -19.50356308 10.679674 -17 11 C-14.90534769 10.13806361 -14.90534769 10.13806361 -12.890625 8.69140625 C-12.13652344 8.19189453 -11.38242188 7.69238281 -10.60546875 7.17773438 C-9.43951172 6.37819336 -9.43951172 6.37819336 -8.25 5.5625 C-7.45722656 5.03333984 -6.66445312 4.50417969 -5.84765625 3.95898438 C-3.8906138 2.6503596 -1.9421628 1.33056522 0 0 Z " fill="#97BBE4" transform="translate(78,32)"/>
<path d="M0 0 C20.02814816 -1.10022381 20.02814816 -1.10022381 26.26953125 4.14453125 C33.31907496 11.70329708 35.41648178 16.89084766 35.3515625 27.33203125 C34.85223459 32.54168578 33.24353234 36.86876407 30 41 C27.828125 42.265625 27.828125 42.265625 26 43 C25.54109375 42.52949219 25.0821875 42.05898437 24.609375 41.57421875 C20.08450705 36.96631602 20.08450705 36.96631602 15 33 C15.35258106 29.82677043 15.56641782 28.38615912 18 26.21875 C20.58511015 23.35089343 20.58439702 21.55886856 20.75 17.75 C20.8325 15.8525 20.915 13.955 21 12 C14.07 12 7.14 12 0 12 C0 8.04 0 4.08 0 0 Z " fill="#6199D5" transform="translate(22,41)"/>
<path d="M0 0 C5.77953862 3.10065977 9.49376559 7.09816446 12.1484375 13.09375 C14.37944454 20.70782907 14.16622637 28.40650325 10.8125 35.625 C8.73970492 39.22574117 6.56708121 41.75783467 3 44 C2.82984375 43.40832031 2.6596875 42.81664062 2.484375 42.20703125 C1.01513166 37.41636014 -0.31914037 33.57259905 -4 30 C-6.61818456 28.66701026 -6.61818456 28.66701026 -9 28 C-8.57847656 27.57589844 -8.15695313 27.15179687 -7.72265625 26.71484375 C-3.92783108 22.65214857 -1.89238846 19.81102321 -2 14 C-3.21183834 11.12985656 -4.21908482 9.55779656 -6.75 7.75 C-9.79304274 6.73565242 -12.82098958 6.36680889 -16 6 C-11.43265321 0.90565166 -6.85868185 -2.33195183 0 0 Z " fill="#97BBE4" transform="translate(115,2)"/>
<path d="M0 0 C0.03867187 1.84464844 0.03867187 1.84464844 0.078125 3.7265625 C0.13443006 5.35940932 0.19177685 6.99222045 0.25 8.625 C0.26417969 9.43324219 0.27835938 10.24148437 0.29296875 11.07421875 C0.5560454 17.54590439 2.34110562 21.34110562 7 26 C6.91065587 29.54398391 6.14666161 30.84230743 3.71484375 33.45703125 C2.34005859 34.62298828 2.34005859 34.62298828 0.9375 35.8125 C0.01839844 36.60269531 -0.90070312 37.39289063 -1.84765625 38.20703125 C-2.55792969 38.79871094 -3.26820312 39.39039063 -4 40 C-7.45783802 38.84738733 -7.80618466 38.19468242 -9.625 35.1875 C-10.05039063 34.50042969 -10.47578125 33.81335938 -10.9140625 33.10546875 C-13.94131985 27.23607411 -13.7821883 20.4272265 -13 14 C-10.91914943 8.75597725 -6.48373786 0 0 0 Z " fill="#3D88D0" transform="translate(21,44)"/>
<path d="M0 0 C6.93 0 13.86 0 21 0 C21.61906055 11.26690198 21.61906055 11.26690198 18.625 14.8125 C17.75875 15.534375 16.8925 16.25625 16 17 C15.01842156 19.32816596 14.53599155 21.51494828 14 24 C11.6875 24.6875 11.6875 24.6875 9 25 C6.45240414 23.39595816 5.99767655 21.99287476 5.0625 19.125 C4.21969308 15.91335404 4.21969308 15.91335404 1.875 13.8125 C-1.09513997 9.35729004 -0.2540611 5.27176778 0 0 Z " fill="#FCD1A3" transform="translate(22,53)"/>
<path d="M0 0 C3.71168084 0.96768822 5.55692692 2.80821076 8.1875 5.5703125 C9.62054064 8.43639379 9.49394155 10.38332033 9.1875 13.5703125 C7.11453532 17.42010405 5.44804773 20.23128321 1.1875 21.5703125 C-1.13745277 21.95780463 -3.47101268 22.30014089 -5.8125 22.5703125 C-5.8125 21.9103125 -5.8125 21.2503125 -5.8125 20.5703125 C-6.410625 20.3228125 -7.00875 20.0753125 -7.625 19.8203125 C-10.25746795 18.3160451 -11.3665968 17.24523342 -12.8125 14.5703125 C-13.40391308 11.08754657 -13.41541583 8.74417135 -11.78125 5.5625 C-8.47827849 1.03008909 -5.61036801 -0.43594076 0 0 Z " fill="#FBE3C2" transform="translate(104.8125,85.4296875)"/>
<path d="M0 0 C3.08798053 1.63138594 5.2664262 3.07505912 7.4375 5.8125 C8.30204969 9.17463767 7.82327073 11.64811202 7 15 C5.17660948 17.70567626 3.92542564 19.53728718 1 21 C-2.05920574 21.42071592 -4.9467746 21.48514117 -8 21 C-10.75569447 18.81840855 -12.43588747 17.12822506 -14 14 C-14.67660495 8.13609041 -14.67660495 8.13609041 -12.953125 5.2421875 C-8.85674839 0.25424657 -6.38770456 -0.53230871 0 0 Z " fill="#FCE3C1" transform="translate(106,8)"/>
<path d="M0 0 C1.32 0.33 2.64 0.66 4 1 C7.44443651 1.22188088 10.88308348 1.39243931 14.33203125 1.51757812 C19.78466655 1.78466655 19.78466655 1.78466655 22 4 C22.14517744 6.9093558 22.18630796 9.719946 22.125 12.625 C22.11597656 13.42679688 22.10695313 14.22859375 22.09765625 15.0546875 C22.07406223 17.03658523 22.03819065 19.01832981 22 21 C21.67 21 21.34 21 21 21 C21 18.03 21 15.06 21 12 C14.07 12 7.14 12 0 12 C0 8.04 0 4.08 0 0 Z " fill="#918392" transform="translate(22,41)"/>
<path d="M0 0 C0.66 0.33 1.32 0.66 2 1 C2 1.66 2 2.32 2 3 C6.25731568 3.40749675 6.25731568 3.40749675 9.875 1.5 C10.24625 1.005 10.6175 0.51 11 0 C11.99 0.99 12.98 1.98 14 3 C9.79261242 7.09950585 6.76308581 8.64380815 0.953125 9.54296875 C-1.22260952 9.87101143 -1.22260952 9.87101143 -3 12 C-3.46290221 14.66242821 -3.46290221 14.66242821 -3.625 17.625 C-3.69976563 18.62789062 -3.77453125 19.63078125 -3.8515625 20.6640625 C-3.90054687 21.43492188 -3.94953125 22.20578125 -4 23 C-6.31 22.34 -8.62 21.68 -11 21 C-11.57755426 16.52624635 -11.98520979 12.62573186 -9.58203125 8.66015625 C-6.66964387 5.32550375 -3.58555483 2.5939744 0 0 Z " fill="#98D97E" transform="translate(27,74)"/>
<path d="M0 0 C0.33 0 0.66 0 1 0 C1.02578125 0.86882813 1.0515625 1.73765625 1.078125 2.6328125 C1.48362047 10.87174312 2.13859449 15.13859449 8 21 C8.125 23.25 8.125 23.25 7 26 C4.49253122 28.2435247 1.80193132 30.14268334 -1 32 C-4.58999078 20.56758889 -5.5227881 11.0455762 0 0 Z " fill="#5F99D5" transform="translate(20,49)"/>
<path d="M0 0 C2.5625 2.0625 2.5625 2.0625 4 4 C2.824375 3.9175 1.64875 3.835 0.4375 3.75 C-4.48242019 3.76744653 -7.05522215 5.06075376 -11 8 C-13.27453775 11.56344247 -14.38692509 14.83109059 -15 19 C-19.875 17.125 -19.875 17.125 -21 16 C-21.44341984 12.18658939 -21.15445955 10.28603619 -19.3125 6.875 C-13.69586963 -0.10783776 -8.62948391 -2.08727589 0 0 Z " fill="#EB6465" transform="translate(109,30)"/>
<path d="M0 0 C5.03372844 1.43820813 6.98955889 3.90245515 10 8 C11.85966547 13.5789964 12.01385245 19.84556355 9.5 25.1875 C9.005 25.785625 8.51 26.38375 8 27 C5.03820004 25.62487859 2.57856158 23.99630574 0 22 C-0.99 21.34 -1.98 20.68 -3 20 C-2.21625 19.4225 -1.4325 18.845 -0.625 18.25 C2.49925479 15.61358712 2.49925479 15.61358712 4 12 C3.73736425 7.18501119 2.75482078 3.95256894 0 0 Z " fill="#649BD6" transform="translate(109,9)"/>
<path d="M0 0 C1.0209375 0.7734375 1.0209375 0.7734375 2.0625 1.5625 C2.0625 1.8925 2.0625 2.2225 2.0625 2.5625 C1.39863281 2.66046875 0.73476562 2.7584375 0.05078125 2.859375 C-5.26323102 3.75926613 -9.1058653 4.49138813 -12.9375 8.5625 C-15.02383833 11.69200749 -15.43399421 14.87012419 -15.9375 18.5625 C-17.9175 17.5725 -19.8975 16.5825 -21.9375 15.5625 C-22.57235431 10.48366553 -21.27400066 7.43606294 -18.48828125 3.33203125 C-13.76717717 -2.05502202 -6.25136368 -3.05917797 0 0 Z " fill="#FAE25E" transform="translate(109.9375,108.4375)"/>
<path d="M0 0 C5.25144641 1.39008876 7.87300672 4.8042875 11 9 C13.07813275 13.1562655 12.65449025 18.84246527 11.328125 23.21484375 C10.62256141 24.84229938 9.82050811 26.42735946 9 28 C5.86363109 26.9545437 5.23811043 26.23811043 3 24 C1.35394174 22.96642853 -0.30963442 21.95939668 -2 21 C-1.21625 20.4225 -0.4325 19.845 0.375 19.25 C3.80356686 16.3112284 4.75040179 14.6045599 5.4375 10.1875 C4.8419572 5.84854533 2.74485431 3.31343128 0 0 Z " fill="#649BD6" transform="translate(108,86)"/>
<path d="M0 0 C0.66 0.33 1.32 0.66 2 1 C1.01 2.0209375 1.01 2.0209375 0 3.0625 C-2.49365936 6.72506219 -2.46677129 8.64346798 -2 13 C-1.45981189 15.81172873 -1.45981189 15.81172873 0 18 C2.52372901 19.36078035 2.52372901 19.36078035 5 20 C4.01 20.66 3.02 21.32 2 22 C0.99351323 22.8885391 -0.00645521 23.78451268 -1 24.6875 C-1.99 25.450625 -2.98 26.21375 -4 27 C-7 26 -7 26 -8.15625 23.76953125 C-9.79203767 18.4002097 -10.37863631 12.69638648 -7.76171875 7.578125 C-5.40592195 4.37470901 -3.3279426 2.2186284 0 0 Z " fill="#3E87CF" transform="translate(95,9)"/>
<path d="M0 0 C-0.825 0.825 -1.65 1.65 -2.5 2.5 C-4.64693779 5.06659419 -5.38099045 6.77209998 -5.4375 10.125 C-4.91112954 14.78713832 -4.48005366 16.78113228 -0.875 19.75 C-0.25625 20.1625 0.3625 20.575 1 21 C-7.00826446 21.78512397 -7.00826446 21.78512397 -11 18.625 C-14.12026386 14.52965369 -14.51886942 12.18869417 -14 7 C-10.27837226 0.7509982 -6.99557071 -0.12954761 0 0 Z " fill="#FAD1A6" transform="translate(106,8)"/>
<path d="M0 0 C-0.33 0.680625 -0.66 1.36125 -1 2.0625 C-2.21956366 5.64496824 -2.40345105 8.23445682 -2 12 C-0.20437595 14.75329021 1.05254922 16.52627461 4 18 C4 18.66 4 19.32 4 20 C2.20963542 20.9765625 0.41927083 21.953125 -1.37109375 22.9296875 C-3.16618315 23.91410024 -3.16618315 23.91410024 -4 26 C-4.66 26 -5.32 26 -6 26 C-9.53688917 20.54729587 -9.86308955 15.30430628 -9 9 C-7.1875 5.5 -7.1875 5.5 -5 3 C-4.46375 2.38125 -3.9275 1.7625 -3.375 1.125 C-2 0 -2 0 0 0 Z " fill="#4089D0" transform="translate(95,88)"/>
<path d="M0 0 C-0.825 0.825 -1.65 1.65 -2.5 2.5 C-4.59351251 5.02295097 -5.41902208 6.77498409 -5.5625 10.0625 C-4.94560465 14.38076743 -4.0384964 15.9615036 -1 19 C-0.34 19.66 0.32 20.32 1 21 C-1.31 21.33 -3.62 21.66 -6 22 C-6 21.34 -6 20.68 -6 20 C-6.598125 19.7525 -7.19625 19.505 -7.8125 19.25 C-10.44496795 17.7457326 -11.5540968 16.67492092 -13 14 C-13.59577559 10.49154372 -13.63500881 8.15742741 -11.8984375 4.9921875 C-8.39044405 0.35863466 -5.99368634 -0.83911609 0 0 Z " fill="#FAD1A6" transform="translate(105,86)"/>
<path d="M0 0 C2 2 2 2 2.11328125 4.28515625 C0.36922754 8.53819951 -2.97549312 10.1245536 -6.8125 12.4375 C-7.53759766 12.90865234 -8.26269531 13.37980469 -9.00976562 13.86523438 C-9.71423828 14.30029297 -10.41871094 14.73535156 -11.14453125 15.18359375 C-11.78753174 15.58118896 -12.43053223 15.97878418 -13.09301758 16.38842773 C-15 17 -15 17 -17.2409668 16.11352539 C-17.82144775 15.74606201 -18.40192871 15.37859863 -19 15 C-19 14.01 -19 13.02 -19 12 C-17.25585937 10.55786133 -17.25585937 10.55786133 -14.84375 9.08203125 C-13.98652344 8.55029297 -13.12929687 8.01855469 -12.24609375 7.47070312 C-11.33988281 6.92349609 -10.43367188 6.37628906 -9.5 5.8125 C-8.59378906 5.25369141 -7.68757813 4.69488281 -6.75390625 4.11914062 C-4.50833945 2.73634422 -2.25707052 1.36391005 0 0 Z " fill="#CAEFFE" transform="translate(78,32)"/>
<path d="M0 0 C6.52522047 3.0209354 12.19623036 6.76610248 18 11 C17.67 12.65 17.34 14.3 17 16 C10.3105939 12.84461976 4.18524262 9.04769554 -2 5 C-1.125 1.125 -1.125 1.125 0 0 Z " fill="#C9EFFE" transform="translate(61,82)"/>
<path d="M0 0 C1.32 0 2.64 0 4 0 C4 9.24 4 18.48 4 28 C2.68 28 1.36 28 0 28 C0 18.76 0 9.52 0 0 Z " fill="#C7EEFD" transform="translate(101,50)"/>
<path d="M0 0 C1.98 0 3.96 0 6 0 C6.03738281 0.66386719 6.07476563 1.32773437 6.11328125 2.01171875 C6.62349728 8.86462027 7.7638846 13.26256226 13 18 C10.08083462 18.34751969 7.86804524 18.53280018 5.30078125 16.95703125 C3.11660035 15.15362765 1.27793808 13.55587616 0 11 C-0.07033769 9.12620395 -0.0843022 7.24998898 -0.0625 5.375 C-0.05347656 4.37210938 -0.04445313 3.36921875 -0.03515625 2.3359375 C-0.02355469 1.56507812 -0.01195313 0.79421875 0 0 Z " fill="#FEBD87" transform="translate(22,53)"/>
<path d="M0 0 C0.33 0 0.66 0 1 0 C1 5.61 1 11.22 1 17 C0.67 17 0.34 17 0 17 C0 14.03 0 11.06 0 8 C-4.95 8 -9.9 8 -15 8 C-15 6.02 -15 4.04 -15 2 C-10.05 2.33 -5.1 2.66 0 3 C0 2.01 0 1.02 0 0 Z " fill="#A69DA9" transform="translate(43,45)"/>
<path d="M0 0 C1.5 1.375 1.5 1.375 3 3 C3 3.66 3 4.32 3 5 C5.475 5.99 5.475 5.99 8 7 C5.68143083 8.54571278 3.49361571 9.79618552 1 11 C-0.28317892 7.15046324 -0.06643637 4.05261865 0 0 Z " fill="#6498D2" transform="translate(92,22)"/>
<path d="M0 0 C1.1725131 0.95117134 2.33787015 1.91117009 3.5 2.875 C4.47453125 3.67550781 4.47453125 3.67550781 5.46875 4.4921875 C5.9740625 4.98976563 6.479375 5.48734375 7 6 C7 6.66 7 7.32 7 8 C5.02 8.66 3.04 9.32 1 10 C-0.60725635 6.78548731 -0.05748185 3.56387464 0 0 Z " fill="#659BD4" transform="translate(92,100)"/>
<path d="M0 0 C0.66 0.33 1.32 0.66 2 1 C-2.625 5.875 -2.625 5.875 -6 7 C-4.60667426 3.63279613 -3.0210714 2.0140476 0 0 Z " fill="#4A8ECF" transform="translate(95,9)"/>
</svg>
