<?xml version="1.0" encoding="UTF-8"?>
<svg version="1.1" xmlns="http://www.w3.org/2000/svg" width="128" height="128">
<path d="M0 0 C41.58 0 83.16 0 126 0 C126 3.3 126 6.6 126 10 C124.68 10 123.36 10 122 10 C122 32.44 122 54.88 122 78 C123.65 78 125.3 78 127 78 C127 79.32 127 80.64 127 82 C113.47 82 99.94 82 86 82 C86 83.65 86 85.3 86 87 C87.0725 87.226875 88.145 87.45375 89.25 87.6875 C93.37218701 89.13026545 94.64414523 90.41910075 97 94 C97.66 93.030625 98.32 92.06125 99 91.0625 C101.15780596 88.46945477 102.65378863 87.5006642 106 87 C109.82279441 87 111.78019811 87.03234329 115 89 C118.42925706 92.42925706 119.90246883 95.12344136 120 100 C118.55329722 104.49239284 117.30067906 107.7882222 113 110 C109.09272257 111.21559742 107.248056 111.07988244 103.3125 109.8125 C100.19254338 108.10535392 98.76797826 107.01596292 97 104 C96.195625 104.804375 95.39125 105.60875 94.5625 106.4375 C91 110 91 110 88.4375 110.0625 C87.633125 110.041875 86.82875 110.02125 86 110 C86 112.31 86 114.62 86 117 C87.98567708 116.93489583 89.97135417 116.86979167 91.95703125 116.8046875 C94 117 94 117 97 119 C97.99 118.34 98.98 117.68 100 117 C102.69520404 116.75209888 105.24286697 116.62982477 107.9375 116.625 C108.65357422 116.60050781 109.36964844 116.57601562 110.10742188 116.55078125 C113.54773333 116.5316507 115.63609278 116.75133953 118.50390625 118.7109375 C120 121 120 121 120 126 C82.38 126 44.76 126 6 126 C6.33 123.69 6.66 121.38 7 119 C10.73667887 116.50888075 13.67870976 116.70386523 18 116.75 C19.08667969 116.73839844 19.08667969 116.73839844 20.1953125 116.7265625 C23.99388493 116.74057937 25.76837084 116.84558056 29 119 C30.485 118.01 30.485 118.01 32 117 C34.04296875 116.8046875 34.04296875 116.8046875 36.1875 116.875 C37.445625 116.91625 38.70375 116.9575 40 117 C40 114.69 40 112.38 40 110 C39.278125 110.103125 38.55625 110.20625 37.8125 110.3125 C33.86718704 109.87413189 32.55408786 107.90882229 30 105 C29.505 104.505 29.505 104.505 29 104 C28.505 104.78375 28.01 105.5675 27.5 106.375 C24.29677571 109.73838551 21.62421251 110.81020023 17 111 C13.33237887 109.91775114 10.9183806 108.85715522 8.125 106.25 C6.5391778 103.07835561 6.12224999 100.54524971 6 97 C7.35440156 93.47855596 8.78988918 90.10317605 12 88 C16.90996813 86.97049055 20.55631865 86.28441695 25 89 C27.3125 91.625 27.3125 91.625 29 94 C29.7734375 92.824375 29.7734375 92.824375 30.5625 91.625 C33.5162323 88.44405752 35.81606548 87.88506307 40 87 C40 85.35 40 83.7 40 82 C26.47 82 12.94 82 -1 82 C-1 80.68 -1 79.36 -1 78 C0.65 78 2.3 78 4 78 C4 55.56 4 33.12 4 10 C2.68 10 1.36 10 0 10 C0 6.7 0 3.4 0 0 Z " fill="#DAF2FD" transform="translate(1,1)"/>
<path d="M0 0 C0.99 0 1.98 0 3 0 C3.268125 1.19625 3.53625 2.3925 3.8125 3.625 C5.45531604 10.01622953 7.79362129 14.60619875 12.95703125 18.80078125 C16.3792279 20.80960414 20.06199785 21.38497781 24 21 C24.66 20.34 25.32 19.68 26 19 C28.8706466 18.8278779 31.63252342 18.76776925 34.5 18.8125 C35.67755859 18.8134668 35.67755859 18.8134668 36.87890625 18.81445312 C42.71906304 18.85953152 42.71906304 18.85953152 45 20 C45 20.66 45 21.32 45 22 C52.14361249 20.79352322 57.18698871 19.0474289 62.25 13.5625 C65.22932542 9.19991635 66.27368306 5.20527144 67 0 C67.99 0 68.98 0 70 0 C70.65892995 7.11644348 69.05079139 12.09177256 65 18 C59.59807599 23.9396721 53.76376957 25.0295288 46 26 C46 30.62 46 35.24 46 40 C51.61 40 57.22 40 63 40 C63 40.99 63 41.98 63 43 C61.02 43 59.04 43 57 43 C57.495 50.92 57.495 50.92 58 59 C60.31 59.66 62.62 60.32 65 61 C67.4375 63.625 67.4375 63.625 69 66 C69.66 65.030625 70.32 64.06125 71 63.0625 C73.15780596 60.46945477 74.65378863 59.5006642 78 59 C81.82279441 59 83.78019811 59.03234329 87 61 C90.42925706 64.42925706 91.90246883 67.12344136 92 72 C90.55329722 76.49239284 89.30067906 79.7882222 85 82 C81.09272257 83.21559742 79.248056 83.07988244 75.3125 81.8125 C72.19254338 80.10535392 70.76797826 79.01596292 69 76 C68.195625 76.804375 67.39125 77.60875 66.5625 78.4375 C63 82 63 82 60.4375 82.0625 C59.633125 82.041875 58.82875 82.02125 58 82 C58 84.31 58 86.62 58 89 C59.98567708 88.93489583 61.97135417 88.86979167 63.95703125 88.8046875 C66 89 66 89 69 91 C69.99 90.34 70.98 89.68 72 89 C74.69520404 88.75209888 77.24286697 88.62982477 79.9375 88.625 C80.65357422 88.60050781 81.36964844 88.57601562 82.10742188 88.55078125 C85.54773333 88.5316507 87.63609278 88.75133953 90.50390625 90.7109375 C92 93 92 93 92 98 C54.38 98 16.76 98 -22 98 C-21.67 95.69 -21.34 93.38 -21 91 C-17.26332113 88.50888075 -14.32129024 88.70386523 -10 88.75 C-8.91332031 88.73839844 -8.91332031 88.73839844 -7.8046875 88.7265625 C-4.00611507 88.74057937 -2.23162916 88.84558056 1 91 C2.485 90.01 2.485 90.01 4 89 C6.04296875 88.8046875 6.04296875 88.8046875 8.1875 88.875 C9.445625 88.91625 10.70375 88.9575 12 89 C12 86.69 12 84.38 12 82 C11.278125 82.103125 10.55625 82.20625 9.8125 82.3125 C5.86718704 81.87413189 4.55408786 79.90882229 2 77 C1.505 76.505 1.505 76.505 1 76 C0.505 76.78375 0.01 77.5675 -0.5 78.375 C-3.70322429 81.73838551 -6.37578749 82.81020023 -11 83 C-14.66762113 81.91775114 -17.0816194 80.85715522 -19.875 78.25 C-21.4608222 75.07835561 -21.87775001 72.54524971 -22 69 C-20.64559844 65.47855596 -19.21011082 62.10317605 -16 60 C-11.09003187 58.97049055 -7.44368135 58.28441695 -3 61 C-0.6875 63.625 -0.6875 63.625 1 66 C1.7734375 64.824375 1.7734375 64.824375 2.5625 63.625 C5 61 5 61 12 59 C12.33 53.72 12.66 48.44 13 43 C11.02 43 9.04 43 7 43 C7 42.01 7 41.02 7 40 C12.61 40 18.22 40 24 40 C24 35.38 24 30.76 24 26 C22.72125 25.979375 21.4425 25.95875 20.125 25.9375 C13.89072949 25.20984067 9.47310566 22.30166259 5 18 C0.80362692 12.20411252 -0.65509191 7.07499265 0 0 Z " fill="#86463E" transform="translate(29,29)"/>
<path d="M0 0 C41.58 0 83.16 0 126 0 C126 3.3 126 6.6 126 10 C84.42 10 42.84 10 0 10 C0 6.7 0 3.4 0 0 Z " fill="#B3B4B5" transform="translate(1,1)"/>
<path d="M0 0 C2.13074419 1.83949139 3.39529569 3.64309054 5 6 C5.515625 5.21625 6.03125 4.4325 6.5625 3.625 C9.60485147 0.3486215 11.6098022 -0.31876241 16 -1 C21.19458062 -0.04589336 24.18730916 2.55042258 28 6 C28.804375 5.01 29.60875 4.02 30.4375 3 C33.02201273 0.43986946 34.78895051 -0.52508941 38.4375 -0.75 C42.80215657 -0.41710246 45.63266399 1.0276617 48.73828125 4.08984375 C50.66483351 7.00651265 50.83744107 9.37467148 50.5703125 12.8125 C49.60262428 16.52418084 47.76210174 18.36942692 45 21 C41.77140153 22.61429923 38.49006347 22.59570657 35 22 C31.97491855 20.26397895 29.58209931 18.16419863 28 15 C27.401875 15.78375 26.80375 16.5675 26.1875 17.375 C23.89786282 20.12256462 22.29646394 21.79124733 18.6953125 22.37109375 C11.69352708 22.55199094 11.69352708 22.55199094 7.9375 19.5625 C7.298125 18.716875 6.65875 17.87125 6 17 C5.67 16.67 5.34 16.34 5 16 C4.2575 17.175625 4.2575 17.175625 3.5 18.375 C0.29677571 21.73838551 -2.37578749 22.81020023 -7 23 C-10.66762113 21.91775114 -13.0816194 20.85715522 -15.875 18.25 C-17.4608222 15.07835561 -17.87775001 12.54524971 -18 9 C-16.61660795 5.40318068 -15.10451437 2.35943092 -12 0 C-8.23209216 -1.67462571 -3.84896846 -1.28044891 0 0 Z " fill="#FED8D3" transform="translate(25,89)"/>
<path d="M0 0 C1.08667969 -0.01160156 1.08667969 -0.01160156 2.1953125 -0.0234375 C5.99388493 -0.00942063 7.76837084 0.09558056 11 2.25 C11.99 1.59 12.98 0.93 14 0.25 C16.88714173 0.2153543 19.6307131 0.29402448 22.5 0.5 C23.27214844 0.53996094 24.04429688 0.57992187 24.83984375 0.62109375 C28.64572166 0.86514485 30.77212455 1.09808303 34 3.25 C34.66 2.59 35.32 1.93 36 1.25 C37.84765625 0.99121094 37.84765625 0.99121094 40.0625 0.984375 C41.25746094 0.98050781 41.25746094 0.98050781 42.4765625 0.9765625 C43.30929688 0.98429687 44.14203125 0.99203125 45 1 C45.83273438 0.99226563 46.66546875 0.98453125 47.5234375 0.9765625 C48.32007813 0.97914062 49.11671875 0.98171875 49.9375 0.984375 C50.66839844 0.98663086 51.39929688 0.98888672 52.15234375 0.99121094 C54 1.25 54 1.25 56 3.25 C56.99 2.59 57.98 1.93 59 1.25 C61.86197446 0.89511517 64.62809906 0.64862926 67.5 0.5 C68.27214844 0.44457031 69.04429688 0.38914062 69.83984375 0.33203125 C75.62660864 0.00107243 75.62660864 0.00107243 79 2.25 C79.99 1.59 80.98 0.93 82 0.25 C84.69520404 0.00209888 87.24286697 -0.12017523 89.9375 -0.125 C90.65357422 -0.14949219 91.36964844 -0.17398438 92.10742188 -0.19921875 C95.54773333 -0.2183493 97.63609278 0.00133953 100.50390625 1.9609375 C102 4.25 102 4.25 102 9.25 C64.38 9.25 26.76 9.25 -12 9.25 C-11.67 6.94 -11.34 4.63 -11 2.25 C-7.26332113 -0.24111925 -4.32129024 -0.04613477 0 0 Z " fill="#B7CF71" transform="translate(19,117.75)"/>
<path d="M0 0 C0.99 0 1.98 0 3 0 C3.268125 1.19625 3.53625 2.3925 3.8125 3.625 C5.45531604 10.01622953 7.79362129 14.60619875 12.95703125 18.80078125 C16.3792279 20.80960414 20.06199785 21.38497781 24 21 C24.66 20.34 25.32 19.68 26 19 C28.8706466 18.8278779 31.63252342 18.76776925 34.5 18.8125 C35.67755859 18.8134668 35.67755859 18.8134668 36.87890625 18.81445312 C42.71906304 18.85953152 42.71906304 18.85953152 45 20 C45 20.66 45 21.32 45 22 C52.14361249 20.79352322 57.18698871 19.0474289 62.25 13.5625 C65.22932542 9.19991635 66.27368306 5.20527144 67 0 C67.99 0 68.98 0 70 0 C70.65892995 7.11644348 69.05079139 12.09177256 65 18 C59.59807599 23.9396721 53.76376957 25.0295288 46 26 C46 30.62 46 35.24 46 40 C38.74 40 31.48 40 24 40 C24 35.38 24 30.76 24 26 C22.72125 25.979375 21.4425 25.95875 20.125 25.9375 C13.89072949 25.20984067 9.47310566 22.30166259 5 18 C0.80362692 12.20411252 -0.65509191 7.07499265 0 0 Z " fill="#FE8244" transform="translate(29,29)"/>
<path d="M0 0 C2.64 0 5.28 0 8 0 C8 22.44 8 44.88 8 68 C9.65 68 11.3 68 13 68 C13 69.32 13 70.64 13 72 C-0.86 72 -14.72 72 -29 72 C-29 68.37 -29 64.74 -29 61 C-27.35 61 -25.7 61 -24 61 C-25.98 61.495 -25.98 61.495 -28 62 C-28 63.98 -28 65.96 -28 68 C-18.76 68 -9.52 68 0 68 C0 45.56 0 23.12 0 0 Z " fill="#A7E4FF" transform="translate(115,11)"/>
<path d="M0 0 C5.1539566 1.43165461 8.72215557 5.88618241 12.3203125 9.64453125 C13.20203125 10.51464844 13.20203125 10.51464844 14.1015625 11.40234375 C16.29006406 13.72458707 17.30755105 15.09578888 17.3828125 18.33203125 C16.07119614 21.18672568 15.02391823 22.05101342 12.3203125 23.64453125 C8.17080193 24.1937507 4.03125878 24.11754103 -0.15185547 24.09057617 C-2.17388383 24.08205571 -4.19309357 24.11085765 -6.21484375 24.14257812 C-7.49230469 24.14193359 -8.76976562 24.14128906 -10.0859375 24.140625 C-11.83874023 24.14340454 -11.83874023 24.14340454 -13.62695312 24.14624023 C-17.28786691 23.54457854 -18.49233033 22.59575403 -20.6796875 19.64453125 C-20.80226542 15.52145579 -19.90287135 13.91642298 -17.28125 10.72265625 C-16.30170907 9.76681389 -15.30907352 8.82423215 -14.3046875 7.89453125 C-13.5621875 7.17330078 -13.5621875 7.17330078 -12.8046875 6.4375 C-8.80842786 2.60151815 -5.79361342 -0.11758256 0 0 Z " fill="#915447" transform="translate(65.6796875,17.35546875)"/>
<path d="M0 0 C18.48 0 36.96 0 56 0 C56 0.99 56 1.98 56 3 C54.02 3 52.04 3 50 3 C50.495 10.92 50.495 10.92 51 19 C45 22 45 22 43 22 C43 17.71 43 13.42 43 9 C30.79 9 18.58 9 6 9 C6 7.02 6 5.04 6 3 C4.02 3 2.04 3 0 3 C0 2.01 0 1.02 0 0 Z " fill="#62322C" transform="translate(36,69)"/>
<path d="M0 0 C1.20628008 2.33214148 2.1654738 4.49642139 3 7 C5.09719872 8.02281518 5.09719872 8.02281518 7.5625 8.6875 C8.38878906 8.93886719 9.21507812 9.19023438 10.06640625 9.44921875 C10.70449219 9.63097656 11.34257813 9.81273438 12 10 C12 12.64 12 15.28 12 18 C11.21753906 18.04898438 10.43507812 18.09796875 9.62890625 18.1484375 C8.11103516 18.26058594 8.11103516 18.26058594 6.5625 18.375 C5.55316406 18.44460937 4.54382813 18.51421875 3.50390625 18.5859375 C2.67761719 18.72257812 1.85132813 18.85921875 1 19 C0.67 19.66 0.34 20.32 0 21 C-0.66 20.34 -1.32 19.68 -2 19 C-3.88578891 18.69098212 -3.88578891 18.69098212 -6.02734375 18.734375 C-6.81947266 18.73179688 -7.61160156 18.72921875 -8.42773438 18.7265625 C-9.67006836 18.73816406 -9.67006836 18.73816406 -10.9375 18.75 C-11.76185547 18.74226563 -12.58621094 18.73453125 -13.43554688 18.7265625 C-14.22896484 18.72914062 -15.02238281 18.73171875 -15.83984375 18.734375 C-16.92833618 18.73775879 -16.92833618 18.73775879 -18.03881836 18.74121094 C-20.32143629 18.89573101 -20.32143629 18.89573101 -23 21 C-23 20.34 -23 19.68 -23 19 C-26.63 18.67 -30.26 18.34 -34 18 C-34 15.36 -34 12.72 -34 10 C-33.0925 9.7525 -32.185 9.505 -31.25 9.25 C-27.85446859 7.94402638 -26.36182437 6.69922785 -24 4 C-23.34 3.34 -22.68 2.68 -22 2 C-20.14453125 4.29492188 -20.14453125 4.29492188 -18.2890625 6.58984375 C-15.99494821 9.09946574 -14.69064312 9.02535712 -11.1875 9.3125 C-8.00541933 9.26629919 -6.98927147 8.99370282 -4.125 7.3125 C-1.9397329 4.93441522 -0.93765111 3.06867635 0 0 Z " fill="#874A41" transform="translate(75,101)"/>
<path d="M0 0 C2.14727757 3.44865792 3.0625 5.27125166 3.0625 9.3125 C1.61579722 13.80489284 0.36317906 17.1007222 -3.9375 19.3125 C-7.84477743 20.52809742 -9.689444 20.39238244 -13.625 19.125 C-16.90341919 17.33114799 -18.05765781 16.42338928 -19.9375 13.3125 C-20.74073618 9.25615729 -20.84561446 5.11071078 -18.953125 1.36328125 C-17.2848684 -0.76323102 -15.53272318 -2.37962594 -13.125 -3.625 C-4.23969072 -3.87886598 -4.23969072 -3.87886598 0 0 Z " fill="#FFB3A8" transform="translate(117.9375,91.6875)"/>
<path d="M0 0 C3.36041325 2.73033576 4.67776072 4.21485144 5.44140625 8.4453125 C5.63078133 12.53825786 5.3450809 15.3098382 3.5 19 C0.17115685 21.66307452 -2.72698269 22.82461496 -7 23 C-10.66762113 21.91775114 -13.0816194 20.85715522 -15.875 18.25 C-17.4608222 15.07835561 -17.87775001 12.54524971 -18 9 C-16.61660795 5.40318068 -15.10451437 2.35943092 -12 0 C-8.20209836 -1.68795628 -3.89038703 -1.2171904 0 0 Z " fill="#A35D42" transform="translate(25,89)"/>
<path d="M0 0 C2.52726683 2.19029792 4.50012869 4.00025739 6 7 C6.35032356 12.34243433 6.4561069 15.64786539 3 20 C-1.24561231 22.83040821 -5.01664594 22.76422043 -10 22 C-13.57804726 19.54009251 -14.74620477 17.57103928 -16.5 13.625 C-17.12631728 9.08419971 -16.27287703 6.93965353 -14 3 C-9.72997724 -1.13228009 -5.64459053 -1.61274015 0 0 Z " fill="#DE8D4D" transform="translate(92,89)"/>
<path d="M0 0 C4.20135125 0.90935287 6.96545082 2.92697846 9.328125 6.50390625 C10.21276398 9.70572863 10.16479311 12.2947683 9.328125 15.50390625 C7.5818832 18.56301598 5.52993145 20.90300303 2.328125 22.50390625 C-2.22063313 22.95878206 -5.34580138 23.22080081 -9.109375 20.44140625 C-12.17758948 16.92418478 -12.671875 15.13580086 -12.671875 10.50390625 C-11.04664032 2.9687273 -7.72898362 -0.39668625 0 0 Z " fill="#FCECD0" transform="translate(65.671875,88.49609375)"/>
<path d="M0 0 C0.99 0 1.98 0 3 0 C3.65892995 7.11644348 2.05079139 12.09177256 -2 18 C-7.40192401 23.9396721 -13.23623043 25.0295288 -21 26 C-21 30.62 -21 35.24 -21 40 C-28.26 40 -35.52 40 -43 40 C-43 39.67 -43 39.34 -43 39 C-38.05 39 -33.1 39 -28 39 C-28.11386459 36.22829605 -28.24060778 33.45821954 -28.375 30.6875 C-28.4059375 29.90181641 -28.436875 29.11613281 -28.46875 28.30664062 C-28.50742188 27.54931641 -28.54609375 26.79199219 -28.5859375 26.01171875 C-28.6173584 25.31522217 -28.6487793 24.61872559 -28.68115234 23.90112305 C-28.92118253 21.67467261 -28.92118253 21.67467261 -31 19 C-24.25 18.875 -24.25 18.875 -22 20 C-22 20.66 -22 21.32 -22 22 C-14.85638751 20.79352322 -9.81301129 19.0474289 -4.75 13.5625 C-1.77067458 9.19991635 -0.72631694 5.20527144 0 0 Z " fill="#F96439" transform="translate(96,29)"/>
<path d="M0 0 C7.26 0 14.52 0 22 0 C21 9 21 9 18.9375 11.5625 C18.298125 12.036875 17.65875 12.51125 17 13 C19.64 13.33 22.28 13.66 25 14 C25 14.33 25 14.66 25 15 C15.43 15 5.86 15 -4 15 C-4 14.67 -4 14.34 -4 14 C0.455 13.505 0.455 13.505 5 13 C4.360625 12.525625 3.72125 12.05125 3.0625 11.5625 C1 9 1 9 0 0 Z " fill="#FCA553" transform="translate(53,26)"/>
<path d="M0 0 C0.71607422 -0.02449219 1.43214844 -0.04898438 2.16992188 -0.07421875 C5.61023333 -0.0933493 7.69859278 0.12633953 10.56640625 2.0859375 C12.0625 4.375 12.0625 4.375 12.0625 9.375 C4.4725 9.375 -3.1175 9.375 -10.9375 9.375 C-10.9375 7.065 -10.9375 4.755 -10.9375 2.375 C-7.22932221 -0.09711853 -4.2949099 0.00769008 0 0 Z " fill="#FE4027" transform="translate(108.9375,117.625)"/>
<path d="M0 0 C1.08667969 -0.01160156 1.08667969 -0.01160156 2.1953125 -0.0234375 C5.99388493 -0.00942063 7.76837084 0.09558056 11 2.25 C11 4.56 11 6.87 11 9.25 C3.41 9.25 -4.18 9.25 -12 9.25 C-11.67 6.94 -11.34 4.63 -11 2.25 C-7.26332113 -0.24111925 -4.32129024 -0.04613477 0 0 Z " fill="#48C8FE" transform="translate(19,117.75)"/>
<path d="M0 0 C0.77214844 0.03609375 1.54429688 0.0721875 2.33984375 0.109375 C7.93505778 0.47786397 7.93505778 0.47786397 10.24414062 2.10107422 C11.5 3.875 11.5 3.875 11.5 8.875 C3.91 8.875 -3.68 8.875 -11.5 8.875 C-11.5 2.875 -11.5 2.875 -10.24414062 1.01123047 C-7.14124157 -1.01017102 -3.545336 -0.27226286 0 0 Z " fill="#FCCA62" transform="translate(41.5,118.125)"/>
<path d="M0 0 C1.65 0 3.3 0 5 0 C3.68 0.33 2.36 0.66 1 1 C1 2.98 1 4.96 1 7 C14.53 7 28.06 7 42 7 C42 8.32 42 9.64 42 11 C28.14 11 14.28 11 0 11 C0 7.37 0 3.74 0 0 Z " fill="#B2B3B3" transform="translate(86,72)"/>
<path d="M0 0 C1.65 0 3.3 0 5 0 C5 3.63 5 7.26 5 11 C-8.86 11 -22.72 11 -37 11 C-37 9.68 -37 8.36 -37 7 C-23.47 7 -9.94 7 4 7 C4 5.02 4 3.04 4 1 C2.68 0.67 1.36 0.34 0 0 Z " fill="#B3B3B4" transform="translate(37,72)"/>
<path d="M0 0 C1.19496094 -0.00386719 1.19496094 -0.00386719 2.4140625 -0.0078125 C3.24679688 -0.00007813 4.07953125 0.00765625 4.9375 0.015625 C5.77023438 0.00789063 6.60296875 0.00015625 7.4609375 -0.0078125 C8.25757812 -0.00523438 9.05421875 -0.00265625 9.875 0 C10.60589844 0.00225586 11.33679688 0.00451172 12.08984375 0.00683594 C13.9375 0.265625 13.9375 0.265625 15.9375 2.265625 C15.9375 4.245625 15.9375 6.225625 15.9375 8.265625 C8.6775 8.265625 1.4175 8.265625 -6.0625 8.265625 C-6.0625 0.01871142 -6.0625 0.01871142 0 0 Z " fill="#D9F3FD" transform="translate(59.0625,118.734375)"/>
<path d="M0 0 C18.48 0 36.96 0 56 0 C56 0.99 56 1.98 56 3 C37.52 3 19.04 3 0 3 C0 2.01 0 1.02 0 0 Z " fill="#85463E" transform="translate(36,69)"/>
<path d="M0 0 C4.01349645 0.28001138 5.72035142 0.75763789 8.8125 3.4375 C11.91202343 7.0683703 12.2836594 9.16302438 12.22265625 13.96484375 C11.90143435 16.90092462 10.81916075 18.70920498 9 21 C6 23 6 23 2 23 C2.16242188 22.47277344 2.32484375 21.94554688 2.4921875 21.40234375 C3.12418545 18.41250728 3.13206389 15.61763038 3.125 12.5625 C3.12757812 11.45003906 3.13015625 10.33757812 3.1328125 9.19140625 C3.01301324 6.3127006 2.79372326 3.76798427 2 1 C1.34 0.67 0.68 0.34 0 0 Z " fill="#C27648" transform="translate(86,88)"/>
<path d="M0 0 C3.91536288 0.82824984 6.43667958 1.46632803 9.375 4.25 C11.2408937 7.40766627 11.92653614 9.32680706 12 13 C10.82101479 16.66105933 9.74630555 19.22962008 7.0625 22 C5 23 5 23 2.75 22.6875 C2.1725 22.460625 1.595 22.23375 1 22 C1.48533203 20.93072266 1.48533203 20.93072266 1.98046875 19.83984375 C4.06591063 14.03096924 3.80731752 7.98465558 1.5 2.3125 C1.005 1.549375 0.51 0.78625 0 0 Z " fill="#FF8E7D" transform="translate(109,88)"/>
<path d="M0 0 C0.99 0 1.98 0 3 0 C3.268125 1.19625 3.53625 2.3925 3.8125 3.625 C5.45528584 10.01611204 7.79103185 14.61559583 12.96484375 18.80078125 C16.42100279 20.83732794 20.02781184 21.35243074 24 21 C26.21647144 20.07250211 26.21647144 20.07250211 28 19 C26.68 21.31 25.36 23.62 24 26 C15.99980007 25.87096452 10.80324588 23.58082182 5 18 C0.80362692 12.20411252 -0.65509191 7.07499265 0 0 Z " fill="#FCAB60" transform="translate(29,29)"/>
<path d="M0 0 C4.90061083 0.40242242 7.45297385 2.81493552 10.75 6.1875 C11.24371094 6.65736328 11.73742187 7.12722656 12.24609375 7.61132812 C14.65181073 10.02693161 15.97318071 11.91613814 17.015625 15.17578125 C17 18 17 18 15.91796875 19.86328125 C13.28171608 21.42570391 11.35439767 21.29486109 8.3125 21.1875 C6.82169922 21.14689453 6.82169922 21.14689453 5.30078125 21.10546875 C4.54152344 21.07066406 3.78226562 21.03585938 3 21 C3.33 20.34 3.66 19.68 4 19 C4.66 19 5.32 19 6 19 C7.59138085 14.82262526 8.21278058 11.46839215 8 7 C5.69 6.67 3.38 6.34 1 6 C0.67 4.02 0.34 2.04 0 0 Z " fill="#663833" transform="translate(66,19)"/>
<path d="M0 0 C4.34887281 0.50179302 6.9247954 3.06147116 10 6 C10.875 8 10.875 8 11 10 C11.165 10.78375 11.33 11.5675 11.5 12.375 C10.79375548 16.08278375 8.75403846 17.41759205 5.921875 19.765625 C3.93228825 21.04348966 2.31088993 21.57054258 0 22 C0.16242187 21.47277344 0.32484375 20.94554688 0.4921875 20.40234375 C1.12418545 17.41250728 1.13206389 14.61763038 1.125 11.5625 C1.12757812 10.45003906 1.13015625 9.33757812 1.1328125 8.19140625 C1.01399223 5.33622508 0.65353269 2.77492054 0 0 Z " fill="#F6AEA3" transform="translate(43,89)"/>
<path d="M0 0 C3.76751033 0.79697334 6.43703294 1.53807831 9.4375 4 C11.70228676 8.34839058 11.77317151 12.19529133 11 17 C9.375 20.0625 9.375 20.0625 7 22 C3.75 22.8125 3.75 22.8125 1 23 C1.33 22.236875 1.66 21.47375 2 20.6875 C3.70644519 14.39498335 3.97447956 8.39559559 1.5 2.3125 C1.005 1.549375 0.51 0.78625 0 0 Z " fill="#86443C" transform="translate(19,88)"/>
<path d="M0 0 C0.99 0 1.98 0 3 0 C3.65892995 7.11644348 2.05079139 12.09177256 -2 18 C-7.3156508 23.84481061 -13.34987084 25.18436123 -21 26 C-21 24.68 -21 23.36 -21 22 C-20.03900391 21.77957031 -20.03900391 21.77957031 -19.05859375 21.5546875 C-12.84238201 19.94273393 -8.18842132 17.99343824 -4 13 C-1.70869162 8.72289102 -0.58584598 4.80393707 0 0 Z " fill="#E09458" transform="translate(96,29)"/>
<path d="M0 0 C3.93049612 1.31016537 6.61096711 2.54917471 9 6 C9.79023619 9.84142595 9.86268509 13.35646556 8.01171875 16.8828125 C6.16834894 19.24552179 4.50266732 20.80980155 1.6875 21.875 C1.130625 21.91625 0.57375 21.9575 0 22 C0.165 21.21625 0.33 20.4325 0.5 19.625 C1.40941363 13.0317512 1.37482045 6.53039716 0 0 Z " fill="#F9D2CD" transform="translate(66,89)"/>
<path d="M0 0 C2.31 0 4.62 0 7 0 C6.64989059 8.19256018 6.64989059 8.19256018 3.9375 11.5625 C3.298125 12.036875 2.65875 12.51125 2 13 C4.64 13.33 7.28 13.66 10 14 C10 14.33 10 14.66 10 15 C0.43 15 -9.14 15 -19 15 C-19 14.67 -19 14.34 -19 14 C-13.39 14 -7.78 14 -2 14 C-1.34 9.38 -0.68 4.76 0 0 Z " fill="#D08E5F" transform="translate(68,26)"/>
<path d="M0 0 C2.02721618 2.39580094 3.04849549 4.15457936 4 7.1875 C4.33 8.115625 4.66 9.04375 5 10 C5.99 10.33 6.98 10.66 8 11 C8 11.33 8 11.66 8 12 C6.22992286 12.08114106 4.45877902 12.13925505 2.6875 12.1875 C1.70136719 12.22230469 0.71523438 12.25710937 -0.30078125 12.29296875 C-3 12 -3 12 -4.85546875 10.73828125 C-6 9 -6 9 -6 5 C-4.21722256 2.98376361 -2.16873843 1.62655382 0 0 Z " fill="#894A41" transform="translate(51,28)"/>
<path d="M0 0 C2.64 0 5.28 0 8 0 C8 3.3 8 6.6 8 10 C5.36 9.67 2.72 9.34 0 9 C0 6.03 0 3.06 0 0 Z " fill="#989898" transform="translate(119,1)"/>
<path d="M0 0 C8.05867347 -0.61989796 8.05867347 -0.61989796 11.5625 1.6875 C13.23301458 4.37484955 13.34538204 5.89156165 13 9 C10.36 9 7.72 9 5 9 C4.87625 7.329375 4.87625 7.329375 4.75 5.625 C4.37875 3.830625 4.37875 3.830625 4 2 C2.02257219 0.73990208 2.02257219 0.73990208 0 0 Z " fill="#CF301B" transform="translate(108,118)"/>
<path d="M0 0 C7.35678392 -0.36180905 7.35678392 -0.36180905 10 1.125 C11.42098605 3.78934884 11.19767261 6.03491085 11 9 C8.36 9 5.72 9 3 9 C2.690625 7.88625 2.38125 6.7725 2.0625 5.625 C1.17673517 2.2054845 1.17673517 2.2054845 0 0 Z " fill="#9FB55D" transform="translate(87,118)"/>
<path d="M0 0 C1.4370809 -0.05422947 2.87475462 -0.09289723 4.3125 -0.125 C5.11300781 -0.14820312 5.91351563 -0.17140625 6.73828125 -0.1953125 C9 0 9 0 12 2 C12.1875 5.625 12.1875 5.625 12 9 C9.69 9 7.38 9 5 9 C4.87625 7.329375 4.87625 7.329375 4.75 5.625 C4.37875 3.830625 4.37875 3.830625 4 2 C2.02257219 0.73990208 2.02257219 0.73990208 0 0 Z " fill="#2DADE2" transform="translate(18,118)"/>
<path d="M0 0 C6.40818182 -0.36272727 6.40818182 -0.36272727 8.9375 1.1875 C10.32851983 3.56041618 10.21917317 5.29686424 10 8 C7.36 8 4.72 8 2 8 C1.34 5.36 0.68 2.72 0 0 Z " fill="#FCA655" transform="translate(43,119)"/>
<path d="M0 0 C2.64 0.66 5.28 1.32 8 2 C8 4.31 8 6.62 8 9 C5.36 9 2.72 9 0 9 C0 6.03 0 3.06 0 0 Z " fill="#60312C" transform="translate(79,109)"/>
<path d="M0 0 C6.0546875 -0.1953125 6.0546875 -0.1953125 8 0 C10 2 10 2 10.125 5.125 C10.08375 6.07375 10.0425 7.0225 10 8 C7.69 8 5.38 8 3 8 C2.690625 7.05125 2.38125 6.1025 2.0625 5.125 C1.12605258 2.13919592 1.12605258 2.13919592 0 0 Z " fill="#A8E3FC" transform="translate(65,119)"/>
</svg>
