<?xml version="1.0" encoding="UTF-8"?>
<svg version="1.1" xmlns="http://www.w3.org/2000/svg" width="128" height="128">
<path d="M0 0 C1.18078125 -0.02900391 2.3615625 -0.05800781 3.578125 -0.08789062 C14.64228107 -0.16887825 14.64228107 -0.16887825 19.25 4.3125 C23.94330871 9.0995187 23.74458528 13.9251448 23.74804688 20.29101562 C23.72806641 21.51498047 23.70808594 22.73894531 23.6875 24 C23.69458984 25.23556641 23.70167969 26.47113281 23.70898438 27.74414062 C23.6451493 36.74488675 23.6451493 36.74488675 21.95336914 39.17504883 C19.19521448 41.0168494 16.4600621 40.49420163 13.25 40.3125 C13.0025 40.93125 12.755 41.55 12.5 42.1875 C11.04371361 44.66318687 9.87187494 45.26375002 7.25 46.3125 C7.25 48.2925 7.25 50.2725 7.25 52.3125 C7.91 52.56 8.57 52.8075 9.25 53.0625 C12.15667942 54.27361642 14.90243032 55.68758177 17.6953125 57.13671875 C20.2697049 58.32156908 22.88823944 59.24239603 25.56079102 60.17822266 C34.64085607 63.4407816 40.63075603 68.38509756 47.25 75.3125 C51.16229808 71.617163 54.25722781 67.73249191 57.3125 63.3125 C58.1561678 62.10319975 59.00119922 60.89484956 59.84765625 59.6875 C60.21383057 59.15898438 60.58000488 58.63046875 60.95727539 58.0859375 C62.25 56.3125 62.25 56.3125 64.36425781 54.10180664 C66.7890593 50.51514727 66.83520174 47.49380815 66.82421875 43.30859375 C66.84546562 42.16814354 66.84546562 42.16814354 66.86714172 41.00465393 C66.90890534 38.5862908 66.92425162 36.16867224 66.9375 33.75 C66.96662147 31.32810454 67.00123182 28.9063941 67.03999329 26.4846344 C67.06235689 24.98108804 67.0782512 23.47742778 67.08683777 21.97373962 C67.12135808 18.61573107 67.2085893 15.52407959 68.25 12.3125 C70.23 12.3125 72.21 12.3125 74.25 12.3125 C75.4531351 16.11978937 75.45435065 19.93253475 75.53125 23.88671875 C75.54965942 24.61115677 75.56806885 25.33559479 75.58703613 26.08198547 C75.66556198 29.17373223 75.73372748 32.26568363 75.80224609 35.35766602 C75.85382563 37.61746469 75.91109934 39.87706815 75.96875 42.13671875 C75.98232544 42.84084396 75.99590088 43.54496918 76.0098877 44.27043152 C75.81669381 47.5760402 75.81669381 47.5760402 77.25 50.3125 C78.43877865 57.66680857 74.62760071 62.60198036 70.875 68.6875 C70.24247314 69.7401001 69.60994629 70.7927002 68.95825195 71.87719727 C67.67561718 74.01124593 66.38731911 76.14190143 65.09326172 78.26904297 C62.49046231 82.56659229 59.96494374 86.90788393 57.4375 91.25 C53.40904749 98.15345251 53.40904749 98.15345251 52.25 99.3125 C44.52016386 99.02620977 40.94326767 96.80943985 33.25 93.3125 C33.25 103.5425 33.25 113.7725 33.25 124.3125 C22.44541543 124.33505075 11.64084637 124.35341493 0.83624363 124.36431217 C-4.1802247 124.36954107 -9.19667615 124.37663883 -14.21313477 124.38793945 C-19.05009694 124.3987681 -23.88704284 124.40477679 -28.72401619 124.40737724 C-30.57368285 124.40923153 -32.42334857 124.41285222 -34.27300835 124.41823006 C-36.85447014 124.4254402 -39.43586382 124.42649095 -42.01733398 124.42602539 C-42.78985001 124.42962067 -43.56236603 124.43321594 -44.35829163 124.43692017 C-49.63594784 124.42655216 -49.63594784 124.42655216 -50.75 123.3125 C-50.79080783 121.31291636 -50.79254356 119.31204746 -50.75 117.3125 C-48.77 116.8175 -48.77 116.8175 -46.75 116.3125 C-46.75 113.6725 -46.75 111.0325 -46.75 108.3125 C-48.07 107.9825 -49.39 107.6525 -50.75 107.3125 C-50.79254356 105.31295254 -50.79080783 103.31208364 -50.75 101.3125 C-49.75 100.3125 -49.75 100.3125 -46.37109375 100.21484375 C-44.97652923 100.22151631 -43.58198257 100.23347468 -42.1875 100.25 C-41.47658203 100.25451172 -40.76566406 100.25902344 -40.03320312 100.26367188 C-38.27209987 100.27549136 -36.51103964 100.29342737 -34.75 100.3125 C-34.77618408 99.34425293 -34.80236816 98.37600586 -34.8293457 97.37841797 C-34.92022925 93.76683904 -34.9773855 90.15535997 -35.0246582 86.54296875 C-35.04971627 84.98322521 -35.08377301 83.4235981 -35.12719727 81.86425781 C-35.18824193 79.61494157 -35.21629426 77.3671844 -35.23828125 75.1171875 C-35.26408768 74.4263205 -35.2898941 73.73545349 -35.31648254 73.02365112 C-35.31865975 69.21736792 -34.74250384 66.8412814 -32.39868164 63.92089844 C-29.60269727 61.16743757 -27.53886834 60.01029922 -23.875 58.6875 C-20.28580181 57.3216598 -16.92210677 55.97410804 -13.625 54 C-10.75 52.3125 -10.75 52.3125 -8.75 52.3125 C-8.75 50.3325 -8.75 48.3525 -8.75 46.3125 C-9.36875 46.065 -9.9875 45.8175 -10.625 45.5625 C-13.10068687 44.10621361 -13.70125002 42.93437494 -14.75 40.3125 C-15.843125 40.374375 -16.93625 40.43625 -18.0625 40.5 C-21.75 40.3125 -21.75 40.3125 -23.45117188 39.16357422 C-26.3028728 35.09936437 -25.2603348 29.21734694 -25.25 24.4375 C-25.27835938 23.25285156 -25.30671875 22.06820313 -25.3359375 20.84765625 C-25.35783401 11.13655515 -25.35783401 11.13655515 -22.40625 7.9921875 C-19.75 6.3125 -19.75 6.3125 -16.75 6.3125 C-16.46125 5.508125 -16.1725 4.70375 -15.875 3.875 C-13.34267334 -1.8930774 -5.44559173 0.04401071 0 0 Z " fill="#DBECFD" transform="translate(50.75,1.6875)"/>
<path d="M0 0 C1.18078125 -0.02900391 2.3615625 -0.05800781 3.578125 -0.08789062 C14.64228107 -0.16887825 14.64228107 -0.16887825 19.25 4.3125 C23.94330871 9.0995187 23.74458528 13.9251448 23.74804688 20.29101562 C23.72806641 21.51498047 23.70808594 22.73894531 23.6875 24 C23.69458984 25.23556641 23.70167969 26.47113281 23.70898438 27.74414062 C23.6451493 36.74488675 23.6451493 36.74488675 21.95336914 39.17504883 C19.19521448 41.0168494 16.4600621 40.49420163 13.25 40.3125 C13.0025 40.93125 12.755 41.55 12.5 42.1875 C11.04371361 44.66318687 9.87187494 45.26375002 7.25 46.3125 C7.37375 47.158125 7.4975 48.00375 7.625 48.875 C7.15152307 53.21520516 5.52706576 54.7499602 2.5625 57.796875 C1.03178874 59.23032576 1.03178874 59.23032576 1.25 61.3125 C3.71326712 62.9571674 3.71326712 62.9571674 6.25 64.3125 C5.91049316 64.98885498 5.57098633 65.66520996 5.22119141 66.36206055 C4.01020954 70.04097353 4.29651082 72.67370067 4.7109375 76.51953125 C4.78035553 77.20375656 4.84977356 77.88798187 4.92129517 78.59294128 C5.14424396 80.77169421 5.38375034 82.94820433 5.625 85.125 C5.85621073 87.29127039 6.08380555 89.45784173 6.30728149 91.62492371 C6.51226261 93.59938993 6.72727867 95.57280682 6.94287109 97.54614258 C7.83401516 108.47434568 7.83401516 108.47434568 5.89453125 111.2578125 C0.94876927 114.44250358 0.94876927 114.44250358 -2.4375 113.8125 C-3.200625 113.3175 -3.96375 112.8225 -4.75 112.3125 C-5.513125 111.94125 -6.27625 111.57 -7.0625 111.1875 C-9.6688474 108.29155845 -8.92582884 105.00743229 -8.75 101.3125 C-8.54301566 98.77422707 -8.30002557 96.23866532 -8.0234375 93.70703125 C-7.87711363 92.29757688 -7.73129494 90.88806999 -7.5859375 89.47851562 C-7.3563637 87.29239168 -7.12299289 85.10688983 -6.88085938 82.92211914 C-6.64640658 80.78893232 -6.42755007 78.65459338 -6.2109375 76.51953125 C-6.07478027 75.2560083 -5.93862305 73.99248535 -5.79833984 72.69067383 C-5.7497164 69.29268103 -6.2404316 67.31981532 -7.75 64.3125 C-6.1 63.3225 -4.45 62.3325 -2.75 61.3125 C-3.059375 60.714375 -3.36875 60.11625 -3.6875 59.5 C-4.75 57.3125 -4.75 57.3125 -5.75 54.3125 C-6.41 54.3125 -7.07 54.3125 -7.75 54.3125 C-9.10439668 51.60370665 -8.81501451 49.30316732 -8.75 46.3125 C-9.36875 46.065 -9.9875 45.8175 -10.625 45.5625 C-13.10068687 44.10621361 -13.70125002 42.93437494 -14.75 40.3125 C-15.843125 40.374375 -16.93625 40.43625 -18.0625 40.5 C-21.75 40.3125 -21.75 40.3125 -23.45117188 39.16357422 C-26.3028728 35.09936437 -25.2603348 29.21734694 -25.25 24.4375 C-25.27835938 23.25285156 -25.30671875 22.06820313 -25.3359375 20.84765625 C-25.35783401 11.13655515 -25.35783401 11.13655515 -22.40625 7.9921875 C-19.75 6.3125 -19.75 6.3125 -16.75 6.3125 C-16.46125 5.508125 -16.1725 4.70375 -15.875 3.875 C-13.34267334 -1.8930774 -5.44559173 0.04401071 0 0 Z " fill="#FED2C9" transform="translate(50.75,1.6875)"/>
<path d="M0 0 C1.98 0 3.96 0 6 0 C7.2031351 3.80728937 7.20435065 7.62003475 7.28125 11.57421875 C7.30886414 12.66087578 7.30886414 12.66087578 7.33703613 13.76948547 C7.41556198 16.86123223 7.48372748 19.95318363 7.55224609 23.04516602 C7.60382563 25.30496469 7.66109934 27.56456815 7.71875 29.82421875 C7.73232544 30.52834396 7.74590088 31.23246918 7.7598877 31.95793152 C7.56669381 35.2635402 7.56669381 35.2635402 9 38 C10.18877865 45.35430857 6.37760071 50.28948036 2.625 56.375 C1.99247314 57.4276001 1.35994629 58.4802002 0.70825195 59.56469727 C-0.57438282 61.69874593 -1.86268089 63.82940143 -3.15673828 65.95654297 C-5.75953769 70.25409229 -8.28505626 74.59538393 -10.8125 78.9375 C-14.84095251 85.84095251 -14.84095251 85.84095251 -16 87 C-23.72983614 86.71370977 -27.30673233 84.49693985 -35 81 C-35 91.23 -35 101.46 -35 112 C-40.28 112 -45.56 112 -51 112 C-51 90.22 -51 68.44 -51 46 C-37.92398503 48.17933583 -30.05458165 53.83303879 -21 63 C-17.08770192 59.304663 -13.99277219 55.41999191 -10.9375 51 C-10.0938322 49.79069975 -9.24880078 48.58234956 -8.40234375 47.375 C-8.03616943 46.84648438 -7.66999512 46.31796875 -7.29272461 45.7734375 C-6 44 -6 44 -3.88574219 41.78930664 C-1.4609407 38.20264727 -1.41479826 35.18130815 -1.42578125 30.99609375 C-1.40453438 29.85564354 -1.40453438 29.85564354 -1.38285828 28.69215393 C-1.34109466 26.2737908 -1.32574838 23.85617224 -1.3125 21.4375 C-1.28337853 19.01560454 -1.24876818 16.5938941 -1.21000671 14.1721344 C-1.18764311 12.66858804 -1.1717488 11.16492778 -1.16316223 9.66123962 C-1.12864192 6.30323107 -1.0414107 3.21157959 0 0 Z " fill="#696375" transform="translate(119,14)"/>
<path d="M0 0 C0 21.78 0 43.56 0 66 C-10.23 66 -20.46 66 -31 66 C-32 65 -32 65 -32.0625 61.9375 C-32.041875 60.968125 -32.02125 59.99875 -32 59 C-30.02 58.505 -30.02 58.505 -28 58 C-28 55.36 -28 52.72 -28 50 C-29.32 49.67 -30.64 49.34 -32 49 C-32.04254356 47.00045254 -32.04080783 44.99958364 -32 43 C-31 42 -31 42 -27.62109375 41.90234375 C-26.22652923 41.90901631 -24.83198257 41.92097468 -23.4375 41.9375 C-22.72658203 41.94201172 -22.01566406 41.94652344 -21.28320312 41.95117188 C-19.52209987 41.96299136 -17.76103964 41.98092737 -16 42 C-16.02618408 41.03175293 -16.05236816 40.06350586 -16.0793457 39.06591797 C-16.17022925 35.45433904 -16.2273855 31.84285997 -16.2746582 28.23046875 C-16.29971627 26.67072521 -16.33377301 25.1110981 -16.37719727 23.55175781 C-16.43824193 21.30244157 -16.46629426 19.0546844 -16.48828125 16.8046875 C-16.51408768 16.1138205 -16.5398941 15.42295349 -16.56648254 14.71115112 C-16.56867807 10.8728508 -15.97905842 8.52036804 -13.6027832 5.58984375 C-11.27246165 3.27110714 -9.94140054 2.09903311 -6.875 1.125 C-6.21242188 0.90070312 -5.54984375 0.67640625 -4.8671875 0.4453125 C-3 0 -3 0 0 0 Z " fill="#676072" transform="translate(32,60)"/>
<path d="M0 0 C1.18078125 -0.02900391 2.3615625 -0.05800781 3.578125 -0.08789062 C14.64228107 -0.16887825 14.64228107 -0.16887825 19.25 4.3125 C24.07369381 9.56745121 23.73770532 14.440326 23.5 21.1875 C23.48195312 22.16203125 23.46390625 23.1365625 23.4453125 24.140625 C23.39841734 26.53227807 23.33280907 28.92186597 23.25 31.3125 C22.486875 30.673125 21.72375 30.03375 20.9375 29.375 C18.36753287 27.17017219 18.36753287 27.17017219 15.25 26.3125 C14.92 24.6625 14.59 23.0125 14.25 21.3125 C13.21359375 21.19132812 12.1771875 21.07015625 11.109375 20.9453125 C9.73953562 20.77642819 8.36974651 20.60713589 7 20.4375 C6.31808594 20.35886719 5.63617188 20.28023437 4.93359375 20.19921875 C1.30676289 19.7414634 -1.56600244 19.10683915 -4.75 17.3125 C-6.66466367 17.43427688 -6.66466367 17.43427688 -8.75 18.3125 C-9.966875 18.725 -11.18375 19.1375 -12.4375 19.5625 C-14.0771875 20.42875 -14.0771875 20.42875 -15.75 21.3125 C-16.12309899 22.97071773 -16.45700977 24.63827014 -16.75 26.3125 C-19.6875 28 -19.6875 28 -22.75 29.3125 C-23.41 29.9725 -24.07 30.6325 -24.75 31.3125 C-24.89584064 28.08381254 -24.98424106 24.85597635 -25.0625 21.625 C-25.10439453 20.71298828 -25.14628906 19.80097656 -25.18945312 18.86132812 C-25.27444409 14.18682523 -25.27871136 12.02541901 -22.41796875 8.16796875 C-19.75 6.3125 -19.75 6.3125 -16.75 6.3125 C-16.46125 5.508125 -16.1725 4.70375 -15.875 3.875 C-13.34267334 -1.8930774 -5.44559173 0.04401071 0 0 Z " fill="#424251" transform="translate(50.75,1.6875)"/>
<path d="M0 0 C1.875 1.5625 1.875 1.5625 3 3 C2.66049316 3.51336914 2.32098633 4.02673828 1.97119141 4.55566406 C0.62461008 7.94479735 1.07290193 10.4935264 1.4609375 14.109375 C1.53035553 14.79501526 1.59977356 15.48065552 1.67129517 16.18707275 C1.89471867 18.37604489 2.13402344 20.56289675 2.375 22.75 C2.6061289 24.92299844 2.83378831 27.09628348 3.05728149 29.27008057 C3.26246796 31.25334699 3.47739548 33.23559851 3.69287109 35.21777344 C4.58182056 46.16499528 4.58182056 46.16499528 2.64453125 48.9453125 C-2.30123073 52.13000358 -2.30123073 52.13000358 -5.6875 51.5 C-6.450625 51.005 -7.21375 50.51 -8 50 C-8.763125 49.62875 -9.52625 49.2575 -10.3125 48.875 C-12.9188474 45.97905845 -12.17582884 42.69493229 -12 39 C-11.79301566 36.46172707 -11.55002557 33.92616532 -11.2734375 31.39453125 C-11.12711363 29.98507688 -10.98129494 28.57556999 -10.8359375 27.16601562 C-10.6063637 24.97989168 -10.37299289 22.79438983 -10.13085938 20.60961914 C-9.89640658 18.47643232 -9.67755007 16.34209338 -9.4609375 14.20703125 C-9.32478027 12.9435083 -9.18862305 11.67998535 -9.04833984 10.37817383 C-8.9997164 6.98018103 -9.4904316 5.00731532 -11 2 C-7.00271488 -0.93918024 -4.77749251 -1.45401946 0 0 Z " fill="#EA6364" transform="translate(54,64)"/>
<path d="M0 0 C0.87454834 0.00523682 1.74909668 0.01047363 2.65014648 0.01586914 C3.59438477 0.0190918 4.53862305 0.02231445 5.51147461 0.02563477 C6.50469727 0.03401367 7.49791992 0.04239258 8.52124023 0.05102539 C9.51833008 0.05553711 10.51541992 0.06004883 11.54272461 0.06469727 C14.01478872 0.07652532 16.48673541 0.0930069 18.95874023 0.11352539 C18.95874023 2.75352539 18.95874023 5.39352539 18.95874023 8.11352539 C20.27874023 8.77352539 21.59874023 9.43352539 22.95874023 10.11352539 C22.62874023 11.76352539 22.29874023 13.41352539 21.95874023 15.11352539 C20.96874023 15.44352539 19.97874023 15.77352539 18.95874023 16.11352539 C18.95874023 18.75352539 18.95874023 21.39352539 18.95874023 24.11352539 C15.47959083 24.14240353 12.00047193 24.16028226 8.52124023 24.17602539 C7.03140625 24.18859375 7.03140625 24.18859375 5.51147461 24.20141602 C4.56723633 24.20463867 3.62299805 24.20786133 2.65014648 24.21118164 C1.33832397 24.21903687 1.33832397 24.21903687 0 24.22705078 C-2.04125977 24.11352539 -2.04125977 24.11352539 -3.04125977 23.11352539 C-3.08206759 21.11394175 -3.08380333 19.11307285 -3.04125977 17.11352539 C-1.72125977 16.78352539 -0.40125977 16.45352539 0.95874023 16.11352539 C0.95874023 13.47352539 0.95874023 10.83352539 0.95874023 8.11352539 C-0.36125977 7.78352539 -1.68125977 7.45352539 -3.04125977 7.11352539 C-3.08380333 5.11397793 -3.08206759 3.11310903 -3.04125977 1.11352539 C-2.04125977 0.11352539 -2.04125977 0.11352539 0 0 Z " fill="#FF8185" transform="translate(3.041259765625,101.886474609375)"/>
<path d="M0 0 C1.98 0 3.96 0 6 0 C7.2031351 3.80728937 7.20435065 7.62003475 7.28125 11.57421875 C7.30886414 12.66087578 7.30886414 12.66087578 7.33703613 13.76948547 C7.41556198 16.86123223 7.48372748 19.95318363 7.55224609 23.04516602 C7.60382563 25.30496469 7.66109934 27.56456815 7.71875 29.82421875 C7.73232544 30.52834396 7.74590088 31.23246918 7.7598877 31.95793152 C7.56669381 35.2635402 7.56669381 35.2635402 9 38 C9.60794251 44.07942506 8.22342628 47.06412851 5 52 C3.8944811 51.06409496 2.79064547 50.12620142 1.6875 49.1875 C1.07261719 48.66542969 0.45773438 48.14335938 -0.17578125 47.60546875 C-1.85424679 46.12827531 -3.43882034 44.59960869 -5 43 C-4.5148291 42.50306641 -4.0296582 42.00613281 -3.52978516 41.49414062 C-1.44434887 38.09407405 -1.5406395 34.96680884 -1.5234375 31.09375 C-1.50785797 30.33203491 -1.49227844 29.57031982 -1.47622681 28.78552246 C-1.42880251 26.35702534 -1.4009869 23.92881297 -1.375 21.5 C-1.3384289 19.0713902 -1.29772102 16.64293875 -1.25234985 14.21447754 C-1.22527477 12.70537583 -1.20385846 11.19615922 -1.18881226 9.68688965 C-1.1386221 6.32439568 -1.03984804 3.21654098 0 0 Z " fill="#FED07B" transform="translate(119,14)"/>
<path d="M0 0 C0.87454834 0.00523682 1.74909668 0.01047363 2.65014648 0.01586914 C3.59438477 0.0190918 4.53862305 0.02231445 5.51147461 0.02563477 C6.50469727 0.03401367 7.49791992 0.04239258 8.52124023 0.05102539 C9.51833008 0.05553711 10.51541992 0.06004883 11.54272461 0.06469727 C14.01478872 0.07652532 16.48673541 0.0930069 18.95874023 0.11352539 C18.95874023 2.75352539 18.95874023 5.39352539 18.95874023 8.11352539 C15.47959083 8.14240353 12.00047193 8.16028226 8.52124023 8.17602539 C7.03140625 8.18859375 7.03140625 8.18859375 5.51147461 8.20141602 C4.56723633 8.20463867 3.62299805 8.20786133 2.65014648 8.21118164 C1.77559814 8.21641846 0.9010498 8.22165527 0 8.22705078 C-2.04125977 8.11352539 -2.04125977 8.11352539 -3.04125977 7.11352539 C-3.16625977 4.11352539 -3.16625977 4.11352539 -3.04125977 1.11352539 C-2.04125977 0.11352539 -2.04125977 0.11352539 0 0 Z " fill="#C99AE6" transform="translate(3.041259765625,101.886474609375)"/>
<path d="M0 0 C3.29159316 -0.05790353 6.58305603 -0.09356261 9.875 -0.125 C10.81214844 -0.14175781 11.74929688 -0.15851563 12.71484375 -0.17578125 C13.61074219 -0.18222656 14.50664062 -0.18867187 15.4296875 -0.1953125 C16.25710449 -0.20578613 17.08452148 -0.21625977 17.93701172 -0.22705078 C20 0 20 0 22 2 C21.44444444 6.55555556 21.44444444 6.55555556 20 8 C18.5112814 8.08669432 17.018555 8.10703494 15.52734375 8.09765625 C14.62822266 8.09443359 13.72910156 8.09121094 12.80273438 8.08789062 C11.85720703 8.07951172 10.91167969 8.07113281 9.9375 8.0625 C8.98810547 8.05798828 8.03871094 8.05347656 7.06054688 8.04882812 C4.70696935 8.0370011 2.35351523 8.02052025 0 8 C0 5.36 0 2.72 0 0 Z " fill="#FDCE7A" transform="translate(4,110)"/>
<path d="M0 0 C0.73605469 0.08378906 1.47210938 0.16757812 2.23046875 0.25390625 C3.20628906 0.35574219 4.18210937 0.45757812 5.1875 0.5625 C6.15042969 0.66691406 7.11335938 0.77132812 8.10546875 0.87890625 C10.94233377 0.99758751 13.25423671 0.67765639 16 0 C16.612002 3.40972542 16.34004216 5.45111305 14.51171875 8.40234375 C12.75190844 10.70867901 11.03347666 12.92971834 9 15 C8.34 15 7.68 15 7 15 C3 10.52941176 3 10.52941176 3 8 C2.34 8 1.68 8 1 8 C-0.35439668 5.29120665 -0.06501451 2.99066732 0 0 Z " fill="#ECAFAF" transform="translate(42,48)"/>
<path d="M0 0 C3.1875 1 3.1875 1 4.1875 2 C4.79544251 8.07942506 3.41092628 11.06412851 0.1875 16 C-0.9180189 15.06409496 -2.02185453 14.12620142 -3.125 13.1875 C-3.73988281 12.66542969 -4.35476562 12.14335938 -4.98828125 11.60546875 C-6.66674679 10.12827531 -8.25132034 8.59960869 -9.8125 7 C-5.04691397 0 -5.04691397 0 0 0 Z " fill="#E5ABAA" transform="translate(123.8125,50)"/>
<path d="M0 0 C0 0.66 0 1.32 0 2 C0.66 2 1.32 2 2 2 C4.1875 4.3125 4.1875 4.3125 6 7 C4.52440331 11.42679007 2.09942632 11.91432696 -2 14 C-2.66 14 -3.32 14 -4 14 C-5.68732277 12.01739574 -7.35366057 10.0167658 -9 8 C-9.66 7.67 -10.32 7.34 -11 7 C-9.88809524 3.66428571 -9.53679327 3.41582921 -6.625 1.8125 C-6.01914062 1.46832031 -5.41328125 1.12414063 -4.7890625 0.76953125 C-3 0 -3 0 0 0 Z " fill="#BDD4ED" transform="translate(43,54)"/>
<path d="M0 0 C4.5076467 0.53031138 7.41954788 2.25221116 11 5 C11 5.66 11 6.32 11 7 C9.01739574 8.68732277 7.0167658 10.35366057 5 12 C4.67 12.66 4.34 13.32 4 14 C0.40608886 12.66511872 -2.75490696 11.03977277 -6 9 C-4.47291037 5.56404834 -2.40072955 2.88087546 0 0 Z " fill="#BDD4ED" transform="translate(57,54)"/>
<path d="M0 0 C5 1 5 1 6.8125 2.6875 C8.35606595 5.69339158 8.42599916 7.66300655 8 11 C6.9375 12.875 6.9375 12.875 5 14 C2.69 14 0.38 14 -2 14 C-1.34 9.38 -0.68 4.76 0 0 Z " fill="#EDACAB" transform="translate(66,28)"/>
<path d="M0 0 C0.06058594 0.75925781 0.12117188 1.51851562 0.18359375 2.30078125 C0.26738281 3.29464844 0.35117187 4.28851563 0.4375 5.3125 C0.51871094 6.29863281 0.59992187 7.28476562 0.68359375 8.30078125 C0.91812559 11.09375599 0.91812559 11.09375599 2 14 C-4.3782235 14.36103152 -4.3782235 14.36103152 -6.9375 12.875 C-8.55824231 10.01486651 -8.51742613 8.23391331 -8 5 C-3.97826087 0 -3.97826087 0 0 0 Z " fill="#ECACAA" transform="translate(34,28)"/>
<path d="M0 0 C1.875 1.5625 1.875 1.5625 3 3 C2 5.5 2 5.5 0 8 C-2.79374292 8.46837899 -5.14221036 8.23424505 -8 8 C-8.99 6.02 -9.98 4.04 -11 2 C-7.00271488 -0.93918024 -4.77749251 -1.45401946 0 0 Z " fill="#FD8288" transform="translate(54,64)"/>
<path d="M0 0 C0.99 0.33 1.98 0.66 3 1 C3 3.64 3 6.28 3 9 C1.68 8.67 0.36 8.34 -1 8 C-1.04241723 5.66705225 -1.04092937 3.33297433 -1 1 C-0.67 0.67 -0.34 0.34 0 0 Z " fill="#4D4B5E" transform="translate(85,86)"/>
<path d="M0 0 C0.99 0 1.98 0 3 0 C2.125 4.75 2.125 4.75 1 7 C-0.32 6.67 -1.64 6.34 -3 6 C-1.125 1.125 -1.125 1.125 0 0 Z " fill="#504E61" transform="translate(95,77)"/>
<path d="M0 0 C0.99 0.33 1.98 0.66 3 1 C1.37660195 2.70884005 -0.29319053 4.37446717 -2 6 C-2.66 6 -3.32 6 -4 6 C-2.84826645 3.53199953 -1.95216435 1.95216435 0 0 Z " fill="#7F7E8E" transform="translate(21,63)"/>
</svg>
