<?xml version="1.0" encoding="UTF-8"?>
<svg version="1.1" xmlns="http://www.w3.org/2000/svg" width="128" height="128">
<path d="M0 0 C0.88490616 -0.00807175 1.76981232 -0.01614349 2.68153381 -0.02445984 C4.56379221 -0.03832681 6.44607603 -0.04903721 8.32836914 -0.05688477 C11.17970371 -0.07396151 14.02983719 -0.11780579 16.88085938 -0.16210938 C36.82531302 -0.3327503 36.82531302 -0.3327503 44.97265625 6.48828125 C48.17583463 8.91230814 50.36869595 8.67344351 54.28515625 8.23828125 C55.27515625 7.57828125 56.26515625 6.91828125 57.28515625 6.23828125 C59.66015625 5.97265625 59.66015625 5.97265625 62.28515625 5.98828125 C63.58453125 5.98054687 63.58453125 5.98054687 64.91015625 5.97265625 C67.28515625 6.23828125 67.28515625 6.23828125 70.28515625 8.23828125 C73.02990695 8.54163034 73.02990695 8.54163034 76.125 8.51171875 C77.84299805 8.54265625 77.84299805 8.54265625 79.59570312 8.57421875 C82.00969445 8.60021758 84.42378185 8.6184725 86.83789062 8.62890625 C87.98451172 8.65210938 89.13113281 8.6753125 90.3125 8.69921875 C91.88632446 8.71154541 91.88632446 8.71154541 93.49194336 8.72412109 C97.03707648 9.37669083 98.20117243 10.31837508 100.28515625 13.23828125 C100.79931641 15.9362793 100.79931641 15.9362793 100.82421875 19 C100.84742187 20.11955078 100.870625 21.23910156 100.89453125 22.39257812 C100.90226562 24.14151367 100.90226562 24.14151367 100.91015625 25.92578125 C100.98780599 32.83272588 101.12809282 39.23063981 102.83105469 45.93432617 C103.78049564 50.75146286 103.61248883 55.6589975 103.59765625 60.55078125 C103.61376953 61.60201172 103.62988281 62.65324219 103.64648438 63.73632812 C103.65112745 71.29061788 102.42775568 78.00305615 100.28515625 85.23828125 C101.27515625 85.23828125 102.26515625 85.23828125 103.28515625 85.23828125 C103.82396537 95.62532371 103.12053226 103.48521724 97.28515625 112.23828125 C97.94515625 112.56828125 98.60515625 112.89828125 99.28515625 113.23828125 C99.28515625 113.89828125 99.28515625 114.55828125 99.28515625 115.23828125 C98.62515625 115.23828125 97.96515625 115.23828125 97.28515625 115.23828125 C97.15238281 116.09292969 97.01960938 116.94757813 96.8828125 117.828125 C96.70621094 118.93285156 96.52960938 120.03757812 96.34765625 121.17578125 C96.17363281 122.27792969 95.99960938 123.38007812 95.8203125 124.515625 C95.28515625 127.23828125 95.28515625 127.23828125 94.28515625 128.23828125 C90.28294972 128.38183242 86.29073942 128.28044528 82.28515625 128.23828125 C81.29515625 124.27828125 80.30515625 120.31828125 79.28515625 116.23828125 C77.80015625 116.73328125 77.80015625 116.73328125 76.28515625 117.23828125 C76.28515625 120.86828125 76.28515625 124.49828125 76.28515625 128.23828125 C69.73812959 128.28790307 63.19121364 128.32410587 56.64404297 128.34814453 C54.41908866 128.35817122 52.19414742 128.37179597 49.96923828 128.38916016 C46.76201134 128.41355517 43.5549594 128.42479796 40.34765625 128.43359375 C39.36087891 128.44391632 38.37410156 128.45423889 37.35742188 128.46487427 C31.59842043 128.4657994 26.83266352 127.73628139 21.28515625 126.23828125 C18.91557959 126.02666561 16.53831036 125.88791931 14.16015625 125.82421875 C12.23623047 125.76621094 12.23623047 125.76621094 10.2734375 125.70703125 C8.95730469 125.67609375 7.64117187 125.64515625 6.28515625 125.61328125 C4.92445627 125.57502473 3.56377851 125.53596877 2.203125 125.49609375 C-1.10265139 125.40231286 -4.40872825 125.31922995 -7.71484375 125.23828125 C-8.04484375 118.63828125 -8.37484375 112.03828125 -8.71484375 105.23828125 C-11.68484375 104.24828125 -14.65484375 103.25828125 -17.71484375 102.23828125 C-18.95655994 99.75484887 -18.85779952 97.95510814 -18.96484375 95.17578125 C-19.27696666 90.74513353 -20.05839095 86.94177789 -21.54353333 82.75767517 C-25.52431665 71.29611084 -25.28777991 60.17648274 -25.02734375 48.17578125 C-25.0021904 46.13349132 -24.97938985 44.09117101 -24.95898438 42.04882812 C-24.90463715 37.11120989 -24.81876656 32.17509457 -24.71484375 27.23828125 C-22.40484375 27.23828125 -20.09484375 27.23828125 -17.71484375 27.23828125 C-17.60527344 26.19027344 -17.49570312 25.14226563 -17.3828125 24.0625 C-17.22333801 22.68351474 -17.06314409 21.30461254 -16.90234375 19.92578125 C-16.83208984 19.23548828 -16.76183594 18.54519531 -16.68945312 17.83398438 C-16.33811168 14.92487721 -16.02829154 12.68593767 -14.328125 10.2578125 C-12.71484375 9.23828125 -12.71484375 9.23828125 -9.71484375 9.23828125 C-9.73546875 7.93890625 -9.75609375 6.63953125 -9.77734375 5.30078125 C-9.79883829 3.94662492 -9.78632574 2.59072042 -9.71484375 1.23828125 C-7.59968935 -0.87687315 -2.92531163 0.02511828 0 0 Z M93.28515625 97.23828125 C92.95515625 97.89828125 92.62515625 98.55828125 92.28515625 99.23828125 C93.27515625 98.90828125 94.26515625 98.57828125 95.28515625 98.23828125 C94.62515625 97.90828125 93.96515625 97.57828125 93.28515625 97.23828125 Z " fill="#6283F1" transform="translate(24.71484375,-0.23828125)"/>
<path d="M0 0 C0.88490616 -0.00807175 1.76981232 -0.01614349 2.68153381 -0.02445984 C4.56379221 -0.03832681 6.44607603 -0.04903721 8.32836914 -0.05688477 C11.17970371 -0.07396151 14.02983719 -0.11780579 16.88085938 -0.16210938 C29.04395467 -0.26610809 37.55257382 0.39814541 47.28515625 8.23828125 C50.47277734 9.03518963 50.47277734 9.03518963 53.28515625 9.23828125 C53.12789063 9.87636719 52.970625 10.51445312 52.80859375 11.171875 C52.25416493 14.41983486 52.10537112 17.53827467 51.99438477 20.82543945 C51.66390604 30.53768229 50.4523831 39.30692356 47.09765625 48.48828125 C45.83151523 52.77368162 45.20897401 57.00169381 47.18359375 61.10546875 C47.54710938 61.72679687 47.910625 62.348125 48.28515625 62.98828125 C51.12453801 68.10118933 51.12896251 73.53688758 50.28515625 79.23828125 C49.31794737 81.2543435 48.32126326 83.25674592 47.28515625 85.23828125 C43.33415697 85.26297975 39.38318751 85.28114048 35.43212891 85.29321289 C33.42609074 85.30072161 31.42007423 85.31342595 29.4140625 85.32617188 C27.52880859 85.33100586 27.52880859 85.33100586 25.60546875 85.3359375 C23.86160889 85.34379272 23.86160889 85.34379272 22.08251953 85.35180664 C19.28515625 85.23828125 19.28515625 85.23828125 17.28515625 84.23828125 C16.79015625 85.72328125 16.79015625 85.72328125 16.28515625 87.23828125 C12.82975183 89.76338448 9.43445287 89.60225464 5.28515625 89.23828125 C4.54265625 88.76390625 3.80015625 88.28953125 3.03515625 87.80078125 C-0.71116301 85.67219076 -4.13379131 85.73450415 -8.38671875 85.546875 C-9.155 85.44503906 -9.92328125 85.34320313 -10.71484375 85.23828125 C-11.04484375 84.57828125 -11.37484375 83.91828125 -11.71484375 83.23828125 C-14.02484375 83.23828125 -16.33484375 83.23828125 -18.71484375 83.23828125 C-19.04484375 84.55828125 -19.37484375 85.87828125 -19.71484375 87.23828125 C-20.36528094 85.51084109 -21.00999219 83.78124435 -21.65234375 82.05078125 C-22.01199219 81.08785156 -22.37164063 80.12492187 -22.7421875 79.1328125 C-24.78130432 73.06459738 -24.84747002 67.47115526 -24.8125 61.125 C-24.81108505 60.15544876 -24.8096701 59.18589752 -24.80821228 58.18696594 C-24.80262888 55.09987258 -24.79007939 52.01285258 -24.77734375 48.92578125 C-24.77232661 46.82877709 -24.76776407 44.73177179 -24.76367188 42.63476562 C-24.75266487 37.50257604 -24.73541163 32.37044107 -24.71484375 27.23828125 C-22.40484375 27.23828125 -20.09484375 27.23828125 -17.71484375 27.23828125 C-17.60527344 26.19027344 -17.49570312 25.14226563 -17.3828125 24.0625 C-17.22333801 22.68351474 -17.06314409 21.30461254 -16.90234375 19.92578125 C-16.83208984 19.23548828 -16.76183594 18.54519531 -16.68945312 17.83398438 C-16.33811168 14.92487721 -16.02829154 12.68593767 -14.328125 10.2578125 C-12.71484375 9.23828125 -12.71484375 9.23828125 -9.71484375 9.23828125 C-9.73546875 7.93890625 -9.75609375 6.63953125 -9.77734375 5.30078125 C-9.79883829 3.94662492 -9.78632574 2.59072042 -9.71484375 1.23828125 C-7.59968935 -0.87687315 -2.92531163 0.02511828 0 0 Z " fill="#FBFBFA" transform="translate(24.71484375,-0.23828125)"/>
<path d="M0 0 C0.85464844 -0.02835937 1.70929688 -0.05671875 2.58984375 -0.0859375 C5.91851571 0.53457323 6.94766325 1.76436128 9.0625 4.375 C13.31072382 11.0706783 15.45636385 16.95053273 15.80859375 24.8359375 C16.21378447 28.88784474 17.65482425 32.1090676 20.0625 35.375 C21.0525 36.1175 22.0425 36.86 23.0625 37.625 C27.78206751 41.22142993 28.77566818 46.83907497 30.0625 52.375 C30.34351563 53.56738281 30.62453125 54.75976562 30.9140625 55.98828125 C31.52221926 59.76290751 31.81725844 62.61950497 31.0625 66.375 C28.44935796 69.12635781 25.92271793 70.80857675 22.6015625 72.62890625 C19.46298408 74.35293742 19.46298408 74.35293742 19.0625 79.375 C7.8425 79.375 -3.3775 79.375 -14.9375 79.375 C-14.2775 77.395 -13.6175 75.415 -12.9375 73.375 C-12.14385612 66.45368712 -12.56978965 61.25158089 -16.03125 55.21875 C-18.70386514 49.78136058 -16.8103692 44.62142511 -15 39.25 C-14.64035156 38.27804688 -14.28070313 37.30609375 -13.91015625 36.3046875 C-11.63911053 29.46418834 -11.66321274 22.50059216 -11.5078125 15.36328125 C-11.31633524 10.34498147 -10.7543427 6.7003888 -7.9375 2.375 C-4.7524857 0.25165713 -3.69293693 0.05553289 0 0 Z " fill="#FC6B6B" transform="translate(86.9375,5.625)"/>
<path d="M0 0 C0.99 0.495 0.99 0.495 2 1 C2.59355614 3.64860427 2.74209269 6.29197322 3 9 C3.66 9 4.32 9 5 9 C5.495 9.99 5.495 9.99 6 11 C6.48210937 10.566875 6.96421875 10.13375 7.4609375 9.6875 C8.40839844 8.8521875 8.40839844 8.8521875 9.375 8 C10.00148438 7.443125 10.62796875 6.88625 11.2734375 6.3125 C13 5 13 5 15 5 C15.65031566 12.47863013 13.13145743 18.80281386 9 25 C9.66 25.33 10.32 25.66 11 26 C11 26.66 11 27.32 11 28 C10.34 28 9.68 28 9 28 C8.86722656 28.85464844 8.73445313 29.70929688 8.59765625 30.58984375 C8.42105469 31.69457031 8.24445313 32.79929688 8.0625 33.9375 C7.88847656 35.03964844 7.71445313 36.14179687 7.53515625 37.27734375 C7 40 7 40 6 41 C1.99779347 41.14355117 -1.99441683 41.04216403 -6 41 C-6.99 37.04 -7.98 33.08 -9 29 C-9.99 29.33 -10.98 29.66 -12 30 C-12 33.63 -12 37.26 -12 41 C-18.54702666 41.04962182 -25.09394261 41.08582462 -31.64111328 41.10986328 C-33.86606759 41.11988997 -36.09100883 41.13351472 -38.31591797 41.15087891 C-41.52314491 41.17527392 -44.73019685 41.18651671 -47.9375 41.1953125 C-48.92427734 41.20563507 -49.91105469 41.21595764 -50.92773438 41.22659302 C-56.641982 41.22751096 -61.51886546 40.6364131 -67 39 C-65.02 38.505 -65.02 38.505 -63 38 C-63 31.4 -63 24.8 -63 18 C-62.34 19.32 -61.68 20.64 -61 22 C-60.05125 21.34 -59.1025 20.68 -58.125 20 C-55 18 -55 18 -53 18 C-54.32 15.03 -55.64 12.06 -57 9 C-42.81 9 -28.62 9 -14 9 C-13.67 7.68 -13.34 6.36 -13 5 C-12.46375 5.474375 -11.9275 5.94875 -11.375 6.4375 C-8.57157164 8.28186076 -6.30379742 8.62456847 -3 9 C-2.814375 7.329375 -2.814375 7.329375 -2.625 5.625 C-2 2 -2 2 0 0 Z " fill="#FBC8B5" transform="translate(113,87)"/>
<path d="M0 0 C4.24977046 -0.11611395 8.49913337 -0.18722349 12.75 -0.25 C13.9565625 -0.28351562 15.163125 -0.31703125 16.40625 -0.3515625 C18.14648438 -0.37089844 18.14648438 -0.37089844 19.921875 -0.390625 C20.99018555 -0.41157227 22.05849609 -0.43251953 23.15917969 -0.45410156 C26 0 26 0 28.34619141 1.66430664 C30.40055523 4.56570887 30.51033023 6.22680401 30.5390625 9.76171875 C30.56226562 10.88126953 30.58546875 12.00082031 30.609375 13.15429688 C30.61453125 14.32025391 30.6196875 15.48621094 30.625 16.6875 C30.70264974 23.59444463 30.84293657 29.99235856 32.54589844 36.69604492 C33.49533939 41.51318161 33.32733258 46.42071625 33.3125 51.3125 C33.32861328 52.36373047 33.34472656 53.41496094 33.36132812 54.49804688 C33.36600993 62.11534444 32.08321241 68.67302864 30 76 C23.73 76 17.46 76 11 76 C11 74.35 11 72.7 11 71 C13.44140625 69.25390625 13.44140625 69.25390625 16.5625 67.5625 C20.95701401 64.60859834 20.95701401 64.60859834 22.6484375 59.79296875 C22.42586474 56.05457066 21.85896254 52.6446805 21 49 C20.60941406 47.31970703 20.60941406 47.31970703 20.2109375 45.60546875 C18.33145404 38.97824662 16.41333797 36.06000347 11 32 C7.92052132 27.82278917 6.85683326 23.95022425 6.625 18.8125 C6.26089473 11.80593375 3.1910306 6.13809862 0 0 Z " fill="#FCFBFC" transform="translate(95,9)"/>
<path d="M0 0 C0.85464844 -0.02835937 1.70929688 -0.05671875 2.58984375 -0.0859375 C5.91851571 0.53457323 6.94766325 1.76436128 9.0625 4.375 C12.5205084 9.82520996 15.30898377 15.0904438 15.4375 21.625 C15.62445935 27.75904724 18.2584625 32.33290417 21.26904297 37.54199219 C23.99214339 42.43593002 24.5395399 45.76830882 24.0625 51.375 C22.70364114 55.37608441 21.73820759 56.93432114 18.1875 59.25 C15.18594743 60.33055893 13.21047097 60.73476811 10.0625 60.375 C9.0625 59.375 9.0625 59.375 8.875 56.8125 C9.05446971 53.522222 9.76284162 50.68999159 10.60546875 47.51953125 C11.64823831 42.62653562 12.02837384 38.12675545 9.57421875 33.67578125 C7.32464093 28.76391236 7.5947851 24.0724039 7.53515625 18.74414062 C7.51324219 17.96876953 7.49132812 17.19339844 7.46875 16.39453125 C7.46166016 15.69432861 7.45457031 14.99412598 7.44726562 14.27270508 C6.94072025 11.77436927 6.06004354 10.92492675 4.0625 9.375 C1.75261685 8.63113932 -0.58065944 7.95309297 -2.9375 7.375 C-2.89625 8.303125 -2.855 9.23125 -2.8125 10.1875 C-2.9375 13.375 -2.9375 13.375 -4.9375 16.375 C-5.03827776 18.60209526 -5.03827776 18.60209526 -4.6875 20.9375 C-4.55601563 22.11505859 -4.55601563 22.11505859 -4.421875 23.31640625 C-4.07876274 25.58464034 -4.07876274 25.58464034 -1.9375 27.375 C-1.72695157 29.97176397 -1.88986812 32.15763538 -2.44750977 34.70239258 C-2.9584711 37.48938498 -3.01983627 39.99395339 -2.96484375 42.82421875 C-2.95259766 43.83677734 -2.94035156 44.84933594 -2.92773438 45.89257812 C-2.89238209 48.01764309 -2.85327854 50.14264874 -2.81054688 52.26757812 C-2.79958984 53.27626953 -2.78863281 54.28496094 -2.77734375 55.32421875 C-2.76050537 56.24549561 -2.74366699 57.16677246 -2.72631836 58.1159668 C-2.9375 60.375 -2.9375 60.375 -4.9375 62.375 C-9.32934334 62.13760306 -11.79581134 60.34686765 -14.9375 57.375 C-17.62322948 53.79402737 -17.5268425 49.65986665 -16.9375 45.375 C-16.04526305 42.29859928 -15.0216502 39.30850987 -13.91015625 36.3046875 C-11.63911053 29.46418834 -11.66321274 22.50059216 -11.5078125 15.36328125 C-11.31633524 10.34498147 -10.7543427 6.7003888 -7.9375 2.375 C-4.7524857 0.25165713 -3.69293693 0.05553289 0 0 Z " fill="#4F4D4D" transform="translate(86.9375,5.625)"/>
<path d="M0 0 C1.6874269 0.00015917 3.37485866 0.00585622 5.06225586 0.01586914 C6.39189613 0.01799156 6.39189613 0.01799156 7.74839783 0.02015686 C10.59133215 0.02577324 13.43418892 0.03832848 16.27709961 0.05102539 C18.19962452 0.05603828 20.12215065 0.06060155 22.04467773 0.06469727 C26.76803925 0.07489891 31.49123219 0.09447102 36.21459961 0.11352539 C36.21459961 6.71352539 36.21459961 13.31352539 36.21459961 20.11352539 C34.23459961 20.11352539 32.25459961 20.11352539 30.21459961 20.11352539 C30.21459961 21.76352539 30.21459961 23.41352539 30.21459961 25.11352539 C29.52108398 24.46899414 28.82756836 23.82446289 28.11303711 23.16040039 C22.78992165 19.61165675 15.99130676 20.43139779 9.83959961 20.36352539 C8.53120117 20.33387695 7.22280273 20.30422852 5.87475586 20.27368164 C2.65464234 20.20316821 -0.5647547 20.15037634 -3.78540039 20.11352539 C-3.98134716 16.96815771 -4.16574049 13.82221925 -4.34790039 10.67602539 C-4.40397461 9.77819336 -4.46004883 8.88036133 -4.51782227 7.95532227 C-4.56616211 7.10131836 -4.61450195 6.24731445 -4.66430664 5.36743164 C-4.71143799 4.57667236 -4.75856934 3.78591309 -4.80712891 2.97119141 C-4.76585689 -0.5573342 -3.61672779 0.10846684 0 0 Z " fill="#27DDA8" transform="translate(19.785400390625,-0.113525390625)"/>
<path d="M0 0 C27.06 0 54.12 0 82 0 C82 7 82 7 80.64453125 8.8125 C75.66180312 12.04224275 75.66180312 12.04224275 72.0625 11.8125 C71.381875 11.544375 70.70125 11.27625 70 11 C69.01 7.04 69.01 7.04 68 3 C67.34 3.33 66.68 3.66 66 4 C65.26924352 6.3140622 64.59861742 8.64828869 64 11 C58.58461538 11.36923077 58.58461538 11.36923077 55.625 9.5 C55.08875 9.005 54.5525 8.51 54 8 C53.67 8.99 53.34 9.98 53 11 C46.96780145 11.14849192 40.93666987 11.25728505 34.90307617 11.32958984 C32.85145534 11.35973452 30.7999631 11.40065836 28.7487793 11.45263672 C25.79704059 11.52555446 22.84700726 11.55947901 19.89453125 11.5859375 C18.97976517 11.61690521 18.06499908 11.64787292 17.12251282 11.67977905 C10.90200507 11.68305505 10.90200507 11.68305505 8.2762146 9.69464111 C6.42650592 7.56423198 5 5.90301256 5 3 C2.525 2.01 2.525 2.01 0 1 C0 0.67 0 0.34 0 0 Z " fill="#78909C" transform="translate(46,85)"/>
<path d="M0 0 C0.66 0.33 1.32 0.66 2 1 C2.59355614 3.64860427 2.74209269 6.29197322 3 9 C3.66 9 4.32 9 5 9 C5.33 9.66 5.66 10.32 6 11 C6.48210937 10.566875 6.96421875 10.13375 7.4609375 9.6875 C8.09257813 9.130625 8.72421875 8.57375 9.375 8 C10.00148438 7.443125 10.62796875 6.88625 11.2734375 6.3125 C13 5 13 5 15 5 C15.65031566 12.47863013 13.13145743 18.80281386 9 25 C9.66 25.33 10.32 25.66 11 26 C11 26.66 11 27.32 11 28 C10.34 28 9.68 28 9 28 C8.86722656 28.85464844 8.73445313 29.70929688 8.59765625 30.58984375 C8.42105469 31.69457031 8.24445313 32.79929688 8.0625 33.9375 C7.80146484 35.59072266 7.80146484 35.59072266 7.53515625 37.27734375 C7 40 7 40 6 41 C3.98035801 41.07244053 1.95832876 41.08377188 -0.0625 41.0625 C-1.71958984 41.04896484 -1.71958984 41.04896484 -3.41015625 41.03515625 C-4.26480469 41.02355469 -5.11945313 41.01195312 -6 41 C-6.50435694 39.0636296 -7.00333874 37.12585854 -7.5 35.1875 C-7.7784375 34.10855469 -8.056875 33.02960938 -8.34375 31.91796875 C-9 29 -9 29 -9 26 C-8.34 26 -7.68 26 -7 26 C-7.5053125 25.07058594 -8.010625 24.14117187 -8.53125 23.18359375 C-9.18825143 21.93529103 -9.84445945 20.68657051 -10.5 19.4375 C-11.00080078 18.52387695 -11.00080078 18.52387695 -11.51171875 17.59179688 C-13.76828463 13.23984839 -14.36065905 10.00414429 -14 5 C-13.29875 5.474375 -12.5975 5.94875 -11.875 6.4375 C-8.83918663 8.08739857 -6.40831214 8.60368464 -3 9 C-2.87625 7.88625 -2.7525 6.7725 -2.625 5.625 C-2 2 -2 2 0 0 Z " fill="#D1D2D3" transform="translate(113,87)"/>
<path d="M0 0 C0.33 1.32 0.66 2.64 1 4 C9.25 4 17.5 4 26 4 C26 9.94 26 15.88 26 22 C24.35 22.33 22.7 22.66 21 23 C20.67 23.99 20.34 24.98 20 26 C19.45633789 25.67854004 18.91267578 25.35708008 18.35253906 25.02587891 C15.55957488 23.80794247 13.40069472 23.6830009 10.359375 23.5859375 C9.28945313 23.54726563 8.21953125 23.50859375 7.1171875 23.46875 C5.45042969 23.42234375 5.45042969 23.42234375 3.75 23.375 C2.62335937 23.33632813 1.49671875 23.29765625 0.3359375 23.2578125 C-2.44244109 23.16363017 -5.22119799 23.08072972 -8 23 C-8 16.73 -8 10.46 -8 4 C-5.69 4 -3.38 4 -1 4 C-0.67 2.68 -0.34 1.36 0 0 Z " fill="#FED861" transform="translate(8,23)"/>
<path d="M0 0 C1.1446875 0.3403125 1.1446875 0.3403125 2.3125 0.6875 C2.6425 2.3375 2.9725 3.9875 3.3125 5.6875 C4.3025 5.6875 5.2925 5.6875 6.3125 5.6875 C5.76526317 9.06212715 5.2576 10.76985 3.3125 13.6875 C3.23344936 16.01949388 3.22451231 18.35582622 3.3125 20.6875 C3.78300781 20.06101562 4.25351562 19.43453125 4.73828125 18.7890625 C5.36089844 17.97179687 5.98351562 17.15453125 6.625 16.3125 C7.23988281 15.50039063 7.85476562 14.68828125 8.48828125 13.8515625 C10.3125 11.6875 10.3125 11.6875 13.3125 9.6875 C12.9825 10.8425 12.6525 11.9975 12.3125 13.1875 C10.5818305 20.23468661 10.80736743 25.15815014 14.3125 31.6875 C5.7707876 44.2615944 5.7707876 44.2615944 0.3125 46.6875 C-3.14492385 46.53034437 -4.22985443 46.14514557 -6.6875 43.6875 C-6.93041992 41.77978516 -6.93041992 41.77978516 -6.91796875 39.4765625 C-6.91603516 38.64382812 -6.91410156 37.81109375 -6.91210938 36.953125 C-6.89986328 36.08171875 -6.88761719 35.2103125 -6.875 34.3125 C-6.87435547 33.44882813 -6.87371094 32.58515625 -6.87304688 31.6953125 C-6.82823718 25.24271589 -6.82823718 25.24271589 -6.17651367 22.67163086 C-5.64236742 20.50437843 -5.61942158 18.69206637 -5.6953125 16.46484375 C-5.72044922 15.28631836 -5.72044922 15.28631836 -5.74609375 14.08398438 C-5.79047618 12.44052918 -5.84259944 10.79726534 -5.90234375 9.15429688 C-5.91652344 8.36990234 -5.93070313 7.58550781 -5.9453125 6.77734375 C-5.9673877 6.06441162 -5.98946289 5.35147949 -6.01220703 4.61694336 C-5.38887604 0.91304501 -3.6497308 -0.4243873 0 0 Z " fill="#FEC2B2" transform="translate(59.6875,33.3125)"/>
<path d="M0 0 C0.87978516 0.01417969 1.75957031 0.02835938 2.66601562 0.04296875 C9.12998224 0.19248224 9.12998224 0.19248224 10.3125 1.375 C10.49385286 4.2855647 10.59078515 7.14967581 10.625 10.0625 C10.65400391 10.86623047 10.68300781 11.66996094 10.71289062 12.49804688 C10.77113712 17.97769794 9.92354606 21.009407 6.3125 25.375 C3.02958264 28.65791736 -0.08261985 29.29560551 -4.6875 29.375 C-9.79754101 26.72170948 -12.86857702 23.83176894 -14.6875 18.375 C-14.70152291 16.24912733 -14.6286809 14.12202085 -14.5 12 C-14.44457031 10.87851562 -14.38914062 9.75703125 -14.33203125 8.6015625 C-12.58356365 -0.15137225 -7.77123786 -0.334619 0 0 Z " fill="#4D4D4D" transform="translate(35.6875,51.625)"/>
<path d="M0 0 C4.24977046 -0.11611395 8.49913337 -0.18722349 12.75 -0.25 C13.9565625 -0.28351562 15.163125 -0.31703125 16.40625 -0.3515625 C18.14648438 -0.37089844 18.14648438 -0.37089844 19.921875 -0.390625 C20.99018555 -0.41157227 22.05849609 -0.43251953 23.15917969 -0.45410156 C26 0 26 0 28.34619141 1.66430664 C30.40055523 4.56570887 30.51033023 6.22680401 30.5390625 9.76171875 C30.56226562 10.88126953 30.58546875 12.00082031 30.609375 13.15429688 C30.61453125 14.32025391 30.6196875 15.48621094 30.625 16.6875 C30.70264974 23.59444463 30.84293657 29.99235856 32.54589844 36.69604492 C33.49533939 41.51318161 33.32733258 46.42071625 33.3125 51.3125 C33.32861328 52.36373047 33.34472656 53.41496094 33.36132812 54.49804688 C33.3659712 62.05233663 32.14259943 68.7647749 30 76 C28.35 76 26.7 76 25 76 C25 52.24 25 28.48 25 4 C17.41 4 9.82 4 2 4 C1.34 2.68 0.68 1.36 0 0 Z " fill="#B4C1C8" transform="translate(95,9)"/>
<path d="M0 0 C14.19 0 28.38 0 43 0 C45.475 5.94 45.475 5.94 48 12 C48.66 13.32 49.32 14.64 50 16 C44.625 21 44.625 21 39 21 C39 17.37 39 13.74 39 10 C27.78 10 16.56 10 5 10 C3.35 6.7 1.7 3.4 0 0 Z " fill="#EFF3FE" transform="translate(56,96)"/>
<path d="M0 0 C4.29 0 8.58 0 13 0 C13.82637424 12.35134354 14.12350504 24.6220506 14 37 C11.36 37 8.72 37 6 37 C5.67 38.32 5.34 39.64 5 41 C4.34956281 39.27255984 3.70485156 37.5429631 3.0625 35.8125 C2.70285156 34.84957031 2.34320313 33.88664062 1.97265625 32.89453125 C0.39495361 28.19944025 -0.12303588 23.9919958 -0.09765625 19.04296875 C-0.09443359 17.93115234 -0.09121094 16.81933594 -0.08789062 15.67382812 C-0.07951172 14.52333984 -0.07113281 13.37285156 -0.0625 12.1875 C-0.05798828 11.01767578 -0.05347656 9.84785156 -0.04882812 8.64257812 C-0.03706943 5.76169677 -0.01913474 2.88084181 0 0 Z " fill="#F8C2B4" transform="translate(0,46)"/>
<path d="M0 0 C1.77705068 -0.050671 3.55451438 -0.08701382 5.33203125 -0.1171875 C6.32178955 -0.13894043 7.31154785 -0.16069336 8.33129883 -0.18310547 C11 0 11 0 13.6875 1.875 C15 4 15 4 15 6 C13.7934375 6.8971875 13.7934375 6.8971875 12.5625 7.8125 C8.82656462 11.36749264 9.05617483 16.01386931 8.86328125 20.90234375 C9.13499094 27.05850899 12.28552587 30.38892866 16 35 C16 35.66 16 36.32 16 37 C11.13948404 39.59227518 6.34728867 39.18689553 1 39 C-0.30351387 35.04886452 -0.12612281 31.06175257 -0.09765625 26.953125 C-0.0962413 26.18192322 -0.09482635 25.41072144 -0.09336853 24.6161499 C-0.08778534 22.16072662 -0.07523595 19.70539558 -0.0625 17.25 C-0.05748283 15.58203257 -0.0529203 13.91406371 -0.04882812 12.24609375 C-0.03782141 8.16402713 -0.02056836 4.08202919 0 0 Z " fill="#FDFCFB" transform="translate(13,46)"/>
<path d="M0 0 C12.21 0 24.42 0 37 0 C37 3.63 37 7.26 37 11 C31.76726669 11.04935824 26.53466824 11.08569949 21.30175781 11.10986328 C19.52080933 11.11993431 17.73987743 11.13359185 15.95898438 11.15087891 C13.40230217 11.17507913 10.84583815 11.18647184 8.2890625 11.1953125 C7.49005524 11.20563507 6.69104797 11.21595764 5.86782837 11.22659302 C3.9104278 11.22699226 1.95356923 11.12241069 0 11 C-0.66 10.34 -1.32 9.68 -2 9 C-1.6875 6.625 -1.6875 6.625 -1 4 C-0.67 2.68 -0.34 1.36 0 0 Z " fill="#28DDA8" transform="translate(64,117)"/>
<path d="M0 0 C6.22978529 0.47921425 6.22978529 0.47921425 9.1953125 2.484375 C11.84849609 6.18275213 11.59657476 9.55145016 11.625 14 C11.6506281 15.60431917 11.68421359 17.20853511 11.7265625 18.8125 C11.73550537 19.87404297 11.73550537 19.87404297 11.74462891 20.95703125 C12.03917022 23.31336177 12.92050512 24.902388 14 27 C13.9375 29.625 13.9375 29.625 13 32 C8.91343412 34.60054192 4.67631878 34.15851928 0 34 C-0.87890625 27.84765625 -0.87890625 27.84765625 -1 26 C-0.67 25.67 -0.34 25.34 0 25 C0.35423925 21.81184679 0.20226035 20.32867308 -1.5 17.5625 C-3.33046301 14.43545902 -3.38807614 12.57030047 -3 9 C-2.34 8.01 -1.68 7.02 -1 6 C-0.60986284 4.0103005 -0.26797351 2.00980131 0 0 Z " fill="#FBD4C9" transform="translate(84,13)"/>
<path d="M0 0 C10.89 0 21.78 0 33 0 C33 3.3 33 6.6 33 10 C22.77 10 12.54 10 2 10 C2 8.02 2 6.04 2 4 C1.34 3.67 0.68 3.34 0 3 C0 2.01 0 1.02 0 0 Z " fill="#FFD655" transform="translate(62,107)"/>
<path d="M0 0 C6.6 0 13.2 0 20 0 C20 0.66 20 1.32 20 2 C19.34 2 18.68 2 18 2 C17.86722656 2.85464844 17.73445313 3.70929688 17.59765625 4.58984375 C17.33275391 6.24693359 17.33275391 6.24693359 17.0625 7.9375 C16.80146484 9.59072266 16.80146484 9.59072266 16.53515625 11.27734375 C16 14 16 14 15 15 C12.98035801 15.07244053 10.95832876 15.08377188 8.9375 15.0625 C7.28041016 15.04896484 7.28041016 15.04896484 5.58984375 15.03515625 C4.73519531 15.02355469 3.88054687 15.01195312 3 15 C2.49564306 13.0636296 1.99666126 11.12585854 1.5 9.1875 C1.2215625 8.10855469 0.943125 7.02960938 0.65625 5.91796875 C0 3 0 3 0 0 Z " fill="#FD69A0" transform="translate(104,113)"/>
<path d="M0 0 C2 2 2 2 2.13525391 4.06298828 C2.08288574 4.89040527 2.03051758 5.71782227 1.9765625 6.5703125 C1.93096191 7.37742676 1.88536133 8.18454102 1.83837891 9.01611328 C1.76796387 10.0420459 1.69754883 11.06797852 1.625 12.125 C1.315625 17.013125 1.315625 17.013125 1 22 C-6.26 22 -13.52 22 -21 22 C-17.86739329 18.08424161 -15.38930907 15.4893935 -11.5625 12.4375 C-10.17224609 11.32181641 -10.17224609 11.32181641 -8.75390625 10.18359375 C-6.91670677 8.72686395 -5.06627725 7.28666712 -3.203125 5.86328125 C-0.86739821 3.88785274 -0.31998195 2.98649823 0 0 Z " fill="#87A6F7" transform="translate(49,103)"/>
<path d="M0 0 C2.97 0 5.94 0 9 0 C9 3.96 9 7.92 9 12 C7.68 12.33 6.36 12.66 5 13 C3.63047327 15.73905345 3.87378639 17.97087332 4 21 C4.33 21.66 4.66 22.32 5 23 C6.02474618 28.98401164 6.09609897 34.94576468 6 41 C-0.38479551 34.61520449 -0.23001397 23.52365159 -0.27685547 15.07836914 C-0.23775514 10.05042204 -0.15391031 5.02576347 0 0 Z " fill="#E6ECFE" transform="translate(0,46)"/>
<path d="M0 0 C0.33 0.66 0.66 1.32 1 2 C0.690625 2.86625 0.38125 3.7325 0.0625 4.625 C-1.65490432 10.0802843 -1.76605782 14.21253176 0.5 19.5 C1.2425 20.7375 1.2425 20.7375 2 22 C1.04956626 23.33897583 0.08940853 24.67105427 -0.875 26 C-1.40867187 26.7425 -1.94234375 27.485 -2.4921875 28.25 C-3.23855469 29.11625 -3.23855469 29.11625 -4 30 C-6 30 -6 30 -7.5859375 28.44921875 C-10.59267142 23.2414227 -9.85664328 16.7704443 -9 11 C-7.15612039 7.41787971 -4.91182804 4.76030758 -2 2 C-1.34 1.34 -0.68 0.68 0 0 Z " fill="#FD6D6D" transform="translate(72,43)"/>
<path d="M0 0 C5.77765369 1.75080415 9.97906174 3.61632422 15 7 C17.32005235 7.84408408 19.59300996 8.42232239 22 9 C21.67 10.65 21.34 12.3 21 14 C14.07 13.67 7.14 13.34 0 13 C0 8.71 0 4.42 0 0 Z " fill="#E9EFFA" transform="translate(56,0)"/>
<path d="M0 0 C0.6623922 7.61751025 -2.03147629 13.6059936 -5.8125 20.125 C-8 22 -8 22 -15 22 C-15 15.4 -15 8.8 -15 2 C-14.67 2 -14.34 2 -14 2 C-14 8.27 -14 14.54 -14 21 C-13.34 21 -12.68 21 -12 21 C-11.94392578 19.89591797 -11.94392578 19.89591797 -11.88671875 18.76953125 C-11.39321015 11.44431529 -10.56036831 7.13836697 -4.9375 2.1875 C-2 0 -2 0 0 0 Z " fill="#BAB9BA" transform="translate(128,92)"/>
<path d="M0 0 C0.99 0 1.98 0 3 0 C2.67644531 0.63679687 2.35289063 1.27359375 2.01953125 1.9296875 C0.65651944 6.03438972 0.74657378 9.82913808 0.6875 14.125 C0.4526747 22.33331459 -0.95391118 29.58577178 -3.26171875 37.44311523 C-4.96608135 43.3787597 -5.62600464 48.80950969 -5 55 C-5.66 55 -6.32 55 -7 55 C-9.51616721 51.22574919 -9.60004691 47.36269397 -9 43 C-8.10776305 39.92359928 -7.0841502 36.93350987 -5.97265625 33.9296875 C-3.70161053 27.08918834 -3.72571274 20.12559216 -3.5703125 12.98828125 C-3.37754435 7.9361493 -2.69034936 4.43116365 0 0 Z " fill="#464343" transform="translate(79,8)"/>
<path d="M0 0 C4.02298851 6.03448276 4.02298851 6.03448276 3.9375 9.625 C3 12 3 12 0.9375 13.3125 C-2.82927169 14.19408486 -6.13419987 14.13104407 -10 14 C-11.42857143 5.57142857 -11.42857143 5.57142857 -9 1 C-7.88625 1.020625 -6.7725 1.04125 -5.625 1.0625 C-2.16784079 1.26380718 -2.16784079 1.26380718 0 0 Z " fill="#FCBEAE" transform="translate(94,33)"/>
<path d="M0 0 C4.91519219 4.91519219 4.27833847 13.66028125 4.32226562 20.18945312 C4.31904297 21.26130859 4.31582031 22.33316406 4.3125 23.4375 C4.32861328 24.50548828 4.34472656 25.57347656 4.36132812 26.67382812 C4.36556667 33.61233088 3.40689403 39.48781718 1 46 C0.67 46 0.34 46 0 46 C0 30.82 0 15.64 0 0 Z " fill="#E4EBFB" transform="translate(124,37)"/>
<path d="M0 0 C4.25115285 2.18630718 7.79929836 4.69497781 10 9 C10.99431123 13.30526512 11.56319781 17.60590039 12 22 C9.73828125 21.9140625 9.73828125 21.9140625 7 21 C5.44182703 18.75164983 4.32468383 16.82007075 3.1875 14.375 C2.87619141 13.77042969 2.56488281 13.16585937 2.24414062 12.54296875 C0.14612646 8.21783185 -0.31239044 4.76548559 0 0 Z " fill="#BABABB" transform="translate(99,92)"/>
<path d="M0 0 C14.19 0 28.38 0 43 0 C43 0.99 43 1.98 43 3 C29.14 3 15.28 3 1 3 C0.67 2.01 0.34 1.02 0 0 Z " fill="#E5EBF8" transform="translate(56,96)"/>
<path d="M0 0 C1.60875 0.2784375 1.60875 0.2784375 3.25 0.5625 C6.40391546 0.9304568 8.09818492 1.04465343 11 0 C11 1.32 11 2.64 11 4 C11.99 4 12.98 4 14 4 C13.66411682 6.51912388 13.42645046 7.67196119 11.375 9.25 C8.03720209 10.30404145 5.48776315 10.36080308 2 10 C-1.4375 8 -1.4375 8 -4 6 C-1 4 -1 4 1 4 C0.67 2.68 0.34 1.36 0 0 Z " fill="#F7CABF" transform="translate(28,79)"/>
<path d="M0 0 C6.6 0 13.2 0 20 0 C20 1.65 20 3.3 20 5 C13.4 5 6.8 5 0 5 C0 3.35 0 1.7 0 0 Z " fill="#E8FBF6" transform="translate(75,120)"/>
<path d="M0 0 C6.27 0 12.54 0 19 0 C19 1.65 19 3.3 19 5 C12.73 5 6.46 5 0 5 C0 3.35 0 1.7 0 0 Z " fill="#FFFBF0" transform="translate(70,109)"/>
<path d="M0 0 C0 3.3 0 6.6 0 10 C-0.33 10 -0.66 10 -1 10 C-1 8.35 -1 6.7 -1 5 C-1.66 5 -2.32 5 -3 5 C-3 9.29 -3 13.58 -3 18 C-4.32 18 -5.64 18 -7 18 C-7.0809723 15.56183415 -7.14046972 13.12635616 -7.1875 10.6875 C-7.21263672 9.99720703 -7.23777344 9.30691406 -7.26367188 8.59570312 C-7.33710043 3.52913287 -7.33710043 3.52913287 -5.73828125 1.01953125 C-4 0 -4 0 0 0 Z " fill="#B0C3C7" transform="translate(16,9)"/>
<path d="M0 0 C1.32 0.33 2.64 0.66 4 1 C3.35933594 1.52851562 2.71867187 2.05703125 2.05859375 2.6015625 C-1.66519625 6.94009581 -1.17843061 12.48923913 -1 18 C0.4562144 22.36864319 2.591907 24.94446834 6 28 C2.07668566 27.77581061 1.03871912 27.04047908 -1.75 24.125 C-4.95576809 19.67254432 -5.13721274 16.97969695 -4.8125 11.625 C-4.75707031 10.50351562 -4.70164062 9.38203125 -4.64453125 8.2265625 C-3.90138621 4.50633338 -2.56213182 2.74184046 0 0 Z " fill="#484747" transform="translate(26,52)"/>
<path d="M0 0 C1.79260132 0.05995322 3.58425795 0.1487241 5.375 0.25 C6.87160156 0.31960937 6.87160156 0.31960937 8.3984375 0.390625 C11 1 11 1 12.2890625 2.921875 C12.52367188 3.60765625 12.75828125 4.2934375 13 5 C13.33 5.66 13.66 6.32 14 7 C7.59646678 7.2361959 2.15370839 6.823321 -4 5 C-2.68 4.67 -1.36 4.34 0 4 C0 2.68 0 1.36 0 0 Z " fill="#EBF0FD" transform="translate(50,121)"/>
<path d="M0 0 C-0.33 1.65 -0.66 3.3 -1 5 C-7.93 4.67 -14.86 4.34 -22 4 C-22 3.01 -22 2.02 -22 1 C-19.45847098 0.83096719 -16.91681012 0.66470573 -14.375 0.5 C-13.30572266 0.42845703 -13.30572266 0.42845703 -12.21484375 0.35546875 C-8.13492439 0.09345558 -4.09108781 -0.05162256 0 0 Z " fill="#AFBDC3" transform="translate(78,9)"/>
<path d="M0 0 C2.29633824 3.44450737 2.54016485 5.93812283 3 10 C-0.3 10 -3.6 10 -7 10 C-7 5 -7 5 -5.46875 3.41796875 C-4.8190625 3.01191406 -4.169375 2.60585937 -3.5 2.1875 C-2.8503125 1.76855469 -2.200625 1.34960938 -1.53125 0.91796875 C-1.0259375 0.61503906 -0.520625 0.31210938 0 0 Z " fill="#FEBFAF" transform="translate(113,75)"/>
<path d="M0 0 C0.99 0 1.98 0 3 0 C3 6.6 3 13.2 3 20 C2.01 20 1.02 20 0 20 C-0.19594676 16.85463232 -0.3803401 13.70869386 -0.5625 10.5625 C-0.61857422 9.66466797 -0.67464844 8.76683594 -0.73242188 7.84179688 C-0.78076172 6.98779297 -0.82910156 6.13378906 -0.87890625 5.25390625 C-0.9260376 4.46314697 -0.97316895 3.6723877 -1.02172852 2.85766602 C-1 1 -1 1 0 0 Z " fill="#14C97F" transform="translate(16,0)"/>
<path d="M0 0 C0.99 0 1.98 0 3 0 C3.03738281 1.10859375 3.07476563 2.2171875 3.11328125 3.359375 C3.17895448 4.82294974 3.24540135 6.28648991 3.3125 7.75 C3.33505859 8.47960937 3.35761719 9.20921875 3.38085938 9.9609375 C3.59309781 14.20570619 3.97070799 16.913858 7 20 C4.0625 19.625 4.0625 19.625 1 19 C-0.3841124 16.2317752 -0.3826988 13.70568665 -0.625 10.625 C-0.76808594 8.91183594 -0.76808594 8.91183594 -0.9140625 7.1640625 C-0.98750726 4.45995988 -0.83837463 2.54015001 0 0 Z " fill="#6267EF" transform="translate(6,83)"/>
<path d="M0 0 C1.32 0 2.64 0 4 0 C4 5.28 4 10.56 4 16 C3.34 16 2.68 16 2 16 C-0.42130331 12.36804504 -0.21022785 10.61650652 -0.125 6.3125 C-0.09792969 4.54326172 -0.09792969 4.54326172 -0.0703125 2.73828125 C-0.04710937 1.83464844 -0.02390625 0.93101563 0 0 Z " fill="#B5C1C8" transform="translate(9,46)"/>
<path d="M0 0 C0 5.94 0 11.88 0 18 C-0.66 17.67 -1.32 17.34 -2 17 C-2.60779107 14.23567616 -2.95883508 11.46799038 -3.33984375 8.6640625 C-4.05532209 5.77674756 -4.83428601 4.92376774 -7 3 C-7 2.34 -7 1.68 -7 1 C-1.125 0 -1.125 0 0 0 Z " fill="#D5D5D5" transform="translate(112,95)"/>
<path d="M0 0 C0.99 0 1.98 0 3 0 C3 5.94 3 11.88 3 18 C2.01 18 1.02 18 0 18 C0 12.06 0 6.12 0 0 Z " fill="#FF9E51" transform="translate(0,27)"/>
<path d="M0 0 C1.32 0 2.64 0 4 0 C4.99 4.29 5.98 8.58 7 13 C5.68 13 4.36 13 3 13 C2.01 8.71 1.02 4.42 0 0 Z " fill="#F2538F" transform="translate(104,115)"/>
<path d="M0 0 C0.33 0.66 0.66 1.32 1 2 C-0.0625 4.0625 -0.0625 4.0625 -2 7 C-2.49628906 7.76828125 -2.99257812 8.5365625 -3.50390625 9.328125 C-6.61937076 14.10266819 -6.61937076 14.10266819 -8 16 C-8.33 16 -8.66 16 -9 16 C-9.29960517 12.86524221 -9.20617306 11.33682284 -7.5390625 8.61328125 C-6.90742187 7.85402344 -6.27578125 7.09476563 -5.625 6.3125 C-4.99851562 5.54550781 -4.37203125 4.77851562 -3.7265625 3.98828125 C-2.53361249 2.61449945 -1.28654696 1.28654696 0 0 Z " fill="#E76161" transform="translate(72,43)"/>
<path d="M0 0 C0.99 0.33 1.98 0.66 3 1 C2.67 3.97 2.34 6.94 2 10 C0.68 9.67 -0.64 9.34 -2 9 C-1.41196203 5.97580475 -0.77321882 2.98241547 0 0 Z " fill="#2CCC8B" transform="translate(64,117)"/>
<path d="M0 0 C2.672336 3.56311466 3.77263971 5.84585747 5 10 C3.35 10 1.7 10 0 10 C0 6.7 0 3.4 0 0 Z " fill="#ECF0FD" transform="translate(50,105)"/>
<path d="M0 0 C2.64 0 5.28 0 8 0 C7.02433888 1.16959987 6.044375 2.33561177 5.0625 3.5 C4.51722656 4.1496875 3.97195312 4.799375 3.41015625 5.46875 C2.94480469 5.9740625 2.47945312 6.479375 2 7 C1.67 7 1.34 7 1 7 C0.67 4.69 0.34 2.38 0 0 Z " fill="#768FA0" transform="translate(14,85)"/>
<path d="M0 0 C0.99 0.33 1.98 0.66 3 1 C3 2.65 3 4.3 3 6 C1.68 6 0.36 6 -1 6 C-1.33 6.99 -1.66 7.98 -2 9 C-1.41196203 5.97580475 -0.77321882 2.98241547 0 0 Z " fill="#EBA594" transform="translate(85,34)"/>
<path d="M0 0 C1.65 0 3.3 0 5 0 C5 2.31 5 4.62 5 7 C3.29115995 5.37660195 1.62553283 3.70680947 0 2 C0 1.34 0 0.68 0 0 Z " fill="#E1E5EE" transform="translate(105,96)"/>
</svg>
