<?xml version="1.0" encoding="UTF-8"?>
<svg version="1.1" xmlns="http://www.w3.org/2000/svg" width="128" height="128">
<path d="M0 0 C1.32 0 2.64 0 4 0 C4 0.66 4 1.32 4 2 C7.96 2 11.92 2 16 2 C16 5.3 16 8.6 16 12 C12.04 12 8.08 12 4 12 C3.39667691 19.44098484 5.01524961 24.8715677 9.6875 30.625 C15.66674393 37.21571803 22.54473378 37.82468388 30.96116638 38.23483276 C39.64315726 38.51080892 48.32275132 38.34636349 57 38 C58.01180498 40.05673453 59.00901477 42.12065348 60 44.1875 C60.556875 45.33605469 61.11375 46.48460937 61.6875 47.66796875 C62.91763675 50.79090519 63.29804612 52.70286482 63 56 C62.01 56 61.02 56 60 56 C60 73.82 60 91.64 60 110 C61.98 110 63.96 110 66 110 C66 111.32 66 112.64 66 114 C23.76 114 -18.48 114 -62 114 C-62 112.68 -62 111.36 -62 110 C-60.02 110 -58.04 110 -56 110 C-56 92.18 -56 74.36 -56 56 C-56.99 56 -57.98 56 -59 56 C-58.67968211 51.19523166 -57.49608091 47.61601993 -55.44921875 43.23828125 C-54.99248779 42.25512939 -54.53575684 41.27197754 -54.06518555 40.2590332 C-53.71367432 39.51355225 -53.36216309 38.76807129 -53 38 C-51.92218262 38.04302246 -50.84436523 38.08604492 -49.73388672 38.13037109 C-27.54010829 39.94448014 -27.54010829 39.94448014 -7.36816406 33.08691406 C-0.25811879 25.84466574 0.3971368 17.27736517 0.36450195 7.47021484 C0.28697532 4.97481341 0.17186839 2.49048239 0 0 Z " fill="#FEC269" transform="translate(62,7)"/>
<path d="M0 0 C1.32 0 2.64 0 4 0 C4 0.66 4 1.32 4 2 C7.96 2 11.92 2 16 2 C16 5.3 16 8.6 16 12 C12.04 12 8.08 12 4 12 C3.39667691 19.44098484 5.01524961 24.8715677 9.6875 30.625 C15.66674393 37.21571803 22.54473378 37.82468388 30.96116638 38.23483276 C39.64315726 38.51080892 48.32275132 38.34636349 57 38 C58.01180498 40.05673453 59.00901477 42.12065348 60 44.1875 C60.556875 45.33605469 61.11375 46.48460937 61.6875 47.66796875 C62.91763675 50.79090519 63.29804612 52.70286482 63 56 C62.01 56 61.02 56 60 56 C60 57.32 60 58.64 60 60 C55.87449131 60.17445227 51.75044004 60.30070887 47.62207031 60.38452148 C46.22129884 60.41949242 44.82077858 60.46709032 43.42089844 60.52807617 C30.30616841 61.08465708 30.30616841 61.08465708 25.65625 57.09375 C24.41033882 55.75391995 23.19333609 54.38686272 22 53 C20.36223663 51.37852694 18.71588275 49.76569953 17.0625 48.16015625 C15.37240903 46.46351454 13.68493688 44.76426036 12 43.0625 C11.12988281 42.18787109 10.25976562 41.31324219 9.36328125 40.41210938 C7.23986451 38.27702551 5.11883622 36.13962795 3 34 C-0.89043633 35.57795915 -3.47695368 38.23554381 -6.3515625 41.19140625 C-6.8516684 41.69671371 -7.35177429 42.20202118 -7.86703491 42.72264099 C-9.45786943 44.33123084 -11.04183084 45.94636819 -12.625 47.5625 C-14.21617776 49.18130238 -15.80879701 50.79861821 -17.40438843 52.41307068 C-18.39547098 53.41640427 -19.38386808 54.42239908 -20.36929321 55.43128967 C-24.19211762 59.30991577 -26.01048654 60.11579683 -31.41015625 60.28125 C-32.48201172 60.31863281 -33.55386719 60.35601562 -34.65820312 60.39453125 C-36.93163688 60.46496465 -39.2050744 60.53527674 -41.47851562 60.60546875 C-42.54908203 60.64285156 -43.61964844 60.68023437 -44.72265625 60.71875 C-45.71015869 60.74904297 -46.69766113 60.77933594 -47.71508789 60.81054688 C-49.96469268 60.74927286 -49.96469268 60.74927286 -51 62 C-51.1224331 63.50316769 -51.17776285 65.01188167 -51.20532227 66.51977539 C-51.22526749 67.48069595 -51.24521271 68.44161652 -51.26576233 69.43165588 C-51.28247482 70.476436 -51.29918732 71.52121613 -51.31640625 72.59765625 C-51.33718735 73.66165146 -51.35796844 74.72564667 -51.37937927 75.82188416 C-51.44499254 79.2353544 -51.50381423 82.64890429 -51.5625 86.0625 C-51.60567403 88.37045109 -51.64928794 90.678394 -51.69335938 92.98632812 C-51.80068584 98.65746682 -51.90242992 104.32868552 -52 110 C-53.32 110 -54.64 110 -56 110 C-56 92.18 -56 74.36 -56 56 C-56.99 56 -57.98 56 -59 56 C-58.67968211 51.19523166 -57.49608091 47.61601993 -55.44921875 43.23828125 C-54.99248779 42.25512939 -54.53575684 41.27197754 -54.06518555 40.2590332 C-53.71367432 39.51355225 -53.36216309 38.76807129 -53 38 C-51.92218262 38.04302246 -50.84436523 38.08604492 -49.73388672 38.13037109 C-27.54010829 39.94448014 -27.54010829 39.94448014 -7.36816406 33.08691406 C-0.25811879 25.84466574 0.3971368 17.27736517 0.36450195 7.47021484 C0.28697532 4.97481341 0.17186839 2.49048239 0 0 Z " fill="#DB4655" transform="translate(62,7)"/>
<path d="M0 0 C2.80969467 1.28022875 4.8539238 2.60714129 7.02441406 4.79736328 C7.58469299 5.35779327 8.14497192 5.91822327 8.722229 6.49563599 C9.31404968 7.09777924 9.90587036 7.69992249 10.515625 8.3203125 C11.13145447 8.93897186 11.74728394 9.55763123 12.3817749 10.19503784 C14.34260336 12.16703814 16.29635301 14.14588737 18.25 16.125 C19.58026799 17.46530164 20.910992 18.80515083 22.2421875 20.14453125 C25.5001015 23.42446589 28.75168533 26.71055942 32 30 C32.99 29.67 33.98 29.34 35 29 C36.84610532 28.91760831 38.69505164 28.89256641 40.54296875 28.90234375 C41.61611328 28.90556641 42.68925781 28.90878906 43.79492188 28.91210938 C44.91447266 28.92048828 46.03402344 28.92886719 47.1875 28.9375 C48.88422852 28.94426758 48.88422852 28.94426758 50.61523438 28.95117188 C53.41020927 28.96296502 56.2050782 28.9794235 59 29 C59 30.32 59 31.64 59 33 C54.87449131 33.17445227 50.75044004 33.30070887 46.62207031 33.38452148 C45.22129884 33.41949242 43.82077858 33.46709032 42.42089844 33.52807617 C29.30616841 34.08465708 29.30616841 34.08465708 24.65625 30.09375 C23.41033882 28.75391995 22.19333609 27.38686272 21 26 C19.36223663 24.37852694 17.71588275 22.76569953 16.0625 21.16015625 C14.37240903 19.46351454 12.68493688 17.76426036 11 16.0625 C9.69482422 14.75055664 9.69482422 14.75055664 8.36328125 13.41210938 C6.23986451 11.27702551 4.11883622 9.13962795 2 7 C-1.89043633 8.57795915 -4.47695368 11.23554381 -7.3515625 14.19140625 C-8.10172134 14.94936745 -8.10172134 14.94936745 -8.86703491 15.72264099 C-10.45786943 17.33123084 -12.04183084 18.94636819 -13.625 20.5625 C-15.21617776 22.18130238 -16.80879701 23.79861821 -18.40438843 25.41307068 C-19.39547098 26.41640427 -20.38386808 27.42239908 -21.36929321 28.43128967 C-25.19211762 32.30991577 -27.01048654 33.11579683 -32.41015625 33.28125 C-33.48201172 33.31863281 -34.55386719 33.35601562 -35.65820312 33.39453125 C-37.93163688 33.46496465 -40.2050744 33.53527674 -42.47851562 33.60546875 C-43.54908203 33.64285156 -44.61964844 33.68023437 -45.72265625 33.71875 C-46.71015869 33.74904297 -47.69766113 33.77933594 -48.71508789 33.81054688 C-50.96469268 33.74927286 -50.96469268 33.74927286 -52 35 C-52.1224331 36.50316769 -52.17776285 38.01188167 -52.20532227 39.51977539 C-52.22526749 40.48069595 -52.24521271 41.44161652 -52.26576233 42.43165588 C-52.28247482 43.476436 -52.29918732 44.52121613 -52.31640625 45.59765625 C-52.33718735 46.66165146 -52.35796844 47.72564667 -52.37937927 48.82188416 C-52.44499254 52.2353544 -52.50381423 55.64890429 -52.5625 59.0625 C-52.60567403 61.37045109 -52.64928794 63.678394 -52.69335938 65.98632812 C-52.80068584 71.65746682 -52.90242992 77.32868552 -53 83 C-54.32 83 -55.64 83 -57 83 C-57 65.18 -57 47.36 -57 29 C-47.66666667 29 -38.33333333 29 -29 29 C-27.34375361 27.91976862 -27.34375361 27.91976862 -25.88378906 26.33789062 C-25.30348938 25.75728882 -24.7231897 25.17668701 -24.12530518 24.57849121 C-23.51161072 23.94415161 -22.89791626 23.30981201 -22.265625 22.65625 C-21.62759949 22.0125647 -20.98957397 21.36887939 -20.33221436 20.70568848 C-18.29524219 18.64631417 -16.27260864 16.57347377 -14.25 14.5 C-12.87201542 13.10195554 -11.49311988 11.70480834 -10.11328125 10.30859375 C-6.73152636 6.88272044 -3.36256713 3.44470424 0 0 Z " fill="#FDA65E" transform="translate(63,34)"/>
<path d="M0 0 C0.66209473 -0.00095673 1.32418945 -0.00191345 2.00634766 -0.00289917 C3.40852961 -0.00358076 4.8107147 -0.00172792 6.21289062 0.00244141 C8.36595713 0.00779004 10.51881502 0.0024958 12.671875 -0.00390625 C14.03125046 -0.00324546 15.3906258 -0.00196429 16.75 0 C18.61785156 0.00169189 18.61785156 0.00169189 20.5234375 0.00341797 C23.375 0.1328125 23.375 0.1328125 24.375 1.1328125 C24.375 2.7828125 24.375 4.4328125 24.375 6.1328125 C40.215 6.1328125 56.055 6.1328125 72.375 6.1328125 C72.375 7.4528125 72.375 8.7728125 72.375 10.1328125 C30.135 10.1328125 -12.105 10.1328125 -55.625 10.1328125 C-55.625 8.8128125 -55.625 7.4928125 -55.625 6.1328125 C-39.785 6.1328125 -23.945 6.1328125 -7.625 6.1328125 C-7.625 4.4828125 -7.625 2.8328125 -7.625 1.1328125 C-5.74180732 -0.75038018 -2.50569863 0.00226965 0 0 Z " fill="#DAD8DB" transform="translate(55.625,110.8671875)"/>
<path d="M0 0 C12.54 0 25.08 0 38 0 C39.98 4.62 41.96 9.24 44 14 C14.89966353 16.10298911 14.89966353 16.10298911 8.046875 11.140625 C4.7852336 8.11326155 2.27494117 4.81521313 0 1 C0 0.67 0 0.34 0 0 Z " fill="#FE7F85" transform="translate(81,45)"/>
<path d="M0 0 C12.54 0 25.08 0 38 0 C36.02 2.31 34.04 4.62 32 7 C31.22934204 8.08873413 31.22934204 8.08873413 30.44311523 9.19946289 C27.79723418 12.62322808 25.8688975 13.86182482 21.53955078 14.55029297 C17.37299075 14.77441889 13.22791641 14.61178324 9.0625 14.4375 C7.60098614 14.40234331 6.13939094 14.37041192 4.67773438 14.34179688 C1.11482828 14.2710642 -2.43668427 14.13418344 -6 14 C-4.02 9.38 -2.04 4.76 0 0 Z " fill="#FE7F85" transform="translate(9,45)"/>
<path d="M0 0 C4.08998175 1.80720124 6.66247347 4.19069751 9 8 C9.62819266 13.0255413 9.03320735 15.95572354 6 20 C3.24705395 23.21177039 0.96958591 23.86947882 -3.25 24.4375 C-8.1843364 23.86182742 -10.79803186 21.71753928 -14 18 C-15.23534045 14.29397865 -15.45528745 11.90246386 -15 8 C-10.91704021 1.64314568 -7.65816344 -0.51919752 0 0 Z " fill="#FFEEAD" transform="translate(67,55)"/>
<path d="M0 0 C0.98484375 -0.00128906 1.9696875 -0.00257812 2.984375 -0.00390625 C4.02078125 -0.00003906 5.0571875 0.00382812 6.125 0.0078125 C7.67960937 0.00201172 7.67960937 0.00201172 9.265625 -0.00390625 C10.25046875 -0.00261719 11.2353125 -0.00132813 12.25 0 C13.16007812 0.00112793 14.07015625 0.00225586 15.0078125 0.00341797 C17.125 0.1328125 17.125 0.1328125 18.125 1.1328125 C18.19830331 3.99750575 18.21717831 6.83174924 18.1875 9.6953125 C18.166875 12.4796875 18.14625 15.2640625 18.125 18.1328125 C10.205 18.1328125 2.285 18.1328125 -5.875 18.1328125 C-5.895625 15.3484375 -5.91625 12.5640625 -5.9375 9.6953125 C-5.946604 8.81689697 -5.95570801 7.93848145 -5.96508789 7.03344727 C-5.97223091 5.06635276 -5.92531893 3.09927629 -5.875 1.1328125 C-4.22105883 -0.52112867 -2.27184587 0.00281567 0 0 Z " fill="#C38C66" transform="translate(57.875,92.8671875)"/>
<path d="M0 0 C1.32 0 2.64 0 4 0 C4 0.66 4 1.32 4 2 C7.96 2 11.92 2 16 2 C16 5.3 16 8.6 16 12 C12.04 12 8.08 12 4 12 C4 15.63 4 19.26 4 23 C2.68 23 1.36 23 0 23 C0 15.41 0 7.82 0 0 Z " fill="#FF8086" transform="translate(62,7)"/>
<path d="M0 0 C1.80859375 0.6328125 1.80859375 0.6328125 3.87109375 2.1953125 C5.27134563 5.83596738 4.95545804 8.93299689 3.80859375 12.6328125 C1.55786169 15.30034679 0.26413836 15.57586942 -3.19140625 16.0078125 C-6.64695086 15.57586942 -7.94067419 15.30034679 -10.19140625 12.6328125 C-11.16195756 9.89869843 -11.50554648 7.52178072 -11.19140625 4.6328125 C-8.11917185 -0.22329993 -5.38026882 -1.11877045 0 0 Z " fill="#FDFCF9" transform="translate(67.19140625,59.3671875)"/>
<path d="M0 0 C0.66209473 -0.00095673 1.32418945 -0.00191345 2.00634766 -0.00289917 C3.40852961 -0.00358076 4.8107147 -0.00172792 6.21289062 0.00244141 C8.36595713 0.00779004 10.51881502 0.0024958 12.671875 -0.00390625 C14.03125046 -0.00324546 15.3906258 -0.00196429 16.75 0 C18.61785156 0.00169189 18.61785156 0.00169189 20.5234375 0.00341797 C23.375 0.1328125 23.375 0.1328125 24.375 1.1328125 C24.375 2.7828125 24.375 4.4328125 24.375 6.1328125 C13.815 6.1328125 3.255 6.1328125 -7.625 6.1328125 C-7.625 -1.1334638 -6.61487024 0.00599173 0 0 Z " fill="#C8C4C8" transform="translate(55.625,110.8671875)"/>
<path d="M0 0 C8.49609375 -0.09765625 8.49609375 -0.09765625 11 0 C12 1 12 1 12.1328125 3.25 C12.13023438 4.1575 12.12765625 5.065 12.125 6 C12.12757812 6.9075 12.13015625 7.815 12.1328125 8.75 C12 11 12 11 11 12 C7.3308423 12.14310287 3.67284559 12.04221662 0 12 C0 8.04 0 4.08 0 0 Z " fill="#EDF3FE" transform="translate(102,93)"/>
<path d="M0 0 C2.83203125 0.03255208 5.6640625 0.06510417 8.49609375 0.09765625 C8.49609375 4.05765625 8.49609375 8.01765625 8.49609375 12.09765625 C-0 12.1953125 -0 12.1953125 -2.50390625 12.09765625 C-3.50390625 11.09765625 -3.50390625 11.09765625 -3.63671875 8.84765625 C-3.63414063 7.94015625 -3.6315625 7.03265625 -3.62890625 6.09765625 C-3.63148437 5.19015625 -3.6340625 4.28265625 -3.63671875 3.34765625 C-3.44818505 0.15367356 -3.21403411 0.12535234 0 0 Z " fill="#DBE9FE" transform="translate(89.50390625,92.90234375)"/>
<path d="M0 0 C8.49609375 -0.09765625 8.49609375 -0.09765625 11 0 C12 1 12 1 12.1328125 3.25 C12.13023438 4.1575 12.12765625 5.065 12.125 6 C12.12757812 6.9075 12.13015625 7.815 12.1328125 8.75 C12 11 12 11 11 12 C7.3308423 12.14310287 3.67284559 12.04221662 0 12 C0 8.04 0 4.08 0 0 Z " fill="#EDF3FE" transform="translate(30,93)"/>
<path d="M0 0 C2.83203125 0.03255208 5.6640625 0.06510417 8.49609375 0.09765625 C8.49609375 4.05765625 8.49609375 8.01765625 8.49609375 12.09765625 C-0 12.1953125 -0 12.1953125 -2.50390625 12.09765625 C-3.50390625 11.09765625 -3.50390625 11.09765625 -3.63671875 8.84765625 C-3.63414063 7.94015625 -3.6315625 7.03265625 -3.62890625 6.09765625 C-3.63148437 5.19015625 -3.6340625 4.28265625 -3.63671875 3.34765625 C-3.44818505 0.15367356 -3.21403411 0.12535234 0 0 Z " fill="#DBE9FE" transform="translate(17.50390625,92.90234375)"/>
<path d="M0 0 C8.49609375 -0.09765625 8.49609375 -0.09765625 11 0 C12 1 12 1 12.1328125 3.25 C12.13023438 4.1575 12.12765625 5.065 12.125 6 C12.12757812 6.9075 12.13015625 7.815 12.1328125 8.75 C12 11 12 11 11 12 C7.3308423 12.14310287 3.67284559 12.04221662 0 12 C0 8.04 0 4.08 0 0 Z " fill="#EDF3FE" transform="translate(102,73)"/>
<path d="M0 0 C2.83203125 0.03255208 5.6640625 0.06510417 8.49609375 0.09765625 C8.49609375 4.05765625 8.49609375 8.01765625 8.49609375 12.09765625 C-0 12.1953125 -0 12.1953125 -2.50390625 12.09765625 C-3.50390625 11.09765625 -3.50390625 11.09765625 -3.63671875 8.84765625 C-3.63414063 7.94015625 -3.6315625 7.03265625 -3.62890625 6.09765625 C-3.63148437 5.19015625 -3.6340625 4.28265625 -3.63671875 3.34765625 C-3.44818505 0.15367356 -3.21403411 0.12535234 0 0 Z " fill="#DBE9FE" transform="translate(89.50390625,72.90234375)"/>
<path d="M0 0 C8.49609375 -0.09765625 8.49609375 -0.09765625 11 0 C12 1 12 1 12.1328125 3.25 C12.13023438 4.1575 12.12765625 5.065 12.125 6 C12.12757812 6.9075 12.13015625 7.815 12.1328125 8.75 C12 11 12 11 11 12 C7.3308423 12.14310287 3.67284559 12.04221662 0 12 C0 8.04 0 4.08 0 0 Z " fill="#EDF3FE" transform="translate(30,73)"/>
<path d="M0 0 C2.83203125 0.03255208 5.6640625 0.06510417 8.49609375 0.09765625 C8.49609375 4.05765625 8.49609375 8.01765625 8.49609375 12.09765625 C-0 12.1953125 -0 12.1953125 -2.50390625 12.09765625 C-3.50390625 11.09765625 -3.50390625 11.09765625 -3.63671875 8.84765625 C-3.63414063 7.94015625 -3.6315625 7.03265625 -3.62890625 6.09765625 C-3.63148437 5.19015625 -3.6340625 4.28265625 -3.63671875 3.34765625 C-3.44818505 0.15367356 -3.21403411 0.12535234 0 0 Z " fill="#DBE9FE" transform="translate(17.50390625,72.90234375)"/>
<path d="M0 0 C9.9 0 19.8 0 30 0 C30 1.32 30 2.64 30 4 C25.56271849 4.11586755 21.12582409 4.18714058 16.6875 4.25 C15.42486328 4.28351562 14.16222656 4.31703125 12.86132812 4.3515625 C11.04858398 4.37089844 11.04858398 4.37089844 9.19921875 4.390625 C7.52605591 4.4220459 7.52605591 4.4220459 5.8190918 4.45410156 C3 4 3 4 0 0 Z " fill="#E4636D" transform="translate(95,59)"/>
<path d="M0 0 C9.9 0 19.8 0 30 0 C27 4 27 4 24.1809082 4.45410156 C23.06546631 4.4331543 21.95002441 4.41220703 20.80078125 4.390625 C19.59228516 4.37773438 18.38378906 4.36484375 17.13867188 4.3515625 C15.87603516 4.31804688 14.61339844 4.28453125 13.3125 4.25 C12.03826172 4.23195313 10.76402344 4.21390625 9.45117188 4.1953125 C6.30003159 4.14810441 3.1503886 4.08226384 0 4 C0 2.68 0 1.36 0 0 Z " fill="#E4636D" transform="translate(3,59)"/>
<path d="M0 0 C1.32 0 2.64 0 4 0 C4 7.59 4 15.18 4 23 C2.68 23 1.36 23 0 23 C0 15.41 0 7.82 0 0 Z " fill="#FEC168" transform="translate(62,7)"/>
<path d="M0 0 C1.32 0 2.64 0 4 0 C4 5.94 4 11.88 4 18 C2.68 18 1.36 18 0 18 C0 12.06 0 6.12 0 0 Z " fill="#B57F5F" transform="translate(62,93)"/>
<path d="M0 0 C2.64 0 5.28 0 8 0 C8 2.64 8 5.28 8 8 C5.125 8.125 5.125 8.125 2 8 C0 6 0 6 -0.125 2.875 C-0.08375 1.92625 -0.0425 0.9775 0 0 Z " fill="#ECF3FF" transform="translate(90,93)"/>
<path d="M0 0 C2.64 0 5.28 0 8 0 C8 2.64 8 5.28 8 8 C5.125 8.125 5.125 8.125 2 8 C0 6 0 6 -0.125 2.875 C-0.08375 1.92625 -0.0425 0.9775 0 0 Z " fill="#ECF3FF" transform="translate(18,93)"/>
<path d="M0 0 C2.64 0 5.28 0 8 0 C8 2.64 8 5.28 8 8 C5.125 8.125 5.125 8.125 2 8 C0 6 0 6 -0.125 2.875 C-0.08375 1.92625 -0.0425 0.9775 0 0 Z " fill="#ECF3FF" transform="translate(90,73)"/>
<path d="M0 0 C2.64 0 5.28 0 8 0 C8 2.64 8 5.28 8 8 C5.125 8.125 5.125 8.125 2 8 C0 6 0 6 -0.125 2.875 C-0.08375 1.92625 -0.0425 0.9775 0 0 Z " fill="#ECF3FF" transform="translate(18,73)"/>
<path d="M0 0 C3.96 0 7.92 0 12 0 C11.67 1.32 11.34 2.64 11 4 C7.37 4 3.74 4 0 4 C0 2.68 0 1.36 0 0 Z " fill="#DBE9FE" transform="translate(102,101)"/>
<path d="M0 0 C3.96 0 7.92 0 12 0 C11.67 1.32 11.34 2.64 11 4 C7.37 4 3.74 4 0 4 C0 2.68 0 1.36 0 0 Z " fill="#DBE9FE" transform="translate(30,101)"/>
<path d="M0 0 C3.96 0 7.92 0 12 0 C11.67 1.32 11.34 2.64 11 4 C7.37 4 3.74 4 0 4 C0 2.68 0 1.36 0 0 Z " fill="#DBE9FE" transform="translate(102,81)"/>
<path d="M0 0 C3.96 0 7.92 0 12 0 C11.67 1.32 11.34 2.64 11 4 C7.37 4 3.74 4 0 4 C0 2.68 0 1.36 0 0 Z " fill="#DBE9FE" transform="translate(30,81)"/>
<path d="M0 0 C0.86625 0.3403125 0.86625 0.3403125 1.75 0.6875 C1.09 2.0075 0.43 3.3275 -0.25 4.6875 C-0.91 4.6875 -1.57 4.6875 -2.25 4.6875 C-2.58 6.3375 -2.91 7.9875 -3.25 9.6875 C-4.24 9.3575 -5.23 9.0275 -6.25 8.6875 C-6.5 5.875 -6.5 5.875 -6.25 2.6875 C-4.12558468 0.33546876 -3.18427034 -0.44225977 0 0 Z " fill="#6E6571" transform="translate(68.25,63.3125)"/>
<path d="M0 0 C1.32 0 2.64 0 4 0 C4 3.3 4 6.6 4 10 C2.68 10 1.36 10 0 10 C0 6.7 0 3.4 0 0 Z " fill="#E5646E" transform="translate(66,9)"/>
<path d="M0 0 C1.32 0 2.64 0 4 0 C4 2.64 4 5.28 4 8 C2.68 8 1.36 8 0 8 C0 5.36 0 2.72 0 0 Z " fill="#FFE09F" transform="translate(98,93)"/>
<path d="M0 0 C1.32 0 2.64 0 4 0 C4 2.64 4 5.28 4 8 C2.68 8 1.36 8 0 8 C0 5.36 0 2.72 0 0 Z " fill="#FFE09F" transform="translate(26,93)"/>
<path d="M0 0 C1.32 0 2.64 0 4 0 C4 2.64 4 5.28 4 8 C2.68 8 1.36 8 0 8 C0 5.36 0 2.72 0 0 Z " fill="#FFE09F" transform="translate(98,73)"/>
<path d="M0 0 C1.32 0 2.64 0 4 0 C4 2.64 4 5.28 4 8 C2.68 8 1.36 8 0 8 C0 5.36 0 2.72 0 0 Z " fill="#FFE09F" transform="translate(26,73)"/>
<path d="M0 0 C-0.66 1.32 -1.32 2.64 -2 4 C-2.66 4 -3.32 4 -4 4 C-4.66 2.68 -5.32 1.36 -6 0 C-3.50907189 -1.24546405 -2.58919267 -0.7767578 0 0 Z " fill="#918B93" transform="translate(70,64)"/>
</svg>
