<?xml version="1.0" encoding="UTF-8"?>
<svg version="1.1" xmlns="http://www.w3.org/2000/svg" width="128" height="128">
<path d="M0 0 C1.25904144 -0.00744736 1.25904144 -0.00744736 2.54351807 -0.01504517 C5.32288429 -0.02966098 8.10219344 -0.03646801 10.8815918 -0.04199219 C12.81349184 -0.04774435 14.74539186 -0.05350207 16.67729187 -0.05926514 C20.73001369 -0.06977363 24.78271569 -0.07561722 28.83544922 -0.07910156 C34.02400932 -0.08458437 39.21230674 -0.10860851 44.40078449 -0.13707352 C48.39254009 -0.15571415 52.38423262 -0.16090627 56.37602806 -0.16243744 C58.28856021 -0.16546154 60.20109131 -0.17348186 62.1135807 -0.18662262 C64.79206846 -0.20371201 67.46991707 -0.20179578 70.1484375 -0.1953125 C70.93566696 -0.20452728 71.72289642 -0.21374207 72.53398132 -0.22323608 C77.32775009 -0.18695991 80.62529056 0.49355328 84.76831055 3.16113281 C86.90435363 6.36519744 87.01039962 7.15714029 86.96362305 10.82910156 C86.95717773 11.72177734 86.95073242 12.61445312 86.9440918 13.53417969 C86.91895508 14.92733398 86.91895508 14.92733398 86.89331055 16.34863281 C86.88428711 17.28900391 86.87526367 18.229375 86.8659668 19.19824219 C86.84240111 21.51946249 86.80950171 23.84016925 86.76831055 26.16113281 C87.46956055 26.21011719 88.17081055 26.25910156 88.89331055 26.30957031 C104.11639314 27.50921541 104.11639314 27.50921541 107.76831055 31.16113281 C108.04934361 34.0381001 108.23431153 36.84043042 108.33081055 39.72363281 C108.06136819 44.84919548 108.06136819 44.84919548 109.76831055 49.16113281 C109.86723994 51.32594078 109.89802155 53.49407066 109.89331055 55.66113281 C109.89588867 56.84707031 109.8984668 58.03300781 109.90112305 59.25488281 C109.76831055 62.16113281 109.76831055 62.16113281 108.76831055 63.16113281 C106.43533622 63.20206219 104.1012583 63.20355004 101.76831055 63.16113281 C101.70643555 64.21300781 101.64456055 65.26488281 101.58081055 66.34863281 C100.62387117 70.8388868 99.28910718 72.31096411 95.76831055 75.16113281 C90.81493693 76.81225735 85.80437435 77.02080419 80.95581055 74.97363281 C78.41863491 72.87140157 76.55438435 70.93946984 74.76831055 68.16113281 C74.76831055 66.51113281 74.76831055 64.86113281 74.76831055 63.16113281 C57.93831055 63.16113281 41.10831055 63.16113281 23.76831055 63.16113281 C23.43831055 65.14113281 23.10831055 67.12113281 22.76831055 69.16113281 C20.48234216 72.62949865 18.58703407 74.58952819 14.76831055 76.16113281 C10.52530301 76.9002832 6.50506263 77.08189717 2.6315918 75.02832031 C-1.36912163 71.82439468 -2.78547809 69.12553145 -4.23168945 64.16113281 C-5.62194336 64.07025391 -5.62194336 64.07025391 -7.0402832 63.97753906 C-8.23782227 63.89375 -9.43536133 63.80996094 -10.66918945 63.72363281 C-11.86415039 63.64242187 -13.05911133 63.56121094 -14.2902832 63.47753906 C-17.23168945 63.16113281 -17.23168945 63.16113281 -18.23168945 62.16113281 C-18.33061885 59.99632485 -18.36140046 57.82819496 -18.35668945 55.66113281 C-18.35926758 54.47519531 -18.3618457 53.28925781 -18.36450195 52.06738281 C-18.23168945 49.16113281 -18.23168945 49.16113281 -17.23168945 48.16113281 C-17.13315907 45.20312081 -17.09454627 42.26419765 -17.09106445 39.30566406 C-17.07272899 37.46776112 -17.053158 35.62987016 -17.0324707 33.79199219 C-17.00354504 30.88643334 -16.9816908 27.98163971 -16.98120117 25.07592773 C-16.97785837 22.27681139 -16.94324939 19.47947121 -16.90356445 16.68066406 C-16.91063416 15.81794388 -16.91770386 14.95522369 -16.92498779 14.06636047 C-16.84012609 9.84188787 -16.55114563 7.00330324 -13.87719727 3.62866211 C-9.57759242 -0.3816836 -5.57593174 0.00785716 0 0 Z " fill="#FDCE5D" transform="translate(18.231689453125,25.8388671875)"/>
<path d="M0 0 C0.98484375 -0.00128906 1.9696875 -0.00257812 2.984375 -0.00390625 C4.02078125 -0.00003906 5.0571875 0.00382812 6.125 0.0078125 C7.67960937 0.00201172 7.67960937 0.00201172 9.265625 -0.00390625 C10.25046875 -0.00261719 11.2353125 -0.00132813 12.25 0 C13.16007812 0.00112793 14.07015625 0.00225586 15.0078125 0.00341797 C17.125 0.1328125 17.125 0.1328125 18.125 1.1328125 C18.2177833 2.51441365 18.24247043 3.90069288 18.23852539 5.28540039 C18.23841209 6.60665672 18.23841209 6.60665672 18.23829651 7.9546051 C18.23313522 8.91189011 18.22797394 9.86917511 18.22265625 10.85546875 C18.2212413 11.83067978 18.21982635 12.80589081 18.21836853 13.81065369 C18.21275133 16.93890393 18.20019593 20.06708373 18.1875 23.1953125 C18.18248722 25.31054584 18.17792393 27.42578031 18.17382812 29.54101562 C18.16277631 34.73830546 18.14602146 39.93555395 18.125 45.1328125 C23.9080049 44.56515558 26.73980909 44.260051 31.125 40.1328125 C34.59418872 38.39821814 38.33196532 38.66107373 42.125 39.1328125 C45.9276029 41.1378213 47.74290841 42.55967512 50.125 46.1328125 C50.785 43.8228125 51.445 41.5128125 52.125 39.1328125 C54.435 39.1328125 56.745 39.1328125 59.125 39.1328125 C59.15185938 41.27857887 59.17133088 43.42443895 59.1875 45.5703125 C59.19910156 46.76527344 59.21070313 47.96023437 59.22265625 49.19140625 C59.125 52.1328125 59.125 52.1328125 58.125 53.1328125 C55.79202567 53.17374187 53.45794775 53.17522973 51.125 53.1328125 C51.0321875 54.710625 51.0321875 54.710625 50.9375 56.3203125 C49.98056063 60.81056648 48.64579664 62.28264379 45.125 65.1328125 C40.17162639 66.78393704 35.1610638 66.99248388 30.3125 64.9453125 C27.77532436 62.84308126 25.9110738 60.91114953 24.125 58.1328125 C24.125 56.4828125 24.125 54.8328125 24.125 53.1328125 C7.295 53.1328125 -9.535 53.1328125 -26.875 53.1328125 C-27.205 55.1128125 -27.535 57.0928125 -27.875 59.1328125 C-30.16096839 62.60117833 -32.05627648 64.56120787 -35.875 66.1328125 C-40.14637943 66.8769054 -44.15969201 67.05525331 -48.046875 64.96484375 C-50.96398104 62.62031018 -52.6106241 60.87636973 -53.875 57.3203125 C-53.875 55.1328125 -53.875 55.1328125 -52.875 54.1328125 C-48.77710331 54.51224738 -46.33541065 54.82587207 -42.875 57.1328125 C-40.33292029 57.46624801 -40.33292029 57.46624801 -37.875 57.1328125 C-37.215 56.4728125 -36.555 55.8128125 -35.875 55.1328125 C-36.17596799 50.99450261 -36.55398016 48.61434226 -38.875 45.1328125 C-39 42.4453125 -39 42.4453125 -38.875 40.1328125 C-37.39 39.6378125 -37.39 39.6378125 -35.875 39.1328125 C-32.6875 40.9453125 -32.6875 40.9453125 -29.875 43.1328125 C-29.875 43.7928125 -29.875 44.4528125 -29.875 45.1328125 C-21.955 45.1328125 -14.035 45.1328125 -5.875 45.1328125 C-5.88660156 41.96816406 -5.89820313 38.80351563 -5.91015625 35.54296875 C-5.91794594 32.49161886 -5.9240232 29.44027006 -5.92993164 26.38891602 C-5.93497298 24.26163236 -5.94180591 22.13435219 -5.95043945 20.00708008 C-5.96251379 16.95653424 -5.96823014 13.90603405 -5.97265625 10.85546875 C-5.97781754 9.89818375 -5.98297882 8.94089874 -5.98829651 7.9546051 C-5.98837204 7.07376755 -5.98844757 6.19292999 -5.98852539 5.28540039 C-5.990746 4.50596573 -5.99296661 3.72653107 -5.99525452 2.92347717 C-5.74324725 -0.82906809 -3.1632661 0.00392048 0 0 Z " fill="#F39D45" transform="translate(68.875,35.8671875)"/>
<path d="M0 0 C4.95696581 1.23924145 7.11658466 2.78577758 10 7 C10.66 4.69 11.32 2.38 12 0 C14.31 0 16.62 0 19 0 C19.02685938 2.14576637 19.04633088 4.29162645 19.0625 6.4375 C19.07410156 7.63246094 19.08570313 8.82742187 19.09765625 10.05859375 C19 13 19 13 18 14 C15.66702567 14.04092937 13.33294775 14.04241723 11 14 C10.9071875 15.5778125 10.9071875 15.5778125 10.8125 17.1875 C9.85556063 21.67775398 8.52079664 23.14983129 5 26 C-0.00449839 27.66816613 -5.03317865 27.8978967 -9.875 25.6875 C-10.57625 25.130625 -11.2775 24.57375 -12 24 C-12.598125 23.566875 -13.19625 23.13375 -13.8125 22.6875 C-15.58043356 20.17517337 -15.19885058 17.9827587 -15 15 C-7.25 15.75 -7.25 15.75 -5 18 C-2.5 18.33333333 -2.5 18.33333333 0 18 C0.66 17.34 1.32 16.68 2 16 C1.69903201 11.86169011 1.32101984 9.48152976 -1 6 C-0.625 2.8125 -0.625 2.8125 0 0 Z " fill="#3C454D" transform="translate(109,75)"/>
<path d="M0 0 C6.27 0 12.54 0 19 0 C19 6.93 19 13.86 19 21 C12.73 21 6.46 21 0 21 C0 14.07 0 7.14 0 0 Z " fill="#08D4D6" transform="translate(38,38)"/>
<path d="M0 0 C4.43970742 1.39533662 6.90515679 3.56128532 10 7 C11.73704155 10.4740831 11.46041616 14.20156669 11 18 C8.80850458 22.38299083 6.59809038 25.20074724 2 27 C-2.34680682 27.73186033 -6.20922729 27.96798525 -10.16796875 25.828125 C-13.09140367 23.48937707 -14.73538133 21.74424002 -16 18.1875 C-16 16 -16 16 -15 15 C-10.90210331 15.37943488 -8.46041065 15.69305957 -5 18 C-2.45792029 18.33343551 -2.45792029 18.33343551 0 18 C0.66 17.34 1.32 16.68 2 16 C1.69903201 11.86169011 1.32101984 9.48152976 -1 6 C-1.1875 3.375 -1.1875 3.375 -1 1 C-0.67 0.67 -0.34 0.34 0 0 Z " fill="#39434D" transform="translate(31,75)"/>
<path d="M0 0 C5.28 0 10.56 0 16 0 C16 6.93 16 13.86 16 21 C10.72 21 5.44 21 0 21 C0 14.07 0 7.14 0 0 Z " fill="#04D3D7" transform="translate(18,38)"/>
<path d="M0 0 C2.35358251 2.35358251 2.27871904 2.92968394 2.4140625 6.1328125 C2.45273438 6.93847656 2.49140625 7.74414062 2.53125 8.57421875 C2.5621875 9.41597656 2.593125 10.25773437 2.625 11.125 C2.66367188 11.97449219 2.70234375 12.82398437 2.7421875 13.69921875 C2.83656494 15.79911684 2.91937586 17.89952891 3 20 C1.02 20.33 -0.96 20.66 -3 21 C-3.33 23.64 -3.66 26.28 -4 29 C-6 27 -6 27 -6.22705078 24.93701172 C-6.21657715 24.10959473 -6.20610352 23.28217773 -6.1953125 22.4296875 C-6.18886719 21.53378906 -6.18242188 20.63789062 -6.17578125 19.71484375 C-6.15902344 18.77769531 -6.14226562 17.84054688 -6.125 16.875 C-6.11597656 15.93011719 -6.10695313 14.98523438 -6.09765625 14.01171875 C-6.07404522 11.67422708 -6.04111516 9.33723877 -6 7 C-7.10859375 6.90203125 -8.2171875 6.8040625 -9.359375 6.703125 C-10.82301184 6.5530084 -12.28654876 6.40191535 -13.75 6.25 C-14.84441406 6.1571875 -14.84441406 6.1571875 -15.9609375 6.0625 C-19.44129602 5.68282453 -21.69202809 5.23145715 -24.515625 3.109375 C-26 1 -26 1 -26 -2 C-17.24742447 -3.75051511 -8.4811302 -2.62144024 0 0 Z " fill="#FD9A3C" transform="translate(124,55)"/>
<path d="M0 0 C-0.061875 0.886875 -0.12375 1.77375 -0.1875 2.6875 C0.0231856 6.40961226 1.08367202 7.88596702 3 11 C3.42005256 13.94036792 3.44651878 15.31847134 1.8125 17.8125 C-0.68152866 19.44651878 -2.05963208 19.42005256 -5 19 C-6.68496298 18.03114628 -8.35178756 17.03013277 -10 16 C-12.69254991 15.29329272 -12.69254991 15.29329272 -15 15 C-15.33 16.32 -15.66 17.64 -16 19 C-16.35666988 13.98680673 -16.56305357 10.14696097 -14.3125 5.5625 C-9.81087468 0.57421248 -6.71336898 -0.39490406 0 0 Z " fill="#5E6974" transform="translate(109,75)"/>
<path d="M0 0 C-0.0928125 1.3303125 -0.0928125 1.3303125 -0.1875 2.6875 C0.0231856 6.40961226 1.08367202 7.88596702 3 11 C3.41369214 13.89584495 3.38001757 15.32938076 1.9375 17.875 C-1.17414603 19.68176221 -3.60653628 18.78776836 -7 18 C-7.99 17.34 -8.98 16.68 -10 16 C-13.12521833 15.83300768 -13.12521833 15.83300768 -16 16 C-17.32218819 13.35562363 -16.75233284 12.40475984 -15.875 9.625 C-13.0629752 1.56472616 -7.99768472 -0.14810527 0 0 Z " fill="#5D6A75" transform="translate(31,75)"/>
<path d="M0 0 C3.96 0 7.92 0 12 0 C12 6.93 12 13.86 12 21 C8.04 21 4.08 21 0 21 C0 14.07 0 7.14 0 0 Z " fill="#0CD3D4" transform="translate(2,38)"/>
<path d="M0 0 C3.96 0 7.92 0 12 0 C12 4.62 12 9.24 12 14 C8.04 14 4.08 14 0 14 C0 9.38 0 4.76 0 0 Z " fill="#02D2D6" transform="translate(93,38)"/>
<path d="M0 0 C1.98 0 3.96 0 6 0 C6 8.91 6 17.82 6 27 C4.02 27 2.04 27 0 27 C0 18.09 0 9.18 0 0 Z " fill="#00D3D8" transform="translate(77,61)"/>
<path d="M0 0 C1.98 0 3.96 0 6 0 C6 8.91 6 17.82 6 27 C4.02 27 2.04 27 0 27 C0 18.09 0 9.18 0 0 Z " fill="#84F7F3" transform="translate(67,61)"/>
<path d="M0 0 C3.63 0 7.26 0 11 0 C11 4.29 11 8.58 11 13 C7.37 13 3.74 13 0 13 C0 8.71 0 4.42 0 0 Z " fill="#8AF6EF" transform="translate(38,38)"/>
<path d="M0 0 C3.63 0 7.26 0 11 0 C11 4.29 11 8.58 11 13 C7.37 13 3.74 13 0 13 C0 8.71 0 4.42 0 0 Z " fill="#82F6F1" transform="translate(18,38)"/>
<path d="M0 0 C1.7325 0.1546875 1.7325 0.1546875 3.5 0.3125 C5.65502531 3.54503796 5.96856135 4.56400923 5.5 8.3125 C4.4375 10.1875 4.4375 10.1875 2.5 11.3125 C-3.94444444 10.86805556 -3.94444444 10.86805556 -5.5 9.3125 C-5.6875 5.875 -5.6875 5.875 -5.5 2.3125 C-3.5 0.3125 -3.5 0.3125 0 0 Z " fill="#E1DCCF" transform="translate(28.5,82.6875)"/>
<path d="M0 0 C1.7325 0.1546875 1.7325 0.1546875 3.5 0.3125 C5.65502531 3.54503796 5.96856135 4.56400923 5.5 8.3125 C4.3125 10.125 4.3125 10.125 2.5 11.3125 C-0.35480169 11.74072025 -1.84492892 11.71909584 -4.3125 10.1875 C-6.02849028 7.47804166 -5.833728 5.44954316 -5.5 2.3125 C-3.5 0.3125 -3.5 0.3125 0 0 Z " fill="#E3DED1" transform="translate(106.5,82.6875)"/>
<path d="M0 0 C1.98 0 3.96 0 6 0 C6 5.61 6 11.22 6 17 C4.02 17 2.04 17 0 17 C0 11.39 0 5.78 0 0 Z " fill="#04D2D5" transform="translate(77,40)"/>
<path d="M0 0 C1.98 0 3.96 0 6 0 C6 5.61 6 11.22 6 17 C4.02 17 2.04 17 0 17 C0 11.39 0 5.78 0 0 Z " fill="#89F6F0" transform="translate(67,40)"/>
<path d="M0 0 C2.97 0.495 2.97 0.495 6 1 C6 5.29 6 9.58 6 14 C4.02 14.33 2.04 14.66 0 15 C-1 14 -1 14 -1.1328125 11.09375 C-1.13023438 9.9078125 -1.12765625 8.721875 -1.125 7.5 C-1.12757812 6.3140625 -1.13015625 5.128125 -1.1328125 3.90625 C-1 1 -1 1 0 0 Z " fill="#596774" transform="translate(1,74)"/>
<path d="M0 0 C1.98 0 3.96 0 6 0 C6 4.29 6 8.58 6 13 C4.02 13 2.04 13 0 13 C0 8.71 0 4.42 0 0 Z " fill="#8CF6EC" transform="translate(2,38)"/>
<path d="M0 0 C0.33 0 0.66 0 1 0 C1 1.65 1 3.3 1 5 C3.97 5 6.94 5 10 5 C9.34 7.64 8.68 10.28 8 13 C4.37 13 0.74 13 -3 13 C-2.01 12.67 -1.02 12.34 0 12 C0 8.04 0 4.08 0 0 Z " fill="#ED9743" transform="translate(7,76)"/>
<path d="M0 0 C1.5 1.125 1.5 1.125 3 3 C3.1875 6.1875 3.1875 6.1875 3 9 C0.36 9 -2.28 9 -5 9 C-4.5206753 4.68607774 -3.2542015 2.83430453 0 0 Z " fill="#FF9D3E" transform="translate(102,29)"/>
<path d="M0 0 C1.98 0 3.96 0 6 0 C6 2.31 6 4.62 6 7 C4.02 7 2.04 7 0 7 C0 4.69 0 2.38 0 0 Z " fill="#00D3D8" transform="translate(67,81)"/>
</svg>
