<?xml version="1.0" encoding="UTF-8"?>
<svg version="1.1" xmlns="http://www.w3.org/2000/svg" width="128" height="128">
<path d="M0 0 C1.03253906 -0.01933594 2.06507812 -0.03867188 3.12890625 -0.05859375 C7.95046263 -0.02748693 10.64838119 0.01306469 14.63671875 2.87890625 C16.39077311 5.46402201 17.28827375 7.14275157 17.8125 10.1875 C17.95300781 10.93128906 18.09351563 11.67507812 18.23828125 12.44140625 C18.5 14.625 18.5 14.625 18.5 18.625 C21.23301649 19.2680627 23.42092174 19.63211704 26.234375 19.37890625 C30.54078311 19.70343222 33.21276237 21.62194444 36.625 24.0625 C37.27227051 24.51262451 37.91954102 24.96274902 38.58642578 25.42651367 C39.91610581 26.3570289 41.24083604 27.2946569 42.56054688 28.23925781 C44.39727697 29.55160424 46.25085596 30.83598251 48.109375 32.1171875 C49.19931219 32.88865717 50.28792837 33.66199772 51.375 34.4375 C52.34179688 35.12457031 53.30859375 35.81164063 54.3046875 36.51953125 C56.5 38.625 56.5 38.625 57.47265625 41.0546875 C57.50717555 44.29950161 56.61206957 46.10292152 55.0625 48.9375 C54.58941406 49.82050781 54.11632812 50.70351563 53.62890625 51.61328125 C53.25636719 52.27714844 52.88382812 52.94101562 52.5 53.625 C53.10328125 53.18027344 53.7065625 52.73554687 54.328125 52.27734375 C55.12734375 51.71144531 55.9265625 51.14554688 56.75 50.5625 C57.53890625 49.99402344 58.3278125 49.42554688 59.140625 48.83984375 C61.5 47.625 61.5 47.625 63.625 47.69921875 C66.0543626 48.89871653 66.87423849 50.18158708 68.25 52.5 C68.67796875 53.19867188 69.1059375 53.89734375 69.546875 54.6171875 C70.5 56.625 70.5 56.625 70.5 59.625 C68.83178711 60.78149414 68.83178711 60.78149414 66.52734375 61.91015625 C57.59449942 66.22832682 57.59449942 66.22832682 51.74560547 73.68896484 C51.27910787 78.31950137 52.18892254 82.78892549 53.09863281 87.3203125 C53.74038252 91.00529868 53.76138148 94.64362651 53.75 98.375 C53.77578125 99.62796875 53.8015625 100.8809375 53.828125 102.171875 C53.3416703 107.29123166 51.74155234 110.50457471 47.9375 113.9375 C43.85878113 116.76122845 40.84581998 116.78425744 36.00854492 116.80200195 C34.84972557 116.81185875 34.84972557 116.81185875 33.66749573 116.82191467 C31.10515246 116.84166139 28.54286784 116.8533133 25.98046875 116.86328125 C25.10593866 116.86735678 24.23140858 116.8714323 23.33037758 116.87563133 C18.70161804 116.89649796 14.07288821 116.91079709 9.4440918 116.92016602 C4.66223358 116.93123161 -0.11915943 116.96563135 -4.90085316 117.00533772 C-8.57688769 117.03147924 -12.25281097 117.03985565 -15.92893028 117.04344749 C-17.69158762 117.04831987 -19.45423978 117.05995238 -21.21680641 117.07848549 C-23.68503326 117.10282511 -26.15205129 117.1019218 -28.62036133 117.0949707 C-29.34730194 117.10778076 -30.07424255 117.12059082 -30.82321167 117.13378906 C-35.66448279 117.08414183 -38.09102811 116.04249034 -41.5 112.625 C-44.33226081 108.31754767 -43.830579 103.79868941 -43.8125 98.8125 C-43.82861328 97.93529297 -43.84472656 97.05808594 -43.86132812 96.15429688 C-43.86554557 90.51556959 -43.08966583 86.64042876 -40.5 81.625 C-39.30022395 79.2254479 -39.41376713 77.81830845 -39.47265625 75.14453125 C-39.48659424 74.23493652 -39.50053223 73.3253418 -39.51489258 72.38818359 C-39.53060303 71.41445801 -39.54631348 70.44073242 -39.5625 69.4375 C-39.74706749 39.06507369 -39.74706749 39.06507369 -30.91015625 28.7734375 C-27.31319832 25.625 -27.31319832 25.625 -24.5 25.625 C-24.17 24.635 -23.84 23.645 -23.5 22.625 C-22.84902344 22.20992187 -22.19804687 21.79484375 -21.52734375 21.3671875 C-17.92740892 18.27360189 -18.18727695 13.57195726 -17.50390625 9.0703125 C-14.76810491 -0.31870223 -8.52302916 -0.15960729 0 0 Z M-9.5 9.625 C-9.83 11.605 -10.16 13.585 -10.5 15.625 C-0.6 15.13 -0.6 15.13 9.5 14.625 C9.17 12.645 8.84 10.665 8.5 8.625 C5.17783762 6.41022508 3.94966677 6.32832293 0.0625 6.3125 C-1.35869141 6.28736328 -1.35869141 6.28736328 -2.80859375 6.26171875 C-6.00805978 6.69357701 -7.30844574 7.2537283 -9.5 9.625 Z " fill="#8FBAEE" transform="translate(50.5,5.375)"/>
<path d="M0 0 C1.48271896 -0.01429802 1.48271896 -0.01429802 2.99539185 -0.02888489 C4.59071243 -0.02751778 4.59071243 -0.02751778 6.21826172 -0.02612305 C7.32088348 -0.03040817 8.42350525 -0.0346933 9.55953979 -0.03910828 C11.89466669 -0.04485159 14.22981148 -0.04535184 16.56494141 -0.04101562 C20.11376105 -0.03787208 23.66173362 -0.06125851 27.21044922 -0.08666992 C29.48388567 -0.08894474 31.75732436 -0.08964556 34.03076172 -0.08862305 C35.08216339 -0.09783279 36.13356506 -0.10704254 37.21682739 -0.11653137 C47.57261861 -0.05250065 56.39264041 1.93196636 64.02294922 9.2746582 C65.88852416 11.53513587 67.4381308 13.79837943 69.02294922 16.2746582 C69.02294922 15.2434082 69.02294922 14.2121582 69.02294922 13.1496582 C69.51821848 9.46515508 70.98884839 8.06960004 73.89794922 5.8371582 C76.65683042 3.88761669 77.57523821 3.2746582 81.02294922 3.2746582 C82.20752752 11.82054453 83.22913374 20.32607011 83.33544922 28.9621582 C83.35220703 30.22415039 83.36896484 31.48614258 83.38623047 32.78637695 C82.85242113 37.91209462 81.27639677 41.14349821 77.46044922 44.5871582 C73.38173035 47.41088665 70.3687692 47.43391564 65.53149414 47.45166016 C64.37267479 47.46151695 64.37267479 47.46151695 63.19044495 47.47157288 C60.62810168 47.4913196 58.06581706 47.5029715 55.50341797 47.51293945 C54.62888788 47.51701498 53.7543578 47.52109051 52.8533268 47.52528954 C48.22456726 47.54615616 43.59583743 47.56045529 38.96704102 47.56982422 C34.1851828 47.58088981 29.40378979 47.61528955 24.62209606 47.65499592 C20.94606153 47.68113745 17.27013825 47.68951385 13.59401894 47.6931057 C11.8313616 47.69797807 10.06870944 47.70961059 8.30614281 47.72814369 C5.83791595 47.75248331 3.37089793 47.75158 0.90258789 47.74462891 C0.17564728 47.75743896 -0.55129333 47.77024902 -1.30026245 47.78344727 C-6.14153357 47.73380003 -8.56807889 46.69214854 -11.97705078 43.2746582 C-14.80931159 38.96720587 -14.30762979 34.44834761 -14.28955078 29.4621582 C-14.30566406 28.58495117 -14.32177734 27.70774414 -14.33837891 26.80395508 C-14.34264089 21.10567819 -13.43977366 17.38762094 -10.97705078 12.2746582 C-10.42525157 9.65452551 -10.05313219 7.06409683 -9.69970703 4.41137695 C-8.97705078 2.2746582 -8.97705078 2.2746582 -7.24295044 1.15827942 C-4.67177301 0.1556106 -2.75582502 0.01464553 0 0 Z " fill="#8EBAEE" transform="translate(20.97705078125,74.725341796875)"/>
<path d="M0 0 C1.03253906 -0.01933594 2.06507812 -0.03867188 3.12890625 -0.05859375 C7.95046263 -0.02748693 10.64838119 0.01306469 14.63671875 2.87890625 C16.39077311 5.46402201 17.28827375 7.14275157 17.8125 10.1875 C17.95300781 10.93128906 18.09351563 11.67507812 18.23828125 12.44140625 C18.5 14.625 18.5 14.625 18.5 18.625 C21.23301649 19.2680627 23.42092174 19.63211704 26.234375 19.37890625 C30.54078311 19.70343222 33.21276237 21.62194444 36.625 24.0625 C37.27227051 24.51262451 37.91954102 24.96274902 38.58642578 25.42651367 C39.91610581 26.3570289 41.24083604 27.2946569 42.56054688 28.23925781 C44.39727697 29.55160424 46.25085596 30.83598251 48.109375 32.1171875 C49.19931219 32.88865717 50.28792837 33.66199772 51.375 34.4375 C52.34179688 35.12457031 53.30859375 35.81164063 54.3046875 36.51953125 C56.5 38.625 56.5 38.625 57.5 41.046875 C57.5 44.47816194 56.43761851 46.15828234 54.625 49.0625 C53.66207031 50.62097656 53.66207031 50.62097656 52.6796875 52.2109375 C51.9535153 53.34920742 51.22693467 54.48721686 50.5 55.625 C49.71028902 56.88761547 48.92124111 58.15064587 48.1328125 59.4140625 C47.33993761 60.67275542 46.54569039 61.93058503 45.75 63.1875 C45.37375488 63.78296631 44.99750977 64.37843262 44.60986328 64.99194336 C42.79112134 67.81663382 41.0192372 70.38479224 38.5 72.625 C38.025625 71.51125 37.55125 70.3975 37.0625 69.25 C34.19276636 63.52063741 29.90598798 59.20980243 25.5 54.625 C24.8090625 53.87089844 24.118125 53.11679687 23.40625 52.33984375 C11.66436371 39.91885582 -3.34644662 31.00951779 -19.5 25.625 C-19.5 29.915 -19.5 34.205 -19.5 38.625 C-21.15 38.295 -22.8 37.965 -24.5 37.625 C-24.63526139 35.37665504 -24.73210804 33.12597486 -24.8125 30.875 C-24.89951172 28.99554688 -24.89951172 28.99554688 -24.98828125 27.078125 C-24.36403675 22.66346787 -22.92203201 22.25773176 -19.5 19.625 C-18.43833154 16.32020256 -18.43833154 16.32020256 -18 12.6875 C-17.42043532 8.70299282 -16.81630627 6.11461575 -14.625 2.72265625 C-9.89808388 -0.45028619 -5.56690059 -0.10424907 0 0 Z M-9.5 9.625 C-9.83 11.605 -10.16 13.585 -10.5 15.625 C-0.6 15.13 -0.6 15.13 9.5 14.625 C9.17 12.645 8.84 10.665 8.5 8.625 C5.17783762 6.41022508 3.94966677 6.32832293 0.0625 6.3125 C-1.35869141 6.28736328 -1.35869141 6.28736328 -2.80859375 6.26171875 C-6.00805978 6.69357701 -7.30844574 7.2537283 -9.5 9.625 Z " fill="#FEB555" transform="translate(50.5,5.375)"/>
<path d="M0 0 C1.48271896 -0.01429802 1.48271896 -0.01429802 2.99539185 -0.02888489 C4.59071243 -0.02751778 4.59071243 -0.02751778 6.21826172 -0.02612305 C7.32088348 -0.03040817 8.42350525 -0.0346933 9.55953979 -0.03910828 C11.89466669 -0.04485159 14.22981148 -0.04535184 16.56494141 -0.04101562 C20.11376105 -0.03787208 23.66173362 -0.06125851 27.21044922 -0.08666992 C29.48388567 -0.08894474 31.75732436 -0.08964556 34.03076172 -0.08862305 C35.08216339 -0.09783279 36.13356506 -0.10704254 37.21682739 -0.11653137 C47.57261861 -0.05250065 56.39264041 1.93196636 64.02294922 9.2746582 C65.88852416 11.53513587 67.4381308 13.79837943 69.02294922 16.2746582 C69.02294922 15.2434082 69.02294922 14.2121582 69.02294922 13.1496582 C69.51821848 9.46515508 70.98884839 8.06960004 73.89794922 5.8371582 C76.65683042 3.88761669 77.57523821 3.2746582 81.02294922 3.2746582 C82.20752752 11.82054453 83.22913374 20.32607011 83.33544922 28.9621582 C83.35220703 30.22415039 83.36896484 31.48614258 83.38623047 32.78637695 C82.85242113 37.91209462 81.27639677 41.14349821 77.46044922 44.5871582 C74.11551522 46.90288174 72.46825021 47.39772973 68.45263672 47.37231445 C67.55673828 47.3690918 66.66083984 47.36586914 65.73779297 47.36254883 C64.33207031 47.34998047 64.33207031 47.34998047 62.89794922 47.3371582 C61.95306641 47.33264648 61.00818359 47.32813477 60.03466797 47.32348633 C57.69736535 47.31168177 55.36018861 47.29521579 53.02294922 47.2746582 C53.81056641 46.65719727 54.59818359 46.03973633 55.40966797 45.40356445 C58.94717114 42.52174199 60.76725285 40.47084482 61.30810547 35.82543945 C61.61610649 26.22384247 59.51203439 19.43708016 53.32763672 12.09887695 C45.03914295 5.53832341 36.06182732 5.62381566 25.96044922 5.5246582 C24.50794047 5.49644785 23.05546414 5.46651349 21.60302734 5.43481445 C18.07648645 5.3615541 14.55007934 5.31161486 11.02294922 5.2746582 C11.26742798 6.17812988 11.26742798 6.17812988 11.5168457 7.09985352 C12.1431307 9.79109652 12.11830842 12.26448513 12.08544922 15.0246582 C12.07642578 16.00950195 12.06740234 16.9943457 12.05810547 18.0090332 C12.04650391 18.75668945 12.03490234 19.5043457 12.02294922 20.2746582 C10.36680265 20.65684587 8.69837898 20.98860922 7.02294922 21.2746582 C6.02294922 20.2746582 6.02294922 20.2746582 5.92529297 16.89575195 C5.93196553 15.50118743 5.9439239 14.10664078 5.96044922 12.7121582 C5.96496094 12.00124023 5.96947266 11.29032227 5.97412109 10.55786133 C5.98594058 8.79675807 6.00387659 7.03569784 6.02294922 5.2746582 C0.57727236 6.30328605 -4.09522195 7.52080604 -8.97705078 10.2746582 C-8.97705078 7.6346582 -8.97705078 4.9946582 -8.97705078 2.2746582 C-5.86292608 0.46246979 -3.58701181 0.01906278 0 0 Z " fill="#5D80C6" transform="translate(20.97705078125,74.725341796875)"/>
<path d="M0 0 C1.03253906 -0.01933594 2.06507812 -0.03867188 3.12890625 -0.05859375 C7.95046263 -0.02748693 10.64838119 0.01306469 14.63671875 2.87890625 C16.39077311 5.46402201 17.28827375 7.14275157 17.8125 10.1875 C17.95300781 10.93128906 18.09351563 11.67507812 18.23828125 12.44140625 C18.5 14.625 18.5 14.625 18.5 18.625 C20.975 19.615 20.975 19.615 23.5 20.625 C21.52 25.08 21.52 25.08 19.5 29.625 C16.34556498 28.44208687 13.44814514 27.05116277 10.5 25.4375 C8.00003385 24.19691529 6.5724086 23.62993695 3.75 23.4375 C0.21454219 25.30343607 -0.75841333 28.07732345 -2.5 31.625 C-8.22210596 29.75736819 -13.87661751 27.77210968 -19.5 25.625 C-19.5 29.915 -19.5 34.205 -19.5 38.625 C-21.15 38.295 -22.8 37.965 -24.5 37.625 C-24.63526139 35.37665504 -24.73210804 33.12597486 -24.8125 30.875 C-24.89951172 28.99554688 -24.89951172 28.99554688 -24.98828125 27.078125 C-24.36403675 22.66346787 -22.92203201 22.25773176 -19.5 19.625 C-18.43833154 16.32020256 -18.43833154 16.32020256 -18 12.6875 C-17.42043532 8.70299282 -16.81630627 6.11461575 -14.625 2.72265625 C-9.89808388 -0.45028619 -5.56690059 -0.10424907 0 0 Z M-9.5 9.625 C-9.83 11.605 -10.16 13.585 -10.5 15.625 C-0.6 15.13 -0.6 15.13 9.5 14.625 C9.17 12.645 8.84 10.665 8.5 8.625 C5.17783762 6.41022508 3.94966677 6.32832293 0.0625 6.3125 C-1.35869141 6.28736328 -1.35869141 6.28736328 -2.80859375 6.26171875 C-6.00805978 6.69357701 -7.30844574 7.2537283 -9.5 9.625 Z " fill="#5E80C4" transform="translate(50.5,5.375)"/>
<path d="M0 0 C5.17201521 0.5693226 9.12081305 2.22862306 13.6875 4.5625 C14.39084473 4.91965088 15.09418945 5.27680176 15.81884766 5.64477539 C29.00323636 12.50794371 49.06503161 25.90445007 55 40 C54.49855469 39.80664062 53.99710938 39.61328125 53.48046875 39.4140625 C47.48424083 37.35062461 41.77539042 36.63551744 35.5 36.125 C26.43809723 35.31389292 19.23517111 33.59639473 12.625 26.9375 C9.60040738 23.04873807 8.40392693 18.68498252 7.0078125 14.015625 C5.55496377 9.66834122 3.35721855 5.90825083 1 2 C0.67 1.34 0.34 0.68 0 0 Z " fill="#D0E8FD" transform="translate(31,31)"/>
<path d="M0 0 C5.6586936 0.43528412 10.4465155 2.68314602 15 6 C16 9 16 9 15.0625 11 C14.5365625 11.99 14.5365625 11.99 14 13 C14 13.99 14 14.98 14 16 C15.72280458 17.67736421 15.72280458 17.67736421 18 19.25 C18.825 19.87132813 19.65 20.49265625 20.5 21.1328125 C21.325 21.74898437 22.15 22.36515625 23 23 C28.21246799 26.92909519 32.28406304 31.31529407 36.125 36.5625 C36.54007813 37.10471191 36.95515625 37.64692383 37.3828125 38.20556641 C38.5078125 39.81640625 38.5078125 39.81640625 40 43 C39.3671875 46.33984375 39.3671875 46.33984375 38 49 C37.01 49.495 37.01 49.495 36 50 C35.525625 48.88625 35.05125 47.7725 34.5625 46.625 C31.69276636 40.89563741 27.40598798 36.58480243 23 32 C22.3090625 31.24589844 21.618125 30.49179687 20.90625 29.71484375 C13.41031924 21.78537968 4.40790702 15.48205108 -5 10 C-3.84414715 6.08788267 -2.64465038 3.1254959 0 0 Z " fill="#E98A49" transform="translate(53,28)"/>
<path d="M0 0 C2.38440159 1.20496526 3.21725738 2.5101438 4.57421875 4.796875 C5.0021875 5.49554688 5.43015625 6.19421875 5.87109375 6.9140625 C6.82421875 8.921875 6.82421875 8.921875 6.82421875 11.921875 C5.22290039 13.37646484 5.22290039 13.37646484 2.984375 14.8828125 C2.16775391 15.43710938 1.35113281 15.99140625 0.50976562 16.5625 C-0.35583984 17.13484375 -1.22144531 17.7071875 -2.11328125 18.296875 C-2.94408203 18.86148438 -3.77488281 19.42609375 -4.63085938 20.0078125 C-17.60598281 28.73194219 -17.60598281 28.73194219 -24.17578125 30.921875 C-25.10114281 28.03182952 -25.53316641 25.84918207 -24.42041016 22.96191406 C-23.20540186 20.745848 -21.89145934 18.64896743 -20.48828125 16.546875 C-19.99513428 15.79680176 -19.5019873 15.04672852 -18.99389648 14.27392578 C-14.84231597 8.27669058 -8.03077842 -0.28835829 0 0 Z " fill="#DBE3ED" transform="translate(114.17578125,53.078125)"/>
<path d="M0 0 C1.03253906 -0.01933594 2.06507812 -0.03867188 3.12890625 -0.05859375 C7.95046263 -0.02748693 10.64838119 0.01306469 14.63671875 2.87890625 C16.39077311 5.46402201 17.28827375 7.14275157 17.8125 10.1875 C17.95300781 10.93128906 18.09351563 11.67507812 18.23828125 12.44140625 C18.5 14.625 18.5 14.625 18.5 18.625 C11.75 16.875 11.75 16.875 9.5 14.625 C9.17 13.614375 8.84 12.60375 8.5 11.5625 C7.84247444 8.50349194 7.84247444 8.50349194 5.5 7.625 C3.69051505 7.50323497 1.87603729 7.44954208 0.0625 7.4375 C-0.90558594 7.42332031 -1.87367187 7.40914062 -2.87109375 7.39453125 C-5.73266727 7.43350549 -5.73266727 7.43350549 -8.5 9.625 C-8.7475 10.73875 -8.995 11.8525 -9.25 13 C-10.54675641 16.7605936 -10.80558825 17.23739306 -14 19.125 C-15.155 19.62 -16.31 20.115 -17.5 20.625 C-18.16 20.295 -18.82 19.965 -19.5 19.625 C-19.12828452 17.39168505 -18.72655905 15.16335335 -18.3125 12.9375 C-18.09207031 11.69613281 -17.87164062 10.45476563 -17.64453125 9.17578125 C-14.61796787 -0.21379591 -8.72596191 -0.16340753 0 0 Z " fill="#3D3D59" transform="translate(50.5,5.375)"/>
<path d="M0 0 C5.6586936 0.43528412 10.4465155 2.68314602 15 6 C16 9 16 9 14.78515625 11.48046875 C14.21667969 12.37378906 13.64820312 13.26710938 13.0625 14.1875 C12.49660156 15.08855469 11.93070313 15.98960938 11.34765625 16.91796875 C10.90292969 17.60503906 10.45820312 18.29210937 10 19 C4.9083928 16.13597095 -0.06584484 13.12710093 -5 10 C-3.84414715 6.08788267 -2.64465038 3.1254959 0 0 Z " fill="#9D4A51" transform="translate(53,28)"/>
<path d="M0 0 C5.25452961 0.37532354 8.62044034 2.28467301 13 5 C11.02 7.97 11.02 7.97 9 11 C4.24518354 10.42365861 1.02951788 8.44931479 -3 6 C-1.125 1.125 -1.125 1.125 0 0 Z " fill="#CE7477" transform="translate(53,28)"/>
<path d="M0 0 C0.66 0.33 1.32 0.66 2 1 C1.36191406 2.00160156 0.72382812 3.00320312 0.06640625 4.03515625 C-0.76885933 5.37721217 -1.60345961 6.71968232 -2.4375 8.0625 C-2.85837891 8.71927734 -3.27925781 9.37605469 -3.71289062 10.05273438 C-6.41987464 14.44887641 -7.63096321 17.84019467 -8 23 C-9.65 23.66 -11.3 24.32 -13 25 C-14.009342 22.01006238 -14.38888002 19.88826608 -13.09960938 16.94335938 C-11.72758595 14.64979698 -10.26967579 12.44843916 -8.75 10.25 C-8.24597656 9.48300781 -7.74195312 8.71601562 -7.22265625 7.92578125 C-4.96174599 4.54925124 -3.42907608 2.28605072 0 0 Z " fill="#C2CADE" transform="translate(103,59)"/>
<path d="M0 0 C0.99 0 1.98 0 3 0 C4.75163456 3.77222089 5.22490027 6.666639 5.125 10.8125 C5.10695313 11.78832031 5.08890625 12.76414062 5.0703125 13.76953125 C5.03550781 14.87361328 5.03550781 14.87361328 5 16 C3.34385343 16.38218767 1.67542976 16.71395102 0 17 C-1 16 -1 16 -1.1328125 13.1640625 C-1.13023438 11.99617188 -1.12765625 10.82828125 -1.125 9.625 C-1.12757812 8.46226563 -1.13015625 7.29953125 -1.1328125 6.1015625 C-1 3 -1 3 0 0 Z " fill="#5A5D7E" transform="translate(28,79)"/>
<path d="M0 0 C0.99 0.33 1.98 0.66 3 1 C4.09506492 4.28519475 4.09960608 6.73663415 4.0625 10.1875 C4.05347656 11.27417969 4.04445313 12.36085938 4.03515625 13.48046875 C4.02355469 14.31191406 4.01195312 15.14335938 4 16 C2.35 15.67 0.7 15.34 -1 15 C-1.02685412 12.68756208 -1.04632841 10.3750373 -1.0625 8.0625 C-1.07410156 6.77472656 -1.08570312 5.48695312 -1.09765625 4.16015625 C-1 1 -1 1 0 0 Z " fill="#595C7D" transform="translate(27,28)"/>
<path d="M0 0 C3.16969644 1.45849358 5.80680654 3.23945413 8.5625 5.375 C9.32691406 5.96023437 10.09132813 6.54546875 10.87890625 7.1484375 C12.94139958 8.94884605 14.45066946 10.75272822 16 13 C11.30180622 13 10.79436746 12.34129002 7.5 9.25 C6.7471875 8.55390625 5.994375 7.8578125 5.21875 7.140625 C3.12129726 5.11702623 1.05147646 3.07012625 -1 1 C-0.67 0.67 -0.34 0.34 0 0 Z " fill="#EC8C45" transform="translate(75,43)"/>
<path d="M0 0 C4.41889613 1.35021826 6.34345343 3.26115668 9 7 C4.68381834 7 3.07210341 4.86729652 0 2 C0 1.34 0 0.68 0 0 Z " fill="#EB8A45" transform="translate(84,38)"/>
</svg>
