<?xml version="1.0" encoding="UTF-8"?>
<svg version="1.1" xmlns="http://www.w3.org/2000/svg" width="128" height="128">
<path d="M0 0 C5.61 0 11.22 0 17 0 C17.495 1.485 17.495 1.485 18 3 C21.96 3 25.92 3 30 3 C30.495 4.98 30.495 4.98 31 7 C29.5625 8.75 29.5625 8.75 28 10 C28.99 10.99 29.98 11.98 31 13 C30.67 13.99 30.34 14.98 30 16 C24.39 16 18.78 16 13 16 C13 15.01 13 14.02 13 13 C10.03 13 7.06 13 4 13 C5.30566661 18.38443045 7.92506011 21.42254759 11.84765625 25.1328125 C12.70549965 25.97149368 12.70549965 25.97149368 13.58067322 26.82711792 C15.39860856 28.60300511 17.22911088 30.36508134 19.0625 32.125 C20.89851013 33.89293848 22.73125296 35.66375472 24.55503845 37.44430542 C25.68729548 38.54933076 26.82668733 39.64710384 27.97389221 40.73660278 C29.97400655 42.68559693 31.74492879 44.54115305 33.10717773 46.99169922 C33 49 33 49 29 55 C40.88 55 52.76 55 65 55 C65 79.09 65 103.18 65 128 C23.42 128 -18.16 128 -61 128 C-61 103.91 -61 79.82 -61 55 C-49.12 55 -37.24 55 -25 55 C-26.32 53.02 -27.64 51.04 -29 49 C-28.26585987 44.17238771 -24.65988643 41.52988051 -21.15234375 38.45703125 C-19.97640657 37.37272554 -18.80264684 36.28605452 -17.63085938 35.19726562 C-15.79732607 33.50471706 -13.95680341 31.82928964 -12.07397461 30.19165039 C-5.49353673 24.43300391 -0.62421285 19.8575288 0.25338745 10.83334351 C0.32732025 7.22199808 0.13689441 3.60950714 0 0 Z " fill="#E5DCD8" transform="translate(62,0)"/>
<path d="M0 0 C12.21 0 24.42 0 37 0 C37 24.09 37 48.18 37 73 C24.79 73 12.58 73 0 73 C0 48.91 0 24.82 0 0 Z " fill="#EAE0DB" transform="translate(1,55)"/>
<path d="M0 0 C10.23 0 20.46 0 31 0 C31 24.09 31 48.18 31 73 C20.77 73 10.54 73 0 73 C0 71.35 0 69.7 0 68 C2.97 68 5.94 68 9 68 C9 62.72 9 57.44 9 52 C6.03 52 3.06 52 0 52 C0 49.69 0 47.38 0 45 C2.97 45 5.94 45 9 45 C9 39.72 9 34.44 9 29 C6.03 29 3.06 29 0 29 C0 26.69 0 24.38 0 22 C2.97 22 5.94 22 9 22 C9 16.72 9 11.44 9 6 C6.03 6 3.06 6 0 6 C0 4.02 0 2.04 0 0 Z " fill="#EAE0DB" transform="translate(96,55)"/>
<path d="M0 0 C5.61 0 11.22 0 17 0 C17.495 1.485 17.495 1.485 18 3 C21.96 3 25.92 3 30 3 C30.495 4.98 30.495 4.98 31 7 C29.5625 8.75 29.5625 8.75 28 10 C28.99 10.99 29.98 11.98 31 13 C30.67 13.99 30.34 14.98 30 16 C24.39 16 18.78 16 13 16 C13 15.01 13 14.02 13 13 C10.03 13 7.06 13 4 13 C5.30566661 18.38443045 7.92506011 21.42254759 11.84765625 25.1328125 C12.70549965 25.97149368 12.70549965 25.97149368 13.58067322 26.82711792 C15.39860856 28.60300511 17.22911088 30.36508134 19.0625 32.125 C20.89851013 33.89293848 22.73125296 35.66375472 24.55503845 37.44430542 C25.68729548 38.54933076 26.82668733 39.64710384 27.97389221 40.73660278 C32.8964685 45.53336474 32.8964685 45.53336474 33 49 C31.5625 51.25 31.5625 51.25 30 53 C25.15113923 51.72149265 22.61319018 50.05230423 19.21484375 46.39453125 C18.35439453 45.49412109 17.49394531 44.59371094 16.60742188 43.66601562 C14.81980062 41.75547089 13.03597184 39.84137097 11.25585938 37.92382812 C10.39669922 37.02728516 9.53753906 36.13074219 8.65234375 35.20703125 C7.87882568 34.3766333 7.10530762 33.54623535 6.30834961 32.69067383 C4.13885233 30.75707226 4.13885233 30.75707226 1.48632812 30.97558594 C-1.57172795 32.2355627 -3.16904265 33.77540413 -5.43359375 36.18359375 C-6.24763672 37.02857422 -7.06167969 37.87355469 -7.90039062 38.74414062 C-9.5880107 40.53569419 -11.27551125 42.32736036 -12.96289062 44.11914062 C-13.77822266 44.96541016 -14.59355469 45.81167969 -15.43359375 46.68359375 C-16.53272095 47.85233032 -16.53272095 47.85233032 -17.65405273 49.04467773 C-20.3235529 51.26967793 -22.66723541 52.10348962 -26 53 C-27.625 51.3125 -27.625 51.3125 -29 49 C-27.8515298 44.18889631 -24.73258001 41.59356509 -21.15234375 38.45703125 C-19.97640657 37.37272554 -18.80264684 36.28605452 -17.63085938 35.19726562 C-15.79732607 33.50471706 -13.95680341 31.82928964 -12.07397461 30.19165039 C-5.49353673 24.43300391 -0.62421285 19.8575288 0.25338745 10.83334351 C0.32732025 7.22199808 0.13689441 3.60950714 0 0 Z " fill="#7CBCD5" transform="translate(62,0)"/>
<path d="M0 0 C0.33 0.66 0.66 1.32 1 2 C2.65 2 4.3 2 6 2 C6 3.98 6 5.96 6 8 C8.97 8 11.94 8 15 8 C15 13.28 15 18.56 15 24 C12.03 24 9.06 24 6 24 C6 26.31 6 28.62 6 31 C8.97 31 11.94 31 15 31 C15 36.28 15 41.56 15 47 C12.03 47 9.06 47 6 47 C6 49.31 6 51.62 6 54 C8.97 54 11.94 54 15 54 C15 59.28 15 64.56 15 70 C12.03 70 9.06 70 6 70 C6 71.65 6 73.3 6 75 C4.02 75 2.04 75 0 75 C0 50.25 0 25.5 0 0 Z " fill="#DCD2CD" transform="translate(90,53)"/>
<path d="M0 0 C10.56 0 21.12 0 32 0 C32 8.91 32 17.82 32 27 C21.44 27 10.88 27 0 27 C0 18.09 0 9.18 0 0 Z " fill="#C97E68" transform="translate(48,101)"/>
<path d="M0 0 C4.62 0 9.24 0 14 0 C14 8.91 14 17.82 14 27 C9.38 27 4.76 27 0 27 C0 18.09 0 9.18 0 0 Z " fill="#C97E68" transform="translate(66,101)"/>
<path d="M0 0 C3.46757338 1.43766235 5.70402473 3.7145045 8.24951172 6.3828125 C8.77039871 6.91173096 9.29128571 7.44064941 9.82795715 7.9855957 C11.48472347 9.67128467 13.1272418 11.370056 14.76904297 13.0703125 C16.42409563 14.76787631 18.08196192 16.4625996 19.74226379 18.1550293 C20.7731622 19.20762292 21.80053926 20.26367916 22.82402039 21.32348633 C25.43293444 24.04781731 25.43293444 24.04781731 28.58154297 26.0703125 C28.08654297 27.5553125 28.08654297 27.5553125 27.58154297 29.0703125 C22.7326822 27.79180515 20.19473315 26.12261673 16.79638672 22.46484375 C15.50571289 21.11422852 15.50571289 21.11422852 14.18896484 19.73632812 C12.40134359 17.82578339 10.6175148 15.91168347 8.83740234 13.99414062 C7.97824219 13.09759766 7.11908203 12.20105469 6.23388672 11.27734375 C5.46036865 10.4469458 4.68685059 9.61654785 3.88989258 8.76098633 C1.7203953 6.82738476 1.7203953 6.82738476 -0.93212891 7.04589844 C-3.99018498 8.3058752 -5.58749968 9.84571663 -7.85205078 12.25390625 C-8.66609375 13.09888672 -9.48013672 13.94386719 -10.31884766 14.81445312 C-12.00646773 16.60600669 -13.69396828 18.39767286 -15.38134766 20.18945312 C-16.19667969 21.03572266 -17.01201172 21.88199219 -17.85205078 22.75390625 C-18.58480225 23.53306396 -19.31755371 24.31222168 -20.07250977 25.11499023 C-22.74200994 27.33999043 -25.08569244 28.17380212 -28.41845703 29.0703125 C-28.74845703 28.0803125 -29.07845703 27.0903125 -29.41845703 26.0703125 C-28.72079224 25.48636719 -28.72079224 25.48636719 -28.0090332 24.890625 C-24.03035427 21.49277154 -20.28166893 17.96989963 -16.65673828 14.1953125 C-15.84785156 13.35613281 -15.03896484 12.51695313 -14.20556641 11.65234375 C-12.53458056 9.90882103 -10.87331422 8.15593846 -9.22119141 6.39453125 C-8.41617188 5.56566406 -7.61115234 4.73679687 -6.78173828 3.8828125 C-6.06284424 3.12613281 -5.3439502 2.36945312 -4.60327148 1.58984375 C-2.41845703 0.0703125 -2.41845703 0.0703125 0 0 Z " fill="#4096B9" transform="translate(64.41845703125,23.9296875)"/>
<path d="M0 0 C1.12276085 -0.0049926 1.12276085 -0.0049926 2.26820374 -0.01008606 C3.85449609 -0.01515818 5.44079915 -0.0174943 7.02709961 -0.01733398 C9.45899994 -0.01951898 11.89044574 -0.03766706 14.32226562 -0.05664062 C15.86067553 -0.05957474 17.39908759 -0.06155942 18.9375 -0.0625 C20.03287331 -0.07327827 20.03287331 -0.07327827 21.15037537 -0.08427429 C26.30633318 -0.06085432 26.30633318 -0.06085432 28.53515625 2.16796875 C28.28515625 4.23046875 28.28515625 4.23046875 27.53515625 6.16796875 C23.04359533 8.41374921 16.87657717 7.35381307 11.87719727 7.35327148 C9.60999759 7.35545685 7.34328536 7.37361368 5.07617188 7.39257812 C3.63672042 7.39551237 2.19726664 7.39749696 0.7578125 7.3984375 C-0.55437256 7.40254639 -1.86655762 7.40665527 -3.21850586 7.41088867 C-6.46484375 7.16796875 -6.46484375 7.16796875 -9.46484375 5.16796875 C-8.1058871 -0.85026782 -5.69365766 0.00865256 0 0 Z " fill="#83BED6" transform="translate(54.46484375,93.83203125)"/>
<path d="M0 0 C2.88844993 0.09978282 4.05485799 0.33466835 6.625 1.8125 C8.86070183 5.63182396 8.88504105 9.06018361 8.125 13.375 C6.625 15.9375 6.625 15.9375 4.125 17.375 C0.06885102 18.16461917 -2.8389831 18.06567794 -6.3125 15.75 C-8.24731132 12.8090868 -8.80309193 10.89849544 -8.875 7.375 C-6.66616122 2.74695685 -5.25790675 0.50882969 0 0 Z " fill="#CA816B" transform="translate(63.875,39.625)"/>
<path d="M0 0 C4.29 0 8.58 0 13 0 C13.33 1.32 13.66 2.64 14 4 C12.5625 5.75 12.5625 5.75 11 7 C11.99 7.99 12.98 8.98 14 10 C13.67 10.99 13.34 11.98 13 13 C7.39 13 1.78 13 -4 13 C-4 11.68 -4 10.36 -4 9 C-2.68 9 -1.36 9 0 9 C0 6.03 0 3.06 0 0 Z " fill="#3893B7" transform="translate(79,3)"/>
<path d="M0 0 C2.97 0 5.94 0 9 0 C9 5.28 9 10.56 9 16 C6.03 16 3.06 16 0 16 C0 10.72 0 5.44 0 0 Z " fill="#83BED6" transform="translate(112,107)"/>
<path d="M0 0 C2.97 0 5.94 0 9 0 C9 5.28 9 10.56 9 16 C6.03 16 3.06 16 0 16 C0 10.72 0 5.44 0 0 Z " fill="#83BED6" transform="translate(96,107)"/>
<path d="M0 0 C2.97 0 5.94 0 9 0 C9 5.28 9 10.56 9 16 C6.03 16 3.06 16 0 16 C0 10.72 0 5.44 0 0 Z " fill="#84BFD6" transform="translate(23,107)"/>
<path d="M0 0 C2.97 0 5.94 0 9 0 C9 5.28 9 10.56 9 16 C6.03 16 3.06 16 0 16 C0 10.72 0 5.44 0 0 Z " fill="#83BED6" transform="translate(7,107)"/>
<path d="M0 0 C2.97 0 5.94 0 9 0 C9 5.28 9 10.56 9 16 C6.03 16 3.06 16 0 16 C0 10.72 0 5.44 0 0 Z " fill="#81BDD5" transform="translate(112,84)"/>
<path d="M0 0 C2.97 0 5.94 0 9 0 C9 5.28 9 10.56 9 16 C6.03 16 3.06 16 0 16 C0 10.72 0 5.44 0 0 Z " fill="#81BDD5" transform="translate(96,84)"/>
<path d="M0 0 C2.97 0 5.94 0 9 0 C9 5.28 9 10.56 9 16 C6.03 16 3.06 16 0 16 C0 10.72 0 5.44 0 0 Z " fill="#82BED5" transform="translate(23,84)"/>
<path d="M0 0 C2.97 0 5.94 0 9 0 C9 5.28 9 10.56 9 16 C6.03 16 3.06 16 0 16 C0 10.72 0 5.44 0 0 Z " fill="#81BDD5" transform="translate(7,84)"/>
<path d="M0 0 C2.97 0 5.94 0 9 0 C9 5.28 9 10.56 9 16 C6.03 16 3.06 16 0 16 C0 10.72 0 5.44 0 0 Z " fill="#81BDD5" transform="translate(112,61)"/>
<path d="M0 0 C2.97 0 5.94 0 9 0 C9 5.28 9 10.56 9 16 C6.03 16 3.06 16 0 16 C0 10.72 0 5.44 0 0 Z " fill="#82BED5" transform="translate(96,61)"/>
<path d="M0 0 C2.97 0 5.94 0 9 0 C9 5.28 9 10.56 9 16 C6.03 16 3.06 16 0 16 C0 10.72 0 5.44 0 0 Z " fill="#83BED5" transform="translate(23,61)"/>
<path d="M0 0 C2.97 0 5.94 0 9 0 C9 5.28 9 10.56 9 16 C6.03 16 3.06 16 0 16 C0 10.72 0 5.44 0 0 Z " fill="#82BED6" transform="translate(7,61)"/>
<path d="M0 0 C1.32 0 2.64 0 4 0 C4 9.24 4 18.48 4 28 C2.68 28 1.36 28 0 28 C0 18.76 0 9.52 0 0 Z " fill="#EAE0DB" transform="translate(44,100)"/>
<path d="M0 0 C1.32 0 2.64 0 4 0 C4 8.91 4 17.82 4 27 C2.68 27 1.36 27 0 27 C0 18.09 0 9.18 0 0 Z " fill="#7F412E" transform="translate(62,101)"/>
<path d="M0 0 C1.32 0 2.64 0 4 0 C4.66 0.99 5.32 1.98 6 3 C9.10213725 3.51220541 9.10213725 3.51220541 12.7578125 3.51171875 C13.42086395 3.52966995 14.08391541 3.54762115 14.76705933 3.56611633 C16.88630803 3.62032924 19.00533025 3.65414771 21.125 3.6875 C22.56122952 3.72066367 23.9974291 3.75515245 25.43359375 3.79101562 C28.95551129 3.87605964 32.47750759 3.94281873 36 4 C33.10118122 6.89881878 30.96038544 6.25865601 26.91015625 6.265625 C25.85966347 6.26849518 25.85966347 6.26849518 24.78794861 6.27142334 C23.30597576 6.27278493 21.82399098 6.2690903 20.34204102 6.26074219 C18.07475915 6.25005777 15.80827251 6.26062953 13.54101562 6.2734375 C12.10156075 6.27211559 10.66210637 6.26955253 9.22265625 6.265625 C7.91047119 6.26336914 6.59828613 6.26111328 5.24633789 6.25878906 C2 6 2 6 -1 4 C-0.67 2.68 -0.34 1.36 0 0 Z " fill="#76A8BC" transform="translate(46,95)"/>
<path d="M0 0 C2.97 0 5.94 0 9 0 C9 3.3 9 6.6 9 10 C2.84765625 10.09765625 2.84765625 10.09765625 1 10 C0 9 0 9 -0.09765625 6.93359375 C-0.06510417 4.62239583 -0.03255208 2.31119792 0 0 Z " fill="#85C0D7" transform="translate(75,80)"/>
<path d="M0 0 C2.97 0 5.94 0 9 0 C9 3.3 9 6.6 9 10 C2.84765625 10.09765625 2.84765625 10.09765625 1 10 C0 9 0 9 -0.09765625 6.93359375 C-0.06510417 4.62239583 -0.03255208 2.31119792 0 0 Z " fill="#83BFD7" transform="translate(75,63)"/>
<path d="M0 0 C2.97 0 5.94 0 9 0 C9.09765625 6.93359375 9.09765625 6.93359375 9 9 C8 10 8 10 6.15234375 10.09765625 C4.1015625 10.06510417 2.05078125 10.03255208 0 10 C0 6.7 0 3.4 0 0 Z " fill="#83BFD7" transform="translate(44,63)"/>
<path d="M0 0 C2.97 0 5.94 0 9 0 C9.09765625 6.93359375 9.09765625 6.93359375 9 9 C8 10 8 10 4.5 10.125 C1 10 1 10 0 9 C-0.14193337 5.99668982 -0.04236378 3.00782866 0 0 Z " fill="#84BFD7" transform="translate(44,80)"/>
<path d="M0 0 C2.64 0 5.28 0 8 0 C8 3.3 8 6.6 8 10 C5.36 10 2.72 10 0 10 C0 6.7 0 3.4 0 0 Z " fill="#82BFD7" transform="translate(60,80)"/>
<path d="M0 0 C2.64 0 5.28 0 8 0 C8 3.3 8 6.6 8 10 C5.36 10 2.72 10 0 10 C0 6.7 0 3.4 0 0 Z " fill="#80BED7" transform="translate(60,63)"/>
<path d="M0 0 C2.64 0 5.28 0 8 0 C8 2.64 8 5.28 8 8 C5.36 8 2.72 8 0 8 C0 5.36 0 2.72 0 0 Z " fill="#6AB2CF" transform="translate(112,107)"/>
<path d="M0 0 C2.64 0 5.28 0 8 0 C8 2.64 8 5.28 8 8 C5.36 8 2.72 8 0 8 C0 5.36 0 2.72 0 0 Z " fill="#6AB2CF" transform="translate(96,107)"/>
<path d="M0 0 C2.64 0 5.28 0 8 0 C8 2.64 8 5.28 8 8 C5.36 8 2.72 8 0 8 C0 5.36 0 2.72 0 0 Z " fill="#69B2CF" transform="translate(23,107)"/>
<path d="M0 0 C2.64 0 5.28 0 8 0 C8 2.64 8 5.28 8 8 C5.36 8 2.72 8 0 8 C0 5.36 0 2.72 0 0 Z " fill="#69B2CF" transform="translate(7,107)"/>
<path d="M0 0 C2.64 0 5.28 0 8 0 C8 2.31 8 4.62 8 7 C5.36 7 2.72 7 0 7 C0 4.69 0 2.38 0 0 Z " fill="#66B1CF" transform="translate(23,85)"/>
<path d="M0 0 C2.64 0 5.28 0 8 0 C8 2.31 8 4.62 8 7 C5.36 7 2.72 7 0 7 C0 4.69 0 2.38 0 0 Z " fill="#67B1CF" transform="translate(96,62)"/>
<path d="M0 0 C2.64 0 5.28 0 8 0 C8 2.31 8 4.62 8 7 C5.36 7 2.72 7 0 7 C0 4.69 0 2.38 0 0 Z " fill="#66B1CF" transform="translate(23,62)"/>
<path d="M0 0 C2.64 0 5.28 0 8 0 C8 2.31 8 4.62 8 7 C5.36 7 2.72 7 0 7 C0 4.69 0 2.38 0 0 Z " fill="#66B1CF" transform="translate(7,62)"/>
<path d="M0 0 C2.31 0 4.62 0 7 0 C7 2.31 7 4.62 7 7 C4.69 7 2.38 7 0 7 C0 4.69 0 2.38 0 0 Z " fill="#65B1CF" transform="translate(113,85)"/>
<path d="M0 0 C2.31 0 4.62 0 7 0 C7 2.31 7 4.62 7 7 C4.69 7 2.38 7 0 7 C0 4.69 0 2.38 0 0 Z " fill="#65B1CF" transform="translate(97,85)"/>
<path d="M0 0 C2.31 0 4.62 0 7 0 C7 2.31 7 4.62 7 7 C4.69 7 2.38 7 0 7 C0 4.69 0 2.38 0 0 Z " fill="#65B1CF" transform="translate(8,85)"/>
<path d="M0 0 C2.31 0 4.62 0 7 0 C7 2.31 7 4.62 7 7 C4.69 7 2.38 7 0 7 C0 4.69 0 2.38 0 0 Z " fill="#65B1CF" transform="translate(113,62)"/>
<path d="M0 0 C0.99 0 1.98 0 3 0 C3.08131463 1.43655854 3.13933559 2.8744483 3.1875 4.3125 C3.22230469 5.11300781 3.25710937 5.91351563 3.29296875 6.73828125 C2.93801608 9.47851584 2.10633718 10.29171079 0 12 C-0.99 11.67 -1.98 11.34 -3 11 C-2.69217504 9.35328588 -2.37860766 7.70764424 -2.0625 6.0625 C-1.88847656 5.14597656 -1.71445312 4.22945312 -1.53515625 3.28515625 C-1 1 -1 1 0 0 Z " fill="#E7D7D0" transform="translate(63,42)"/>
<path d="M0 0 C1.32 0.33 2.64 0.66 4 1 C4 2.98 4 4.96 4 7 C2.68 7 1.36 7 0 7 C0 4.69 0 2.38 0 0 Z " fill="#834431" transform="translate(68,109)"/>
<path d="M0 0 C0.99 0 1.98 0 3 0 C3 2.31 3 4.62 3 7 C1.68 7 0.36 7 -1 7 C-1.04254356 5.00045254 -1.04080783 2.99958364 -1 1 C-0.67 0.67 -0.34 0.34 0 0 Z " fill="#834431" transform="translate(57,109)"/>
<path d="M0 0 C1.32 0.33 2.64 0.66 4 1 C4 2.98 4 4.96 4 7 C2.68 7 1.36 7 0 7 C0 4.69 0 2.38 0 0 Z " fill="#C4816D" transform="translate(62,11)"/>
</svg>
