<?xml version="1.0" encoding="UTF-8"?>
<svg version="1.1" xmlns="http://www.w3.org/2000/svg" width="128" height="128">
<path d="M0 0 C0.84046875 -0.03738281 1.6809375 -0.07476563 2.546875 -0.11328125 C8.83997197 0.87797246 13.22358189 5.99650659 17.5 10.375 C18.02851562 10.90416016 18.55703125 11.43332031 19.1015625 11.97851562 C23.11929591 16.04213685 25.55898945 18.70196845 25.8125 24.5 C25.90724609 25.85158203 25.90724609 25.85158203 26.00390625 27.23046875 C24.10465381 34.99477016 15.19839542 41.53553724 9.70361328 47.08349609 C8.46555435 48.33864014 8.46555435 48.33864014 7.20248413 49.61914062 C-0.34659476 57.26513301 -7.9184088 64.88883849 -15.49763298 72.50494957 C-21.08687356 78.12181548 -26.66412654 83.75004027 -32.22611034 89.39390123 C-36.15549658 93.37914241 -40.09826803 97.35082776 -44.05106175 101.31285155 C-46.40490555 103.67293309 -48.75042953 106.04000269 -51.08553696 108.41871262 C-53.68913809 111.06843829 -56.31391076 113.69530061 -58.94482422 116.31787109 C-59.70563293 117.1022757 -60.46644165 117.8866803 -61.25030518 118.69485474 C-66.14556202 123.51547074 -69.91716368 125.5783372 -76.75 126.3125 C-78.63525391 126.62574219 -78.63525391 126.62574219 -80.55859375 126.9453125 C-95.23143243 128.93538535 -95.23143243 128.93538535 -101.75 128.3125 C-103.32242405 126.74007595 -102.95853547 125.26011995 -103 123.0625 C-102.91541822 117.21097864 -102.37107161 111.43231606 -101.6875 105.625 C-101.60338867 104.73458008 -101.51927734 103.84416016 -101.43261719 102.92675781 C-100.82007517 98.23409258 -99.94461054 95.07430412 -96.70735168 91.5499115 C-96.07605661 90.86017683 -95.44476154 90.17044216 -94.79433632 89.45980644 C-91.27617221 85.76443774 -87.70506962 82.12874984 -84.0925293 78.52563477 C-83.25591263 77.68726578 -82.41929596 76.84889679 -81.55732727 75.98512268 C-78.81545301 73.23887782 -76.06997404 70.49627036 -73.32421875 67.75390625 C-71.41050162 65.83996606 -69.49738342 63.9254275 -67.58418274 62.01097107 C-63.58745705 58.01243359 -59.58864383 54.01599293 -55.58862305 50.02075195 C-50.96335812 45.40095013 -46.34173669 40.7775268 -41.72194737 36.15224987 C-37.74657638 32.17234612 -33.76926671 28.19438766 -29.79031879 24.21805996 C-27.41729265 21.84659283 -25.04494752 19.47445506 -22.67435265 17.10055733 C-20.03880698 14.4624848 -17.40009916 11.82761739 -14.76049805 9.19360352 C-13.58153458 8.0116037 -13.58153458 8.0116037 -12.37875366 6.8057251 C-11.6625032 6.09229446 -10.94625275 5.37886383 -10.20829773 4.64381409 C-9.58503947 4.02093286 -8.96178122 3.39805162 -8.31963634 2.7562952 C-5.61734512 0.27065251 -3.58393157 0.10317379 0 0 Z M-5.0625 12.3125 C-5.57425781 12.869375 -6.08601563 13.42625 -6.61328125 14 C-6.98839844 14.433125 -7.36351563 14.86625 -7.75 15.3125 C-6.3915798 18.35582765 -4.86536976 20.43559151 -2.4921875 22.765625 C-1.55439453 23.69375 -1.55439453 23.69375 -0.59765625 24.640625 C0.05332031 25.27484375 0.70429687 25.9090625 1.375 26.5625 C2.03371094 27.2121875 2.69242188 27.861875 3.37109375 28.53125 C4.99296643 30.12961727 6.6193281 31.72311897 8.25 33.3125 C11.58632335 31.71106479 13.99064561 30.32497252 16.25 27.3125 C16.18636161 22.34870534 14.48001662 19.90066526 11.140625 16.51953125 C10.59921875 15.99746094 10.0578125 15.47539062 9.5 14.9375 C8.9740625 14.39222656 8.448125 13.84695312 7.90625 13.28515625 C5.55621323 10.96420409 3.84620816 9.43226234 0.56640625 8.7734375 C-2.17679356 9.41182127 -3.19743165 10.23056324 -5.0625 12.3125 Z M-18.81761169 26.01847839 C-19.4470871 26.61919159 -20.0765625 27.21990479 -20.72511292 27.83882141 C-21.41451462 28.50713486 -22.10391632 29.1754483 -22.81420898 29.86401367 C-23.90469543 30.91069214 -23.90469543 30.91069214 -25.01721191 31.97851562 C-31.75310639 38.46124468 -38.43197829 45.00346174 -45.09518337 51.56080151 C-49.56820456 55.96255954 -54.05671501 60.34516318 -58.59008789 64.68481445 C-62.97728563 68.885094 -67.31752786 73.12909775 -71.6295948 77.40642738 C-73.27225272 79.0210928 -74.93028078 80.62028959 -76.60424614 82.20247459 C-87.43876495 92.47176535 -92.82054613 100.18713132 -93.67835999 115.36763 C-93.70200119 116.6694371 -93.7256424 117.9712442 -93.75 119.3125 C-78.36477053 119.0427403 -69.69908292 115.5216317 -58.93583679 104.53767395 C-57.3871991 102.8971673 -55.83959925 101.25568038 -54.29296875 99.61328125 C-52.64546173 97.93212359 -50.99387684 96.25495351 -49.3384552 94.58158875 C-45.03125447 90.20627074 -40.78091303 85.77967661 -36.54089355 81.33935547 C-32.18913277 76.80211381 -27.78474566 72.31657938 -23.38476562 67.82617188 C-14.78812622 59.03757064 -6.25077823 50.19378775 2.25 41.3125 C0.81912762 38.33036101 -0.59651576 36.20973389 -2.9375 33.859375 C-3.55367188 33.240625 -4.16984375 32.621875 -4.8046875 31.984375 C-5.76761719 31.03304688 -5.76761719 31.03304688 -6.75 30.0625 C-7.39195313 29.4128125 -8.03390625 28.763125 -8.6953125 28.09375 C-9.31148438 27.48015625 -9.92765625 26.8665625 -10.5625 26.234375 C-11.40748047 25.39277832 -11.40748047 25.39277832 -12.26953125 24.53417969 C-15.16569621 22.14427048 -16.48263975 23.77537687 -18.81761169 26.01847839 Z " fill="#000000" transform="translate(102.75,-0.3125)"/>
</svg>
