<?xml version="1.0" encoding="UTF-8"?>
<svg version="1.1" xmlns="http://www.w3.org/2000/svg" width="128" height="128">
<path d="M0 0 C0.70125 0.00515625 1.4025 0.0103125 2.125 0.015625 C2.82625 0.01046875 3.5275 0.0053125 4.25 0 C6.125 0.265625 6.125 0.265625 8.125 2.265625 C8.36550903 4.25247192 8.36550903 4.25247192 8.35205078 6.71533203 C8.35189972 7.63613556 8.35174866 8.55693909 8.35159302 9.50564575 C8.34127045 10.50151703 8.33094788 11.49738831 8.3203125 12.5234375 C8.3174826 13.54162567 8.31465271 14.55981384 8.31173706 15.6088562 C8.3005177 18.869564 8.27540996 22.12999984 8.25 25.390625 C8.23997247 27.59765229 8.23084623 29.80468388 8.22265625 32.01171875 C8.20057268 37.42978072 8.16707795 42.84768343 8.125 48.265625 C8.98277542 48.25896317 8.98277542 48.25896317 9.85787964 48.25216675 C15.79471342 48.20801549 21.73150078 48.17779288 27.66845703 48.15576172 C29.88592421 48.14568675 32.10337805 48.13202641 34.32080078 48.11474609 C37.50296312 48.09056337 40.68495024 48.07915703 43.8671875 48.0703125 C45.36099442 48.05482864 45.36099442 48.05482864 46.88497925 48.03903198 C48.26618454 48.03880539 48.26618454 48.03880539 49.67529297 48.03857422 C50.4880368 48.034133 51.30078064 48.02969177 52.13815308 48.02511597 C54.125 48.265625 54.125 48.265625 56.125 50.265625 C56.390625 52.140625 56.390625 52.140625 56.375 54.265625 C56.38273437 55.3175 56.38273437 55.3175 56.390625 56.390625 C56.125 58.265625 56.125 58.265625 54.125 60.265625 C52.13815308 60.50613403 52.13815308 60.50613403 49.67529297 60.49267578 C48.75448944 60.49252472 47.83368591 60.49237366 46.88497925 60.49221802 C45.88910797 60.48189545 44.89323669 60.47157288 43.8671875 60.4609375 C42.84899933 60.4581076 41.83081116 60.45527771 40.7817688 60.45236206 C37.521061 60.4411427 34.26062516 60.41603496 31 60.390625 C28.79297271 60.38059747 26.58594112 60.37147123 24.37890625 60.36328125 C18.96084428 60.34119768 13.54294157 60.30770295 8.125 60.265625 C8.12944122 60.83747528 8.13388245 61.40932556 8.13845825 61.99850464 C8.18260951 67.93533842 8.21283212 73.87212578 8.23486328 79.80908203 C8.24493825 82.02654921 8.25859859 84.24400305 8.27587891 86.46142578 C8.30006163 89.64358812 8.31146797 92.82557524 8.3203125 96.0078125 C8.33063507 97.00368378 8.34095764 97.99955505 8.35159302 99.02560425 C8.35181961 100.40680954 8.35181961 100.40680954 8.35205078 101.81591797 C8.356492 102.6286618 8.36093323 103.44140564 8.36550903 104.27877808 C8.125 106.265625 8.125 106.265625 6.125 108.265625 C4.25 108.53125 4.25 108.53125 2.125 108.515625 C1.42375 108.52078125 0.7225 108.5259375 0 108.53125 C-1.875 108.265625 -1.875 108.265625 -3.875 106.265625 C-4.79646464 103.48978532 -4.99751114 100.9592329 -4.98852539 98.04785156 C-4.98844986 97.22730286 -4.98837433 96.40675415 -4.98829651 95.56134033 C-4.98313522 94.68516052 -4.97797394 93.80898071 -4.97265625 92.90625 C-4.9712413 92.00187195 -4.96982635 91.0974939 -4.96836853 90.16571045 C-4.96277911 87.28231473 -4.95022853 84.39899718 -4.9375 81.515625 C-4.93248363 79.55859487 -4.92792096 77.60156353 -4.92382812 75.64453125 C-4.91281313 70.85153247 -4.89555574 66.05859198 -4.875 61.265625 C-5.4343222 61.25753815 -5.99364441 61.24945129 -6.56991577 61.24111938 C-12.37725045 61.15524151 -18.18423715 61.0557461 -23.99121094 60.94824219 C-26.16009693 60.90989509 -28.32904777 60.87505245 -30.49804688 60.84375 C-33.61091332 60.79822362 -36.72333106 60.74020927 -39.8359375 60.6796875 C-40.809935 60.66813629 -41.7839325 60.65658508 -42.78744507 60.64468384 C-44.13861923 60.6148793 -44.13861923 60.6148793 -45.51708984 60.58447266 C-46.31206879 60.57114899 -47.10704773 60.55782532 -47.92611694 60.5440979 C-49.875 60.265625 -49.875 60.265625 -51.875 58.265625 C-52.140625 56.390625 -52.140625 56.390625 -52.125 54.265625 C-52.13015625 53.564375 -52.1353125 52.863125 -52.140625 52.140625 C-51.875 50.265625 -51.875 50.265625 -49.875 48.265625 C-47.88815308 48.02511597 -47.88815308 48.02511597 -45.42529297 48.03857422 C-44.50448944 48.03872528 -43.58368591 48.03887634 -42.63497925 48.03903198 C-41.63910797 48.04935455 -40.64323669 48.05967712 -39.6171875 48.0703125 C-38.59899933 48.0731424 -37.58081116 48.07597229 -36.5317688 48.07888794 C-33.271061 48.0901073 -30.01062516 48.11521504 -26.75 48.140625 C-24.54297271 48.15065253 -22.33594112 48.15977877 -20.12890625 48.16796875 C-14.71084428 48.19005232 -9.29294157 48.22354705 -3.875 48.265625 C-3.87944122 47.69377472 -3.88388245 47.12192444 -3.88845825 46.53274536 C-3.93260951 40.59591158 -3.96283212 34.65912422 -3.98486328 28.72216797 C-3.99493825 26.50470079 -4.00859859 24.28724695 -4.02587891 22.06982422 C-4.05006163 18.88766188 -4.06146797 15.70567476 -4.0703125 12.5234375 C-4.08063507 11.52756622 -4.09095764 10.53169495 -4.10159302 9.50564575 C-4.10181961 8.12444046 -4.10181961 8.12444046 -4.10205078 6.71533203 C-4.106492 5.9025882 -4.11093323 5.08984436 -4.11550903 4.25247192 C-3.77886365 1.47144191 -2.79351342 0.39574773 0 0 Z " fill="#000000" transform="translate(61.875,9.734375)"/>
</svg>
