<?xml version="1.0" encoding="UTF-8"?>
<svg version="1.1" xmlns="http://www.w3.org/2000/svg" width="128" height="128">
<path d="M0 0 C1.69154647 -0.01653294 3.38302383 -0.04378815 5.07421875 -0.08203125 C7.51892155 -0.13700599 9.96198756 -0.15870539 12.40722656 -0.17333984 C13.1574408 -0.19600922 13.90765503 -0.21867859 14.68060303 -0.24203491 C18.61175667 -0.22633958 21.19482675 0.26828207 24.23632812 2.69140625 C28.11182547 6.71391541 28.79785156 9.84854328 28.79785156 15.35009766 C30.53421875 15.29789063 30.53421875 15.29789063 32.30566406 15.24462891 C33.84471197 15.21647559 35.38377567 15.18917709 36.92285156 15.16259766 C38.06367188 15.12489258 38.06367188 15.12489258 39.22753906 15.08642578 C44.18701671 15.0222946 47.48779196 15.62345934 51.79785156 18.35009766 C55.01321936 21.99418116 55.31756737 25.50107464 55.15332031 30.19384766 C54.6108172 33.48463578 53.25575615 35.16529358 50.79785156 37.35009766 C48.65722656 37.97509766 48.65722656 37.97509766 46.79785156 38.35009766 C46.80673401 39.30952271 46.81561646 40.26894775 46.82476807 41.25744629 C46.90602147 50.32003213 46.96589716 59.38254359 47.00510025 68.44541168 C47.02593293 73.10422504 47.05417118 77.76274321 47.09960938 82.42138672 C47.14322186 86.92124819 47.16702114 91.42082658 47.17736053 95.92088318 C47.18472435 97.63362582 47.19910412 99.34635381 47.22077179 101.05897522 C47.428608 118.17447316 47.428608 118.17447316 42.79785156 124.35009766 C38.42285445 127.82991226 35.53298179 128.85262863 29.96972656 128.86767578 C29.31524536 128.87468506 28.66076416 128.88169434 27.9864502 128.88891602 C25.839809 128.90640931 23.69450432 128.89490606 21.54785156 128.88134766 C20.04622141 128.88404511 18.54459296 128.88792964 17.04296875 128.89294434 C13.90249938 128.89882758 10.76248644 128.89031499 7.62207031 128.87158203 C3.60703192 128.84879244 -0.40693683 128.86192193 -4.42193604 128.88587189 C-7.52075179 128.90036211 -10.61931611 128.89570929 -13.71813965 128.88536072 C-15.19804004 128.8827023 -16.67796365 128.88593195 -18.15783691 128.89527893 C-20.23050951 128.90549877 -22.30147708 128.88987207 -24.37402344 128.86767578 C-25.55061523 128.86449341 -26.72720703 128.86131104 -27.93945312 128.85803223 C-33.31655198 128.0209285 -36.34344527 125.49527304 -39.55273438 121.21533203 C-42.63834388 114.26622156 -41.68704111 105.95730186 -41.59277344 98.50634766 C-41.58530387 96.76900893 -41.57961432 95.03166172 -41.57562256 93.29431152 C-41.56042248 88.74361504 -41.52118999 84.19343728 -41.47680664 79.64294434 C-41.43573182 74.99071263 -41.41758558 70.33839631 -41.39746094 65.68603516 C-41.35468962 56.57382933 -41.28650734 47.46200679 -41.20214844 38.35009766 C-41.99032959 38.05756104 -42.77851074 37.76502441 -43.59057617 37.46362305 C-46.61113766 36.17571233 -47.61729133 35.19876365 -49.20214844 32.35009766 C-50.05835674 27.60624084 -49.8862103 23.56620763 -47.51464844 19.35009766 C-42.50365813 15.0162682 -37.70227091 15.08752164 -31.38964844 15.22509766 C-30.20725586 15.23863281 -30.20725586 15.23863281 -29.00097656 15.25244141 C-27.06790178 15.27587262 -25.13498464 15.31173928 -23.20214844 15.35009766 C-23.18087891 14.46257813 -23.18087891 14.46257813 -23.15917969 13.55712891 C-22.8898168 9.094441 -22.6646624 6.91934561 -19.76464844 3.35009766 C-14.05051198 -1.10971617 -6.97536383 0.04995905 0 0 Z M-15.20214844 9.35009766 C-15.53214844 11.33009766 -15.86214844 13.31009766 -16.20214844 15.35009766 C-3.66214844 15.35009766 8.87785156 15.35009766 21.79785156 15.35009766 C21.493419 9.53377456 21.493419 9.53377456 18.61035156 7.5 C15.46510084 6.21405114 13.18899364 5.96278734 9.79785156 5.95166016 C8.66347656 5.94779297 7.52910156 5.94392578 6.36035156 5.93994141 C5.18472656 5.95154297 4.00910156 5.96314453 2.79785156 5.97509766 C1.62222656 5.96349609 0.44660156 5.95189453 -0.76464844 5.93994141 C-2.46621094 5.94574219 -2.46621094 5.94574219 -4.20214844 5.95166016 C-5.74902344 5.95673584 -5.74902344 5.95673584 -7.32714844 5.96191406 C-10.74187778 6.42297212 -12.56593913 7.12050009 -15.20214844 9.35009766 Z M-42.20214844 24.35009766 C-41.9465352 26.69321896 -41.60944071 29.02853169 -41.20214844 31.35009766 C-38.07574719 32.91329828 -34.7443763 32.50627005 -31.31176758 32.51123047 C-30.08960793 32.51867783 -30.08960793 32.51867783 -28.84275818 32.52627563 C-26.14093184 32.54090996 -23.43916419 32.54770082 -20.73730469 32.55322266 C-18.86404925 32.55897238 -16.99079384 32.56473014 -15.11753845 32.57049561 C-11.18748703 32.58100875 -7.25745609 32.58684959 -3.32739258 32.59033203 C1.71464351 32.59582212 6.75641027 32.61985977 11.79836178 32.64830399 C15.66818541 32.66690255 19.53794375 32.67213444 23.4078083 32.67366791 C25.26699867 32.67670049 27.12618773 32.68474931 28.9853344 32.69785309 C31.58312528 32.71485818 34.18025262 32.71304726 36.77807617 32.70654297 C37.54961029 32.71575775 38.32114441 32.72497253 39.11605835 32.73446655 C43.18995003 32.70656669 43.18995003 32.70656669 46.81080627 31.02313232 C48.08236951 29.22387659 48.08236951 29.22387659 47.61035156 26.22509766 C47.20816406 24.80197266 47.20816406 24.80197266 46.79785156 23.35009766 C43.67080162 21.78657268 40.34027628 22.20282289 36.9074707 22.20483398 C36.0926976 22.20147537 35.2779245 22.19811676 34.4384613 22.19465637 C31.7366281 22.18513293 29.03485677 22.18320259 26.33300781 22.18212891 C24.45975214 22.1789174 22.58649672 22.17555341 20.71324158 22.17204285 C16.78318703 22.16604817 12.8531545 22.16420331 8.9230957 22.16479492 C3.88111957 22.16489659 -1.16071588 22.15124119 -6.20265865 22.13402271 C-10.07248079 22.12291793 -13.94226874 22.12087524 -17.81210518 22.12140465 C-19.67128548 22.12022235 -21.5304666 22.11578668 -23.38963127 22.10807228 C-25.98731284 22.0983026 -28.58468679 22.10113835 -31.18237305 22.10717773 C-31.95390717 22.10155823 -32.72544128 22.09593872 -33.52035522 22.09014893 C-37.29361546 22.11250259 -38.98178253 22.20318705 -42.20214844 24.35009766 Z M-34.20214844 39.35009766 C-34.26031594 52.76024548 -34.26031594 52.76024548 -34.29980469 66.17041016 C-34.31176235 71.63952513 -34.32591165 77.10857316 -34.35302734 82.57763672 C-34.37475077 86.986684 -34.38671603 91.3956595 -34.39190292 95.80475616 C-34.39559957 97.48727804 -34.40281815 99.16979596 -34.41360855 100.85228729 C-34.42811686 103.20808924 -34.43012666 105.56359419 -34.42919922 107.91943359 C-34.43638977 108.61570862 -34.44358032 109.31198364 -34.45098877 110.02935791 C-34.43567983 113.62073314 -34.30997155 116.37015679 -32.20214844 119.35009766 C-25.94783456 123.17061835 -19.60251682 122.76957536 -12.44433594 122.71337891 C-11.22312042 122.71387741 -10.00190491 122.71437592 -8.74368286 122.71488953 C-6.17008837 122.71255526 -3.59649132 122.70286513 -1.02294922 122.6862793 C2.91622296 122.66263744 6.85471995 122.66572993 10.79394531 122.67236328 C13.2978556 122.66678774 15.80176303 122.65967864 18.30566406 122.65087891 C19.4828299 122.65179031 20.65999573 122.65270172 21.87283325 122.65364075 C22.97102386 122.64410873 24.06921448 122.63457672 25.20068359 122.62475586 C26.64460983 122.61784477 26.64460983 122.61784477 28.1177063 122.61079407 C31.79947808 122.25266994 34.6808639 121.26762324 37.54785156 118.91259766 C40.36917649 115.38594149 39.93361159 111.39520755 39.91137695 107.12475586 C39.91152298 106.39279999 39.91166901 105.66084412 39.91181946 104.90670776 C39.91112296 102.48806797 39.90334285 100.06950524 39.89550781 97.65087891 C39.8936427 95.9736485 39.89221924 94.29641755 39.89122009 92.6191864 C39.88740226 88.20509334 39.87757822 83.79103319 39.86651611 79.37695312 C39.85448757 74.08058095 39.84989626 68.78419778 39.84406281 63.48781586 C39.83436609 55.4418869 39.8152044 47.39603016 39.79785156 39.35009766 C15.37785156 39.35009766 -9.04214844 39.35009766 -34.20214844 39.35009766 Z " fill="#000000" transform="translate(61.2021484375,-0.35009765625)"/>
<path d="M0 0 C2.625 0.375 2.625 0.375 5 1 C5.02312764 8.93613787 5.04091723 16.87226176 5.05181217 24.80842495 C5.05704008 28.49314498 5.06413605 32.17784203 5.07543945 35.86254883 C5.08627162 39.41570831 5.09227753 42.96884563 5.09487724 46.52202034 C5.0967309 47.88045666 5.10035038 49.23889171 5.10573006 50.59731865 C5.11294475 52.49382223 5.11340809 54.39034793 5.11352539 56.28686523 C5.115746 57.36830307 5.11796661 58.44974091 5.12025452 59.56394958 C5 62 5 62 4 63 C2.33382885 63.04063832 0.66611905 63.042721 -1 63 C-2.32323027 60.35353946 -2.13437702 58.35225664 -2.14526367 55.38867188 C-2.15164352 54.21405396 -2.15802338 53.03943604 -2.16459656 51.82922363 C-2.16570938 50.55526733 -2.1668222 49.28131104 -2.16796875 47.96875 C-2.17129715 46.66675659 -2.17462555 45.36476318 -2.17805481 44.02331543 C-2.18404563 41.26602347 -2.18589471 38.50876286 -2.18530273 35.75146484 C-2.185201 32.21375156 -2.19886516 28.67623847 -2.21607494 25.13857269 C-2.22984713 21.76946179 -2.22928302 18.40038873 -2.23046875 15.03125 C-2.23765427 13.7572937 -2.24483978 12.4833374 -2.25224304 11.17077637 C-2.24916641 9.99615845 -2.24608978 8.82154053 -2.24291992 7.61132812 C-2.24434494 6.5736731 -2.24576996 5.53601807 -2.24723816 4.46691895 C-2 2 -2 2 0 0 Z " fill="#000000" transform="translate(80,46)"/>
<path d="M0 0 C4.70588235 0.70588235 4.70588235 0.70588235 6 2 C6.09904898 3.83043048 6.12799205 5.66469486 6.12939453 7.49780273 C6.13254669 8.67249619 6.13569885 9.84718964 6.13894653 11.05747986 C6.1369223 12.33659744 6.13489807 13.61571503 6.1328125 14.93359375 C6.13376923 16.23700211 6.13472595 17.54041046 6.13571167 18.88331604 C6.13718851 21.64658793 6.1350349 24.40982756 6.13037109 27.1730957 C6.12467938 30.71862837 6.12794934 34.26408526 6.13394356 37.80961514 C6.13842292 41.18428078 6.13528775 44.55892595 6.1328125 47.93359375 C6.13584885 49.84923378 6.13584885 49.84923378 6.13894653 51.80357361 C6.13579437 52.98141922 6.13264221 54.15926483 6.12939453 55.37280273 C6.12820114 56.93380959 6.12820114 56.93380959 6.12698364 58.52635193 C6 61 6 61 5 63 C3.33388095 63.042721 1.66617115 63.04063832 0 63 C-1.76723811 61.23276189 -1.12762833 58.6968116 -1.12939453 56.30273438 C-1.13254669 55.08477173 -1.13569885 53.86680908 -1.13894653 52.61193848 C-1.13715675 51.27254195 -1.1351058 49.93314576 -1.1328125 48.59375 C-1.1334856 47.2299396 -1.13445567 45.86612932 -1.13571167 44.50231934 C-1.13718838 41.64069479 -1.13503497 38.7791014 -1.13037109 35.91748047 C-1.12467381 32.24181386 -1.12795296 28.56622026 -1.13394356 24.89055634 C-1.13754991 22.07337896 -1.13641025 19.25621902 -1.13381577 16.43904114 C-1.1331467 15.08339937 -1.13397421 13.72775604 -1.13629532 12.37211609 C-1.13882301 10.48049956 -1.13429014 8.58887751 -1.12939453 6.69726562 C-1.12859894 5.61884399 -1.12780334 4.54042236 -1.12698364 3.42932129 C-1 1 -1 1 0 0 Z " fill="#000000" transform="translate(44,46)"/>
<path d="M0 0 C1.65 0.33 3.3 0.66 5 1 C5 21.46 5 41.92 5 63 C3.02 63 1.04 63 -1 63 C-2.03495278 59.89514167 -2.13281443 57.73042265 -2.14526367 54.47460938 C-2.15164352 53.34333618 -2.15802338 52.21206299 -2.16459656 51.04650879 C-2.16570938 49.82459839 -2.1668222 48.60268799 -2.16796875 47.34375 C-2.17129715 46.0899353 -2.17462555 44.83612061 -2.17805481 43.54431152 C-2.18312115 40.89132134 -2.18589534 38.2384336 -2.18530273 35.58544922 C-2.185201 32.18574325 -2.1988678 28.7862456 -2.21607494 25.38658905 C-2.22986243 22.14315042 -2.22928339 18.89971398 -2.23046875 15.65625 C-2.23765427 14.4343396 -2.24483978 13.2124292 -2.25224304 11.95349121 C-2.24916641 10.82221802 -2.24608978 9.69094482 -2.24291992 8.52539062 C-2.24434494 7.5285022 -2.24576996 6.53161377 -2.24723816 5.5045166 C-2 3 -2 3 0 0 Z " fill="#000000" transform="translate(62,46)"/>
</svg>
