<?xml version="1.0" encoding="UTF-8"?>
<svg xmlns="http://www.w3.org/2000/svg" xmlns:xlink="http://www.w3.org/1999/xlink" width="75px" height="63px" viewBox="0 0 75 63" version="1.1">
<g id="surface1">
<path style=" stroke:none;fill-rule:nonzero;fill:rgb(100%,88.235294%,88.627451%);fill-opacity:1;" d="M 54.796875 6.257812 L 67.3125 28.023438 C 68.335938 29.820312 68.335938 32.027344 67.3125 33.824219 L 54.800781 55.578125 C 53.746094 57.324219 51.851562 58.386719 49.8125 58.375 L 24.769531 58.375 C 22.714844 58.375 20.8125 57.28125 19.773438 55.503906 C 19.773438 55.5 19.773438 55.5 19.773438 55.5 L 7.257812 33.738281 C 6.226562 31.945312 6.226562 29.738281 7.257812 27.945312 L 19.773438 6.183594 C 20.816406 4.421875 22.714844 3.347656 24.761719 3.363281 L 49.804688 3.363281 C 51.863281 3.363281 53.769531 4.46875 54.796875 6.257812 Z M 54.796875 6.257812 "/>
<path style=" stroke:none;fill-rule:nonzero;fill:rgb(93.72549%,58.823529%,60%);fill-opacity:1;" d="M 52.515625 9.140625 L 63.554688 28.339844 C 63.554688 28.339844 63.558594 28.339844 63.558594 28.339844 C 64.460938 29.925781 64.460938 31.871094 63.558594 33.457031 C 63.558594 33.457031 63.554688 33.457031 63.554688 33.457031 L 52.519531 52.644531 C 51.589844 54.1875 49.917969 55.125 48.117188 55.113281 L 26.027344 55.113281 C 24.214844 55.113281 22.535156 54.148438 21.621094 52.578125 L 10.582031 33.382812 L 10.582031 33.378906 C 9.671875 31.800781 9.671875 29.851562 10.582031 28.269531 L 21.621094 9.074219 C 22.542969 7.519531 24.21875 6.574219 26.019531 6.585938 L 48.113281 6.585938 C 49.929688 6.585938 51.609375 7.558594 52.515625 9.140625 Z M 52.515625 9.140625 "/>
<path style=" stroke:none;fill-rule:nonzero;fill:rgb(87.45098%,17.647059%,20%);fill-opacity:1;" d="M 49.390625 29.515625 L 39.480469 29.515625 L 39.480469 19.585938 C 39.480469 18.488281 38.59375 17.601562 37.5 17.601562 C 36.40625 17.601562 35.519531 18.488281 35.519531 19.585938 L 35.519531 29.515625 L 25.609375 29.515625 C 24.515625 29.515625 23.628906 30.402344 23.628906 31.5 C 23.628906 32.597656 24.515625 33.484375 25.609375 33.484375 L 35.519531 33.484375 L 35.519531 43.414062 C 35.519531 44.511719 36.40625 45.398438 37.5 45.398438 C 38.59375 45.398438 39.480469 44.511719 39.480469 43.414062 L 39.480469 33.484375 L 49.390625 33.484375 C 50.484375 33.484375 51.371094 32.597656 51.371094 31.5 C 51.371094 30.402344 50.484375 29.515625 49.390625 29.515625 Z M 49.390625 29.515625 "/>
</g>
</svg>
