<?xml version="1.0" encoding="UTF-8"?>
<svg xmlns="http://www.w3.org/2000/svg" xmlns:xlink="http://www.w3.org/1999/xlink" width="64px" height="54px" viewBox="0 0 64 54" version="1.1">
<g id="surface1">
<path style=" stroke:none;fill-rule:nonzero;fill:rgb(100%,88.235294%,88.627451%);fill-opacity:1;" d="M 46.757812 5.363281 L 46.757812 5.367188 L 57.4375 24.019531 C 57.4375 24.019531 57.441406 24.019531 57.441406 24.019531 C 58.3125 25.558594 58.3125 27.449219 57.441406 28.992188 C 57.441406 28.992188 57.4375 28.992188 57.4375 28.992188 L 46.765625 47.636719 C 45.863281 49.136719 44.246094 50.046875 42.503906 50.035156 L 21.136719 50.035156 C 19.382812 50.035156 17.757812 49.097656 16.875 47.574219 C 16.875 47.574219 16.875 47.570312 16.875 47.570312 L 6.195312 28.917969 C 5.3125 27.382812 5.3125 25.488281 6.195312 23.953125 L 16.871094 5.300781 C 17.765625 3.789062 19.386719 2.871094 21.128906 2.882812 L 42.5 2.882812 C 44.257812 2.882812 45.882812 3.828125 46.757812 5.363281 Z M 46.757812 5.363281 "/>
<path style=" stroke:none;fill-rule:nonzero;fill:rgb(93.72549%,58.823529%,60%);fill-opacity:1;" d="M 44.8125 7.832031 L 44.8125 7.835938 L 54.234375 24.289062 C 55.007812 25.648438 55.007812 27.316406 54.234375 28.675781 L 44.816406 45.125 C 44.023438 46.449219 42.597656 47.25 41.0625 47.238281 L 22.210938 47.238281 C 20.664062 47.238281 19.230469 46.414062 18.449219 45.066406 L 9.03125 28.613281 L 9.027344 28.613281 C 8.25 27.257812 8.25 25.585938 9.027344 24.230469 L 9.03125 24.230469 L 18.449219 7.777344 C 19.234375 6.445312 20.664062 5.632812 22.203125 5.644531 L 41.054688 5.644531 C 42.605469 5.644531 44.039062 6.480469 44.8125 7.832031 Z M 44.8125 7.832031 "/>
<path style=" stroke:none;fill-rule:evenodd;fill:rgb(100%,100%,100%);fill-opacity:1;" d="M 44.695312 21.132812 C 44.664062 21.195312 44.632812 21.253906 44.582031 21.300781 L 27.636719 38.359375 C 27.570312 38.476562 27.476562 38.574219 27.347656 38.625 L 18.933594 40.996094 C 18.917969 41.003906 18.898438 41.007812 18.878906 41.011719 L 18.847656 41.019531 C 18.84375 41.023438 18.839844 41.023438 18.835938 41.023438 C 18.777344 41.039062 18.71875 41.050781 18.660156 41.050781 C 18.601562 41.054688 18.546875 41.042969 18.488281 41.027344 C 18.476562 41.023438 18.464844 41.023438 18.453125 41.019531 C 18.445312 41.019531 18.445312 41.015625 18.4375 41.011719 C 18.386719 40.992188 18.339844 40.960938 18.292969 40.925781 C 18.269531 40.910156 18.246094 40.894531 18.226562 40.875 C 18.203125 40.855469 18.191406 40.828125 18.171875 40.804688 C 18.136719 40.757812 18.109375 40.710938 18.085938 40.65625 C 18.085938 40.652344 18.082031 40.648438 18.078125 40.644531 C 18.074219 40.632812 18.078125 40.621094 18.074219 40.609375 C 18.058594 40.550781 18.046875 40.496094 18.046875 40.4375 C 18.046875 40.375 18.0625 40.316406 18.074219 40.261719 C 18.078125 40.257812 18.078125 40.25 18.078125 40.246094 L 18.085938 40.21875 C 18.09375 40.199219 18.09375 40.179688 18.101562 40.160156 L 20.460938 31.691406 C 20.507812 31.5625 20.609375 31.46875 20.722656 31.402344 L 37.410156 14.605469 C 37.433594 14.578125 37.464844 14.554688 37.488281 14.527344 L 37.671875 14.34375 C 37.679688 14.335938 37.691406 14.332031 37.699219 14.324219 C 38.578125 13.480469 39.753906 12.949219 41.066406 12.949219 C 43.761719 12.949219 45.953125 15.152344 45.953125 17.867188 C 45.953125 19.128906 45.46875 20.265625 44.695312 21.132812 Z M 42.398438 21.8125 L 40.199219 19.601562 L 25.84375 34.050781 C 25.847656 34.054688 25.851562 34.058594 25.855469 34.0625 L 27.296875 37.011719 Z M 19.570312 39.523438 L 21.261719 39.046875 L 20.042969 37.820312 Z M 20.410156 36.5 L 22.570312 38.675781 L 26.289062 37.628906 C 26.289062 37.628906 24.71875 34.34375 24.714844 34.34375 L 21.449219 32.757812 Z M 24.992188 33.195312 C 25 33.199219 25 33.203125 25.003906 33.207031 L 39.363281 18.753906 L 37.164062 16.542969 L 22.0625 31.746094 Z M 41.046875 14.171875 C 39.964844 14.171875 38.996094 14.644531 38.320312 15.390625 L 38.316406 15.386719 L 38.003906 15.699219 L 43.238281 20.96875 L 43.558594 20.644531 L 43.554688 20.640625 C 44.289062 19.960938 44.753906 18.992188 44.753906 17.90625 C 44.753906 15.84375 43.09375 14.171875 41.046875 14.171875 Z M 41.046875 14.171875 "/>
</g>
</svg>
