<?xml version="1.0" encoding="UTF-8"?>
<svg xmlns="http://www.w3.org/2000/svg" xmlns:xlink="http://www.w3.org/1999/xlink" width="75px" height="63px" viewBox="0 0 75 63" version="1.1">
<g id="surface1">
<path style=" stroke:none;fill-rule:nonzero;fill:rgb(100%,88.235294%,88.627451%);fill-opacity:1;" d="M 54.796875 6.257812 L 67.3125 28.023438 C 68.335938 29.820312 68.335938 32.027344 67.3125 33.824219 L 54.800781 55.578125 C 53.746094 57.324219 51.851562 58.386719 49.8125 58.375 L 24.769531 58.375 C 22.714844 58.375 20.8125 57.28125 19.773438 55.503906 C 19.773438 55.5 19.773438 55.5 19.773438 55.5 L 7.257812 33.738281 C 6.226562 31.945312 6.226562 29.738281 7.257812 27.945312 L 19.773438 6.183594 C 20.816406 4.421875 22.714844 3.347656 24.761719 3.363281 L 49.804688 3.363281 C 51.863281 3.363281 53.769531 4.46875 54.796875 6.257812 Z M 54.796875 6.257812 "/>
<path style=" stroke:none;fill-rule:nonzero;fill:rgb(93.72549%,58.823529%,60%);fill-opacity:1;" d="M 52.515625 9.140625 L 63.554688 28.339844 C 63.554688 28.339844 63.558594 28.339844 63.558594 28.339844 C 64.460938 29.925781 64.460938 31.871094 63.558594 33.457031 C 63.558594 33.457031 63.554688 33.457031 63.554688 33.457031 L 52.519531 52.644531 C 51.589844 54.1875 49.917969 55.125 48.117188 55.113281 L 26.027344 55.113281 C 24.214844 55.113281 22.535156 54.148438 21.621094 52.578125 L 10.582031 33.382812 L 10.582031 33.378906 C 9.671875 31.800781 9.671875 29.851562 10.582031 28.269531 L 21.621094 9.074219 C 22.542969 7.519531 24.21875 6.574219 26.019531 6.585938 L 48.113281 6.585938 C 49.929688 6.585938 51.609375 7.558594 52.515625 9.140625 Z M 52.515625 9.140625 "/>
<path style=" stroke:none;fill-rule:evenodd;fill:rgb(87.45098%,17.647059%,20%);fill-opacity:1;" d="M 52.375 24.65625 C 52.34375 24.726562 52.304688 24.792969 52.246094 24.851562 L 32.386719 44.753906 C 32.308594 44.886719 32.199219 45.003906 32.046875 45.0625 L 22.1875 47.828125 C 22.167969 47.839844 22.144531 47.839844 22.121094 47.847656 L 22.089844 47.859375 C 22.082031 47.859375 22.074219 47.859375 22.070312 47.859375 C 22.003906 47.878906 21.9375 47.894531 21.867188 47.894531 C 21.796875 47.894531 21.734375 47.882812 21.667969 47.863281 C 21.652344 47.859375 21.636719 47.863281 21.625 47.855469 C 21.617188 47.855469 21.613281 47.851562 21.609375 47.847656 C 21.546875 47.824219 21.492188 47.789062 21.4375 47.746094 C 21.410156 47.726562 21.378906 47.710938 21.355469 47.6875 C 21.332031 47.664062 21.316406 47.632812 21.296875 47.605469 C 21.253906 47.550781 21.21875 47.496094 21.195312 47.433594 C 21.191406 47.429688 21.1875 47.425781 21.1875 47.417969 C 21.179688 47.40625 21.183594 47.390625 21.179688 47.375 C 21.164062 47.308594 21.148438 47.246094 21.152344 47.175781 C 21.152344 47.105469 21.164062 47.039062 21.183594 46.972656 C 21.1875 46.964844 21.183594 46.960938 21.1875 46.953125 L 21.195312 46.917969 C 21.203125 46.898438 21.203125 46.875 21.214844 46.851562 L 23.976562 36.976562 C 24.035156 36.820312 24.152344 36.714844 24.285156 36.636719 L 43.839844 17.039062 C 43.871094 17.007812 43.902344 16.980469 43.933594 16.949219 L 44.144531 16.734375 C 44.15625 16.726562 44.167969 16.722656 44.179688 16.710938 C 45.207031 15.726562 46.585938 15.105469 48.121094 15.105469 C 51.285156 15.105469 53.847656 17.675781 53.847656 20.84375 C 53.847656 22.316406 53.285156 23.640625 52.375 24.65625 Z M 49.6875 25.445312 L 47.109375 22.867188 L 30.285156 39.726562 C 30.289062 39.730469 30.296875 39.734375 30.300781 39.738281 L 31.988281 43.179688 Z M 22.933594 46.109375 L 24.914062 45.554688 L 23.488281 44.125 Z M 23.917969 42.582031 L 26.449219 45.121094 L 30.804688 43.898438 C 30.804688 43.898438 28.964844 40.066406 28.960938 40.066406 L 25.136719 38.21875 Z M 29.289062 38.730469 C 29.292969 38.730469 29.296875 38.738281 29.300781 38.742188 L 46.128906 21.882812 L 43.550781 19.300781 L 25.855469 37.035156 Z M 48.101562 16.53125 C 46.832031 16.53125 45.699219 17.085938 44.90625 17.953125 L 44.902344 17.949219 L 44.535156 18.316406 L 50.667969 24.460938 L 51.042969 24.085938 L 51.039062 24.082031 C 51.898438 23.285156 52.449219 22.15625 52.449219 20.890625 C 52.449219 18.484375 50.5 16.53125 48.101562 16.53125 Z M 48.101562 16.53125 "/>
</g>
</svg>
